<svg id="abc204e0-0cf0-4263-912e-9567c41f6205" data-name="Layer 1" xmlns="http://www.w3.org/2000/svg" width="790.44317" height="653.66142" viewBox="0 0 790.44317 653.66142"><title>instant_information</title><ellipse cx="568.69426" cy="642.65638" rx="221.74891" ry="11.00504" fill="#d0cde1"/><path d="M485.19405,206.27756a144.06218,144.06218,0,0,0-232.55959-21.48331L243.363,176.6927A156.35033,156.35033,0,0,1,495.78931,200.006Z" transform="translate(-204.77841 -123.16929)" fill="#d0cde1"/><path d="M490.99607,366.66922l-10.21772-6.87033a144.13333,144.13333,0,0,0,4.4157-153.52133l10.59526-6.27155a156.44705,156.44705,0,0,1-4.79324,166.66321Z" transform="translate(-204.77841 -123.16929)" fill="#6c63ff"/><path d="M244.64593,383.8222A156.341,156.341,0,0,1,243.363,176.6927l9.27146,8.10155a144.02963,144.02963,0,0,0,1.18193,190.81338Z" transform="translate(-204.77841 -123.16929)" fill="#3f3d56"/><path d="M361.144,435.90036a156.60526,156.60526,0,0,1-116.498-52.07816l9.17046-8.21457a144.05733,144.05733,0,0,0,226.962-15.80874l10.21772,6.87033A156.2618,156.2618,0,0,1,361.144,435.90036Z" transform="translate(-204.77841 -123.16929)" fill="#6c63ff"/><polygon points="431.844 319.583 263.532 319.583 263.532 245.784 266.122 245.784 266.122 316.993 431.844 316.993 431.844 319.583" fill="#3f3d56"/><circle cx="264.8268" cy="257.74174" r="14.24181" fill="#3f3d56"/><rect x="391.13243" y="342.5094" width="77.6826" height="2.58942" fill="#6c63ff"/><rect x="391.13243" y="350.27766" width="77.6826" height="2.58942" fill="#6c63ff"/><rect x="391.13243" y="358.04592" width="77.6826" height="2.58942" fill="#6c63ff"/><path d="M756.71254,529.83521,748.37505,558.511s-.75635,14.31978,19.0477,13.38242l-2.40016-13.1378,9.361-24.02024Z" transform="translate(-204.77841 -123.16929)" fill="#a0616a"/><polygon points="577.917 240.193 586.444 266.839 573.653 290.288 573.653 316.935 590.707 316.935 614.156 261.51 601.366 233.797 577.917 240.193" fill="#a0616a"/><polygon points="593.905 300.947 570.456 300.947 568.324 331.857 565.126 368.096 603.498 358.504 593.905 300.947" fill="#d0cde1"/><polygon points="553.402 455.497 533.151 518.383 511.833 611.113 532.085 617.509 562.995 530.108 585.378 483.21 590.707 535.437 598.168 621.772 618.42 624.97 618.42 533.305 632.276 455.497 553.402 455.497" fill="#a0616a"/><path d="M824.79688,736.94745l-23.449-5.32933-14.9221,20.25143s-31.59839,15.33466-19.18556,15.988c20.25143,1.06586,60.22134,0,60.22134-2.13173S824.79688,736.94745,824.79688,736.94745Z" transform="translate(-204.77841 -123.16929)" fill="#2f2e41"/><path d="M739.52772,736.94745l-23.449-5.32933L701.1566,751.86955s-31.59838,15.33466-19.18556,15.988c20.25143,1.06586,60.22135,0,60.22135-2.13173S739.52772,736.94745,739.52772,736.94745Z" transform="translate(-204.77841 -123.16929)" fill="#2f2e41"/><path d="M814.67117,473.146l-47.9639,7.46105L753.50783,582.93s10.00185,9.59278,35.58259,3.19759v3.1976s38.37112-18.1197,47.9639,0l.65682-2.8462a153.46975,153.46975,0,0,0-6.365-90.66259C826.16252,482.63885,820.267,472.34659,814.67117,473.146Z" transform="translate(-204.77841 -123.16929)" fill="#2f2e41"/><circle cx="582.71321" cy="220.47417" r="26.64661" fill="#a0616a"/><path d="M818.93463,370.823l-31.97594,63.95187s-5.32932,23.449,8.52692,47.9639c7.8395,13.86989,26.68255,43.15695,41.56865,65.97613,11.42492,17.51347-3.71577,31.21711-3.71577,31.21711l54.87733-7.66062L855.174,473.146l-4.26346-85.26916-22.38315-6.39518Z" transform="translate(-204.77841 -123.16929)" fill="#575a89"/><path d="M837.05432,483.80464l-24.51488,17.05383s-9.59278,10.65864,6.39519,22.38315l6.39518-11.72451L847.713,498.72674Z" transform="translate(-204.77841 -123.16929)" fill="#a0616a"/><path d="M752.851,586.12762l38.904-196.652-14.91837,8.951a20.58625,20.58625,0,0,0-9.92606,15.97276Z" transform="translate(-204.77841 -123.16929)" fill="#575a89"/><polygon points="583.779 462.425 584.845 484.809 581.647 491.204 583.779 462.425" fill="#2f2e41" opacity="0.2"/><path d="M837.05432,388.9427h13.85624a18.18948,18.18948,0,0,1,9.59278,11.72451c2.13173,8.52691,9.59278,45.83217,9.59278,45.83217l4.26346,21.31729L847.713,505.12192l-15.988-19.18556,13.85624-20.25142-20.25143-50.09563S822.13222,394.272,837.05432,388.9427Z" transform="translate(-204.77841 -123.16929)" fill="#575a89"/><polygon points="625.077 303.614 640.27 341.983 626.414 362.234 637.072 341.983 625.077 303.614" fill="#2f2e41" opacity="0.2"/><ellipse cx="593.90479" cy="225.80349" rx="2.66466" ry="4.26346" fill="#a0616a"/><path d="M812.54555,364.27586h0a33.67212,33.67212,0,0,1-21.62032-3.19874l-6.45262-3.33805-1.36462-7.34739a4.56174,4.56174,0,0,0-7.23587-2.806h0s-24.89736-25.59207-3.385-36.30225,25.66188-6.44485,25.66188-6.44485-5.61051-39.24628,24.38653-31.38817,21.72176,44.64735-1.59886,45.62131C820.93662,319.07172,840.85008,353.98285,812.54555,364.27586Z" transform="translate(-204.77841 -123.16929)" fill="#2f2e41"/><path d="M801.83786,307.41511S783.20753,272.42,814.0886,269.60186a28.7924,28.7924,0,0,1,13.245,1.64391c-4.17672-2.31783-9.492-3.51465-15.97486-2.923C780.47764,271.14086,799.108,306.136,799.108,306.136Z" transform="translate(-204.77841 -123.16929)" fill="#2f2e41"/><path d="M944.73481,761.43136s10.1994-34.3171-28.5878-53.85511Z" transform="translate(-204.77841 -123.16929)" fill="#d0cde1"/><path d="M946.00585,761.61455s4.04294-33.86919,49.21574-35.99231Z" transform="translate(-204.77841 -123.16929)" fill="#d0cde1"/></svg>