<?xml version="1.0" encoding="UTF-8"?><svg xmlns="http://www.w3.org/2000/svg" viewBox="0 0 1673.94 1012.83"><defs><style>.cls-1{fill:none;}.cls-2{fill:#000091;}.cls-3{fill:#92918f;}.cls-4{fill:#e1000f;}.cls-5{fill:#222221;}</style></defs><g id="CREA"><path class="cls-5" d="M96.26,274.17h-12.78v-63h15.93l15.39,26.46,15.39-26.46h15.93v63h-12.78v-45.18l-14.04,23.58h-9l-14.04-23.58v45.18Z"/><path class="cls-5" d="M176.54,274.17h-12.78v-63h12.78v63Z"/><path class="cls-5" d="M207.05,274.17h-12.78v-63h16.38l28.17,45.54v-45.54h12.78v63h-16.38l-28.17-45.54v45.54Z"/><path class="cls-5" d="M282.11,274.17h-12.78v-63h12.78v63Z"/><path class="cls-5" d="M317.48,275.97c-4.92,0-9.29-.85-13.1-2.57-3.81-1.71-7.22-4.36-10.21-7.96l9.27-8.55c1.92,2.46,4.09,4.36,6.52,5.71,2.43,1.35,4.9,2.02,7.42,2.02s4.5-.64,5.94-1.93c1.44-1.29,2.16-3.04,2.16-5.27,0-1.74-.67-3.3-2.02-4.68-1.35-1.38-4.37-3.09-9.04-5.13-3.6-1.56-6.24-2.85-7.92-3.87-1.68-1.02-3.12-2.1-4.32-3.24-1.8-1.68-3.14-3.58-4-5.71-.87-2.13-1.31-4.51-1.31-7.15,0-5.16,1.94-9.5,5.81-13.01s8.71-5.26,14.54-5.26c4.32,0,8.32.89,12.01,2.66,3.69,1.77,7.03,4.42,10.04,7.96l-9.36,8.46c-2.04-2.64-4.11-4.62-6.21-5.94-2.1-1.32-4.23-1.98-6.39-1.98s-4.02.63-5.4,1.89c-1.38,1.26-2.07,2.85-2.07,4.77,0,1.74.68,3.27,2.03,4.59,1.35,1.32,4.33,3,8.96,5.04,3.6,1.56,6.25,2.85,7.96,3.87,1.71,1.02,3.16,2.1,4.36,3.24,1.8,1.74,3.13,3.69,4.01,5.85.87,2.16,1.3,4.56,1.3,7.2-.06,5.7-2.04,10.29-5.94,13.77-3.9,3.48-8.91,5.22-15.03,5.22Z"/><path class="cls-5" d="M364.46,274.17v-51.39h-19.44v-11.61h51.66v11.61h-19.44v51.39h-12.78Z"/><path class="cls-5" d="M408.02,274.17v-63h36.72v10.62h-23.94v14.94h20.34v10.62h-20.34v16.2h23.94v10.62h-36.72ZM432.41,205.77h-11.7l-11.61-12.15h13.14l10.17,12.15Z"/><path class="cls-5" d="M472.46,274.17h-12.78v-63h19.26c6.96,0,12.43,1.68,16.43,5.04,3.99,3.36,5.98,7.95,5.98,13.77,0,3.84-.89,7.15-2.65,9.94-1.77,2.79-4.28,4.94-7.52,6.43l19.71,27.81h-15.03l-16.83-25.47h-6.57v25.47ZM488.21,229.8c0-2.46-.76-4.41-2.29-5.85-1.53-1.44-3.62-2.16-6.25-2.16h-7.2v16.29h7.2c2.7,0,4.8-.73,6.3-2.21,1.5-1.47,2.25-3.49,2.25-6.08Z"/><path class="cls-5" d="M519.08,274.17v-63h36.72v10.62h-23.94v14.94h20.34v10.62h-20.34v16.2h23.94v10.62h-36.72Z"/><path class="cls-5" d="M141.71,334.67c0,8.88-3.18,16.35-9.54,22.41-6.36,6.06-14.34,9.09-23.94,9.09h-24.75v-63h24.75c9.6,0,17.58,3.03,23.94,9.09,6.36,6.06,9.54,13.53,9.54,22.41ZM108.41,314.78h-12.15v39.78h12.15c5.76,0,10.56-1.9,14.4-5.72,3.84-3.81,5.76-8.53,5.76-14.17s-1.91-10.44-5.71-14.22c-3.81-3.78-8.63-5.67-14.44-5.67Z"/><path class="cls-5" d="M154.13,366.17v-63h36.72v10.62h-23.94v14.94h20.34v10.62h-20.34v16.2h23.94v10.62h-36.72Z"/><path class="cls-5" d="M266,354.56v11.61h-36.72v-63h12.78v51.39h23.94Z"/><path class="cls-5" d="M285.71,366.17h-13.59l23.85-63h16.74l23.85,63h-13.59l-6.03-16.38h-25.2l-6.03,16.38ZM295.7,338.9h17.28l-8.64-23.67-8.64,23.67Z"/><path class="cls-5" d="M382.81,366.17v-51.39h-19.44v-11.61h51.66v11.61h-19.44v51.39h-12.78Z"/><path class="cls-5" d="M439.15,366.17h-12.78v-63h19.26c6.96,0,12.43,1.68,16.43,5.04,3.99,3.36,5.98,7.95,5.98,13.77,0,3.84-.89,7.15-2.65,9.94-1.77,2.79-4.28,4.94-7.52,6.43l19.71,27.81h-15.03l-16.83-25.47h-6.57v25.47ZM454.9,321.8c0-2.46-.76-4.41-2.29-5.85-1.53-1.44-3.62-2.16-6.25-2.16h-7.2v16.29h7.2c2.7,0,4.8-.73,6.3-2.21,1.5-1.47,2.25-3.49,2.25-6.08Z"/><path class="cls-5" d="M494.14,366.17h-13.59l23.85-63h16.74l23.85,63h-13.59l-6.03-16.38h-25.2l-6.03,16.38ZM504.13,338.9h17.28l-8.64-23.67-8.64,23.67Z"/><path class="cls-5" d="M567.58,366.17h-12.78v-63h16.38l28.17,45.54v-45.54h12.78v63h-16.38l-28.17-45.54v45.54Z"/><path class="cls-5" d="M647.5,367.97c-4.92,0-9.29-.85-13.1-2.57-3.81-1.71-7.22-4.36-10.21-7.96l9.27-8.55c1.92,2.46,4.09,4.36,6.52,5.71,2.43,1.35,4.9,2.02,7.42,2.02s4.5-.64,5.94-1.93c1.44-1.29,2.16-3.04,2.16-5.27,0-1.74-.67-3.3-2.02-4.68-1.35-1.38-4.37-3.09-9.04-5.13-3.6-1.56-6.24-2.85-7.92-3.87-1.68-1.02-3.12-2.1-4.32-3.24-1.8-1.68-3.14-3.58-4-5.71-.87-2.13-1.31-4.51-1.31-7.15,0-5.16,1.94-9.5,5.81-13.01s8.71-5.26,14.54-5.26c4.32,0,8.32.89,12.01,2.66,3.69,1.77,7.03,4.42,10.04,7.96l-9.36,8.46c-2.04-2.64-4.11-4.62-6.21-5.94-2.1-1.32-4.23-1.98-6.39-1.98s-4.02.63-5.4,1.89c-1.38,1.26-2.07,2.85-2.07,4.77,0,1.74.68,3.27,2.03,4.59,1.35,1.32,4.33,3,8.96,5.04,3.6,1.56,6.25,2.85,7.96,3.87,1.71,1.02,3.16,2.1,4.36,3.24,1.8,1.74,3.13,3.69,4.01,5.85.87,2.16,1.3,4.56,1.3,7.2-.06,5.7-2.04,10.29-5.94,13.77-3.9,3.48-8.91,5.22-15.03,5.22Z"/><path class="cls-5" d="M694.75,366.17h-12.78v-63h12.78v63Z"/><path class="cls-5" d="M725.44,366.17v-51.39h-19.44v-11.61h51.66v11.61h-19.44v51.39h-12.78Z"/><path class="cls-5" d="M781.78,366.17h-12.78v-63h12.78v63Z"/><path class="cls-5" d="M794.11,334.67c0-9.36,3.18-17.25,9.54-23.67,6.36-6.42,14.34-9.63,23.94-9.63s17.49,3.21,23.85,9.63c6.36,6.42,9.54,14.31,9.54,23.67s-3.18,17.25-9.54,23.67c-6.36,6.42-14.31,9.63-23.85,9.63s-17.58-3.21-23.94-9.63c-6.36-6.42-9.54-14.31-9.54-23.67ZM807.25,334.67c0,6.12,1.92,11.21,5.76,15.25,3.84,4.05,8.7,6.08,14.58,6.08s10.65-2.03,14.49-6.08c3.84-4.05,5.76-9.13,5.76-15.25s-1.92-11.21-5.76-15.25c-3.84-4.05-8.67-6.08-14.49-6.08s-10.74,2.03-14.58,6.08c-3.84,4.05-5.76,9.13-5.76,15.25Z"/><path class="cls-5" d="M886.09,366.17h-12.78v-63h16.38l28.17,45.54v-45.54h12.78v63h-16.38l-28.17-45.54v45.54Z"/><path class="cls-5" d="M971.86,366.17v-63h36.72v10.62h-23.94v14.94h20.34v10.62h-20.34v16.2h23.94v10.62h-36.72ZM1007.59,285.62l-11.7,12.15h-11.61l10.17-12.15h13.14Z"/><path class="cls-5" d="M1029.82,334.67c0,6.12,1.92,11.21,5.76,15.25s8.7,6.08,14.58,6.08c3.36,0,6.46-.75,9.32-2.25,2.85-1.5,5.23-3.63,7.16-6.39l10.08,7.74c-3,4.08-6.81,7.25-11.43,9.5-4.62,2.25-9.66,3.38-15.12,3.38-9.6,0-17.58-3.21-23.94-9.63-6.36-6.42-9.54-14.31-9.54-23.67s3.18-17.25,9.54-23.67c6.36-6.42,14.34-9.63,23.94-9.63,5.4,0,10.41,1.11,15.03,3.33,4.62,2.22,8.46,5.37,11.52,9.45l-10.08,7.83c-1.92-2.76-4.31-4.89-7.16-6.39-2.85-1.5-5.96-2.25-9.32-2.25-5.88,0-10.74,2.03-14.58,6.08s-5.76,9.13-5.76,15.25Z"/><path class="cls-5" d="M1082.02,334.67c0-9.36,3.18-17.25,9.54-23.67,6.36-6.42,14.34-9.63,23.94-9.63s17.49,3.21,23.85,9.63c6.36,6.42,9.54,14.31,9.54,23.67s-3.18,17.25-9.54,23.67c-6.36,6.42-14.31,9.63-23.85,9.63s-17.58-3.21-23.94-9.63c-6.36-6.42-9.54-14.31-9.54-23.67ZM1095.16,334.67c0,6.12,1.92,11.21,5.76,15.25s8.7,6.08,14.58,6.08,10.65-2.03,14.49-6.08c3.84-4.05,5.76-9.13,5.76-15.25s-1.92-11.21-5.76-15.25c-3.84-4.05-8.67-6.08-14.49-6.08s-10.74,2.03-14.58,6.08-5.76,9.13-5.76,15.25Z"/><path class="cls-5" d="M1197.94,354.56v11.61h-36.72v-63h12.78v51.39h23.94Z"/><path class="cls-5" d="M1201.63,334.67c0-9.36,3.18-17.25,9.54-23.67,6.36-6.42,14.34-9.63,23.94-9.63s17.49,3.21,23.85,9.63c6.36,6.42,9.54,14.31,9.54,23.67s-3.18,17.25-9.54,23.67c-6.36,6.42-14.31,9.63-23.85,9.63s-17.58-3.21-23.94-9.63c-6.36-6.42-9.54-14.31-9.54-23.67ZM1214.77,334.67c0,6.12,1.92,11.21,5.76,15.25s8.7,6.08,14.58,6.08,10.65-2.03,14.49-6.08c3.84-4.05,5.76-9.13,5.76-15.25s-1.92-11.21-5.76-15.25c-3.84-4.05-8.67-6.08-14.49-6.08s-10.74,2.03-14.58,6.08-5.76,9.13-5.76,15.25Z"/><path class="cls-5" d="M1290.18,334.67c0,6.12,2.01,11.21,6.03,15.25,4.02,4.05,9.09,6.08,15.21,6.08,2.88,0,5.58-.48,8.1-1.44,2.52-.96,4.71-2.31,6.57-4.05v-10.98h-16.02v-10.89h28.8v26.46c-3.06,4.08-6.98,7.25-11.75,9.5-4.77,2.25-10.01,3.38-15.71,3.38-4.74,0-9.2-.81-13.37-2.43-4.17-1.62-7.82-3.93-10.93-6.93-3.24-3.12-5.73-6.75-7.47-10.89-1.74-4.14-2.61-8.49-2.61-13.05,0-9.36,3.18-17.25,9.54-23.67,6.36-6.42,14.34-9.63,23.94-9.63,5.4,0,10.41,1.11,15.03,3.33,4.62,2.22,8.46,5.37,11.52,9.45l-10.08,7.83c-1.92-2.76-4.31-4.89-7.16-6.39-2.85-1.5-5.96-2.25-9.32-2.25-5.88,0-10.74,2.03-14.58,6.08s-5.76,9.13-5.76,15.25Z"/><path class="cls-5" d="M1365.96,366.17h-12.78v-63h12.78v63Z"/><path class="cls-5" d="M1378.29,334.67c0-9.36,3.18-17.25,9.54-23.67,6.36-6.42,14.34-9.63,23.94-9.63s17.49,3.21,23.85,9.63c6.36,6.42,9.54,14.31,9.54,23.67,0,5.4-1.11,10.38-3.33,14.94-2.22,4.56-5.25,8.34-9.09,11.34l3.78,3.6c2.22,2.04,4.42,3.56,6.62,4.54,2.19.99,4.39,1.49,6.62,1.49.84,0,1.65-.06,2.43-.18.78-.12,1.47-.3,2.07-.54v10.8c-1.08.42-2.13.72-3.15.9-1.02.18-2.19.27-3.51.27-3.42,0-6.77-.69-10.04-2.07-3.27-1.38-6.5-3.45-9.67-6.21l-7.47-6.66c-1.38.36-2.79.63-4.23.81-1.44.18-2.91.27-4.41.27-9.6,0-17.58-3.21-23.94-9.63-6.36-6.42-9.54-14.31-9.54-23.67ZM1391.43,334.67c0,6.12,1.92,11.21,5.76,15.25s8.7,6.08,14.58,6.08,10.65-2.03,14.49-6.08c3.84-4.05,5.76-9.13,5.76-15.25s-1.92-11.21-5.76-15.25c-3.84-4.05-8.67-6.08-14.49-6.08s-10.74,2.03-14.58,6.08-5.76,9.13-5.76,15.25Z"/><path class="cls-5" d="M1481.97,356c3.96,0,7.06-1.18,9.31-3.55,2.25-2.37,3.38-5.65,3.38-9.86v-39.42h12.78v38.34c0,8.22-2.27,14.69-6.79,19.39-4.53,4.71-10.79,7.07-18.76,7.07s-14.15-2.35-18.68-7.07c-4.53-4.71-6.79-11.17-6.79-19.39v-38.34h12.78v39.42c0,4.2,1.12,7.49,3.38,9.86,2.25,2.37,5.38,3.55,9.41,3.55Z"/><path class="cls-5" d="M1523.37,366.17v-63h36.72v10.62h-23.94v14.94h20.34v10.62h-20.34v16.2h23.94v10.62h-36.72Z"/><path class="cls-5" d="M1589.79,353.66l-10.44,26.91h-10.62l8.19-26.91h12.87Z"/><path class="cls-5" d="M141.71,426.67c0,8.88-3.18,16.35-9.54,22.41-6.36,6.06-14.34,9.09-23.94,9.09h-24.75v-63h24.75c9.6,0,17.58,3.03,23.94,9.09,6.36,6.06,9.54,13.53,9.54,22.41ZM108.41,406.78h-12.15v39.78h12.15c5.76,0,10.56-1.9,14.4-5.72,3.84-3.81,5.76-8.53,5.76-14.17s-1.91-10.44-5.71-14.22c-3.81-3.78-8.63-5.67-14.44-5.67Z"/><path class="cls-5" d="M154.13,458.17v-63h36.72v10.62h-23.94v14.94h20.34v10.62h-20.34v16.2h23.94v10.62h-36.72Z"/><path class="cls-5" d="M266,446.56v11.61h-36.72v-63h12.78v51.39h23.94Z"/><path class="cls-5" d="M285.71,458.17h-13.59l23.85-63h16.74l23.85,63h-13.59l-6.03-16.38h-25.2l-6.03,16.38ZM295.7,430.9h17.28l-8.64-23.67-8.64,23.67Z"/><path class="cls-5" d="M369.85,458.17v-63h18.54c6.54,0,11.7,1.52,15.48,4.54,3.78,3.03,5.67,7.21,5.67,12.55,0,2.64-.58,5.01-1.75,7.11-1.17,2.1-2.81,3.87-4.91,5.31,3.24,1.44,5.76,3.45,7.56,6.03,1.8,2.58,2.7,5.55,2.7,8.91,0,5.76-2.09,10.29-6.25,13.59-4.17,3.3-9.89,4.95-17.15,4.95h-19.89ZM396.4,412.81c0-2.22-.67-3.95-2.02-5.18-1.35-1.23-3.26-1.84-5.71-1.84h-6.03v14.22h6.03c2.46,0,4.36-.63,5.71-1.89,1.35-1.26,2.02-3.03,2.02-5.31ZM400,439.09c0-2.7-.84-4.78-2.52-6.25-1.68-1.47-4.02-2.21-7.02-2.21h-7.83v16.92h7.83c3,0,5.34-.75,7.02-2.25,1.68-1.5,2.52-3.57,2.52-6.21Z"/><path class="cls-5" d="M439.15,458.17h-12.78v-63h12.78v63Z"/><path class="cls-5" d="M451.48,426.67c0-9.36,3.18-17.25,9.54-23.67,6.36-6.42,14.34-9.63,23.94-9.63s17.49,3.21,23.85,9.63c6.36,6.42,9.54,14.31,9.54,23.67s-3.18,17.25-9.54,23.67c-6.36,6.42-14.31,9.63-23.85,9.63s-17.58-3.21-23.94-9.63c-6.36-6.42-9.54-14.31-9.54-23.67ZM464.62,426.67c0,6.12,1.92,11.21,5.76,15.25,3.84,4.05,8.7,6.08,14.58,6.08s10.65-2.03,14.49-6.08c3.84-4.05,5.76-9.13,5.76-15.25s-1.92-11.21-5.76-15.25c-3.84-4.05-8.67-6.08-14.49-6.08s-10.74,2.03-14.58,6.08c-3.84,4.05-5.76,9.13-5.76,15.25Z"/><path class="cls-5" d="M588.91,426.67c0,8.88-3.18,16.35-9.54,22.41-6.36,6.06-14.34,9.09-23.94,9.09h-24.75v-63h24.75c9.6,0,17.58,3.03,23.94,9.09,6.36,6.06,9.54,13.53,9.54,22.41ZM555.61,406.78h-12.15v39.78h12.15c5.76,0,10.56-1.9,14.4-5.72,3.84-3.81,5.76-8.53,5.76-14.17s-1.91-10.44-5.71-14.22c-3.81-3.78-8.63-5.67-14.44-5.67Z"/><path class="cls-5" d="M614.11,458.17h-12.78v-63h12.78v63Z"/><path class="cls-5" d="M647.77,458.17l-23.85-63h13.59l18.63,49.23,18.63-49.23h13.59l-23.85,63h-16.74Z"/><path class="cls-5" d="M698.17,458.17v-63h36.72v10.62h-23.94v14.94h20.34v10.62h-20.34v16.2h23.94v10.62h-36.72Z"/><path class="cls-5" d="M762.61,458.17h-12.78v-63h19.26c6.96,0,12.43,1.68,16.43,5.04,3.99,3.36,5.98,7.95,5.98,13.77,0,3.84-.89,7.15-2.65,9.94-1.77,2.79-4.28,4.94-7.52,6.43l19.71,27.81h-15.03l-16.83-25.47h-6.57v25.47ZM778.36,413.8c0-2.46-.76-4.41-2.29-5.85-1.53-1.44-3.62-2.16-6.25-2.16h-7.2v16.29h7.2c2.7,0,4.8-.73,6.3-2.21,1.5-1.47,2.25-3.49,2.25-6.08Z"/><path class="cls-5" d="M826.69,459.97c-4.92,0-9.29-.85-13.1-2.57-3.81-1.71-7.22-4.36-10.21-7.96l9.27-8.55c1.92,2.46,4.09,4.36,6.52,5.71,2.43,1.35,4.9,2.02,7.42,2.02s4.5-.64,5.94-1.93c1.44-1.29,2.16-3.04,2.16-5.27,0-1.74-.67-3.3-2.02-4.68-1.35-1.38-4.37-3.09-9.04-5.13-3.6-1.56-6.24-2.85-7.92-3.87-1.68-1.02-3.12-2.1-4.32-3.24-1.8-1.68-3.14-3.58-4-5.71-.87-2.13-1.31-4.51-1.31-7.15,0-5.16,1.94-9.5,5.81-13.01s8.71-5.26,14.54-5.26c4.32,0,8.32.89,12.01,2.66,3.69,1.77,7.03,4.42,10.04,7.96l-9.36,8.46c-2.04-2.64-4.11-4.62-6.21-5.94-2.1-1.32-4.23-1.98-6.39-1.98s-4.02.63-5.4,1.89c-1.38,1.26-2.07,2.85-2.07,4.77,0,1.74.68,3.27,2.03,4.59,1.35,1.32,4.33,3,8.96,5.04,3.6,1.56,6.25,2.85,7.96,3.87,1.71,1.02,3.16,2.1,4.36,3.24,1.8,1.74,3.13,3.69,4.01,5.85.87,2.16,1.3,4.56,1.3,7.2-.06,5.7-2.04,10.29-5.94,13.77-3.9,3.48-8.91,5.22-15.03,5.22Z"/><path class="cls-5" d="M873.94,458.17h-12.78v-63h12.78v63Z"/><path class="cls-5" d="M904.63,458.17v-51.39h-19.44v-11.61h51.66v11.61h-19.44v51.39h-12.78Z"/><path class="cls-5" d="M948.19,458.17v-63h36.72v10.62h-23.94v14.94h20.34v10.62h-20.34v16.2h23.94v10.62h-36.72ZM983.92,377.62l-11.7,12.15h-11.61l10.17-12.15h13.14Z"/><path class="cls-5" d="M83.48,550.17v-63h36.72v10.62h-23.94v14.94h20.34v10.62h-20.34v16.2h23.94v10.62h-36.72Z"/><path class="cls-5" d="M149.45,550.17v-51.39h-19.44v-11.61h51.66v11.61h-19.44v51.39h-12.78Z"/><path class="cls-5" d="M274.73,518.67c0,8.88-3.18,16.35-9.54,22.41-6.36,6.06-14.34,9.09-23.94,9.09h-24.75v-63h24.75c9.6,0,17.58,3.03,23.94,9.09,6.36,6.06,9.54,13.53,9.54,22.41ZM241.43,498.78h-12.15v39.78h12.15c5.76,0,10.56-1.9,14.4-5.72,3.84-3.81,5.76-8.53,5.76-14.17s-1.91-10.44-5.71-14.22c-3.81-3.78-8.63-5.67-14.44-5.67Z"/><path class="cls-5" d="M287.15,550.17v-63h36.72v10.62h-23.94v14.94h20.34v10.62h-20.34v16.2h23.94v10.62h-36.72Z"/><path class="cls-5" d="M356.45,551.97c-4.92,0-9.29-.85-13.1-2.57-3.81-1.71-7.22-4.36-10.21-7.96l9.27-8.55c1.92,2.46,4.09,4.36,6.52,5.71,2.43,1.35,4.9,2.02,7.42,2.02s4.5-.64,5.94-1.93c1.44-1.29,2.16-3.04,2.16-5.27,0-1.74-.67-3.3-2.02-4.68-1.35-1.38-4.37-3.09-9.04-5.13-3.6-1.56-6.24-2.85-7.92-3.87-1.68-1.02-3.12-2.1-4.32-3.24-1.8-1.68-3.14-3.58-4-5.71-.87-2.13-1.31-4.51-1.31-7.15,0-5.16,1.94-9.5,5.81-13.01s8.71-5.26,14.54-5.26c4.32,0,8.32.89,12.01,2.66,3.69,1.77,7.03,4.42,10.04,7.96l-9.36,8.46c-2.04-2.64-4.11-4.62-6.21-5.94-2.1-1.32-4.23-1.98-6.39-1.98s-4.02.63-5.4,1.89c-1.38,1.26-2.07,2.85-2.07,4.77,0,1.74.68,3.27,2.03,4.59,1.35,1.32,4.33,3,8.96,5.04,3.6,1.56,6.25,2.85,7.96,3.87,1.71,1.02,3.16,2.1,4.36,3.24,1.8,1.74,3.13,3.69,4.01,5.85.87,2.16,1.3,4.56,1.3,7.2-.06,5.7-2.04,10.29-5.94,13.77-3.9,3.48-8.91,5.22-15.03,5.22Z"/><path class="cls-5" d="M427.19,550.17h-12.78v-63h16.38l28.17,45.54v-45.54h12.78v63h-16.38l-28.17-45.54v45.54Z"/><path class="cls-5" d="M489.46,550.17v-63h36.72v10.62h-23.94v14.94h20.34v10.62h-20.34v16.2h23.94v10.62h-36.72ZM525.19,469.62l-11.7,12.15h-11.61l10.17-12.15h13.14Z"/><path class="cls-5" d="M547.42,518.67c0,6.12,2.01,11.21,6.03,15.25,4.02,4.05,9.09,6.08,15.21,6.08,2.88,0,5.58-.48,8.1-1.44,2.52-.96,4.71-2.31,6.57-4.05v-10.98h-16.02v-10.89h28.8v26.46c-3.06,4.08-6.98,7.25-11.75,9.5s-10.01,3.38-15.71,3.38c-4.74,0-9.2-.81-13.37-2.43-4.17-1.62-7.82-3.93-10.93-6.93-3.24-3.12-5.73-6.75-7.47-10.89-1.74-4.14-2.61-8.49-2.61-13.05,0-9.36,3.18-17.25,9.54-23.67,6.36-6.42,14.34-9.63,23.94-9.63,5.4,0,10.41,1.11,15.03,3.33,4.62,2.22,8.46,5.37,11.52,9.45l-10.08,7.83c-1.92-2.76-4.31-4.89-7.15-6.39-2.85-1.5-5.96-2.25-9.31-2.25-5.88,0-10.74,2.03-14.58,6.08-3.84,4.05-5.76,9.13-5.76,15.25Z"/><path class="cls-5" d="M605.74,518.67c0-9.36,3.18-17.25,9.54-23.67,6.36-6.42,14.34-9.63,23.94-9.63s17.49,3.21,23.85,9.63c6.36,6.42,9.54,14.31,9.54,23.67s-3.18,17.25-9.54,23.67c-6.36,6.42-14.31,9.63-23.85,9.63s-17.58-3.21-23.94-9.63c-6.36-6.42-9.54-14.31-9.54-23.67ZM618.88,518.67c0,6.12,1.92,11.21,5.76,15.25,3.84,4.05,8.7,6.08,14.58,6.08s10.65-2.03,14.49-6.08c3.84-4.05,5.76-9.13,5.76-15.25s-1.92-11.21-5.76-15.25c-3.84-4.05-8.67-6.08-14.49-6.08s-10.74,2.03-14.58,6.08c-3.84,4.05-5.76,9.13-5.76,15.25Z"/><path class="cls-5" d="M694.3,518.67c0,6.12,1.92,11.21,5.76,15.25,3.84,4.05,8.7,6.08,14.58,6.08,3.36,0,6.46-.75,9.31-2.25,2.85-1.5,5.23-3.63,7.15-6.39l10.08,7.74c-3,4.08-6.81,7.25-11.43,9.5-4.62,2.25-9.66,3.38-15.12,3.38-9.6,0-17.58-3.21-23.94-9.63-6.36-6.42-9.54-14.31-9.54-23.67s3.18-17.25,9.54-23.67c6.36-6.42,14.34-9.63,23.94-9.63,5.4,0,10.41,1.11,15.03,3.33,4.62,2.22,8.46,5.37,11.52,9.45l-10.08,7.83c-1.92-2.76-4.31-4.89-7.15-6.39-2.85-1.5-5.96-2.25-9.31-2.25-5.88,0-10.74,2.03-14.58,6.08-3.84,4.05-5.76,9.13-5.76,15.25Z"/><path class="cls-5" d="M765.13,550.17h-12.78v-63h12.78v63Z"/><path class="cls-5" d="M788.53,550.17h-13.59l23.85-63h16.74l23.85,63h-13.59l-6.03-16.38h-25.2l-6.03,16.38ZM798.52,522.9h17.28l-8.64-23.67-8.64,23.67Z"/><path class="cls-5" d="M855.85,550.17v-51.39h-19.44v-11.61h51.66v11.61h-19.44v51.39h-12.78Z"/><path class="cls-5" d="M912.19,550.17h-12.78v-63h12.78v63Z"/><path class="cls-5" d="M924.52,518.67c0-9.36,3.18-17.25,9.54-23.67,6.36-6.42,14.34-9.63,23.94-9.63s17.49,3.21,23.85,9.63c6.36,6.42,9.54,14.31,9.54,23.67s-3.18,17.25-9.54,23.67c-6.36,6.42-14.31,9.63-23.85,9.63s-17.58-3.21-23.94-9.63c-6.36-6.42-9.54-14.31-9.54-23.67ZM937.66,518.67c0,6.12,1.92,11.21,5.76,15.25s8.7,6.08,14.58,6.08,10.65-2.03,14.49-6.08c3.84-4.05,5.76-9.13,5.76-15.25s-1.92-11.21-5.76-15.25c-3.84-4.05-8.67-6.08-14.49-6.08s-10.74,2.03-14.58,6.08-5.76,9.13-5.76,15.25Z"/><path class="cls-5" d="M1016.5,550.17h-12.78v-63h16.38l28.17,45.54v-45.54h12.78v63h-16.38l-28.17-45.54v45.54Z"/><path class="cls-5" d="M1096.42,551.97c-4.92,0-9.29-.85-13.09-2.57-3.81-1.71-7.22-4.36-10.22-7.96l9.27-8.55c1.92,2.46,4.09,4.36,6.52,5.71,2.43,1.35,4.91,2.02,7.43,2.02s4.5-.64,5.94-1.93c1.44-1.29,2.16-3.04,2.16-5.27,0-1.74-.67-3.3-2.03-4.68-1.35-1.38-4.36-3.09-9.04-5.13-3.6-1.56-6.24-2.85-7.92-3.87-1.68-1.02-3.12-2.1-4.32-3.24-1.8-1.68-3.14-3.58-4-5.71-.87-2.13-1.31-4.51-1.31-7.15,0-5.16,1.94-9.5,5.81-13.01,3.87-3.51,8.71-5.26,14.53-5.26,4.32,0,8.33.89,12.02,2.66,3.69,1.77,7.03,4.42,10.04,7.96l-9.36,8.46c-2.04-2.64-4.11-4.62-6.21-5.94-2.1-1.32-4.23-1.98-6.39-1.98s-4.02.63-5.4,1.89c-1.38,1.26-2.07,2.85-2.07,4.77,0,1.74.67,3.27,2.03,4.59,1.35,1.32,4.33,3,8.96,5.04,3.6,1.56,6.25,2.85,7.96,3.87,1.71,1.02,3.16,2.1,4.37,3.24,1.8,1.74,3.13,3.69,4,5.85.87,2.16,1.3,4.56,1.3,7.2-.06,5.7-2.04,10.29-5.94,13.77-3.9,3.48-8.91,5.22-15.03,5.22Z"/><path class="cls-5" d="M96.26,642.17h-12.78v-63h12.78v63Z"/><path class="cls-5" d="M126.77,642.17h-12.78v-63h16.38l28.17,45.54v-45.54h12.78v63h-16.38l-28.17-45.54v45.54Z"/><path class="cls-5" d="M202.01,642.17v-51.39h-19.44v-11.61h51.66v11.61h-19.44v51.39h-12.78Z"/><path class="cls-5" d="M245.57,642.17v-63h36.72v10.62h-23.94v14.94h20.34v10.62h-20.34v16.2h23.94v10.62h-36.72Z"/><path class="cls-5" d="M310.01,642.17h-12.78v-63h19.26c6.96,0,12.43,1.68,16.43,5.04,3.99,3.36,5.98,7.95,5.98,13.77,0,3.84-.89,7.15-2.65,9.94-1.77,2.79-4.28,4.94-7.52,6.43l19.71,27.81h-15.03l-16.83-25.47h-6.57v25.47ZM325.76,597.8c0-2.46-.76-4.41-2.29-5.85-1.53-1.44-3.62-2.16-6.25-2.16h-7.2v16.29h7.2c2.7,0,4.8-.73,6.3-2.21,1.5-1.47,2.25-3.49,2.25-6.08Z"/><path class="cls-5" d="M369.41,642.17h-12.78v-63h16.38l28.17,45.54v-45.54h12.78v63h-16.38l-28.17-45.54v45.54Z"/><path class="cls-5" d="M437.35,642.17h-13.59l23.85-63h16.74l23.85,63h-13.59l-6.03-16.38h-25.2l-6.03,16.38ZM447.35,614.9h17.28l-8.64-23.67-8.64,23.67Z"/><path class="cls-5" d="M504.67,642.17v-51.39h-19.44v-11.61h51.66v11.61h-19.44v51.39h-12.78Z"/><path class="cls-5" d="M561.01,642.17h-12.78v-63h12.78v63Z"/><path class="cls-5" d="M573.34,610.67c0-9.36,3.18-17.25,9.54-23.67,6.36-6.42,14.34-9.63,23.94-9.63s17.49,3.21,23.85,9.63c6.36,6.42,9.54,14.31,9.54,23.67s-3.18,17.25-9.54,23.67c-6.36,6.42-14.31,9.63-23.85,9.63s-17.58-3.21-23.94-9.63c-6.36-6.42-9.54-14.31-9.54-23.67ZM586.48,610.67c0,6.12,1.92,11.21,5.76,15.25,3.84,4.05,8.7,6.08,14.58,6.08s10.65-2.03,14.49-6.08c3.84-4.05,5.76-9.13,5.76-15.25s-1.92-11.21-5.76-15.25c-3.84-4.05-8.67-6.08-14.49-6.08s-10.74,2.03-14.58,6.08c-3.84,4.05-5.76,9.13-5.76,15.25Z"/><path class="cls-5" d="M665.32,642.17h-12.78v-63h16.38l28.17,45.54v-45.54h12.78v63h-16.38l-28.17-45.54v45.54Z"/><path class="cls-5" d="M733.27,642.17h-13.59l23.85-63h16.74l23.85,63h-13.59l-6.03-16.38h-25.2l-6.03,16.38ZM743.26,614.9h17.28l-8.64-23.67-8.64,23.67Z"/><path class="cls-5" d="M830.65,630.56v11.61h-36.72v-63h12.78v51.39h23.94Z"/><path class="cls-5" d="M841.99,642.17v-63h36.72v10.62h-23.94v14.94h20.34v10.62h-20.34v16.2h23.94v10.62h-36.72Z"/><path class="cls-5" d="M911.29,643.97c-4.92,0-9.29-.85-13.09-2.57-3.81-1.71-7.22-4.36-10.22-7.96l9.27-8.55c1.92,2.46,4.09,4.36,6.52,5.71,2.43,1.35,4.91,2.02,7.43,2.02s4.5-.64,5.94-1.93c1.44-1.29,2.16-3.04,2.16-5.27,0-1.74-.67-3.3-2.03-4.68-1.35-1.38-4.36-3.09-9.04-5.13-3.6-1.56-6.24-2.85-7.92-3.87-1.68-1.02-3.12-2.1-4.32-3.24-1.8-1.68-3.14-3.58-4-5.71-.87-2.13-1.31-4.51-1.31-7.15,0-5.16,1.94-9.5,5.81-13.01,3.87-3.51,8.71-5.26,14.53-5.26,4.32,0,8.33.89,12.02,2.66,3.69,1.77,7.03,4.42,10.04,7.96l-9.36,8.46c-2.04-2.64-4.11-4.62-6.21-5.94-2.1-1.32-4.23-1.98-6.39-1.98s-4.02.63-5.4,1.89c-1.38,1.26-2.07,2.85-2.07,4.77,0,1.74.67,3.27,2.03,4.59,1.35,1.32,4.33,3,8.96,5.04,3.6,1.56,6.25,2.85,7.96,3.87,1.71,1.02,3.16,2.1,4.37,3.24,1.8,1.74,3.13,3.69,4,5.85.87,2.16,1.3,4.56,1.3,7.2-.06,5.7-2.04,10.29-5.94,13.77-3.9,3.48-8.91,5.22-15.03,5.22Z"/><path class="cls-5" d="M101.12,735.97c-4.92,0-9.29-.85-13.1-2.57-3.81-1.71-7.22-4.36-10.21-7.96l9.27-8.55c1.92,2.46,4.09,4.36,6.52,5.71,2.43,1.35,4.9,2.02,7.42,2.02s4.5-.64,5.94-1.93c1.44-1.29,2.16-3.04,2.16-5.27,0-1.74-.67-3.3-2.02-4.68-1.35-1.38-4.37-3.09-9.04-5.13-3.6-1.56-6.24-2.85-7.92-3.87-1.68-1.02-3.12-2.1-4.32-3.24-1.8-1.68-3.14-3.58-4-5.71-.87-2.13-1.31-4.51-1.31-7.15,0-5.16,1.94-9.5,5.81-13.01s8.71-5.26,14.54-5.26c4.32,0,8.32.89,12.01,2.66,3.69,1.77,7.03,4.42,10.04,7.96l-9.36,8.46c-2.04-2.64-4.11-4.62-6.21-5.94-2.1-1.32-4.23-1.98-6.39-1.98s-4.02.63-5.4,1.89c-1.38,1.26-2.07,2.85-2.07,4.77,0,1.74.68,3.27,2.03,4.59,1.35,1.32,4.33,3,8.96,5.04,3.6,1.56,6.25,2.85,7.96,3.87,1.71,1.02,3.16,2.1,4.36,3.24,1.8,1.74,3.13,3.69,4.01,5.85.87,2.16,1.3,4.56,1.3,7.2-.06,5.7-2.04,10.29-5.94,13.77-3.9,3.48-8.91,5.22-15.03,5.22Z"/><path class="cls-5" d="M159.35,724c3.96,0,7.07-1.18,9.32-3.55,2.25-2.37,3.38-5.65,3.38-9.86v-39.42h12.78v38.34c0,8.22-2.27,14.69-6.79,19.39-4.53,4.71-10.79,7.07-18.77,7.07s-14.15-2.35-18.67-7.07c-4.53-4.71-6.79-11.17-6.79-19.39v-38.34h12.78v39.42c0,4.2,1.12,7.49,3.38,9.86,2.25,2.37,5.38,3.55,9.4,3.55Z"/><path class="cls-5" d="M213.53,734.17h-12.78v-63h19.26c6.96,0,12.43,1.68,16.43,5.04,3.99,3.36,5.98,7.95,5.98,13.77,0,3.84-.89,7.15-2.65,9.94-1.77,2.79-4.28,4.94-7.52,6.43l19.71,27.81h-15.03l-16.83-25.47h-6.57v25.47ZM229.28,689.8c0-2.46-.76-4.41-2.29-5.85-1.53-1.44-3.62-2.16-6.25-2.16h-7.2v16.29h7.2c2.7,0,4.8-.73,6.3-2.21,1.5-1.47,2.25-3.49,2.25-6.08Z"/><path class="cls-5" d="M320.36,722.56v11.61h-36.72v-63h12.78v51.39h23.94Z"/><path class="cls-5" d="M331.7,734.17v-63h36.72v10.62h-23.94v14.94h20.34v10.62h-20.34v16.2h23.94v10.62h-36.72Z"/><path class="cls-5" d="M414.58,702.67c0,6.12,1.92,11.21,5.76,15.25,3.84,4.05,8.7,6.08,14.58,6.08,3.36,0,6.46-.75,9.31-2.25,2.85-1.5,5.23-3.63,7.15-6.39l10.08,7.74c-3,4.08-6.81,7.25-11.43,9.5-4.62,2.25-9.66,3.38-15.12,3.38-9.6,0-17.58-3.21-23.94-9.63-6.36-6.42-9.54-14.31-9.54-23.67s3.18-17.25,9.54-23.67c6.36-6.42,14.34-9.63,23.94-9.63,5.4,0,10.41,1.11,15.03,3.33,4.62,2.22,8.46,5.37,11.52,9.45l-10.08,7.83c-1.92-2.76-4.31-4.89-7.15-6.39-2.85-1.5-5.96-2.25-9.31-2.25-5.88,0-10.74,2.03-14.58,6.08-3.84,4.05-5.76,9.13-5.76,15.25Z"/><path class="cls-5" d="M509.35,722.56v11.61h-36.72v-63h12.78v51.39h23.94Z"/><path class="cls-5" d="M533.47,734.17h-12.78v-63h12.78v63Z"/><path class="cls-5" d="M563.98,734.17h-12.78v-63h15.93l15.39,26.46,15.39-26.46h15.93v63h-12.78v-45.18l-14.04,23.58h-9l-14.04-23.58v45.18Z"/><path class="cls-5" d="M637.15,734.17h-13.59l23.85-63h16.74l23.85,63h-13.59l-6.03-16.38h-25.2l-6.03,16.38ZM647.14,706.9h17.28l-8.64-23.67-8.64,23.67Z"/><path class="cls-5" d="M704.47,734.17v-51.39h-19.44v-11.61h51.66v11.61h-19.44v51.39h-12.78Z"/><path class="cls-5" d="M771.52,734.17v-63h36.72v10.62h-23.94v14.94h20.34v10.62h-20.34v16.2h23.94v10.62h-36.72Z"/><path class="cls-5" d="M837.49,734.17v-51.39h-19.44v-11.61h51.66v11.61h-19.44v51.39h-12.78Z"/><path class="cls-5" d="M941.26,722.56v11.61h-36.72v-63h12.78v51.39h23.94Z"/><path class="cls-5" d="M960.97,734.17h-13.59l23.85-63h16.74l23.85,63h-13.59l-6.03-16.38h-25.2l-6.03,16.38ZM970.96,706.9h17.28l-8.64-23.67-8.64,23.67Z"/><path class="cls-5" d="M1057.89,734.17h-12.78v-63h16.38l28.17,45.54v-45.54h12.78v63h-16.38l-28.17-45.54v45.54Z"/><path class="cls-5" d="M1125.84,734.17h-13.59l23.85-63h16.74l23.85,63h-13.59l-6.03-16.38h-25.2l-6.03,16.38ZM1135.83,706.9h17.28l-8.64-23.67-8.64,23.67Z"/><path class="cls-5" d="M1193.16,734.17v-51.39h-19.44v-11.61h51.66v11.61h-19.44v51.39h-12.78Z"/><path class="cls-5" d="M1261.2,724c3.96,0,7.06-1.18,9.31-3.55,2.25-2.37,3.38-5.65,3.38-9.86v-39.42h12.78v38.34c0,8.22-2.27,14.69-6.79,19.39-4.53,4.71-10.79,7.07-18.76,7.07s-14.15-2.35-18.68-7.07c-4.53-4.71-6.79-11.17-6.79-19.39v-38.34h12.78v39.42c0,4.2,1.12,7.49,3.38,9.86,2.25,2.37,5.38,3.55,9.41,3.55Z"/><path class="cls-5" d="M1315.38,734.17h-12.78v-63h19.26c6.96,0,12.43,1.68,16.42,5.04,3.99,3.36,5.99,7.95,5.99,13.77,0,3.84-.89,7.15-2.66,9.94-1.77,2.79-4.28,4.94-7.52,6.43l19.71,27.81h-15.03l-16.83-25.47h-6.57v25.47ZM1331.13,689.8c0-2.46-.76-4.41-2.29-5.85-1.53-1.44-3.62-2.16-6.25-2.16h-7.2v16.29h7.2c2.7,0,4.8-.73,6.3-2.21,1.5-1.47,2.25-3.49,2.25-6.08Z"/><path class="cls-5" d="M1362,734.17v-63h36.72v10.62h-23.94v14.94h20.34v10.62h-20.34v16.2h23.94v10.62h-36.72Z"/><path class="cls-2" d="M178.95,157.76c.9-.9,1.81-1.87,2.71-2.84h-.02c1.68-1.91,3.33-3.72,5.29-5.39.59-.53,1.17-1,1.72-1.38.16-.16.16-.48.32-.63-.79.32-1.27.95-2.06,1.27-.16,0-.32-.16-.16-.32.56-.42,1.13-.85,1.69-1.27-.03,0-.07,0-.11,0-.16,0-.16-.16-.16-.32-2.06-.32-3.65,1.11-5.07,2.38-.32.16-.63-.16-.79-.16-2.38.79-4.12,2.85-6.5,3.8v-.32c-.95.32-1.87.89-2.85,1.11-1.43.32-2.69.16-3.96.16-1.92.19-3.84.62-5.76,1.03-.06.01-.11.03-.17.04-1.03.28-2,.67-2.95,1.19-.04.02-.07.04-.11.06-.08.1-.16.19-.23.27-.34.37-.63.72-1.09.95-.97.5-1.77,1.36-2.63,2.06-.06.05-.16.07-.25.08-.85.82-1.69,1.64-2.55,2.44-.06.06-.31.09-.48.06,0,0,.01,0,.01-.01.03-.05.06-.1.09-.15.13-.22.27-.45.41-.67.15-.25.31-.49.47-.74.22-.33.44-.65.67-.96.06-.08.04-.15,0-.21-.05-.05-.13-.08-.22-.08.79-.77,1.73-1.42,2.66-1.99,0,0,0-.02,0-.03-.11.04-.26-.05-.18-.16.1-.14.18-.29.27-.43.02-.05.03-.09.05-.14-.04-.04-.08-.08-.12-.13-.26.17-.53.32-.74.52-.38.34-.68,1.04-1.25,1.03-.04,0-.15,0-.24-.03-.07-.01-.13-.03-.17-.06,0-.01.01-.02.02-.04,0-.01.02-.03.02-.04,0-.01.02-.03.02-.04.02-.05.05-.09.08-.14.03-.05.05-.09.08-.14.02-.04.04-.07.06-.11.04-.07.07-.13.11-.2.03-.05.06-.1.08-.14.07-.12.14-.23.2-.35.03-.06.07-.11.1-.17.06-.1.11-.19.17-.29.08-.13,0-.24-.12-.28.29-.38.65-.7,1.09-.95h-.05c.61-.31,1.21-.68,1.82-1.02.09-.08.17-.15.26-.23-.9.3-1.72.71-2.52,1.24,0,0-.21.09-.27.14,0,0-.18.07-.4-.14-.02-.03-.04-.06-.04-.12.16-.32.63-.48.95-.79.16,0,.32,0,.32.16,5.07-3.96,12.04-3.01,17.91-5.07.48-.32.95-.63,1.43-.95.79-.32,1.43-1.11,2.38-1.58,1.27-.95,2.22-2.06,2.69-3.64,0-.16-.16-.32-.16-.32-2.06,2.22-4.44,3.96-6.97,5.23-3.33,1.74-6.97,1.43-10.46,1.9.16-.32.48-.32.79-.32,0-.48.32-.63.63-.95h.48c.16,0,.16-.32.32-.32.32,0,.79-.16.63-.16-.48-.63-1.43.48-2.22,0,.32-.32.16-.79.48-.95h.63c0-.32.32-.63.32-.63,2.38-1.43,4.6-2.54,6.81-3.8-.48,0-.79.48-1.27.16.32,0,0-.48.32-.48,1.74-.48,3.17-1.43,4.91-2.06-.63,0-1.11.48-1.74,0,.32-.16.48-.48.95-.48v-.48c0-.16.16-.16.32-.16-.16,0-.32-.16-.32-.16.16-.32.63-.16.95-.48-.16,0-.48,0-.48-.16.48-.63,1.27-.79,2.06-.95-.16-.32-.63,0-.63-.32,0-.16.16-.16.32-.16h-.32c-.32-.16-.16-.48-.16-.63.95-1.11.95-2.54,1.43-3.8-.16,0-.32,0-.32-.16-1.58,1.74-4.12,2.38-6.5,3.01h-.79c-.79.32-1.9.32-2.69-.16-.63-.32-.95-.79-1.58-1.27-1.27-.79-2.54-1.43-3.96-1.9-3.96-1.27-8.08-1.9-12.2-1.74,1.74-.95,3.67-1.03,5.55-1.58,2.69-.79,5.23-1.74,8.08-1.58-.48-.16-1.11,0-1.58,0-2.22-.16-4.44.48-6.81.95-1.58.32-3.01.95-4.6,1.27-.95.32-1.43,1.27-2.54,1.11v-.48c1.58-1.9,3.49-3.8,6.02-3.96,2.85-.48,5.55,0,8.4.32,2.06.16,3.96.63,6.02,1.11.79,0,.95,1.27,1.59,1.43.95.32,1.9,0,2.85.63,0-.32-.16-.63,0-.95.63-.63,1.43.16,2.06-.16,1.27-.79-1.11-2.22-1.74-3.33,0-.16.16-.32.16-.32,1.27,1.11,2.22,2.38,3.8,3.17.79.32,2.69.79,2.38-.16-.79-1.74-2.38-3.17-3.64-4.75v-.63c-.32,0-.32-.16-.48-.32v-.63c-.63-.32-.48-.95-.79-1.43-.48-.79-.16-1.9-.48-2.85-.32-.95-.48-1.74-.63-2.69-.48-2.69-1.11-5.07-1.43-7.61-.32-3.01,1.74-5.39,3.17-8.08,1.11-1.9,2.38-3.8,4.44-5.07.48-1.9,1.74-3.49,3.01-5.07,1.27-1.55,3.37-2.49,4.89-3.17,2.21-.99,4.21-1.61,4.21-1.61h-108.76v83.86h77.02c3.02-2.17,6.03-3.2,10.24-5.28,1.99-.98,6.54-3.07,8.08-4.61ZM154.58,146.41c-.32,0-.95.16-.79-.16.16-.79,1.27-.79,1.9-1.11.32-.16.79-.48,1.11-.32.32.48.79.32,1.11.63-.95.95-2.22.48-3.33.95ZM130.33,142.92s-.16-.16-.16-.32c2.06-2.69,3.64-5.23,5.07-8.08,2.06-1.11,3.77-2.72,5.39-4.44,2.69-2.85,5.55-5.39,8.87-6.97,1.27-.48,2.85-.32,4.12.16-.48.63-1.27.48-1.9.95-.16,0-.32,0-.48-.16.16-.16.16-.32.16-.48-1.58,1.74-3.8,2.54-5.07,4.6-.95,1.58-1.58,3.65-3.64,4.12-.63.16.16-.48-.16-.32-4.91,3.01-8.4,6.66-12.2,10.93ZM143.49,132.46c-.16.32-.33.35-.48.63-.16.32-.32.48-.63.63-.16,0-.32,0-.32-.16.16-.63.63-1.27,1.27-1.43.16,0,.16.16.16.32ZM150.85,156.2c-.07.17-.23.32-.39.46.2.04.34.13.21.25-.37.34-.72.68-1.2.84-.03.01-.13.03-.24.03-.19.19-.39.37-.59.55-.19.17-1.06.05-.79-.19.4-.36.77-.74,1.17-1.11.22-.2.46-.4.66-.63.11-.13.2-.25.34-.35.13-.09.97-.17.84.15ZM148.01,154.89s-.03.02-.04.03c-.59.42-1.18.84-1.81,1.21-.68.39-1.39.69-2.09,1.03,0-.01-.01-.03-.02-.04-.05-.07-.16-.12-.27-.06-.6.32-1.11.75-1.6,1.21-.07.07-.15.14-.22.21,0,0,0,0-.01.01,0,0,0,0-.01.01-.08.07-.15.15-.23.22,0,0-.02.02-.03.03,0,0,0,0,0,.01-.11.11-.22.23-.34.37-.08.09-.11.15-.21.22-.1.07-.37.06-.35-.12,0-.01,0-.02,0-.03-.09.05-.19.1-.28.14-.09.04-.17.09-.25.14-.03-.01-.07-.02-.11-.02-.04,0-.08.01-.11.04-.19.15-.39.31-.57.48-.33.3-.64.63-.92.98,0,0,0,0-.01.01-.01.01-.02.03-.03.04-.02.02-.03.04-.05.06-.02.02-.03.04-.05.07,0,0-.01.01-.02.02-.04.05-.07.11-.11.16,0,0,0,0,0,0-.03.03-.07.05-.13.06-.02-.03-.04-.06-.06-.09-.02-.02-.03-.05-.04-.08-.05-.08-.09-.17-.14-.25,0,0,0,0,0,0-.01-.03-.03-.05-.04-.08.17-.18.34-.38.5-.57.01-.01.02-.03.03-.04.06-.07.11-.14.16-.2.09-.11.18-.23.27-.34.03-.04.06-.08.1-.13.17-.23.34-.45.5-.67,0,0,0-.01.01-.02.02-.03.05-.07.07-.1.08-.11.15-.23.22-.34.06-.1.12-.21.17-.32,0,0,0-.02.01-.02,0-.01.01-.02.02-.03,0-.02.02-.04.03-.06.06-.12.11-.24.15-.37,0-.01,0-.03.01-.04.01-.03.02-.07.04-.1.02-.06.03-.12.05-.17h0s0-.03,0-.04c.02-.08.04-.15.06-.23,0-.04,0-.08-.02-.11.17-.3.38-.58.63-.86-.02.01-.05.03-.07.04-.23.15-.38.35-.59.51-.17.13-.49-.08-.29-.24.14-.1.24-.22.36-.33,0,0,0-.02.02-.03.26-.26.51-.59.81-.8.18-.13.34-.24.49-.37.02-.02.05-.04.07-.06.11-.15.23-.28.35-.4,0,0,.01-.01.02-.02,1.52-1.46,4.07-1.4,6.07-2.33.79-.32,1.74.16,2.54,0,.48,0,.95,0,1.43.32-1.42.78-2.74,1.65-4.04,2.47ZM151.25,143.87c-.16-.16.48,0,.63-.32h-1.27c-.16,0-.16-.16-.16-.32-.79.16-1.74.48-2.54.63-1.11.32-2.06,1.11-3.33,1.43-1.74.63-3.17,2.06-5.07,2.69-.16,0-.16-.16-.16-.32.16-.48.79-.63,1.11-1.11,0-.16,0-.32-.16-.32,1.27-1.74,3.01-2.69,4.6-4.12v-.48c.48-.63,1.27-.95,1.58-1.74.16-.48.79-1.11,1.58-1.43-.16-.16-.48-.16-.48-.48-.63,0-1.27.32-1.9-.16.3-.3.63-.46.99-.56-.14-.03-.26-.1-.36-.23-.16-.32.31-.67.79-.79.63-.16,1.43-.16,1.9-.63-1.11-.16-2.38.32-3.49-.32.79-2.06,2.06-3.8,3.96-4.75.16,0,.48,0,.48.16,0,.79-.48,1.43-1.27,1.58,1.27.32,2.54.32,3.8.95-.16.32-.48.16-.63.16.79.48,1.74.16,2.54.79-.48.48-.95,0-1.43,0,4.91,1.43,10.14,2.54,14.26,5.7-3.49,1.74-7.13,2.54-10.93,3.33-.48,0-.79,0-1.27-.16,0,.16,0,.48-.16.48-.63,0-1.11,0-1.58.32-.63.32-1.59.48-2.06,0Z"/><path class="cls-4" d="M314.23,83.78h-90.21s.17.03.86.4c.73.39,1.68.9,2.28,1.21,1.16.61,2.29,1.37,3.02,2.54.32.48.79,1.43.48,2.06-.32.79-.48,2.06-1.27,2.38-.95.48-2.22.48-3.33.32-.63,0-1.27-.16-1.9-.32,2.38.95,4.6,2.06,6.18,4.28.16.32.79.48,1.43.48.16,0,.16.32.16.48-.32.32-.63.48-.48.95h.48c.79-.32.63-1.9,1.74-1.43.79.48,1.11,1.58.63,2.38-.63.63-1.27,1.11-1.9,1.58-.16.32-.16.79,0,1.11.48.63.63,1.27.79,1.9.48,1.11.63,2.38,1.11,3.49.63,2.38,1.27,4.75,1.11,7.13,0,1.27-.63,2.38-.16,3.64.32,1.27,1.11,2.22,1.74,3.33.63.95,1.27,1.58,1.74,2.54.95,1.58,2.69,3.17,1.9,5.07-.48,1.11-2.22.95-3.33,1.58-.95.79-.16,2.06.32,2.85.79,1.43-.95,2.38-2.06,2.85.32.48.95.32,1.11.63.16.79.95,1.27.48,2.06-.63.95-2.54,1.43-1.58,2.85.63,1.11.22,2.34-.16,3.49-.48,1.43-1.74,2.06-2.85,2.38-.95.32-2.06.32-3.01.16-.32-.16-.63-.32-.95-.32-2.69-.32-5.39-1.11-8.08-1.11-.79.16-1.58.32-2.22.63-.72.53-1.35,1.1-1.92,1.7,0,0-.01.01-.02.02-.12.13-.23.25-.35.38-.07.08-.14.16-.2.24-.05.05-.09.11-.13.16-.46.58-.88,1.19-1.25,1.83-.02.04-.05.08-.07.12-.04.07-.08.15-.12.22-.52.96-.91,1.95-1.2,2.91-1.08,3.63-.61,6.74.15,7.5.21.21,5.23,1.76,8.73,3.32,1.64.73,2.79,1.29,3.74,1.89h88.59v-83.86Z"/><path class="cls-3" d="M229.39,114.38c.63.16,1.58.16,1.58.48-.32,1.27-2.22,1.58-3.17,2.85h-.48c-.48.32-.32,1.11-.79,1.11-.48-.16-.95,0-1.43.16.63.63,1.43,1.11,2.38.95.16,0,.48.32.48.63,0,0,.16,0,.32-.16.16,0,.32,0,.32.16v.63c-.48.63-1.27.32-1.9.48,1.27.32,2.54.32,3.64,0,.95-.32,0-1.9.63-2.69-.32,0,0-.48-.32-.48.32-.32.63-.79.95-.95.32,0,.79-.16.95-.48,0-.32-.63-.47-.48-.79.95-.63,1.74-1.58,1.43-2.54-.16-.48-1.43-.48-2.22-.79-.79-.32-1.74,0-2.69.16-.79,0-1.59.48-2.38.63-1.11.32-2.06.95-3.01,1.58,1.11-.48,2.22-.63,3.49-.95.95,0,1.76-.23,2.69,0Z"/><path class="cls-5" d="M288.52,907.69c1.71,0,3.2,1.3,2.41,4.58l-7.96,1.85c1.39-3.7,3.7-6.44,5.56-6.44M292.92,920.52h-1.57c-1.99,2.36-4.12,4.21-6.25,4.21s-3.29-1.3-3.29-4.21c0-1.2.14-2.41.37-3.52l12.83-4.21c2.5-5.93-.51-8.52-4.03-8.52-6.07,0-12.97,10.14-12.97,19.03,0,3.98,1.9,6.16,4.86,6.16,3.47,0,7.08-3.38,10.05-8.94M290.37,901.9l9.03-8.43v-.97h-4.86l-5.56,9.4h1.39ZM262.68,907.83h4.26l-6.76,18.48c-.6,1.57.23,3.15,1.85,3.15,3.84,0,10.05-3.8,12.23-8.98h-1.2c-1.71,1.81-5,4.21-7.83,4.72l6.21-17.37h6.34l.79-2.64h-6.16l2.36-6.67h-2.45l-4.4,6.67-5.23.74v1.9ZM256.94,906.95c.51-1.71-.65-2.69-1.53-2.69-3.7,0-8.1,3.33-9.86,8.01h1.2c1.2-1.71,3.24-3.61,5.14-3.94l-7.08,18.43c-.65,1.71.65,2.69,1.53,2.69,3.52,0,7.64-3.38,9.4-8.01h-1.2c-1.2,1.71-3.24,3.61-5.14,3.94l7.55-18.43ZM258.23,897.69c1.67,0,3.06-1.34,3.06-3.06s-1.39-3.06-3.06-3.06-3.06,1.39-3.06,3.06,1.34,3.06,3.06,3.06M217.44,926.03c-.93,2.08.05,3.43,2.08,3.43,1.25,0,1.81-.32,2.32-1.67l4.91-13.01c2.27-2.78,6.95-5.74,8.8-5.74,1.34,0,1.16,1.11.28,2.78l-7.55,14.49c-.74,1.44.23,3.15,1.85,3.15,3.7,0,8.1-3.33,9.86-8.01h-1.2c-1.2,1.71-3.24,3.61-5.14,3.94l6.48-13.1c.83-1.67,1.25-3.24,1.25-4.49,0-2.13-1.2-3.52-3.43-3.52-3.2,0-6.44,3.61-10.28,8.06v-3.43c0-2.45-.79-4.63-3.01-4.63-1.39,0-2.73,1.2-3.98,2.92v.46c2.41-.14,3.47,3.47,1.76,7.27l-5,11.11ZM217.35,909.91c.88-3.01.42-5.65-1.9-5.65-2.73,0-3.43,2.08-6.21,8.06v-3.43c0-2.45-.79-4.63-3.01-4.63-2.59,0-4.95,4.03-6.76,8.01h1.2c1.25-1.81,2.41-2.87,3.33-2.87,1.11,0,1.71,1.71,0,5.51l-5,11.11c-.93,2.08.05,3.43,2.08,3.43,1.25,0,1.81-.32,2.32-1.67l4.91-13.01c1.39-1.71,2.64-3.2,4.21-4.86h4.82ZM188.91,907.69c1.71,0,3.2,1.3,2.41,4.58l-7.96,1.85c1.39-3.7,3.7-6.44,5.56-6.44M193.31,920.52h-1.57c-1.99,2.36-4.12,4.21-6.25,4.21s-3.29-1.3-3.29-4.21c0-1.2.14-2.41.37-3.52l12.83-4.21c2.5-5.93-.51-8.52-4.03-8.52-6.07,0-12.97,10.14-12.97,19.03,0,3.98,1.9,6.16,4.86,6.16,3.47,0,7.08-3.38,10.05-8.94M163.08,907.83h4.26l-6.76,18.48c-.6,1.57.23,3.15,1.85,3.15,3.84,0,10.05-3.8,12.23-8.98h-1.2c-1.71,1.81-5,4.21-7.83,4.72l6.21-17.37h6.34l.79-2.64h-6.16l2.36-6.67h-2.45l-4.4,6.67-5.23.74v1.9ZM139.69,922.23c0-5.7,6.34-13.43,9.91-13.43.79,0,1.53.09,2.18.28l-3.7,9.86c-2.13,2.59-5.42,5.74-6.95,5.74-.88,0-1.44-.74-1.44-2.45M159.19,903.2l-1.94-.14-2.18,2.13h-.46c-10.56,0-19.68,11.85-19.68,20.47,0,2.41,1.48,3.8,3.8,3.8,2.73,0,5.42-3.89,8.43-8.06l-.14,1.48c-.37,4.26.93,6.58,3.15,6.58,2.59,0,4.95-4.03,6.76-8.01h-1.2c-1.25,1.81-2.41,2.87-3.33,2.87-.97,0-1.67-1.76,0-5.51l6.81-15.61ZM136.68,909.91c.88-3.01.42-5.65-1.9-5.65-2.73,0-3.43,2.08-6.21,8.06v-3.43c0-2.45-.79-4.63-3.01-4.63-2.59,0-4.95,4.03-6.76,8.01h1.2c1.25-1.81,2.41-2.87,3.33-2.87,1.11,0,1.71,1.71,0,5.51l-5,11.11c-.93,2.08.05,3.43,2.08,3.43,1.25,0,1.81-.32,2.32-1.67l4.91-13.01c1.39-1.71,2.64-3.2,4.21-4.86h4.82ZM101.21,928.53l.46-1.44c-6.16-1.16-6.95-1.16-4.49-7.87l2.5-6.9h6.81c3.06,0,3.1,1.25,2.64,4.58h1.76l4.08-11.16h-1.76c-1.53,2.64-2.73,4.58-6.07,4.58h-6.71l3.57-9.77c1.11-3.1,1.76-3.75,5.93-3.75h2.96c4.31,0,4.82,1.16,4.82,5.51h1.71l1.44-7.59h-25.56l-.46,1.44c4.95,1.02,5.42,1.48,3.1,7.87l-5.56,15.19c-2.32,6.34-3.29,6.85-8.98,7.87l-.42,1.44h18.24Z"/><path class="cls-5" d="M226.52,849.81c1.71,0,3.2,1.3,2.41,4.58l-7.96,1.85c1.39-3.7,3.7-6.44,5.56-6.44M230.91,862.63h-1.57c-1.99,2.36-4.12,4.21-6.25,4.21s-3.29-1.3-3.29-4.21c0-1.2.14-2.41.37-3.52l12.83-4.21c2.5-5.93-.51-8.52-4.03-8.52-6.07,0-12.97,10.14-12.97,19.03,0,3.98,1.9,6.16,4.86,6.16,3.47,0,7.08-3.38,10.05-8.94M228.37,844.02l9.03-8.43v-.97h-4.86l-5.56,9.4h1.39ZM200.68,849.95h4.26l-6.76,18.48c-.6,1.57.23,3.15,1.85,3.15,3.84,0,10.05-3.8,12.23-8.98h-1.2c-1.71,1.81-5,4.21-7.83,4.72l6.21-17.37h6.34l.79-2.64h-6.16l2.36-6.67h-2.45l-4.4,6.67-5.23.74v1.9ZM194.93,849.07c.51-1.71-.65-2.69-1.53-2.69-3.7,0-8.1,3.33-9.86,8.01h1.2c1.2-1.71,3.24-3.61,5.14-3.94l-7.08,18.43c-.65,1.71.65,2.69,1.53,2.69,3.52,0,7.64-3.38,9.4-8.01h-1.2c-1.2,1.71-3.24,3.61-5.14,3.94l7.55-18.43ZM196.23,839.81c1.67,0,3.06-1.34,3.06-3.06s-1.39-3.06-3.06-3.06-3.06,1.39-3.06,3.06,1.34,3.06,3.06,3.06M171.6,867.5l12.92-33.85-.42-.51-8.1.93v.97l1.57,1.2c1.44,1.11.97,2.18-.32,5.6l-10.09,26.58c-.74,1.44.23,3.15,1.85,3.15,3.7,0,7.64-3.33,9.4-8.01h-1.2c-1.2,1.71-3.7,3.61-5.6,3.94M147.05,864.35c0-5.7,6.34-13.43,9.91-13.43.79,0,1.53.09,2.18.28l-3.7,9.86c-2.13,2.59-5.42,5.74-6.95,5.74-.88,0-1.44-.74-1.44-2.45M166.55,845.32l-1.94-.14-2.18,2.13h-.46c-10.56,0-19.68,11.85-19.68,20.47,0,2.41,1.48,3.8,3.8,3.8,2.73,0,5.42-3.89,8.43-8.06l-.14,1.48c-.37,4.26.93,6.58,3.15,6.58,2.59,0,4.95-4.03,6.76-8.01h-1.2c-1.25,1.81-2.41,2.87-3.33,2.87-.97,0-1.67-1.76,0-5.51l6.81-15.61ZM119.41,876.06c0-2.45,2.36-3.98,5.74-5.33,1.11.56,2.78,1.16,5,1.9,3.52,1.16,4.86,1.62,4.86,2.69,0,2.27-3.84,3.98-9.08,3.98-4.4,0-6.53-.93-6.53-3.24M128.99,861.11c-1.53,0-2.13-1.3-2.13-2.78,0-4.12,2.22-10.19,5.7-10.19,1.53,0,2.13,1.3,2.13,2.78,0,4.12-2.22,10.19-5.7,10.19M139.04,873.79c0-2.96-2.64-4.03-6.95-5.33-3.7-1.11-5.37-1.44-5.37-2.64,0-.97.79-2.13,2.36-2.96,6.07-.32,10-5.79,10-10.37,0-.97-.19-1.81-.51-2.55h5.14l.79-2.64h-8.15c-.97-.6-2.13-.93-3.29-.93-6.44,0-10.6,5.65-10.6,10.23,0,3.47,2.22,5.65,4.91,6.16-3.01,1.34-4.68,2.92-4.68,4.77,0,1.07.37,1.81,1.25,2.5-6.95,2.04-9.68,4.35-9.68,7.64s4.21,4.54,9.22,4.54c8.47,0,15.56-4.58,15.56-8.43M106.67,853.98c3.06,0,3.1,1.25,2.64,4.58h1.76l4.08-11.16h-1.76c-1.53,2.64-2.73,4.58-6.07,4.58h-6.71l3.38-9.31c1.11-3.1,1.76-3.7,5.93-3.7h2.96c4.31,0,4.82,1.16,4.82,5.46h1.71l1.44-7.59h-25.56l-.46,1.44c4.95,1.02,5.42,1.48,3.1,7.87l-5.56,15.19c-2.32,6.34-3.29,6.85-8.98,7.87l-.42,1.44h28.43l5.09-8.06h-1.94c-3.24,3.06-7.32,5.97-13.01,5.97-7.55,0-6.85-.32-4.35-7.22l2.69-7.36h6.81ZM110.38,834.57l9.03-6.21v-.97h-5.46l-5,7.18h1.44Z"/><path class="cls-5" d="M223.5,791.92c1.71,0,3.2,1.3,2.41,4.58l-7.96,1.85c1.39-3.7,3.7-6.44,5.56-6.44M227.9,804.75h-1.57c-1.99,2.36-4.12,4.21-6.25,4.21s-3.29-1.3-3.29-4.21c0-1.2.14-2.41.37-3.52l12.83-4.21c2.5-5.93-.51-8.52-4.03-8.52-6.07,0-12.97,10.14-12.97,19.03,0,3.98,1.9,6.16,4.86,6.16,3.47,0,7.08-3.38,10.05-8.94M225.36,786.14l9.03-8.43v-.97h-4.86l-5.56,9.4h1.39ZM198.82,792.06h3.38l-6.76,18.48c-.6,1.57.23,3.15,1.85,3.15,3.84,0,10.05-3.8,12.23-8.98h-1.2c-1.71,1.81-5,4.21-7.83,4.72l6.21-17.37h6.34l.79-2.64h-6.16l2.36-6.67h-2.45l-4.4,6.67-4.35.74v1.9ZM195.49,794.15c.88-3.01.42-5.65-1.9-5.65-2.73,0-3.43,2.08-6.21,8.06v-3.43c0-2.45-.79-4.63-3.01-4.63-2.59,0-4.95,4.03-6.76,8.01h1.2c1.25-1.81,2.41-2.87,3.33-2.87,1.11,0,1.71,1.71,0,5.51l-5,11.11c-.93,2.08.05,3.43,2.08,3.43,1.25,0,1.81-.32,2.32-1.67l4.91-13.01c1.39-1.71,2.64-3.2,4.21-4.86h4.82ZM167.06,791.92c1.71,0,3.2,1.3,2.41,4.58l-7.96,1.85c1.39-3.7,3.7-6.44,5.56-6.44M171.46,804.75h-1.57c-1.99,2.36-4.12,4.21-6.25,4.21s-3.29-1.3-3.29-4.21c0-1.2.14-2.41.37-3.52l12.83-4.21c2.5-5.93-.51-8.52-4.03-8.52-6.07,0-12.97,10.14-12.97,19.03,0,3.98,1.9,6.16,4.86,6.16,3.47,0,7.08-3.38,10.05-8.94M140.01,809.94c-1.25,0-3.06-1.16-3.06-2.18,0-.32.56-1.76,1.25-3.57l2.08-5.51c2.22-2.64,5.6-5.46,7.5-5.46,1.16,0,2.04.74,2.04,2.45,0,5.05-4.72,14.26-9.82,14.26M154.6,793.64c0-3.75-1.39-5.14-3.98-5.14-3.24,0-6.3,3.43-9.35,7.59l7.73-20.33-.42-.51-8.1.93v.97l1.57,1.2c1.44,1.11.97,2.27-.32,5.6l-8.34,21.49c-.6,1.57-1.34,3.43-1.34,3.94,0,2.22,3.01,4.31,5.74,4.31,6.3,0,16.81-11.35,16.81-20.05M129.41,791.18c.51-1.71-.65-2.69-1.53-2.69-3.7,0-8.1,3.33-9.86,8.01h1.2c1.2-1.71,3.24-3.61,5.14-3.94l-7.08,18.43c-.65,1.71.65,2.69,1.53,2.69,3.52,0,7.64-3.38,9.4-8.01h-1.2c-1.2,1.71-3.24,3.61-5.14,3.94l7.55-18.43ZM130.71,781.92c1.67,0,3.06-1.34,3.06-3.06s-1.39-3.06-3.06-3.06-3.06,1.39-3.06,3.06,1.34,3.06,3.06,3.06M112.05,778.96h-16.86l-.46,1.44c4.95,1.02,5.42,1.48,3.1,7.87l-5.46,15.19c-2.32,6.34-3.29,6.85-8.98,7.87l-.42,1.44h25.65l5.56-9.91h-1.94c-3.15,3.47-6.85,7.83-12.55,7.83-4.31,0-4.82-.74-2.5-7.22l5.46-15.19c2.27-6.34,3.29-6.85,8.98-7.87l.42-1.44Z"/><rect class="cls-1" x="96" y="734.83" width="44" height="44"/><rect class="cls-1" x="96" y="928.83" width="84" height="84"/><rect class="cls-1" y="842.83" width="84" height="84"/><rect class="cls-1" x="1589.94" y="300" width="84" height="84"/></g><g id="ZONE_DE_PROTECTION"><rect class="cls-1" x="133.94" width="84" height="84"/></g></svg>