<?xml version="1.0" encoding="utf-8"?>
<!-- Generator: Adobe Illustrator 24.2.1, SVG Export Plug-In . SVG Version: 6.00 Build 0)  -->
<svg version="1.1" id="Calque_1" xmlns="http://www.w3.org/2000/svg" xmlns:xlink="http://www.w3.org/1999/xlink" x="0px" y="0px"
	 viewBox="0 0 1133.3 256.1" style="enable-background:new 0 0 1133.3 256.1;" xml:space="preserve">
<rect x="-0.1" style="fill:#FFFFFF;" width="123.6" height="44.9"/>
<g>
	<g>
		<g>
			<path d="M0,67.8h10.3c7.4,0,12,3.8,12,10.1c0,4.1-2,7.1-5.4,8.7l10.6,15h-8.2l-9-13.7H6.8v13.7H0V67.8z M6.8,73.7v8.5h3.9
				c2.9,0,4.6-1.5,4.6-4.3c0-2.6-1.7-4.2-4.6-4.2H6.8z"/>
			<path d="M31.8,67.8h19.7v5.8H38.7v7.8h10.9v5.8H38.7v8.5h12.9v5.8H31.8V67.8z M38.5,64.9l5.5-6.5h7l-6.3,6.5H38.5z"/>
			<path d="M59.5,67.8h11.2c7.4,0,12,3.8,12,10.1c0,6.2-4.5,10-12,10h-4.3v13.7h-6.9C59.5,101.6,59.5,67.8,59.5,67.8z M66.4,73.7
				v8.5H71c2.9,0,4.6-1.5,4.6-4.3c0-2.6-1.7-4.2-4.6-4.2H66.4z"/>
			<path d="M108.3,67.8h6.9v20.6c0,8.9-5.2,14.2-13.7,14.2s-13.7-5.3-13.7-14.2V67.8h6.9V89c0,4.5,2.6,7.2,6.9,7.2
				c4.2,0,6.8-2.7,6.8-7.2L108.3,67.8L108.3,67.8z"/>
			<path d="M123.6,67.8h9.6c7.1,0,11.3,3.5,11.3,9.2c0,2.7-1.3,5.1-3.6,6.7c3.6,1.6,5.6,4.5,5.6,8c0,6.2-4.8,10-12.6,10h-10.3
				C123.6,101.7,123.6,67.8,123.6,67.8z M130.5,73.7v7.4h2.9c2.6,0,4.1-1.3,4.1-3.7c0-2.3-1.5-3.7-4.1-3.7
				C133.4,73.7,130.5,73.7,130.5,73.7z M130.5,87v8.8h3.9c3.2,0,5.1-1.7,5.1-4.5s-1.9-4.3-5.1-4.3H130.5z"/>
			<path d="M153.5,67.8h6.9v27.6h12.9v6.2h-19.7L153.5,67.8L153.5,67.8z"/>
			<path d="M179.3,67.8h6.9v33.8h-6.9V67.8z"/>
			<path d="M231.1,104c0.7,0,1.7-0.1,2.4-0.4v5.8c-1.1,0.4-2.1,0.6-3.6,0.6c-3.8,0-7.2-1.5-10.6-4.4l-4-3.6c-1.4,0.4-3,0.6-4.6,0.6
				c-10.7,0-18-8.2-18-17.9s7.3-17.9,18-17.9c10.6,0,17.9,8.2,17.9,17.9c0,5.7-2.5,10.8-6.7,14.1l2,1.9
				C226.6,103.1,228.9,104,231.1,104z M221.6,84.7c0-6.5-4.5-11.5-10.9-11.5s-10.9,5-10.9,11.5s4.5,11.5,10.9,11.5
				C217,96.2,221.6,91.2,221.6,84.7z"/>
			<path d="M255.1,67.8h6.9v20.6c0,8.9-5.2,14.2-13.7,14.2s-13.7-5.3-13.7-14.2V67.8h6.9V89c0,4.5,2.6,7.2,6.9,7.2
				c4.2,0,6.8-2.7,6.8-7.2L255.1,67.8L255.1,67.8z"/>
			<path d="M270.5,67.8h19.7v5.8h-12.9v7.8h10.9v5.8h-10.9v8.5h12.9v5.8h-19.7V67.8z"/>
			<path d="M0,116.6h19.7v5.8H6.8v7.8h10.9v5.8H6.8v14.3H0V116.6z"/>
			<path d="M25.7,116.6H36c7.4,0,12,3.8,12,10.1c0,4.1-2,7.1-5.4,8.7l10.6,15H45l-9-13.7h-3.5v13.7h-6.9L25.7,116.6L25.7,116.6z
				 M32.6,122.4v8.5h3.9c2.9,0,4.6-1.5,4.6-4.3c0-2.6-1.7-4.2-4.6-4.2C36.5,122.4,32.6,122.4,32.6,122.4z"/>
			<path d="M67.6,116.6h9l12.8,33.8h-7.3l-3.2-8.8H65.4l-3.2,8.8h-7.3L67.6,116.6z M76.7,135.8l-4.6-12.7l-4.6,12.7H76.7z"/>
			<path d="M94.6,116.6h8.8l15.1,24.2v-24.2h6.9v33.8h-8.8l-15.1-24.3v24.3h-6.9V116.6z"/>
			<path d="M158.7,140.3l5.4,4.2c-2.6,3.6-6.7,6.1-11.6,6.7l-4.2,7h-6.1l4.3-7.1c-8.8-1.5-14.6-9-14.6-17.6c0-9.7,7.3-17.9,18-17.9
				c6.1,0,11.2,2.8,14.3,6.9l-5.4,4.2c-1.9-2.8-5-4.6-8.8-4.6c-6.4,0-10.9,5-10.9,11.5c0,6.5,4.5,11.5,10.9,11.5
				C153.8,144.9,156.8,143.1,158.7,140.3z"/>
			<path d="M178.4,116.6h9l12.8,33.8h-7.3l-3.2-8.8h-13.5l-3.2,8.8h-7.3L178.4,116.6z M187.5,135.8l-4.6-12.7l-4.6,12.7H187.5z"/>
			<path d="M205.4,116.6h6.9v33.8h-6.9V116.6z"/>
			<path d="M223.7,141.1c2,2.6,4.7,4.2,7.5,4.2c2.7,0,4.3-1.4,4.3-3.9c0-6-15.5-4.7-15.5-15.9c0-5.4,4.4-9.8,10.8-9.8
				c5.1,0,9,2.3,11.8,5.7l-5,4.5c-2-2.6-4.2-4.2-6.8-4.2c-2.4,0-3.9,1.5-3.9,3.5c0,6,15.5,4.6,15.5,16.1c-0.1,6.3-5,10.1-11.2,10.1
				c-5.7,0-9.6-2.1-12.6-5.7L223.7,141.1z"/>
			<path d="M249.7,116.6h19.7v5.8h-12.9v7.8h10.9v5.8h-10.9v8.5h12.9v5.8h-19.7V116.6z"/>
		</g>
	</g>
	<g>
		<path d="M110,243.8c0.9,0,1.7,0.7,1.3,2.5l-4.3,1C107.8,245.3,109,243.8,110,243.8 M112.4,250.7h-0.8c-1.1,1.3-2.2,2.3-3.3,2.3
			c-1.2,0-1.8-0.7-1.8-2.3c0-0.6,0.1-1.3,0.2-1.9l6.9-2.3c1.3-3.2-0.3-4.6-2.2-4.6c-3.2,0-6.9,5.4-6.9,10.2c0,2.1,1,3.3,2.6,3.3
			C108.9,255.4,110.8,253.6,112.4,250.7 M111,240.7l4.8-4.5v-0.5h-2.6l-3,5H111z M96.2,243.9h2.3l-3.6,9.9c-0.3,0.8,0.1,1.7,1,1.7
			c2.1,0,5.4-2,6.5-4.8h-0.6c-0.9,1-2.7,2.3-4.2,2.5l3.3-9.3h3.4l0.4-1.4h-3.3l1.3-3.6h-1.3l-2.4,3.6l-2.8,0.4L96.2,243.9
			L96.2,243.9z M93.1,243.4c0.3-0.9-0.3-1.4-0.8-1.4c-2,0-4.3,1.8-5.3,4.3h0.6c0.6-0.9,1.7-1.9,2.8-2.1l-3.8,9.9
			c-0.3,0.9,0.3,1.4,0.8,1.4c1.9,0,4.1-1.8,5-4.3h-0.6c-0.6,0.9-1.7,1.9-2.8,2.1L93.1,243.4z M93.8,238.4c0.9,0,1.6-0.7,1.6-1.6
			s-0.7-1.6-1.6-1.6s-1.6,0.7-1.6,1.6C92.2,237.7,92.9,238.4,93.8,238.4 M72,253.6c-0.5,1.1,0,1.8,1.1,1.8c0.7,0,1-0.2,1.2-0.9
			l2.6-7c1.2-1.5,3.7-3.1,4.7-3.1c0.7,0,0.6,0.6,0.1,1.5l-4,7.8c-0.4,0.8,0.1,1.7,1,1.7c2,0,4.3-1.8,5.3-4.3h-0.6
			c-0.6,0.9-1.7,1.9-2.8,2.1l3.5-7c0.4-0.9,0.7-1.7,0.7-2.4c0-1.1-0.6-1.9-1.8-1.9c-1.7,0-3.4,1.9-5.5,4.3v-1.8
			c0-1.3-0.4-2.5-1.6-2.5c-0.7,0-1.5,0.6-2.1,1.6v0.2c1.3-0.1,1.9,1.9,0.9,3.9L72,253.6z M71.9,245c0.5-1.6,0.2-3-1-3
			c-1.5,0-1.8,1.1-3.3,4.3v-1.8c0-1.3-0.4-2.5-1.6-2.5c-1.4,0-2.7,2.2-3.6,4.3H63c0.7-1,1.3-1.5,1.8-1.5c0.6,0,0.9,0.9,0,3l-2.7,6
			c-0.5,1.1,0,1.8,1.1,1.8c0.7,0,1-0.2,1.2-0.9l2.6-7c0.7-0.9,1.4-1.7,2.3-2.6L71.9,245L71.9,245z M56.7,243.8
			c0.9,0,1.7,0.7,1.3,2.5l-4.3,1C54.5,245.3,55.7,243.8,56.7,243.8 M59.1,250.7h-0.8c-1.1,1.3-2.2,2.3-3.3,2.3
			c-1.2,0-1.8-0.7-1.8-2.3c0-0.6,0.1-1.3,0.2-1.9l6.9-2.3c1.3-3.2-0.3-4.6-2.2-4.6c-3.2,0-6.9,5.4-6.9,10.2c0,2.1,1,3.3,2.6,3.3
			C55.5,255.4,57.5,253.6,59.1,250.7 M42.9,243.9h2.3l-3.6,9.9c-0.3,0.8,0.1,1.7,1,1.7c2.1,0,5.4-2,6.5-4.8h-0.6
			c-0.9,1-2.7,2.3-4.2,2.5l3.3-9.3H51l0.4-1.4h-3.3l1.3-3.6H48l-2.4,3.6l-2.8,0.4v1L42.9,243.9L42.9,243.9z M30.3,251.6
			c0-3,3.4-7.2,5.3-7.2c0.4,0,0.8,0,1.2,0.1l-2,5.3c-1.1,1.4-2.9,3.1-3.7,3.1C30.6,252.9,30.3,252.5,30.3,251.6 M40.8,241.4l-1-0.1
			l-1.2,1.1h-0.2c-5.7,0-10.5,6.3-10.5,11c0,1.3,0.8,2,2,2c1.5,0,2.9-2.1,4.5-4.3l-0.1,0.8c-0.2,2.3,0.5,3.5,1.7,3.5
			c1.4,0,2.7-2.2,3.6-4.3H39c-0.7,1-1.3,1.5-1.8,1.5s-0.9-0.9,0-3L40.8,241.4z M28.7,245c0.5-1.6,0.2-3-1-3c-1.5,0-1.8,1.1-3.3,4.3
			v-1.8c0-1.3-0.4-2.5-1.6-2.5c-1.4,0-2.7,2.2-3.6,4.3h0.6c0.7-1,1.3-1.5,1.8-1.5c0.6,0,0.9,0.9,0,3l-2.7,6c-0.5,1.1,0,1.8,1.1,1.8
			c0.7,0,1-0.2,1.2-0.9l2.6-7c0.7-0.9,1.4-1.7,2.3-2.6L28.7,245L28.7,245z M9.7,255l0.2-0.8c-3.3-0.6-3.7-0.6-2.4-4.2l1.3-3.7h3.6
			c1.6,0,1.7,0.7,1.4,2.5h0.9l2.2-6H16c-0.8,1.4-1.5,2.5-3.2,2.5H9.2l1.9-5.2c0.6-1.7,0.9-2,3.2-2H16c2.3,0,2.6,0.6,2.6,3h0.9
			l0.8-4.1H6.6l-0.2,0.8c2.7,0.5,2.9,0.8,1.7,4.2l-3,8.1c-1.2,3.4-1.8,3.7-4.8,4.2l-0.2,0.8L9.7,255L9.7,255z"/>
		<path d="M76.8,212.8c0.9,0,1.7,0.7,1.3,2.5l-4.3,1C74.6,214.3,75.8,212.8,76.8,212.8 M79.2,219.7h-0.8c-1.1,1.3-2.2,2.3-3.3,2.3
			c-1.2,0-1.8-0.7-1.8-2.3c0-0.6,0.1-1.3,0.2-1.9l6.9-2.3c1.3-3.2-0.3-4.6-2.2-4.6c-3.2,0-6.9,5.4-6.9,10.2c0,2.1,1,3.3,2.6,3.3
			C75.7,224.5,77.6,222.6,79.2,219.7 M77.8,209.7l4.8-4.5v-0.5H80l-3,5H77.8z M63,212.9h2.3l-3.6,9.9c-0.3,0.8,0.1,1.7,1,1.7
			c2.1,0,5.4-2,6.5-4.8h-0.6c-0.9,1-2.7,2.3-4.2,2.5l3.3-9.3h3.4l0.4-1.4h-3.3l1.3-3.6h-1.3l-2.4,3.6l-2.8,0.4
			C63,211.9,63,212.9,63,212.9z M59.9,212.4c0.3-0.9-0.3-1.4-0.8-1.4c-2,0-4.3,1.8-5.3,4.3h0.6c0.6-0.9,1.7-1.9,2.8-2.1l-3.8,9.9
			c-0.3,0.9,0.3,1.4,0.8,1.4c1.9,0,4.1-1.8,5-4.3h-0.6c-0.6,0.9-1.7,1.9-2.8,2.1L59.9,212.4z M60.6,207.4c0.9,0,1.6-0.7,1.6-1.6
			c0-0.9-0.7-1.6-1.6-1.6s-1.6,0.7-1.6,1.6S59.7,207.4,60.6,207.4 M47.4,222.3l6.9-18.1l-0.2-0.3l-4.3,0.5v0.5l0.8,0.6
			c0.8,0.6,0.5,1.2-0.2,3L45,222.8c-0.4,0.8,0.1,1.7,1,1.7c2,0,4.1-1.8,5-4.3h-0.6C49.8,221.1,48.4,222.1,47.4,222.3 M34.3,220.6
			c0-3,3.4-7.2,5.3-7.2c0.4,0,0.8,0,1.2,0.1l-2,5.3c-1.1,1.4-2.9,3.1-3.7,3.1C34.6,221.9,34.3,221.5,34.3,220.6 M44.7,210.4l-1-0.1
			l-1.2,1.1h-0.2c-5.7,0-10.5,6.3-10.5,11c0,1.3,0.8,2,2,2c1.5,0,2.9-2.1,4.5-4.3l-0.1,0.8c-0.2,2.3,0.5,3.5,1.7,3.5
			c1.4,0,2.7-2.2,3.6-4.3h-0.6c-0.7,1-1.3,1.5-1.8,1.5s-0.9-0.9,0-3L44.7,210.4z M19.5,226.9c0-1.3,1.3-2.1,3.1-2.9
			c0.6,0.3,1.5,0.6,2.7,1c1.9,0.6,2.6,0.9,2.6,1.4c0,1.2-2.1,2.1-4.9,2.1C20.6,228.6,19.5,228.1,19.5,226.9 M24.6,218.8
			c-0.8,0-1.1-0.7-1.1-1.5c0-2.2,1.2-5.5,3-5.5c0.8,0,1.1,0.7,1.1,1.5C27.7,215.6,26.5,218.8,24.6,218.8 M30,225.6
			c0-1.6-1.4-2.2-3.7-2.9c-2-0.6-2.9-0.8-2.9-1.4c0-0.5,0.4-1.1,1.3-1.6c3.2-0.2,5.4-3.1,5.4-5.6c0-0.5-0.1-1-0.3-1.4h2.8l0.4-1.4
			h-4.4c-0.5-0.3-1.1-0.5-1.8-0.5c-3.4,0-5.7,3-5.7,5.5c0,1.9,1.2,3,2.6,3.3c-1.6,0.7-2.5,1.6-2.5,2.6c0,0.6,0.2,1,0.7,1.3
			c-3.7,1.1-5.2,2.3-5.2,4.1c0,1.7,2.3,2.4,4.9,2.4C26.2,230.2,30,227.7,30,225.6 M12.7,215c1.6,0,1.7,0.7,1.4,2.5H15l2.2-6h-0.9
			c-0.8,1.4-1.5,2.5-3.2,2.5H9.5l1.8-5c0.6-1.7,0.9-2,3.2-2H16c2.3,0,2.6,0.6,2.6,2.9h0.9l0.8-4.1H6.6l-0.2,0.8
			c2.7,0.5,2.9,0.8,1.7,4.2l-3,8.1c-1.2,3.4-1.8,3.7-4.8,4.2l-0.2,0.8h15.2l2.7-4.3h-1c-1.7,1.6-3.9,3.2-7,3.2c-4,0-3.7-0.2-2.3-3.9
			l1.4-3.9H12.7L12.7,215z M14.6,204.6l4.8-3.3v-0.5h-2.9l-2.7,3.8H14.6z"/>
		<path d="M75.2,181.8c0.9,0,1.7,0.7,1.3,2.5l-4.3,1C73,183.3,74.2,181.8,75.2,181.8 M77.6,188.7h-0.8c-1.1,1.3-2.2,2.3-3.3,2.3
			c-1.2,0-1.8-0.7-1.8-2.3c0-0.6,0.1-1.3,0.2-1.9l6.9-2.3c1.3-3.2-0.3-4.6-2.2-4.6c-3.2,0-6.9,5.4-6.9,10.2c0,2.1,1,3.3,2.6,3.3
			C74.1,193.5,76,191.6,77.6,188.7 M76.2,178.7l4.8-4.5v-0.5h-2.6l-3,5H76.2z M62,181.9h1.8l-3.6,9.9c-0.3,0.8,0.1,1.7,1,1.7
			c2.1,0,5.4-2,6.5-4.8h-0.6c-0.9,1-2.7,2.3-4.2,2.5l3.3-9.3h3.4l0.4-1.4h-3.3l1.3-3.6h-1.3l-2.4,3.6l-2.3,0.4
			C62,180.9,62,181.9,62,181.9z M60.2,183c0.5-1.6,0.2-3-1-3c-1.5,0-1.8,1.1-3.3,4.3v-1.8c0-1.3-0.4-2.5-1.6-2.5
			c-1.4,0-2.7,2.2-3.6,4.3h0.6c0.7-1,1.3-1.5,1.8-1.5c0.6,0,0.9,0.9,0,3l-2.7,6c-0.5,1.1,0,1.8,1.1,1.8c0.7,0,1-0.2,1.2-0.9l2.6-7
			c0.7-0.9,1.4-1.7,2.3-2.6h2.6C60.2,183.1,60.2,183,60.2,183z M45,181.8c0.9,0,1.7,0.7,1.3,2.5l-4.3,1
			C42.8,183.3,44,181.8,45,181.8 M47.3,188.7h-0.8c-1.1,1.3-2.2,2.3-3.3,2.3c-1.2,0-1.8-0.7-1.8-2.3c0-0.6,0.1-1.3,0.2-1.9l6.9-2.3
			c1.3-3.2-0.3-4.6-2.2-4.6c-3.2,0-6.9,5.4-6.9,10.2c0,2.1,1,3.3,2.6,3.3C43.8,193.5,45.8,191.6,47.3,188.7 M30.5,191.4
			c-0.7,0-1.6-0.6-1.6-1.2c0-0.2,0.3-0.9,0.7-1.9l1.1-3c1.2-1.4,3-2.9,4-2.9c0.6,0,1.1,0.4,1.1,1.3
			C35.8,186.5,33.2,191.4,30.5,191.4 M38.3,182.7c0-2-0.7-2.8-2.1-2.8c-1.7,0-3.4,1.8-5,4.1l4.1-10.9l-0.2-0.3l-4.3,0.5v0.5l0.8,0.6
			c0.8,0.6,0.5,1.2-0.2,3L27,189c-0.3,0.8-0.7,1.8-0.7,2.1c0,1.2,1.6,2.3,3.1,2.3C32.7,193.5,38.3,187.4,38.3,182.7 M24.8,181.4
			c0.3-0.9-0.3-1.4-0.8-1.4c-2,0-4.3,1.8-5.3,4.3h0.6c0.6-0.9,1.7-1.9,2.8-2.1l-3.8,9.9c-0.3,0.9,0.3,1.4,0.8,1.4
			c1.9,0,4.1-1.8,5-4.3h-0.6c-0.6,0.9-1.7,1.9-2.8,2.1L24.8,181.4z M25.5,176.4c0.9,0,1.6-0.7,1.6-1.6c0-0.9-0.7-1.6-1.6-1.6
			s-1.6,0.7-1.6,1.6S24.6,176.4,25.5,176.4 M15.5,174.9h-9l-0.2,0.8c2.7,0.5,2.9,0.8,1.7,4.2L5.1,188c-1.2,3.4-1.8,3.7-4.8,4.2
			L0.1,193h13.7l3-5.3h-1c-1.7,1.9-3.7,4.2-6.7,4.2c-2.3,0-2.6-0.4-1.3-3.9l2.9-8.1c1.2-3.4,1.8-3.7,4.8-4.2
			C15.5,175.7,15.5,174.9,15.5,174.9z"/>
	</g>
	<g>
		<path style="fill:#000091;" d="M50.9,40.1c0.5-0.5,1-1,1.5-1.5l0,0c0.9-1,1.8-2,2.8-2.9c0.3-0.3,0.6-0.5,0.9-0.7
			c0.1-0.1,0.1-0.3,0.2-0.3c-0.4,0.2-0.7,0.5-1.1,0.7c-0.1,0-0.2-0.1-0.1-0.2c0.3-0.2,0.6-0.5,0.9-0.7c0,0,0,0-0.1,0
			s-0.1-0.1-0.1-0.2c-1.1-0.2-2,0.6-2.7,1.3c-0.2,0.1-0.3-0.1-0.4-0.1c-1.3,0.4-2.2,1.5-3.5,2c0-0.1,0-0.1,0-0.2
			c-0.5,0.2-1,0.5-1.5,0.6c-0.8,0.2-1.4,0.1-2.1,0.1c-1,0.1-2.1,0.3-3.1,0.5h-0.1c-0.6,0.2-1.1,0.4-1.6,0.6c0,0,0,0-0.1,0
			c0,0.1-0.1,0.1-0.1,0.1c-0.2,0.2-0.3,0.4-0.6,0.5c-0.5,0.3-0.9,0.7-1.4,1.1h-0.1c-0.5,0.4-0.9,0.9-1.4,1.3c0,0-0.2,0-0.3,0l0,0V42
			c0.1-0.1,0.1-0.2,0.2-0.4c0.1-0.1,0.2-0.3,0.3-0.4c0.1-0.2,0.2-0.3,0.4-0.5v-0.1h-0.1c0.4-0.4,0.9-0.8,1.4-1.1l0,0
			c-0.1,0-0.1,0-0.1-0.1c0.1-0.1,0.1-0.2,0.1-0.2v-0.1c0,0,0,0-0.1-0.1c-0.1,0.1-0.3,0.2-0.4,0.3c-0.2,0.2-0.4,0.6-0.7,0.6h-0.1
			h-0.1l0,0l0,0l0,0c0,0,0,0,0-0.1c0,0,0,0,0-0.1c0,0,0,0,0-0.1c0,0,0-0.1,0.1-0.1v-0.1c0-0.1,0.1-0.1,0.1-0.2c0,0,0-0.1,0.1-0.1
			c0-0.1,0.1-0.1,0.1-0.2s0-0.1-0.1-0.2c0.2-0.2,0.3-0.4,0.6-0.5l0,0c0.3-0.2,0.6-0.4,1-0.5l0.1-0.1c-0.5,0.2-0.9,0.4-1.3,0.7
			c0,0-0.1,0-0.1,0.1c0,0-0.1,0-0.2-0.1c0,0,0,0,0-0.1c0.1-0.2,0.3-0.3,0.5-0.4c0.1,0,0.2,0,0.2,0.1c2.7-2.1,6.4-1.6,9.6-2.7
			c0.3-0.2,0.5-0.3,0.8-0.5c0.4-0.2,0.8-0.6,1.3-0.8c0.7-0.5,1.2-1.1,1.4-2c0-0.1-0.1-0.2-0.1-0.2c-1.1,1.2-2.4,2.1-3.7,2.8
			c-1.8,0.9-3.7,0.8-5.6,1c0.2,0.1,0.4,0.1,0.6,0.1c0-0.3,0.2-0.3,0.3-0.5c0.1,0,0.2,0,0.3,0s0.1-0.2,0.2-0.2c0.2,0,0.4-0.1,0.3-0.1
			c-0.3-0.3-0.8,0.3-1.2,0c0.2-0.2,0.1-0.4,0.3-0.5c0.1,0,0.3,0,0.3,0c0-0.2,0.2-0.3,0.2-0.3c1.3-0.8,2.5-1.4,3.6-2
			c-0.3,0-0.4,0.3-0.7,0.1c0.2,0,0-0.3,0.2-0.3c0.9-0.3,1.7-0.8,2.6-1.1c-0.3,0-0.6,0.3-0.9,0c0.2-0.1,0.3-0.3,0.5-0.3
			c0-0.1,0-0.2,0-0.3c0-0.1,0.1-0.1,0.2-0.1c-0.1,0-0.2-0.1-0.2-0.1c0.1-0.2,0.3-0.1,0.5-0.3c-0.1,0-0.3,0-0.3-0.1
			c0.3-0.3,0.7-0.4,1.1-0.5c-0.1-0.2-0.3,0-0.3-0.2c0-0.1,0.1-0.1,0.2-0.1c-0.1,0-0.1,0-0.2,0c-0.2-0.1-0.1-0.3-0.1-0.3
			c0.5-0.6,0.5-1.4,0.8-2c-0.1,0-0.2,0-0.2-0.1c-0.8,0.9-2.2,1.3-3.5,1.6c-0.1,0-0.3,0-0.4,0c-0.4,0.2-1,0.2-1.4-0.1
			c-0.3-0.2-0.5-0.4-0.8-0.7c-0.7-0.4-1.4-0.8-2.1-1c-2.1-0.7-4.3-1-6.5-0.9c0.9-0.5,2-0.6,3-0.8c1.4-0.4,2.8-0.9,4.3-0.8
			c-0.3-0.1-0.6,0-0.8,0c-1.2-0.1-2.4,0.3-3.6,0.5c-0.8,0.2-1.6,0.5-2.5,0.7c-0.5,0.2-0.8,0.7-1.4,0.6c0,0,0-0.2,0-0.3
			c0.8-1,1.9-2,3.2-2.1c1.5-0.3,3,0,4.5,0.2c1.1,0.1,2.1,0.3,3.2,0.6c0.4,0,0.5,0.7,0.8,0.8c0.5,0.2,1,0,1.5,0.3
			c0-0.2-0.1-0.3,0-0.5c0.3-0.3,0.8,0.1,1.1-0.1c0.7-0.4-0.6-1.2-0.9-1.8c0-0.1,0.1-0.2,0.1-0.2c0.7,0.6,1.2,1.3,2,1.7
			c0.4,0.2,1.4,0.4,1.3-0.1c-0.4-0.9-1.3-1.7-2-2.5c0-0.1,0-0.3,0-0.3c-0.2,0-0.2-0.1-0.3-0.2c0-0.1,0-0.3,0-0.3
			c-0.3-0.2-0.3-0.5-0.4-0.8c-0.3-0.4-0.1-1-0.3-1.5s-0.3-0.9-0.3-1.4c-0.3-1.4-0.6-2.7-0.8-4.1c-0.2-1.6,0.9-2.9,1.7-4.3
			c0.6-1,1.3-2,2.4-2.7c0.3-1,0.9-1.9,1.6-2.7s1.8-1.3,2.6-1.7c1.2-0.5,2.3-0.9,2.3-0.9H-0.1v44.9h41.2c1.6-1.2,3.2-1.7,5.5-2.8
			C47.7,42,50.1,40.9,50.9,40.1z M37.9,34c-0.2,0-0.5,0.1-0.4-0.1c0.1-0.4,0.7-0.4,1-0.6c0.2-0.1,0.4-0.3,0.6-0.2
			c0.2,0.3,0.4,0.2,0.6,0.3C39.1,34,38.5,33.7,37.9,34z M24.9,32.1c0,0-0.1-0.1-0.1-0.2c1.1-1.4,2-2.8,2.7-4.3
			c1.1-0.6,2-1.5,2.9-2.4c1.4-1.5,3-2.9,4.8-3.7c0.7-0.3,1.5-0.2,2.2,0.1c-0.3,0.3-0.7,0.3-1,0.5c-0.1,0-0.2,0-0.3-0.1
			c0.1-0.1,0.1-0.2,0.1-0.3c-0.8,0.9-2,1.4-2.7,2.5c-0.5,0.8-0.8,2-2,2.2c-0.3,0.1,0.1-0.3-0.1-0.2C28.8,27.9,26.9,29.8,24.9,32.1z
			 M31.9,26.5c-0.1,0.2-0.2,0.2-0.3,0.3c-0.1,0.2-0.2,0.3-0.3,0.3c-0.1,0-0.2,0-0.2-0.1c0.1-0.3,0.3-0.7,0.7-0.8
			C31.9,26.4,31.9,26.4,31.9,26.5z M35.9,39.2c0,0.1-0.1,0.2-0.2,0.2c0.1,0,0.2,0.1,0.1,0.1c-0.2,0.2-0.4,0.4-0.6,0.4h-0.1
			c-0.1,0.1-0.2,0.2-0.3,0.3s-0.6,0-0.4-0.1c0.2-0.2,0.4-0.4,0.6-0.6c0.1-0.1,0.2-0.2,0.4-0.3c0.1-0.1,0.1-0.1,0.2-0.2
			C35.5,39.1,35.9,39.1,35.9,39.2z M34.3,38.5C34.3,38.5,34.3,38.6,34.3,38.5c-0.3,0.2-0.7,0.5-1,0.7c-0.4,0.2-0.7,0.4-1.1,0.5l0,0
			c0,0-0.1-0.1-0.1,0c-0.3,0.2-0.6,0.4-0.9,0.7l-0.1,0.1l0,0l0,0L31,40.6l0,0l0,0c-0.1,0.1-0.1,0.1-0.2,0.2l-0.1,0.1
			c-0.1,0-0.2,0-0.2-0.1l0,0c-0.1,0-0.1,0.1-0.2,0.1c0,0-0.1,0-0.1,0.1c0,0,0,0-0.1,0c0,0,0,0-0.1,0c-0.1,0.1-0.2,0.2-0.3,0.3
			c-0.2,0.2-0.3,0.3-0.5,0.5l0,0l0,0l0,0l0,0l0,0c0,0,0,0.1-0.1,0.1l0,0c0,0,0,0-0.1,0c0,0,0,0,0-0.1l0,0c0,0,0-0.1-0.1-0.1l0,0l0,0
			c0.1-0.1,0.2-0.2,0.3-0.3l0,0l0.1-0.1c0-0.1,0.1-0.1,0.1-0.2c0,0,0,0,0.1-0.1s0.2-0.2,0.3-0.4l0,0c0,0,0,0,0-0.1s0.1-0.1,0.1-0.2
			s0.1-0.1,0.1-0.2l0,0l0,0l0,0c0-0.1,0.1-0.1,0.1-0.2l0,0c0,0,0,0,0-0.1v-0.1l0,0l0,0v-0.1c0,0,0,0,0-0.1c0.1-0.2,0.2-0.3,0.3-0.5
			l0,0c-0.1,0.1-0.2,0.2-0.3,0.3c-0.1,0.1-0.3,0-0.2-0.1c0.1-0.1,0.1-0.1,0.2-0.2l0,0c0.1-0.1,0.3-0.3,0.4-0.4s0.2-0.1,0.3-0.2l0,0
			c0.1-0.1,0.1-0.1,0.2-0.2l0,0c0.8-0.8,2.2-0.7,3.3-1.2c0.4-0.2,0.9,0.1,1.4,0c0.3,0,0.5,0,0.8,0.2C35.7,37.6,35,38.1,34.3,38.5z
			 M36.1,32.6c-0.1-0.1,0.3,0,0.3-0.2c-0.3,0-0.4,0-0.7,0c-0.1,0-0.1-0.1-0.1-0.2c-0.4,0.1-0.9,0.3-1.4,0.3
			c-0.6,0.2-1.1,0.6-1.8,0.8c-0.9,0.3-1.7,1.1-2.7,1.4c-0.1,0-0.1-0.1-0.1-0.2c0.1-0.3,0.4-0.3,0.6-0.6c0-0.1,0-0.2-0.1-0.2
			c0.7-0.9,1.6-1.4,2.5-2.2c0-0.1,0-0.2,0-0.3c0.3-0.3,0.7-0.5,0.8-0.9c0.1-0.3,0.4-0.6,0.8-0.8c-0.1-0.1-0.3-0.1-0.3-0.3
			c-0.3,0-0.7,0.2-1-0.1c0.2-0.2,0.3-0.2,0.5-0.3c-0.1,0-0.1-0.1-0.2-0.1c-0.1-0.2,0.2-0.4,0.4-0.4c0.3-0.1,0.8-0.1,1-0.3
			c-0.6-0.1-1.3,0.2-1.9-0.2c0.4-1.1,1.1-2,2.1-2.5c0.1,0,0.3,0,0.3,0.1c0,0.4-0.3,0.8-0.7,0.8c0.7,0.2,1.4,0.2,2,0.5
			c-0.1,0.2-0.3,0.1-0.3,0.1c0.4,0.3,0.9,0.1,1.4,0.4c-0.3,0.3-0.5,0-0.8,0c2.6,0.8,5.4,1.4,7.6,3.1c-1.9,0.9-3.8,1.4-5.9,1.8
			c-0.3,0-0.4,0-0.7-0.1c0,0.1,0,0.3-0.1,0.3c-0.3,0-0.6,0-0.8,0.2C36.9,32.8,36.3,32.9,36.1,32.6z"/>
		<g>
			<path style="fill:#E1000F;" d="M123.4,0.5H75.1c0,0,0.1,0,0.5,0.2s0.9,0.5,1.2,0.6C77.4,1.6,78,2,78.4,2.7
				c0.2,0.3,0.4,0.8,0.3,1.1c-0.2,0.4-0.3,1.1-0.7,1.3c-0.5,0.3-1.2,0.3-1.8,0.2c-0.3,0-0.7-0.1-1-0.2c1.3,0.5,2.5,1.1,3.3,2.3
				c0.1,0.2,0.4,0.3,0.8,0.3c0.1,0,0.1,0.2,0.1,0.3c-0.2,0.2-0.3,0.3-0.3,0.5c0.1,0,0.2,0,0.3,0c0.4-0.2,0.3-1,0.9-0.8
				C80.7,8,80.9,8.5,80.6,9c-0.3,0.3-0.7,0.6-1,0.8c-0.1,0.2-0.1,0.4,0,0.6c0.3,0.3,0.3,0.7,0.4,1c0.3,0.6,0.3,1.3,0.6,1.9
				c0.3,1.3,0.7,2.5,0.6,3.8c0,0.7-0.3,1.3-0.1,2c0.2,0.7,0.6,1.2,0.9,1.8c0.3,0.5,0.7,0.8,0.9,1.4c0.5,0.8,1.4,1.7,1,2.7
				c-0.3,0.6-1.2,0.5-1.8,0.8c-0.5,0.4-0.1,1.1,0.2,1.5c0.4,0.8-0.5,1.3-1.1,1.5c0.2,0.3,0.5,0.2,0.6,0.3c0.1,0.4,0.5,0.7,0.3,1.1
				c-0.3,0.5-1.4,0.8-0.8,1.5c0.3,0.6,0.1,1.3-0.1,1.9c-0.3,0.8-0.9,1.1-1.5,1.3c-0.5,0.2-1.1,0.2-1.6,0.1c-0.2-0.1-0.3-0.2-0.5-0.2
				c-1.4-0.2-2.9-0.6-4.3-0.6c-0.4,0.1-0.8,0.2-1.2,0.3c-0.4,0.3-0.7,0.6-1,0.9l0,0c-0.1,0.1-0.1,0.1-0.2,0.2l-0.1,0.1
				c0,0,0,0.1-0.1,0.1c-0.2,0.3-0.5,0.6-0.7,1c0,0,0,0,0,0.1c0,0,0,0.1-0.1,0.1c-0.3,0.5-0.5,1-0.6,1.6c-0.6,1.9-0.3,3.6,0.1,4
				c0.1,0.1,2.8,0.9,4.7,1.8c0.9,0.4,1.5,0.7,2,1h47.4V0.5H123.4z"/>
		</g>
		<path style="fill:#9D9D9C;" d="M77.9,16.8c0.3,0.1,0.8,0.1,0.8,0.3c-0.2,0.7-1.2,0.8-1.7,1.5h-0.3c-0.3,0.2-0.2,0.6-0.4,0.6
			c-0.3-0.1-0.5,0-0.8,0.1c0.3,0.3,0.8,0.6,1.3,0.5c0.1,0,0.3,0.2,0.3,0.3c0,0,0.1,0,0.2-0.1c0.1,0,0.2,0,0.2,0.1v0.3
			c-0.3,0.3-0.7,0.2-1,0.3c0.7,0.2,1.4,0.2,2,0c0.5-0.2,0-1,0.3-1.4c-0.2,0,0-0.3-0.2-0.3c0.2-0.2,0.3-0.4,0.5-0.5
			c0.2,0,0.4-0.1,0.5-0.3c0-0.2-0.3-0.3-0.3-0.4c0.5-0.3,0.9-0.8,0.8-1.4c-0.1-0.3-0.8-0.3-1.2-0.4c-0.4-0.2-0.9,0-1.4,0.1
			c-0.4,0-0.8,0.3-1.3,0.3c-0.6,0.2-1.1,0.5-1.6,0.8c0.6-0.3,1.2-0.3,1.9-0.5C77,16.8,77.4,16.7,77.9,16.8z"/>
	</g>
</g>
<g>
	<path style="fill:#9E4F16;" d="M452.8,0c-39.4,0-71.3,31.9-71.3,71.3c0,39.4,31.9,71.3,71.3,71.3c39.4,0,71.3-31.9,71.3-71.3
		C524,31.9,492.1,0,452.8,0 M452.8,49.7c-7,0-12.8,5.2-12.8,11.5c0,2,0.6,3.9,1.6,5.6c-6.8-1.9-10.9-5.2-11.2-10.3
		c-0.6-9.5,8.6-19.3,22.4-19.3c13.8,0,22.9,9.8,22.4,19.3c-0.3,5.1-4.4,8.3-11.2,10.3c1-1.6,1.6-3.5,1.6-5.6
		C465.5,54.9,459.8,49.7,452.8,49.7z M484.4,53.5c0.1-0.9,0.2-1.8,0.2-2.8c0-15.1-14.3-27.4-31.8-27.4c-17.6,0-31.8,12.3-31.8,27.4
		c0,0.9,0.1,1.9,0.2,2.8c-3.1-4.3-4.8-9.2-4.8-14.4c0-16.1,16.3-29.1,36.5-29.1c20.1,0,36.5,13,36.5,29.1
		C489.2,44.3,487.5,49.3,484.4,53.5z"/>
	<g>
		<path style="fill:#005A74;" d="M544.9,71.3h20.4v50.3h0.4c4.4-6.6,10.8-10.4,18.8-10.4c9.8,0,14.8,3.8,18.2,9.2
			c2.6,4.2,3.2,10,3.2,24.6v38.6c0,11.2-1,17.4-3.4,21.8c-3.6,6.6-9.6,9.6-17.8,9.6c-10.2,0-14.2-4.6-19.4-10.4v9.2h-20.4V71.3
			 M585.6,143.6c0-6.4-2.2-12-10-12c-5.8,0-10.2,4.6-10.2,11V182c0,7.4,4,12.6,10.2,12.6c7,0,10-5.6,10-13.8V143.6z"/>
		<path style="fill:#005A74;" d="M622.8,112.4h20.4v10.8c8.4-7.4,15.2-12,27-12v21.6c-2-0.8-4-1.2-6.2-1.2c-8.6,0-20.8,5.4-20.8,22
			v60.3h-20.4V112.4z"/>
		<path style="fill:#005A74;" d="M698.9,225.7c0.2,4.8,3.8,10,10.8,10c6.6,0,9.4-4.6,9.4-11v-20h-0.4c-4.4,6.6-10.8,10.4-19,10.4
			c-8.2,0-14.2-3-17.8-9.6c-2.4-4.4-3.4-10.6-3.4-21.8V145c0-14.6,0.6-20.4,3.2-24.6c3.4-5.4,8.4-9.2,18.2-9.2
			c10,0,14,4.6,19.2,10.4v-9.2h20.4v113.9c0,13.8-9,29.8-30.6,29.8c-12.4,0-27.8-7.2-30.4-30.4H698.9 M698.9,182.6
			c0,6.4,2.2,12,10,12c5.8,0,10.2-4.6,10.2-11v-39.4c0-7.4-4-12.6-10.2-12.6c-7,0-10,5.6-10,13.8V182.6z"/>
		<path style="fill:#005A74;" d="M756.3,112.4h20.4v9.8h0.4c4.2-6.4,9.8-11,19.2-11c8.8,0,14.6,5.2,18.2,10.2
			c5-5.6,10.4-10.2,21.2-10.2c10.2,0,22.2,6.6,22.2,24.8v77.9h-20.4v-70.3c0-7.4-3.6-12-10-12c-7.6,0-10.2,5-10.2,14v68.3h-20.4
			v-70.3c0-7.4-3.6-12-10-12c-7.6,0-10.2,5-10.2,14v68.3h-20.4L756.3,112.4L756.3,112.4z"/>
	</g>
	<g>
		<path style="fill:#005A74;" d="M606.8,63.8V46.5c0-5,3.8-7.7,7.5-7.7c3.7,0,7.5,2.6,7.5,7.7c0,0,0,0.9,0,1.3c-0.6,0-3.4,0-4,0
			c0-0.4,0-1.3,0-1.3c0-2.2-1.4-3.7-3.5-3.7c-2.2,0-3.5,1.4-3.5,3.7v17.3c0,2.2,1.4,3.7,3.5,3.7c2.1,0,3.5-1.4,3.5-3.7v-6.5
			c0,0-3.2,0-3.7,0c0-0.5,0-2.9,0-3.4c0.6,0,7.1,0,7.7,0c0,0.7,0,10,0,10c0,5-3.8,7.7-7.5,7.7C610.5,71.5,606.8,68.8,606.8,63.8z"/>
		<path style="fill:#005A74;" d="M638.7,38.9c-0.9,1-5.3,5.6-5.4,5.8c-0.2,0-1.5,0-2.2,0c0.6-0.9,3.5-5.5,3.7-5.8
			C635,38.9,637.6,38.9,638.7,38.9z"/>
		<path style="fill:#005A74;" d="M627.5,68.3c-0.6-1-0.8-2.5-0.8-4.6V56c0-2,0.3-3.5,0.8-4.6c1.1-2,3.2-3.2,5.8-3.2
			c3.9,0,6.7,2.8,6.7,6.9c0,0,0,5.5,0,6.1c-0.7,0-9.3,0-9.3,0v3.5c0,1.6,1,2.7,2.6,2.7c1,0,2.3-0.5,2.6-2.4c0.4,0,3.4,0,4,0
			c-0.1,1.7-0.7,3.3-1.7,4.4c-1.2,1.3-2.9,2-4.9,2C630.7,71.5,628.6,70.3,627.5,68.3z M630.7,55.3v3h5.3v-3c0-1.9-1-3-2.7-3
			C631.7,52.2,630.7,53.4,630.7,55.3z"/>
		<path style="fill:#005A74;" d="M645.3,68.3c-0.6-1-0.8-2.6-0.8-4.6V56c0-2,0.3-3.5,0.8-4.6c1.1-2,3.2-3.2,5.8-3.2
			c2.6,0,4.7,1.2,5.8,3.2c0.6,1,0.8,2.5,0.8,4.6v7.7c0,2-0.3,3.5-0.8,4.6c-1.1,2-3.2,3.2-5.8,3.2C648.5,71.5,646.4,70.3,645.3,68.3z
			 M648.4,55.3v9.2c0,1.9,1,3,2.7,3c1.7,0,2.6-1.1,2.6-3v-9.2c0-1.9-1-3-2.6-3C649.4,52.2,648.4,53.4,648.4,55.3z"/>
		<path style="fill:#005A74;" d="M671.1,64.9c0-1.5-0.8-2.5-2.6-3.2c0,0-2.3-0.8-2.3-0.8c-2.9-1.1-4.5-3.3-4.5-6.1
			c0-3.6,2.9-6.5,6.6-6.5c3.5,0,6,2.6,6.2,6.1c-0.6,0-3.3,0-3.7,0c-0.2-1.4-1.2-2.4-2.7-2.4c-1.7,0-2.7,1.4-2.7,2.7
			c0,1,0.3,2,2.2,2.7l2.8,1.1c3,1.1,4.4,3.2,4.4,6.3c0,3.8-2.9,6.7-6.7,6.7c-3.8,0-6.3-2.5-6.6-6.3c0.7,0,3.3,0,3.7,0
			c0.4,2.1,1.7,2.6,2.8,2.6C669.6,67.8,671.1,66.7,671.1,64.9z"/>
		<path style="fill:#005A74;" d="M679.9,68.3c-0.6-1-0.8-2.5-0.8-4.6V56c0-2,0.3-3.5,0.8-4.6c1.1-2,3.2-3.2,5.8-3.2
			c3.9,0,6.4,2.7,6.6,6.8c-0.6,0-3.5,0-4,0c-0.2-2.3-1.7-2.8-2.6-2.8c-1.7,0-2.7,1.1-2.7,3v9.5c0,1.6,1,2.7,2.7,2.7
			c1,0,2.3-0.5,2.6-2.4c0.4,0,3.4,0,4,0c-0.1,1.7-0.7,3.3-1.7,4.4c-1.2,1.3-2.9,2-4.9,2C683.2,71.5,681,70.3,679.9,68.3z"/>
		<path style="fill:#005A74;" d="M700.4,39.1c0,0.6,0,3.5,0,4c-0.6,0-3.4,0-4,0c0-0.5,0-3.4,0-4C696.9,39.1,699.8,39.1,700.4,39.1z"
			/>
		<path style="fill:#005A74;" d="M700.4,48.5c0,0.7,0,22,0,22.7c-0.6,0-3.4,0-4,0c0-0.7,0-22,0-22.7
			C696.9,48.5,699.8,48.5,700.4,48.5z"/>
		<path style="fill:#005A74;" d="M705.8,68.3c-0.6-1-0.8-2.5-0.8-4.6V56c0-2,0.3-3.5,0.8-4.6c1.1-2,3.2-3.2,5.8-3.2
			c3.9,0,6.7,2.8,6.7,6.9c0,0,0,5.5,0,6.1c-0.6,0-9.3,0-9.3,0v3.5c0,1.6,1,2.7,2.7,2.7c1,0,2.3-0.5,2.6-2.4c0.4,0,3.4,0,4,0
			c-0.1,1.7-0.7,3.3-1.7,4.4c-1.3,1.3-2.9,2-4.9,2C709,71.5,706.9,70.3,705.8,68.3z M709,55.3v3h5.3v-3c0-1.9-1-3-2.7-3
			C710,52.2,709,53.4,709,55.3z"/>
		<path style="fill:#005A74;" d="M759,68.3c-0.6-1-0.8-2.5-0.8-4.6V56c0-2,0.3-3.5,0.8-4.6c1.1-2,3.2-3.2,5.8-3.2
			c3.9,0,6.7,2.8,6.7,6.9c0,0,0,5.5,0,6.1c-0.7,0-9.3,0-9.3,0v3.5c0,1.6,1,2.7,2.6,2.7c1,0,2.3-0.5,2.6-2.4c0.4,0,3.4,0,4,0
			c-0.1,1.7-0.7,3.3-1.7,4.4c-1.3,1.3-2.9,2-4.9,2C762.2,71.5,760.1,70.3,759,68.3z M762.2,55.3v3h5.3v-3c0-1.9-1-3-2.7-3
			C763.2,52.2,762.2,53.4,762.2,55.3z"/>
		<path style="fill:#005A74;" d="M727.6,50.6c1.1-1.6,2.4-2.4,4.1-2.4c2.2,0,4.5,1.4,4.5,5.4c0,0,0,16.9,0,17.6c-0.6,0-3.4,0-4,0
			c0-0.7,0-15.8,0-15.8c0-1.9-1-3.1-2.7-3.1c-2.4,0-2.7,2.1-2.7,3.6c0,0,0,14.7,0,15.4c-0.6,0-3.5,0-4,0c0-0.7,0-22,0-22.7
			c0.6,0,3.5,0,4,0c0,0.5,0,3.1,0,3.1L727.6,50.6z"/>
		<path style="fill:#005A74;" d="M742.2,68.3c-0.6-1-0.8-2.6-0.8-4.6V56c0-2,0.3-3.5,0.8-4.6c1.1-2,3.2-3.2,5.8-3.2
			c3.9,0,6.4,2.7,6.6,6.8c-0.6,0-3.5,0-4,0c-0.1-1.8-1-2.8-2.6-2.8c-1.7,0-2.7,1.1-2.7,3v9.5c0,1.6,1,2.7,2.7,2.7
			c1.5,0,2.3-0.8,2.6-2.4c0.5,0,3.4,0,4,0c-0.1,1.7-0.7,3.3-1.7,4.4c-1.2,1.3-2.9,2-4.9,2C745.4,71.5,743.3,70.3,742.2,68.3z"/>
		<path style="fill:#005A74;" d="M784.9,64.9c0-1.5-0.8-2.5-2.6-3.2c0,0-2.3-0.8-2.3-0.8c-2.9-1.1-4.5-3.3-4.5-6.1
			c0-3.6,2.9-6.5,6.6-6.5c3.5,0,6,2.6,6.2,6.1c-0.6,0-3.3,0-3.7,0c-0.2-1.4-1.2-2.4-2.7-2.4c-1.7,0-2.7,1.4-2.7,2.7
			c0,1,0.3,2,2.2,2.7l2.8,1.1c3,1.1,4.4,3.2,4.4,6.3c0,3.8-2.9,6.7-6.6,6.7c-3.8,0-6.3-2.5-6.6-6.3c0.7,0,3.3,0,3.8,0
			c0.4,2.1,1.7,2.6,2.8,2.6C783.4,67.8,784.9,66.7,784.9,64.9z"/>
		<path style="fill:#005A74;" d="M852.5,48.5c0,0.7,0,22,0,22.7c-0.6,0-3.4,0-4,0c0-0.5,0-3.1,0-3.1l-0.7,1
			c-1.1,1.6-2.3,2.4-4.1,2.4c-2.2,0-4.5-1.4-4.5-5.4c0,0,0-16.9,0-17.6c0.5,0,3.4,0,4,0c0,0.7,0,15.8,0,15.8c0,1.9,1,3.1,2.6,3.1
			c2.4,0,2.7-2,2.7-3.6c0,0,0-14.7,0-15.4C849.1,48.5,852,48.5,852.5,48.5z"/>
		<path style="fill:#005A74;" d="M827.9,71.5c2.6,0,4.7-1.2,5.8-3.2c0.6-1,0.8-2.6,0.8-4.6V56c0-2-0.3-3.5-0.8-4.6
			c-1.1-2-3.2-3.2-5.8-3.2c-2.6,0-4.7,1.2-5.8,3.2c-0.6,1-0.8,2.5-0.8,4.6v7.7c0,2,0.3,3.5,0.8,4.6
			C823.1,70.3,825.3,71.5,827.9,71.5z M827.9,52.2c1.7,0,2.7,1.1,2.7,3v9.2c0,1.9-1,3-2.7,3c-1.7,0-2.7-1.1-2.7-3v-9.2
			C825.2,53.4,826.2,52.2,827.9,52.2z"/>
		<path style="fill:#005A74;" d="M807.9,50.5c1.2-1.3,2-2.2,4.2-2.2c1.8,0,3,0.7,3.8,2c0.5,1,0.7,2.4,0.7,4.9V64
			c0,3.4-0.2,4.6-0.7,5.5c-0.9,1.4-2,1.9-3.9,1.9c-1.7,0-3.1-0.8-4-2.2l-0.7-1l-0.1,1.2c0,0,0,10.6,0,11.2c-0.6,0-3.4,0-4,0
			c0-0.7,0-31.4,0-32.1c0.6,0,3.4,0,4,0c0,0.5,0,2.7,0,2.7L807.9,50.5z M807.2,55.5v9.1c0,1.7,1.2,2.9,2.7,2.9
			c1.7,0,2.7-1.1,2.7-3.1v-8.6c0-2.2-1-3.5-2.7-3.5C808.3,52.2,807.2,53.6,807.2,55.5z"/>
		<path style="fill:#005A74;" d="M862.1,50.9c1.9-1.7,3.4-2.6,5.6-2.6c0,0.6,0,3.5,0,4.2c-0.5-0.1-1.1-0.2-1.1-0.2
			c-2.5,0-5.1,1.7-5.1,5.4c0,0,0,12.9,0,13.5c-0.6,0-3.4,0-4,0c0-0.7,0-22,0-22.7c0.6,0,3.4,0,4,0c0,0.5,0,2.9,0,2.9L862.1,50.9z"/>
		<path style="fill:#005A74;" d="M893.5,48.5c0,0.7,0,22,0,22.7c-0.6,0-3.4,0-4,0c0-0.5,0-3.1,0-3.1l-0.7,1
			c-1.1,1.6-2.4,2.4-4.1,2.4c-2.2,0-4.5-1.4-4.5-5.4c0,0,0-16.9,0-17.6c0.6,0,3.5,0,4,0c0,0.7,0,15.8,0,15.8c0,1.9,1,3.1,2.7,3.1
			c2.4,0,2.7-2,2.7-3.6c0,0,0-14.7,0-15.4C890,48.5,892.9,48.5,893.5,48.5z"/>
		<path style="fill:#005A74;" d="M903.2,50.6c1.1-1.6,2.4-2.4,4.1-2.4c2.2,0,4.5,1.4,4.5,5.4c0,0,0,16.9,0,17.6c-0.6,0-3.5,0-4,0
			c0-0.7,0-15.8,0-15.8c0-1.9-1-3.1-2.7-3.1c-2.4,0-2.7,2.1-2.7,3.6c0,0,0,14.7,0,15.4c-0.6,0-3.4,0-4,0c0-0.7,0-22,0-22.7
			c0.6,0,3.4,0,4,0c0,0.5,0,3.1,0,3.1L903.2,50.6z"/>
		<path style="fill:#005A74;" d="M955.6,39.1c0,0.5,0,3.2,0,3.7c-0.6,0-5.4,0-5.4,0s0,27.7,0,28.4c-0.6,0-3.5,0-4,0
			c0-0.7,0-28.4,0-28.4s-4.8,0-5.4,0c0-0.5,0-3.2,0-3.7C941.3,39.1,954.9,39.1,955.6,39.1z"/>
		<path style="fill:#005A74;" d="M977.5,50.9c1.9-1.7,3.4-2.6,5.7-2.6c0,0.6,0,3.5,0,4.2c-0.5-0.1-1.1-0.2-1.1-0.2
			c-2.5,0-5.2,1.7-5.2,5.4c0,0,0,12.9,0,13.5c-0.6,0-3.4,0-4,0c0-0.7,0-22,0-22.7c0.6,0,3.4,0,4,0c0,0.5,0,2.9,0,2.9L977.5,50.9z"/>
		<path style="fill:#005A74;" d="M990.4,50.9c1.9-1.7,3.4-2.6,5.6-2.6c0,0.6,0,3.5,0,4.2c-0.5-0.1-1.1-0.2-1.1-0.2
			c-2.5,0-5.1,1.7-5.1,5.4c0,0,0,12.9,0,13.5c-0.6,0-3.4,0-4,0c0-0.7,0-22,0-22.7c0.5,0,3.4,0,4,0c0,0.5,0,2.9,0,2.9L990.4,50.9z"/>
		<path style="fill:#005A74;" d="M1057.9,48.5c0,0.7,0,22,0,22.7c-0.6,0-3.5,0-4,0c0-0.5,0-3.1,0-3.1l-0.7,1
			c-1.1,1.6-2.4,2.4-4.2,2.4c-2.1,0-4.5-1.4-4.5-5.4c0,0,0-16.9,0-17.6c0.6,0,3.4,0,4,0c0,0.7,0,15.8,0,15.8c0,1.9,1,3.1,2.7,3.1
			c2.4,0,2.7-2,2.7-3.6c0,0,0-14.7,0-15.4C1054.4,48.5,1057.3,48.5,1057.9,48.5z"/>
		<path style="fill:#005A74;" d="M1039.5,39.1c0,0.7,0,31.4,0,32.1c-0.6,0-3.4,0-4,0c0-0.5,0-2.7,0-2.7l-0.6,0.7
			c-1.2,1.3-2,2.2-4.2,2.2c-1.8,0-3-0.7-3.8-2c-0.5-1-0.8-2.4-0.8-4.9v-8.9c0-3.4,0.2-4.6,0.7-5.5c0.8-1.4,2-1.9,3.9-1.9
			c1.7,0,3.1,0.8,4,2.2l0.7,1l0.1-1.2c0,0,0-10.6,0-11.2C1036,39.1,1038.9,39.1,1039.5,39.1z M1030.1,55.4v8.6c0,2.3,1,3.5,2.7,3.5
			c1.6,0,2.7-1.3,2.7-3.3v-9.1c0-1.6-1.2-2.9-2.7-2.9C1031.5,52.2,1030.1,52.8,1030.1,55.4z"/>
		<path style="fill:#005A74;" d="M1067.5,50.9c1.9-1.7,3.4-2.6,5.6-2.6c0,0.6,0,3.5,0,4.2c-0.5-0.1-1.1-0.2-1.1-0.2
			c-2.5,0-5.1,1.7-5.1,5.4c0,0,0,12.9,0,13.5c-0.6,0-3.5,0-4,0c0-0.7,0-22,0-22.7c0.6,0,3.5,0,4,0c0,0.5,0,2.9,0,2.9L1067.5,50.9z"
			/>
		<path style="fill:#005A74;" d="M1076.8,50.1c1.2-1.2,2.9-1.9,4.9-1.9c3.2,0,6.7,1.8,6.7,7c0,0,0,15.3,0,15.9c-0.6,0-3.5,0-4,0
			c0-0.5-0.1-3.1-0.1-3.1l-0.6,0.8c-1.3,1.7-2.2,2.5-4.3,2.5c-2.1,0-4.7-1-4.7-5.9c0-4.9,1.1-7.6,7.1-7.6l1.1,0.1l1.5,0.1l0-0.4
			v-2.4c0-2-1-3.1-2.7-3.1c-1.4,0-2.5,1-2.9,2.4c-0.4,0-3.2,0-3.9,0C1075,52.8,1075.7,51.2,1076.8,50.1z M1078.6,64.7
			c0,2,1.1,3.4,2.8,3.4c1.8,0,2.9-1.3,2.9-3.4v-3.5l-1.6-0.2C1080.1,61,1078.6,62.3,1078.6,64.7z"/>
		<path style="fill:#005A74;" d="M1097,39.1c0,0.7,0,12.4,0,12.4l0.7-1c1-1.5,2.4-2.2,4-2.2c1.9,0,3,0.6,3.9,2
			c0.5,0.9,0.7,2,0.7,5.5v8.9c0,2.5-0.2,3.9-0.7,4.9c-0.7,1.4-2,2-3.8,2c-2.2,0-3-0.9-4.2-2.2l-0.6-0.7l0,0.9c0,0,0,1.3,0,1.8
			c-0.6,0-3.5,0-4,0c0-0.7,0-31.5,0-32.1C1093.5,39.1,1096.4,39.1,1097,39.1z M1097,55.1v9.1c0,1.9,1.1,3.3,2.7,3.3
			c1.7,0,2.6-1.3,2.6-3.5v-8.6c0-2.6-1.4-3.1-2.6-3.1C1098.1,52.2,1097,53.5,1097,55.1z"/>
		<path style="fill:#005A74;" d="M1114.5,39.4c0,0.7,0,25.9,0,25.9c0,1.8,0.6,2.5,2.3,2.7c0,0.5,0,3.2,0,3.8c-4-0.1-6.3-1.2-6.3-6.2
			c0,0,0-25.5,0-26.2C1111.1,39.4,1113.9,39.4,1114.5,39.4z"/>
		<path style="fill:#005A74;" d="M1120.6,68.3c-0.6-1-0.8-2.6-0.8-4.6V56c0-2,0.3-3.5,0.8-4.6c1.1-2,3.2-3.2,5.8-3.2
			c3.9,0,6.7,2.8,6.7,6.9c0,0,0,5.5,0,6.1c-0.7,0-9.3,0-9.3,0v3.5c0,1.6,1,2.7,2.7,2.7c1.5,0,2.3-0.8,2.6-2.4c0.4,0,3.4,0,4,0
			c-0.1,1.7-0.7,3.3-1.7,4.4c-1.3,1.3-2.9,2-4.9,2C1123.8,71.5,1121.7,70.3,1120.6,68.3z M1123.7,55.3v3h5.3v-3c0-1.9-1-3-2.7-3
			C1124.7,52.2,1123.7,53.4,1123.7,55.3z"/>
		<path style="fill:#005A74;" d="M999.5,68.3c-0.6-1-0.8-2.6-0.8-4.6V56c0-2,0.3-3.5,0.8-4.6c1.1-2,3.2-3.2,5.8-3.2
			c3.9,0,6.6,2.8,6.6,6.9c0,0,0,5.5,0,6.1c-0.6,0-9.3,0-9.3,0v3.5c0,1.6,1,2.7,2.7,2.7c1.4,0,2.3-0.8,2.6-2.4c0.5,0,3.4,0,4,0
			c-0.1,1.7-0.7,3.3-1.7,4.4c-1.3,1.3-2.9,2-4.9,2C1002.7,71.5,1000.6,70.3,999.5,68.3z M1002.7,55.3v3h5.3v-3c0-1.9-1-3-2.7-3
			C1003.7,52.2,1002.7,53.4,1002.7,55.3z"/>
		<path style="fill:#005A74;" d="M955.9,68.3c-0.6-1-0.8-2.6-0.8-4.6V56c0-2,0.3-3.5,0.8-4.6c1.1-2,3.2-3.2,5.8-3.2
			c3.9,0,6.7,2.8,6.7,6.9c0,0,0,5.5,0,6.1c-0.7,0-9.3,0-9.3,0v3.5c0,1.6,1,2.7,2.7,2.7c1.5,0,2.3-0.8,2.6-2.4c0.4,0,3.4,0,4,0
			c-0.1,1.7-0.7,3.3-1.7,4.4c-1.2,1.3-2.9,2-4.9,2C959.1,71.5,957,70.3,955.9,68.3z M959,55.3v3h5.3v-3c0-1.9-1-3-2.7-3
			C960,52.2,959,53.4,959,55.3z"/>
		<path style="fill:#005A74;" d="M917.3,68.3c-0.6-1-0.8-2.6-0.8-4.6V56c0-2,0.3-3.5,0.8-4.6c1.1-2,3.2-3.2,5.8-3.2
			c3.9,0,6.7,2.8,6.7,6.9c0,0,0,5.5,0,6.1c-0.7,0-9.3,0-9.3,0v3.5c0,1.6,1,2.7,2.7,2.7c1.4,0,2.3-0.8,2.6-2.4c0.5,0,3.4,0,4,0
			c-0.1,1.7-0.7,3.3-1.7,4.4c-1.3,1.3-2.9,2-4.9,2C920.5,71.5,918.4,70.3,917.3,68.3z M920.5,55.3v3h5.3v-3c0-1.9-1-3-2.7-3
			C921.5,52.2,920.5,53.4,920.5,55.3z"/>
	</g>
</g>
</svg>
