<?xml version="1.0" encoding="UTF-8" standalone="no"?><!DOCTYPE svg PUBLIC "-//W3C//DTD SVG 1.1//EN" "http://www.w3.org/Graphics/SVG/1.1/DTD/svg11.dtd"><svg width="100%" height="100%" viewBox="0 0 4234 3442" version="1.1" xmlns="http://www.w3.org/2000/svg" xmlns:xlink="http://www.w3.org/1999/xlink" xml:space="preserve" xmlns:serif="http://www.serif.com/" style="fill-rule:evenodd;clip-rule:evenodd;stroke-linejoin:round;stroke-miterlimit:2;"><g><path d="M349.975,876.754l67.296,0l63.533,108.271l63.534,-108.271l67.295,0l0,263.154l-53.383,0l0,-187.212l-58.646,96.987l-37.596,0l-58.646,-96.987l0,187.212l-53.387,0l0,-263.154Z" style="fill:#231f20;fill-rule:nonzero;"/><rect x="684.95" y="876.754" width="53.383" height="263.154" style="fill:#231f20;fill-rule:nonzero;"/><path d="M812.017,876.754l68.42,0l117.671,188.346l0,-188.346l53.384,0l0,263.154l-68.421,0l-117.671,-189.091l0,189.091l-53.383,0l0,-263.154Z" style="fill:#231f20;fill-rule:nonzero;"/><rect x="1125.18" y="876.754" width="53.383" height="263.154" style="fill:#231f20;fill-rule:nonzero;"/><path d="M1267.29,1067.73c15.787,20.3 36.841,32.334 58.271,32.334c21.05,0 33.833,-11.28 33.833,-30.455c0,-46.991 -120.3,-36.466 -120.3,-124.058c0,-41.729 34.208,-76.312 84.208,-76.312c39.475,0 69.925,17.666 92.109,44.358l-39.1,34.962c-15.413,-19.925 -32.709,-32.708 -52.634,-32.708c-18.416,0 -30.45,12.033 -30.45,27.446c0,46.992 120.3,36.087 120.3,125.187c-0.75,48.871 -39.096,78.946 -87.216,78.946c-44.363,0 -74.434,-16.167 -97.746,-43.987l38.725,-35.713Z" style="fill:#231f20;fill-rule:nonzero;"/><path d="M1440.61,876.754l215.787,0l0,48.496l-81.2,0l0,214.658l-53.383,0l0,-214.658l-81.204,0l0,-48.496Z" style="fill:#231f20;fill-rule:nonzero;"/><path d="M1707.91,803.446l54.888,0l42.479,50.75l-48.871,0l-48.496,-50.75Zm-4.512,73.308l153.383,0l0,45.488l-100,0l0,60.9l84.963,0l0,45.491l-84.963,0l0,65.788l100,0l0,45.487l-153.383,0l0,-263.154Z" style="fill:#231f20;fill-rule:nonzero;"/><path d="M1972.2,922.242l0,65.787l30.079,0c22.558,0 35.713,-12.025 35.713,-33.454c0,-19.925 -13.155,-32.333 -35.713,-32.333l-30.079,0Zm-53.383,-45.488l80.454,0c57.896,0 93.608,29.7 93.608,78.571c0,31.579 -15.412,55.263 -42.108,68.046l82.704,116.537l-63.904,0l-69.925,-106.387l-27.446,0l0,106.387l-53.383,0l0,-263.154Z" style="fill:#231f20;fill-rule:nonzero;"/><path d="M2166.57,876.754l153.387,0l0,45.488l-100,0l0,60.9l84.963,0l0,45.491l-84.963,0l0,65.788l100,0l0,45.487l-153.387,0l0,-263.154Z" style="fill:#231f20;fill-rule:nonzero;"/><path d="M403.362,1304.71l0,166.163l50.755,0c48.871,0 84.208,-36.467 84.208,-83.079c0,-46.996 -35.337,-83.084 -84.208,-83.084l-50.755,0Zm-53.387,-48.495l103.387,0c83.459,0 139.851,60.525 139.851,131.579c0,71.05 -56.392,131.579 -139.851,131.579l-103.387,0l0,-263.158Z" style="fill:#231f20;fill-rule:nonzero;"/><path d="M644.725,1256.22l153.383,0l0,45.487l-100,0l0,60.904l84.963,0l0,45.488l-84.963,0l0,65.787l100,0l0,45.492l-153.383,0l0,-263.158Z" style="fill:#231f20;fill-rule:nonzero;"/><path d="M957.888,1256.22l53.383,0l0,214.658l100,0l0,48.5l-153.383,0l0,-263.158Z" style="fill:#231f20;fill-rule:nonzero;"/><path d="M1307.14,1405.46l-36.092,-98.871l-36.092,98.871l72.184,0Zm-71.054,-149.246l69.924,0l99.625,263.158l-56.766,0l-25.188,-68.421l-105.262,0l-25.188,68.421l-56.766,0l99.621,-263.158Z" style="fill:#231f20;fill-rule:nonzero;"/><path d="M1516.92,1256.22l215.792,0l0,48.495l-81.205,0l0,214.663l-53.383,0l0,-214.663l-81.204,0l0,-48.495Z" style="fill:#231f20;fill-rule:nonzero;"/><path d="M1833.09,1301.7l0,65.792l30.075,0c22.558,0 35.716,-12.033 35.716,-33.463c0,-19.925 -13.158,-32.329 -35.716,-32.329l-30.075,0Zm-53.384,-45.487l80.454,0c57.896,0 93.605,29.696 93.605,78.57c0,31.58 -15.413,55.263 -42.1,68.046l82.704,116.542l-63.913,0l-69.921,-106.392l-27.445,0l0,106.392l-53.384,0l0,-263.158Z" style="fill:#231f20;fill-rule:nonzero;"/><path d="M2176.33,1405.46l-36.091,-98.871l-36.092,98.871l72.183,0Zm-71.054,-149.246l69.925,0l99.625,263.158l-56.766,0l-25.188,-68.421l-105.262,0l-25.188,68.421l-56.771,0l99.625,-263.158Z" style="fill:#231f20;fill-rule:nonzero;"/><path d="M2315.44,1256.22l68.42,0l117.667,188.346l0,-188.346l53.383,0l0,263.158l-68.416,0l-117.675,-189.1l0,189.1l-53.379,0l0,-263.158Z" style="fill:#231f20;fill-rule:nonzero;"/><path d="M2643.64,1447.19c15.791,20.304 36.841,32.329 58.274,32.329c21.055,0 33.83,-11.275 33.83,-30.446c0,-46.996 -120.296,-36.467 -120.296,-124.063c0,-41.729 34.208,-76.316 84.208,-76.316c39.471,0 69.925,17.671 92.104,44.362l-39.1,34.963c-15.412,-19.925 -32.704,-32.708 -52.625,-32.708c-18.425,0 -30.454,12.029 -30.454,27.441c0,46.996 120.3,36.092 120.3,125.192c-0.754,48.871 -39.1,78.946 -87.221,78.946c-44.358,0 -74.433,-16.167 -97.741,-43.984l38.721,-35.716Z" style="fill:#231f20;fill-rule:nonzero;"/><rect x="2845.9" y="1256.22" width="53.383" height="263.158" style="fill:#231f20;fill-rule:nonzero;"/><path d="M2945.9,1256.22l215.788,0l0,48.495l-81.2,0l0,214.663l-53.384,0l0,-214.663l-81.204,0l0,-48.495Z" style="fill:#231f20;fill-rule:nonzero;"/><rect x="3208.69" y="1256.22" width="53.383" height="263.158" style="fill:#231f20;fill-rule:nonzero;"/><path d="M3537.64,1387.8c0,-50.375 -35.338,-89.1 -84.588,-89.1c-49.621,0 -84.958,38.725 -84.958,89.1c0,50.371 35.337,89.096 84.958,89.096c49.25,0 84.588,-38.725 84.588,-89.096Zm54.887,0c0,75.187 -56.766,139.096 -139.475,139.096c-83.079,0 -139.846,-63.909 -139.846,-139.096c0,-75.188 56.767,-139.1 139.846,-139.1c82.709,0 139.475,63.912 139.475,139.1Z" style="fill:#231f20;fill-rule:nonzero;"/><path d="M3643.67,1256.22l68.421,0l117.666,188.346l0,-188.346l53.384,0l0,263.158l-68.417,0l-117.671,-189.1l0,189.1l-53.383,0l0,-263.158Z" style="fill:#231f20;fill-rule:nonzero;"/><path d="M401.858,1613.12l42.484,-50.754l54.887,0l-48.875,50.754l-48.496,0Zm-51.883,22.554l153.387,0l0,45.492l-100,0l0,60.9l84.963,0l0,45.487l-84.963,0l0,65.788l100,0l0,45.492l-153.387,0l0,-263.159Z" style="fill:#231f20;fill-rule:nonzero;"/><path d="M745.475,1820.27l42.108,32.329c-24.062,32.708 -63.158,53.762 -110.904,53.762c-83.079,0 -139.846,-63.912 -139.846,-139.1c0,-75.187 56.767,-139.1 139.846,-139.1c47.746,0 86.842,21.434 110.904,53.388l-42.108,32.704c-15.038,-21.425 -38.721,-36.092 -68.796,-36.092c-49.625,0 -84.958,38.725 -84.958,89.1c0,50.375 35.333,89.1 84.958,89.1c30.075,0 53.758,-14.666 68.796,-36.091Z" style="fill:#231f20;fill-rule:nonzero;"/><path d="M1033.83,1767.26c0,-50.375 -35.337,-89.1 -84.587,-89.1c-49.621,0 -84.958,38.725 -84.958,89.1c0,50.375 35.337,89.1 84.958,89.1c49.25,0 84.587,-38.725 84.587,-89.1Zm54.888,0c0,75.188 -56.767,139.1 -139.475,139.1c-83.079,0 -139.846,-63.912 -139.846,-139.1c0,-75.187 56.767,-139.1 139.846,-139.1c82.708,0 139.475,63.913 139.475,139.1Z" style="fill:#231f20;fill-rule:nonzero;"/><path d="M1139.86,1635.68l53.384,0l0,214.658l100,0l0,48.501l-153.384,0l0,-263.159Z" style="fill:#231f20;fill-rule:nonzero;"/><path d="M1532.72,1767.26c0,-50.375 -35.338,-89.1 -84.583,-89.1c-49.625,0 -84.963,38.725 -84.963,89.1c0,50.375 35.338,89.1 84.963,89.1c49.245,0 84.583,-38.725 84.583,-89.1Zm54.887,0c0,75.188 -56.766,139.1 -139.47,139.1c-83.084,0 -139.85,-63.912 -139.85,-139.1c0,-75.187 56.766,-139.1 139.85,-139.1c82.704,0 139.47,63.913 139.47,139.1Z" style="fill:#231f20;fill-rule:nonzero;"/><path d="M1827.84,1833.42l0,-44.362l-66.917,0l0,-48.496l120.3,0l0,112.029c-24.433,32.708 -65.412,53.762 -114.658,53.762c-85.338,0 -143.609,-63.912 -143.609,-139.1c0,-75.187 56.767,-139.1 139.85,-139.1c47.742,0 86.842,21.434 110.9,53.388l-42.104,32.704c-15.037,-21.425 -38.721,-36.092 -68.796,-36.092c-49.625,0 -84.962,38.725 -84.962,89.1c0,50.375 37.216,89.1 88.721,89.1c24.812,0 46.241,-8.65 61.275,-22.933Z" style="fill:#231f20;fill-rule:nonzero;"/><rect x="1940.64" y="1635.68" width="53.379" height="263.158" style="fill:#231f20;fill-rule:nonzero;"/><path d="M2269.59,1767.26c0,-50.375 -35.337,-89.1 -84.587,-89.1c-49.625,0 -84.958,38.725 -84.958,89.1c0,50.375 35.333,89.1 84.958,89.1c49.25,0 84.587,-38.725 84.587,-89.1Zm74.055,150c5.641,0 13.162,-0.754 18.8,-3.008l0,45.113c-8.646,3.383 -16.167,4.887 -27.821,4.887c-29.325,0 -56.392,-12.033 -82.325,-34.588l-31.209,-27.816c-11.275,3.004 -23.304,4.512 -36.087,4.512c-83.079,0 -139.85,-63.912 -139.85,-139.1c0,-75.187 56.771,-139.1 139.85,-139.1c82.708,0 139.471,63.913 139.471,139.1c0,43.988 -19.55,84.213 -51.879,109.775l15.791,15.038c20.3,18.421 38.346,25.187 55.259,25.187Z" style="fill:#231f20;fill-rule:nonzero;"/><path d="M2530.87,1635.68l53.383,0l0,160.15c0,69.175 -40.604,110.529 -106.767,110.529c-65.791,0 -106.391,-41.354 -106.391,-110.529l0,-160.15l53.383,0l0,164.658c0,35.342 19.925,56.021 53.384,56.021c32.708,0 53.008,-20.679 53.008,-56.021l0,-164.658Z" style="fill:#231f20;fill-rule:nonzero;"/><path d="M2650.42,1635.68l153.387,0l0,45.492l-100,0l0,60.9l84.963,0l0,45.487l-84.963,0l0,65.788l100,0l0,45.492l-153.387,0l0,-263.159Z" style="fill:#231f20;fill-rule:nonzero;"/><path d="M349.975,2015.14l153.387,0l0,45.487l-100,0l0,60.9l84.963,0l0,45.492l-84.963,0l0,65.787l100,0l0,45.488l-153.387,0l0,-263.154Z" style="fill:#231f20;fill-rule:nonzero;"/><path d="M543.967,2015.14l215.796,0l0,48.496l-81.205,0l0,214.658l-53.383,0l0,-214.658l-81.208,0l0,-48.496Z" style="fill:#231f20;fill-rule:nonzero;"/><path d="M919.542,2206.12c15.787,20.3 36.841,32.333 58.271,32.333c21.05,0 33.833,-11.279 33.833,-30.454c0,-46.992 -120.3,-36.467 -120.3,-124.059c0,-41.729 34.208,-76.316 84.208,-76.316c39.475,0 69.925,17.671 92.109,44.362l-39.101,34.959c-15.412,-19.921 -32.708,-32.705 -52.633,-32.705c-18.417,0 -30.45,12.034 -30.45,27.446c0,46.992 120.3,36.088 120.3,125.188c-0.75,48.871 -39.096,78.946 -87.217,78.946c-44.362,0 -74.433,-16.167 -97.745,-43.988l38.725,-35.712Z" style="fill:#231f20;fill-rule:nonzero;"/><path d="M1320.3,2146.72c0,-50.379 -35.337,-89.1 -84.587,-89.1c-49.625,0 -84.963,38.721 -84.963,89.1c0,50.375 35.338,89.096 84.963,89.096c49.25,0 84.587,-38.721 84.587,-89.096Zm54.888,0c0,75.187 -56.767,139.096 -139.475,139.096c-83.08,0 -139.846,-63.909 -139.846,-139.096c0,-75.192 56.766,-139.1 139.846,-139.1c82.708,0 139.475,63.908 139.475,139.1Z" style="fill:#231f20;fill-rule:nonzero;"/><path d="M1426.33,2015.14l53.384,0l0,214.662l100,0l0,48.492l-153.384,0l0,-263.154Z" style="fill:#231f20;fill-rule:nonzero;"/><rect x="1626.71" y="2015.14" width="53.383" height="263.154" style="fill:#231f20;fill-rule:nonzero;"/><path d="M1807.17,2063.64l0,166.166l50.75,0c48.87,0 84.212,-36.466 84.212,-83.083c0,-46.992 -35.342,-83.083 -84.212,-83.083l-50.75,0Zm-53.384,-48.496l103.384,0c83.458,0 139.845,60.525 139.845,131.579c0,71.05 -56.387,131.575 -139.845,131.575l-103.384,0l0,-263.154Z" style="fill:#231f20;fill-rule:nonzero;"/><path d="M2180.11,2164.39l-36.091,-98.871l-36.092,98.871l72.183,0Zm-71.05,-149.246l69.921,0l99.625,263.154l-56.766,0l-25.188,-68.421l-105.262,0l-25.188,68.421l-56.771,0l99.629,-263.154Z" style="fill:#231f20;fill-rule:nonzero;"/><rect x="2319.21" y="2015.14" width="53.383" height="263.154" style="fill:#231f20;fill-rule:nonzero;"/><path d="M2499.67,2060.63l0,65.788l30.075,0c22.554,0 35.712,-12.029 35.712,-33.454c0,-19.926 -13.158,-32.334 -35.712,-32.334l-30.075,0Zm-53.388,-45.487l80.454,0c57.892,0 93.609,29.7 93.609,78.57c0,31.58 -15.417,55.267 -42.105,68.046l82.709,116.538l-63.913,0l-69.925,-106.388l-27.441,0l0,106.388l-53.388,0l0,-263.154Z" style="fill:#231f20;fill-rule:nonzero;"/><path d="M2694.03,2015.14l153.384,0l0,45.487l-100,0l0,60.9l84.962,0l0,45.492l-84.962,0l0,65.787l100,0l0,45.488l-153.384,0l0,-263.154Z" style="fill:#231f20;fill-rule:nonzero;"/><path d="M425.879,3092.56l1.929,-5.979c-25.662,-4.825 -28.946,-4.825 -18.716,-32.8l10.416,-28.75l28.367,0c12.733,0 12.925,5.209 10.996,19.1l7.333,0l16.979,-46.5l-7.333,0c-6.367,11 -11.383,19.104 -25.275,19.104l-27.975,0l14.854,-40.716c4.629,-12.925 7.334,-15.625 24.696,-15.625l12.35,0c17.946,0 20.067,4.825 20.067,22.958l7.141,0l5.98,-31.641l-106.509,0l-1.929,5.983c20.646,4.246 22.575,6.171 12.929,32.8l-23.154,63.287c-9.65,26.429 -13.7,28.555 -37.433,32.8l-1.738,5.979l76.025,0Zm147.792,-77.562c3.667,-12.542 1.737,-23.542 -7.908,-23.542c-11.384,0 -14.28,8.684 -25.863,33.575l0,-14.279c0,-10.225 -3.279,-19.296 -12.533,-19.296c-10.809,0 -20.646,16.788 -28.171,33.379l5.017,0c5.208,-7.52 10.033,-11.962 13.891,-11.962c4.629,0 7.138,7.142 0,22.962l-20.837,46.309c-3.859,8.679 0.191,14.275 8.683,14.275c5.208,0 7.525,-1.346 9.646,-6.946l20.45,-54.217c5.792,-7.141 11,-13.312 17.562,-20.258l20.063,0Zm93.771,-27.979l-8.105,-0.579l-9.066,8.875l-1.934,0c-43.991,0 -81.999,49.396 -81.999,85.283c0,10.033 6.174,15.821 15.82,15.821c11.388,0 22.575,-16.209 35.117,-33.571l-0.579,6.175c-1.542,17.75 3.858,27.396 13.121,27.396c10.804,0 20.645,-16.784 28.171,-33.379l-5.017,0c-5.209,7.525 -10.034,11.962 -13.892,11.962c-4.05,0 -6.946,-7.329 0,-22.958l28.363,-65.025Zm-81.23,79.3c0,-23.729 26.434,-55.95 41.288,-55.95c3.283,0 6.367,0.383 9.071,1.154l-15.438,41.1c-8.875,10.804 -22.575,23.921 -28.941,23.921c-3.667,0 -5.98,-3.084 -5.98,-10.225Zm97.434,-60.004l17.75,0l-28.167,76.983c-2.512,6.563 0.963,13.121 7.717,13.121c16.012,0 41.867,-15.821 50.937,-37.429l-5.016,0c-7.138,7.525 -20.838,17.554 -32.609,19.679l25.854,-72.354l26.434,0l3.279,-11l-25.658,0l9.837,-27.784l-10.225,0l-18.329,27.784l-21.804,3.087l0,7.913Zm125.992,52.866l-6.559,0c-8.296,9.842 -17.171,17.559 -26.046,17.559c-9.07,0 -13.7,-5.404 -13.7,-17.559c0,-5.016 0.58,-10.033 1.542,-14.662l53.446,-17.558c10.421,-24.701 -2.121,-35.505 -16.788,-35.505c-25.271,0 -54.021,42.259 -54.021,79.305c0,16.591 7.909,25.658 20.259,25.658c14.471,0 29.521,-14.083 41.867,-37.238Zm-18.33,-53.446c7.142,0 13.317,5.405 10.034,19.1l-33.184,7.721c5.788,-15.433 15.434,-26.821 23.15,-26.821Zm118.471,9.263c3.667,-12.542 1.738,-23.542 -7.912,-23.542c-11.384,0 -14.28,8.684 -25.855,33.575l0,-14.279c0,-10.225 -3.279,-19.296 -12.541,-19.296c-10.804,0 -20.646,16.788 -28.171,33.379l5.017,0c5.212,-7.52 10.033,-11.962 13.896,-11.962c4.629,0 7.137,7.142 0,22.962l-20.842,46.309c-3.859,8.679 0.191,14.275 8.683,14.275c5.213,0 7.525,-1.346 9.65,-6.946l20.45,-54.217c5.788,-7.141 10.996,-13.312 17.559,-20.258l20.066,0Zm0.383,67.146c-3.858,8.679 0.192,14.275 8.684,14.275c5.208,0 7.521,-1.346 9.646,-6.946l20.45,-54.217c9.454,-11.575 28.945,-23.925 36.662,-23.925c5.596,0 4.821,4.63 1.158,11.575l-31.45,60.392c-3.087,5.983 0.963,13.121 7.717,13.121c15.433,0 33.767,-13.892 41.1,-33.379l-5.021,0c-5.016,7.141 -13.504,15.05 -21.416,16.404l27.012,-54.609c3.475,-6.945 5.213,-13.504 5.213,-18.712c0,-8.879 -5.017,-14.667 -14.279,-14.667c-13.313,0 -26.821,15.055 -42.834,33.575l0,-14.279c0,-10.225 -3.279,-19.296 -12.542,-19.296c-5.787,0 -11.387,5.021 -16.595,12.154l0,1.93c10.033,-0.575 14.47,14.475 7.333,30.295l-20.838,46.309Zm169.98,-118.084c6.95,0 12.737,-5.595 12.737,-12.733c0,-6.946 -5.787,-12.737 -12.737,-12.737c-7.138,0 -12.734,5.791 -12.734,12.737c0,7.138 5.596,12.733 12.734,12.733Zm-5.404,38.588c2.129,-7.138 -2.696,-11.192 -6.363,-11.192c-15.437,0 -33.767,13.892 -41.096,33.379l5.017,0c5.012,-7.137 13.504,-15.045 21.412,-16.395l-29.521,76.787c-2.695,7.142 2.705,11.192 6.371,11.192c14.663,0 31.834,-14.083 39.167,-33.379l-5.017,0c-5.016,7.141 -13.504,15.05 -21.416,16.404l31.446,-76.796Zm23.929,3.667l17.75,0l-28.175,76.983c-2.505,6.563 0.966,13.121 7.721,13.121c16.016,0 41.87,-15.821 50.937,-37.429l-5.012,0c-7.142,7.525 -20.842,17.554 -32.613,19.679l25.854,-72.354l26.438,0l3.279,-11l-25.663,0l9.842,-27.784l-10.229,0l-18.329,27.784l-21.8,3.087l0,7.913Zm115.375,-24.696l37.625,-35.121l0,-4.046l-20.259,0l-23.154,39.167l5.788,0Zm10.612,77.562l-6.558,0c-8.296,9.842 -17.175,17.559 -26.046,17.559c-9.071,0 -13.7,-5.404 -13.7,-17.559c0,-5.016 0.579,-10.033 1.542,-14.662l53.446,-17.558c10.42,-24.701 -2.121,-35.505 -16.788,-35.505c-25.271,0 -54.021,42.259 -54.021,79.305c0,16.591 7.908,25.658 20.258,25.658c14.471,0 29.521,-14.083 41.867,-37.238Zm-18.329,-53.446c7.142,0 13.317,5.405 10.033,19.1l-33.187,7.721c5.792,-15.433 15.437,-26.821 23.154,-26.821Z" style="fill:#231f20;fill-rule:nonzero;"/><path d="M464.083,2701.08l37.625,-25.854l0,-4.05l-22.771,0l-20.837,29.904l5.983,0Zm-15.437,80.846c12.733,0 12.929,5.208 10.996,19.1l7.333,0l16.979,-46.5l-7.333,0c-6.367,11 -11.379,19.104 -25.275,19.104l-27.975,0l14.083,-38.779c4.629,-12.929 7.334,-15.438 24.696,-15.438l12.35,0c17.946,0 20.067,4.825 20.067,22.763l7.141,0l5.98,-31.638l-106.509,0l-1.929,5.979c20.646,4.246 22.575,6.176 12.929,32.801l-23.154,63.287c-9.65,26.429 -13.7,28.554 -37.433,32.8l-1.738,5.979l118.471,0l21.225,-33.571l-8.104,0c-13.508,12.734 -30.483,24.888 -54.217,24.888c-31.454,0 -28.558,-1.35 -18.137,-30.096l11.191,-30.679l28.363,0Zm134.866,82.583c0,-12.35 -10.995,-16.791 -28.941,-22.187c-15.433,-4.634 -22.379,-5.984 -22.379,-11c0,-4.055 3.279,-8.88 9.841,-12.35c25.275,-1.35 41.675,-24.117 41.675,-43.221c0,-4.054 -0.771,-7.525 -2.125,-10.613l21.421,0l3.279,-11l-33.958,0c-4.054,-2.504 -8.879,-3.854 -13.7,-3.854c-26.821,0 -44.183,23.538 -44.183,42.638c0,14.475 9.258,23.541 20.446,25.662c-12.538,5.596 -19.484,12.154 -19.484,19.875c0,4.438 1.546,7.525 5.213,10.421c-28.946,8.487 -40.33,18.133 -40.33,31.833c0,13.317 17.559,18.913 38.396,18.913c35.309,0 64.829,-19.104 64.829,-35.117Zm-41.87,-52.871c-6.367,0 -8.871,-5.404 -8.871,-11.575c0,-17.17 9.262,-42.45 23.729,-42.45c6.371,0 8.879,5.405 8.879,11.579c0,17.171 -9.262,42.446 -23.737,42.446Zm-39.934,62.321c0,-10.225 9.838,-16.592 23.925,-22.187c4.63,2.316 11.571,4.825 20.838,7.912c14.662,4.825 20.258,6.754 20.258,11.188c0,9.458 -16.016,16.595 -37.816,16.595c-18.334,0 -27.205,-3.858 -27.205,-13.508Zm196.413,-128.116l-8.104,-0.575l-9.067,8.87l-1.929,0c-43.992,0 -82,49.396 -82,85.284c0,10.033 6.171,15.825 15.816,15.825c11.388,0 22.575,-16.213 35.121,-33.575l-0.583,6.175c-1.542,17.754 3.862,27.4 13.121,27.4c10.808,0 20.646,-16.788 28.171,-33.384l-5.017,0c-5.208,7.529 -10.033,11.963 -13.892,11.963c-4.05,0 -6.946,-7.329 0,-22.959l28.363,-65.024Zm-81.229,79.304c0,-23.734 26.433,-55.955 41.291,-55.955c3.28,0 6.367,0.388 9.067,1.159l-15.438,41.096c-8.875,10.804 -22.57,23.929 -28.937,23.929c-3.667,0 -5.983,-3.092 -5.983,-10.229Zm102.258,13.12l53.833,-141.045l-1.737,-2.121l-33.767,3.858l0,4.054l6.563,5.013c5.979,4.629 4.05,9.071 -1.355,23.35l-42.058,110.75c-3.087,5.979 0.963,13.121 7.717,13.121c15.433,0 31.833,-13.896 39.166,-33.384l-5.012,0c-5.021,7.142 -15.438,15.054 -23.35,16.404Zm102.646,-115.379c6.946,0 12.737,-5.595 12.737,-12.737c0,-6.946 -5.791,-12.738 -12.737,-12.738c-7.138,0 -12.733,5.792 -12.733,12.738c0,7.142 5.595,12.737 12.733,12.737Zm-5.4,38.584c2.121,-7.138 -2.704,-11.188 -6.367,-11.188c-15.437,0 -33.767,13.892 -41.1,33.375l5.017,0c5.017,-7.133 13.508,-15.046 21.421,-16.396l-29.521,76.792c-2.704,7.138 2.7,11.192 6.362,11.192c14.667,0 31.838,-14.088 39.171,-33.384l-5.017,0c-5.016,7.142 -13.508,15.054 -21.416,16.404l31.45,-76.795Zm23.921,3.666l17.75,0l-28.167,76.988c-2.508,6.558 0.967,13.121 7.717,13.121c16.012,0 41.866,-15.825 50.937,-37.434l-5.017,0c-7.137,7.525 -20.837,17.563 -32.608,19.679l25.859,-72.354l26.429,0l3.279,-11l-25.658,0l9.841,-27.779l-10.229,0l-18.329,27.779l-21.804,3.092l0,7.908Zm115.383,-24.695l37.621,-35.113l0,-4.054l-20.258,0l-23.155,39.167l5.792,0Zm10.608,77.566l-6.558,0c-8.3,9.838 -17.171,17.554 -26.05,17.554c-9.067,0 -13.696,-5.4 -13.696,-17.554c0,-5.016 0.575,-10.037 1.542,-14.667l53.446,-17.558c10.416,-24.7 -2.121,-35.5 -16.784,-35.5c-25.279,0 -54.029,42.254 -54.029,79.3c0,16.592 7.913,25.663 20.263,25.663c14.471,0 29.521,-14.088 41.866,-37.238Zm-18.329,-53.45c7.138,0 13.313,5.404 10.034,19.1l-33.188,7.721c5.788,-15.433 15.437,-26.821 23.154,-26.821Z" style="fill:#231f20;fill-rule:nonzero;"/><path d="M471.029,2469.35l-70.237,0l-1.93,5.979c20.646,4.246 22.58,6.175 12.93,32.8l-22.767,63.288c-9.65,26.437 -13.7,28.554 -37.433,32.8l-1.738,5.983l106.896,0l23.154,-41.292l-8.104,0c-13.121,14.471 -28.558,32.613 -52.292,32.613c-17.941,0 -20.066,-3.092 -10.416,-30.104l22.766,-63.288c9.455,-26.429 13.7,-28.554 37.434,-32.8l1.737,-5.979Zm77.754,12.35c6.946,0 12.734,-5.596 12.734,-12.738c0,-6.945 -5.788,-12.733 -12.734,-12.733c-7.141,0 -12.737,5.788 -12.737,12.733c0,7.142 5.596,12.738 12.737,12.738Zm-5.408,38.583c2.125,-7.133 -2.696,-11.187 -6.367,-11.187c-15.429,0 -33.762,13.891 -41.096,33.383l5.017,0c5.021,-7.141 13.508,-15.054 21.421,-16.404l-29.521,76.792c-2.704,7.141 2.7,11.191 6.367,11.191c14.662,0 31.837,-14.087 39.167,-33.379l-5.017,0c-5.017,7.138 -13.504,15.05 -21.417,16.4l31.446,-76.796Zm104.962,10.234c0,-15.63 -5.787,-21.421 -16.591,-21.421c-13.504,0 -26.238,14.279 -38.975,31.646l32.221,-84.709l-1.738,-2.116l-33.762,3.854l0,4.054l6.562,5.017c5.979,4.633 4.05,9.454 -1.354,23.346l-34.729,89.524c-2.508,6.559 -5.596,14.28 -5.596,16.405c0,9.258 12.542,17.941 23.925,17.941c26.242,0 70.037,-47.27 70.037,-83.541Zm-60.775,67.912c-5.212,0 -12.737,-4.825 -12.737,-9.066c0,-1.355 2.317,-7.334 5.212,-14.859l8.684,-22.962c9.258,-10.996 23.346,-22.763 31.254,-22.763c4.825,0 8.492,3.088 8.492,10.225c0,21.033 -19.68,59.425 -40.905,59.425Zm131.009,-21.608l-6.563,0c-8.295,9.837 -17.17,17.558 -26.046,17.558c-9.07,0 -13.699,-5.404 -13.699,-17.558c0,-5.017 0.579,-10.033 1.541,-14.667l53.446,-17.558c10.421,-24.692 -2.121,-35.5 -16.783,-35.5c-25.275,0 -54.025,42.258 -54.025,79.3c0,16.596 7.908,25.662 20.258,25.662c14.471,0 29.521,-14.087 41.871,-37.237Zm-18.333,-53.446c7.141,0 13.316,5.404 10.037,19.104l-33.187,7.713c5.787,-15.434 15.433,-26.817 23.15,-26.817Zm118.47,9.258c3.667,-12.537 1.738,-23.537 -7.912,-23.537c-11.384,0 -14.275,8.683 -25.854,33.575l0,-14.279c0,-10.225 -3.28,-19.296 -12.542,-19.296c-10.804,0 -20.646,16.787 -28.167,33.383l5.017,0c5.208,-7.529 10.029,-11.962 13.892,-11.962c4.629,0 7.137,7.133 0,22.954l-20.842,46.312c-3.858,8.684 0.196,14.275 8.683,14.275c5.213,0 7.525,-1.35 9.65,-6.945l20.45,-54.217c5.788,-7.138 10.996,-13.317 17.559,-20.263l20.066,0Zm13.892,-8.683l14.083,0l-28.171,76.988c-2.508,6.558 0.967,13.12 7.717,13.12c16.017,0 41.871,-15.825 50.938,-37.429l-5.017,0c-7.138,7.525 -20.837,17.558 -32.604,19.679l25.854,-72.358l26.433,0l3.279,-10.992l-25.662,0l9.842,-27.787l-10.225,0l-18.334,27.787l-18.133,3.084l0,7.908Zm110.554,-24.692l37.625,-35.116l0,-4.054l-20.262,0l-23.15,39.17l5.787,0Zm10.613,77.563l-6.563,0c-8.296,9.837 -17.171,17.558 -26.046,17.558c-9.07,0 -13.7,-5.404 -13.7,-17.558c0,-5.017 0.58,-10.033 1.542,-14.667l53.45,-17.558c10.417,-24.692 -2.125,-35.5 -16.788,-35.5c-25.279,0 -54.025,42.258 -54.025,79.3c0,16.596 7.909,25.662 20.259,25.662c14.471,0 29.521,-14.087 41.871,-37.237Zm-18.329,-53.446c7.137,0 13.312,5.404 10.029,19.104l-33.184,7.713c5.788,-15.434 15.434,-26.817 23.155,-26.817Z" style="fill:#231f20;fill-rule:nonzero;"/><path d="M630.958,602.983c-0.662,-0.662 1.979,0 2.638,-1.321l-5.284,0c-0.658,0 -0.658,-0.662 -0.658,-1.325c-3.3,0.663 -7.266,1.984 -10.567,2.646c-4.62,1.317 -8.583,4.621 -13.866,5.942c-7.263,2.642 -13.204,8.583 -21.129,11.225c-0.663,0 -0.663,-0.658 -0.663,-1.321c0.663,-1.983 3.304,-2.641 4.625,-4.625c0,-0.658 0,-1.316 -0.662,-1.316c5.287,-7.267 12.55,-11.226 19.15,-17.171l0,-1.979c1.983,-2.642 5.283,-3.963 6.604,-7.267c0.658,-1.979 3.304,-4.621 6.604,-5.942c-0.663,-0.658 -1.979,-0.658 -1.979,-1.979c-2.646,0 -5.288,1.321 -7.925,-0.663c1.229,-1.229 2.641,-1.908 4.137,-2.345c-0.566,-0.117 -1.079,-0.396 -1.5,-0.954c-0.658,-1.321 1.279,-2.796 3.305,-3.3c2.641,-0.663 5.941,-0.663 7.924,-2.646c-4.625,-0.659 -9.908,1.325 -14.529,-1.317c3.3,-8.588 8.588,-15.85 16.509,-19.808c0.662,0 1.979,0 1.979,0.658c0,3.3 -1.979,5.942 -5.283,6.604c5.283,1.321 10.57,1.321 15.85,3.958c-0.663,1.321 -1.98,0.663 -2.642,0.663c3.304,1.979 7.262,0.658 10.566,3.304c-1.983,1.979 -3.962,0 -5.941,0c20.467,5.938 42.258,10.563 59.425,23.767c-14.525,7.267 -29.713,10.567 -45.563,13.866c-1.979,0 -3.3,0 -5.279,-0.658c0,0.658 0,1.983 -0.658,1.983c-2.646,0 -4.625,0 -6.604,1.321c-2.642,1.317 -6.605,1.979 -8.584,0Zm-13.525,45.934c-0.054,0.037 -0.108,0.075 -0.162,0.112c-2.475,1.742 -4.938,3.517 -7.542,5.029c-2.821,1.638 -5.779,2.884 -8.712,4.275c-0.021,-0.054 -0.046,-0.108 -0.084,-0.158c-0.22,-0.308 -0.683,-0.5 -1.116,-0.267c-2.496,1.35 -4.625,3.138 -6.646,5.063c-0.308,0.291 -0.613,0.587 -0.917,0.887c-0.017,0.017 -0.037,0.034 -0.054,0.05c-0.017,0.017 -0.033,0.034 -0.05,0.05c-0.317,0.313 -0.629,0.621 -0.942,0.938c-0.033,0.033 -0.075,0.071 -0.108,0.108c-0.021,0.021 -0.025,0.042 -0.042,0.063c-0.466,0.466 -0.921,0.937 -1.433,1.541c-0.333,0.392 -0.446,0.634 -0.883,0.925c-0.409,0.271 -1.546,0.267 -1.442,-0.496c0.004,-0.041 0,-0.083 0.008,-0.129c-0.391,0.209 -0.779,0.413 -1.175,0.6c-0.362,0.175 -0.691,0.371 -1.029,0.567c-0.146,-0.054 -0.3,-0.075 -0.454,-0.067c-0.167,0.013 -0.333,0.05 -0.479,0.163c-0.804,0.633 -1.604,1.304 -2.384,2.008c-1.375,1.25 -2.675,2.613 -3.833,4.075c-0.021,0.017 -0.033,0.038 -0.058,0.059c-0.042,0.062 -0.083,0.124 -0.129,0.183c-0.067,0.087 -0.134,0.171 -0.196,0.258c-0.071,0.092 -0.142,0.179 -0.213,0.271c-0.02,0.029 -0.041,0.054 -0.062,0.083c-0.154,0.213 -0.3,0.438 -0.45,0.654c-0.009,0.013 -0.017,0.03 -0.025,0.042c-0.113,0.121 -0.3,0.208 -0.542,0.259c-0.087,-0.134 -0.179,-0.259 -0.267,-0.396c-0.062,-0.1 -0.12,-0.209 -0.179,-0.317c-0.204,-0.342 -0.387,-0.696 -0.566,-1.058c-0.004,-0.013 -0.013,-0.025 -0.017,-0.038c-0.054,-0.108 -0.108,-0.221 -0.158,-0.329c0.716,-0.771 1.404,-1.562 2.075,-2.375c0.046,-0.054 0.087,-0.108 0.133,-0.163c0.229,-0.279 0.458,-0.562 0.683,-0.849c0.371,-0.467 0.742,-0.938 1.109,-1.409c0.133,-0.175 0.27,-0.35 0.4,-0.525c0.729,-0.946 1.421,-1.866 2.066,-2.787c0.017,-0.025 0.034,-0.05 0.05,-0.071c0.096,-0.142 0.192,-0.279 0.284,-0.417c0.316,-0.466 0.62,-0.941 0.904,-1.421c0.258,-0.429 0.5,-0.866 0.725,-1.316c0.016,-0.034 0.037,-0.063 0.05,-0.096c0.025,-0.046 0.05,-0.092 0.071,-0.138c0.037,-0.079 0.071,-0.166 0.108,-0.246c0.233,-0.5 0.442,-1.012 0.629,-1.541c0.021,-0.054 0.038,-0.113 0.054,-0.171c0.054,-0.142 0.105,-0.283 0.15,-0.433c0.075,-0.238 0.142,-0.48 0.204,-0.725l0.005,-0.005c0.012,-0.054 0.025,-0.108 0.037,-0.158c0.079,-0.321 0.167,-0.637 0.229,-0.971c0.034,-0.175 -0.012,-0.316 -0.079,-0.446c0.709,-1.237 1.604,-2.429 2.617,-3.562c-0.1,0.058 -0.208,0.112 -0.304,0.171c-0.946,0.608 -1.571,1.458 -2.45,2.117c-0.721,0.537 -2.046,-0.351 -1.192,-0.988c0.579,-0.433 1.021,-0.908 1.5,-1.363c0.025,-0.037 0.038,-0.07 0.071,-0.104c1.087,-1.075 2.129,-2.45 3.367,-3.354c0.762,-0.554 1.416,-1.016 2.033,-1.55c0.096,-0.083 0.191,-0.175 0.292,-0.262c0.458,-0.609 0.954,-1.154 1.475,-1.667c0.025,-0.021 0.041,-0.046 0.07,-0.067c6.317,-6.095 16.959,-5.829 25.292,-9.716c3.3,-1.321 7.263,0.662 10.562,0c1.984,0 3.963,0 5.946,1.321c-5.933,3.237 -11.416,6.883 -16.825,10.279Zm11.834,5.454c-0.3,0.725 -0.971,1.35 -1.625,1.929c0.82,0.167 1.404,0.529 0.871,1.021c-1.538,1.404 -2.996,2.812 -5.009,3.491c-0.137,0.046 -0.537,0.109 -1.012,0.138c-0.813,0.783 -1.621,1.562 -2.467,2.308c-0.783,0.692 -4.413,0.192 -3.3,-0.791c1.675,-1.484 3.225,-3.1 4.879,-4.609c0.933,-0.854 1.917,-1.671 2.746,-2.629c0.458,-0.533 0.837,-1.054 1.417,-1.462c0.541,-0.384 4.033,-0.692 3.5,0.604Zm-30.667,-98.934c-0.658,1.321 -1.392,1.463 -1.983,2.642c-0.659,1.321 -1.317,1.979 -2.638,2.642c-0.662,0 -1.321,0 -1.321,-0.663c0.659,-2.637 2.642,-5.279 5.284,-5.941c0.658,0 0.658,0.662 0.658,1.32Zm-54.804,43.58c0,0 -0.663,-0.659 -0.663,-1.317c8.584,-11.229 15.188,-21.792 21.13,-33.675c8.587,-4.625 15.712,-11.354 22.45,-18.492c11.229,-11.887 23.112,-22.45 36.979,-29.054c5.283,-1.979 11.883,-1.321 17.166,0.663c-1.979,2.637 -5.283,1.979 -7.921,3.958c-0.662,0 -1.32,0 -1.979,-0.658c0.659,-0.663 0.659,-1.321 0.659,-1.984c-6.604,7.267 -15.846,10.567 -21.134,19.15c-3.958,6.605 -6.604,15.188 -15.183,17.171c-2.642,0.658 0.658,-1.983 -0.663,-1.321c-20.47,12.546 -34.995,27.734 -50.841,45.559Zm101.029,14.529c-1.325,0 -3.967,0.658 -3.304,-0.658c0.658,-3.305 5.283,-3.305 7.925,-4.626c1.316,-0.658 3.3,-1.979 4.621,-1.32c1.32,1.983 3.3,1.32 4.621,2.641c-3.959,3.963 -9.242,1.984 -13.863,3.963Zm101.542,47.304c3.75,-3.754 7.537,-7.779 11.3,-11.821l-0.084,0c7.021,-7.937 13.892,-15.508 22.025,-22.479c2.48,-2.212 4.884,-4.163 7.179,-5.742c0.663,-0.658 0.663,-1.979 1.326,-2.641c-3.305,1.325 -5.284,3.962 -8.588,5.283c-0.658,0 -1.317,-0.658 -0.658,-1.321c2.354,-1.762 4.704,-3.525 7.054,-5.291c-0.146,0.008 -0.296,0.008 -0.45,0.008c-0.663,0 -0.663,-0.658 -0.663,-1.321c-8.583,-1.321 -15.187,4.625 -21.129,9.908c-1.321,0.659 -2.641,-0.662 -3.3,-0.662c-9.904,3.304 -17.171,11.887 -27.075,15.85l0,-1.325c-3.962,1.325 -7.808,3.721 -11.887,4.625c-5.942,1.321 -11.221,0.662 -16.504,0.662c-8.005,0.796 -16.009,2.563 -24.013,4.271c-0.229,0.063 -0.463,0.113 -0.692,0.175c-4.291,1.175 -8.346,2.775 -12.304,4.954c-0.15,0.084 -0.3,0.171 -0.45,0.263c-0.329,0.412 -0.65,0.808 -0.954,1.142c-1.421,1.562 -2.642,2.991 -4.529,3.954c-4.063,2.062 -7.371,5.658 -10.95,8.579c-0.259,0.208 -0.646,0.312 -1.059,0.333c-3.541,3.4 -7.037,6.846 -10.633,10.184c-0.258,0.233 -1.279,0.362 -2.016,0.241c0.016,-0.025 0.041,-0.037 0.058,-0.062c0.121,-0.209 0.25,-0.421 0.375,-0.63c0.558,-0.933 1.125,-1.862 1.696,-2.783c0.637,-1.033 1.291,-2.058 1.958,-3.071c0.9,-1.362 1.825,-2.712 2.808,-4.021c0.259,-0.337 0.188,-0.641 -0.021,-0.866c-0.208,-0.217 -0.558,-0.346 -0.912,-0.342c3.292,-3.196 7.208,-5.921 11.079,-8.271l0,-0.112c-0.442,0.15 -1.079,-0.2 -0.746,-0.667c0.417,-0.583 0.746,-1.204 1.138,-1.8c0.075,-0.196 0.142,-0.391 0.212,-0.587c-0.166,-0.175 -0.333,-0.346 -0.5,-0.521c-1.066,0.696 -2.2,1.354 -3.104,2.166c-1.579,1.426 -2.816,4.338 -5.212,4.309c-0.159,0 -0.625,-0.025 -1,-0.142c-0.288,-0.05 -0.538,-0.129 -0.696,-0.233c0.029,-0.054 0.058,-0.104 0.087,-0.154c0.034,-0.063 0.063,-0.121 0.096,-0.184c0.033,-0.058 0.067,-0.112 0.096,-0.171c0.104,-0.187 0.208,-0.379 0.313,-0.566c0.108,-0.192 0.212,-0.379 0.316,-0.571c0.088,-0.15 0.171,-0.304 0.254,-0.458c0.159,-0.28 0.309,-0.559 0.467,-0.838c0.113,-0.2 0.233,-0.396 0.346,-0.596c0.283,-0.487 0.571,-0.971 0.854,-1.458c0.137,-0.233 0.271,-0.467 0.408,-0.7c0.234,-0.4 0.463,-0.804 0.7,-1.2c0.329,-0.55 -0.016,-1 -0.496,-1.179c1.226,-1.588 2.721,-2.917 4.521,-3.942l-0.195,0c2.529,-1.271 5.054,-2.821 7.583,-4.241c0.362,-0.313 0.725,-0.634 1.092,-0.942c-3.771,1.262 -7.155,2.979 -10.505,5.183c0,0 -0.866,0.354 -1.112,0.6c0,0 -0.763,0.288 -1.646,-0.6c-0.092,-0.121 -0.162,-0.271 -0.162,-0.487c0.662,-1.321 2.641,-1.98 3.962,-3.3c0.658,0 1.321,0 1.321,0.658c21.129,-16.508 50.183,-12.542 74.617,-21.129c1.979,-1.321 3.962,-2.642 5.941,-3.963c3.3,-1.316 5.942,-4.62 9.904,-6.604c5.284,-3.958 9.246,-8.583 11.225,-15.187c0,-0.659 -0.658,-1.317 -0.658,-1.317c-8.583,9.242 -18.488,16.504 -29.054,21.792c-13.867,7.262 -29.054,5.941 -43.583,7.92c0.662,-1.32 1.983,-1.32 3.304,-1.32c0,-1.984 1.32,-2.642 2.641,-3.963l1.98,0c0.662,0 0.662,-1.321 1.32,-1.321c1.321,0 3.305,-0.658 2.642,-0.658c-1.983,-2.642 -5.942,1.979 -9.246,0c1.325,-1.321 0.663,-3.304 1.983,-3.962l2.642,0c0,-1.321 1.321,-2.642 1.321,-2.642c9.904,-5.942 19.146,-10.563 28.392,-15.846c-1.979,0 -3.3,1.979 -5.284,0.658c1.321,0 0,-1.979 1.321,-1.979c7.263,-1.983 13.209,-5.946 20.471,-8.583c-2.637,0 -4.621,1.979 -7.262,0c1.32,-0.663 1.979,-1.984 3.962,-1.984l0,-1.979c0,-0.662 0.663,-0.662 1.321,-0.662c-0.658,0 -1.321,-0.659 -1.321,-0.659c0.663,-1.32 2.642,-0.662 3.962,-1.983c-0.662,0 -1.983,0 -1.983,-0.658c1.983,-2.642 5.284,-3.304 8.588,-3.963c-0.663,-1.32 -2.646,0 -2.646,-1.32c0,-0.663 0.662,-0.663 1.321,-0.663l-1.321,0c-1.321,-0.658 -0.658,-1.979 -0.658,-2.637c3.962,-4.625 3.962,-10.567 5.941,-15.851c-0.658,0 -1.321,0 -1.321,-0.658c-6.604,7.263 -17.166,9.904 -27.07,12.546l-3.305,0c-3.3,1.317 -7.92,1.317 -11.225,-0.662c-2.641,-1.321 -3.962,-3.301 -6.6,-5.284c-5.283,-3.3 -10.566,-5.942 -16.508,-7.921c-16.508,-5.283 -33.675,-7.925 -50.846,-7.266c7.263,-3.959 15.275,-4.296 23.108,-6.6c11.23,-3.305 21.792,-7.263 33.68,-6.605c-1.984,-0.658 -4.621,0 -6.605,0c-9.241,-0.658 -18.491,1.98 -28.391,3.963c-6.604,1.321 -12.546,3.962 -19.15,5.283c-3.963,1.317 -5.942,5.284 -10.567,4.621l0,-1.983c6.604,-7.921 14.529,-15.846 25.096,-16.508c11.883,-1.98 23.108,0 34.996,1.32c8.583,0.663 16.504,2.646 25.092,4.625c3.299,0 3.958,5.284 6.604,5.942c3.958,1.321 7.92,0 11.883,2.642c0,-1.321 -0.662,-2.642 0,-3.963c2.642,-2.642 5.942,0.663 8.588,-0.658c5.279,-3.304 -4.625,-9.246 -7.267,-13.867c0,-0.658 0.658,-1.321 0.658,-1.321c5.283,4.621 9.246,9.904 15.85,13.204c3.3,1.321 11.225,3.305 9.904,-0.658c-3.304,-7.266 -9.904,-13.208 -15.187,-19.808l0,-2.646c-1.321,0 -1.321,-0.658 -1.979,-1.317l0,-2.641c-2.642,-1.321 -1.979,-3.963 -3.305,-5.946c-1.979,-3.3 -0.658,-7.921 -1.979,-11.884c-1.32,-3.962 -1.979,-7.262 -2.641,-11.224c-1.98,-11.226 -4.625,-21.13 -5.942,-31.696c-1.321,-12.546 7.263,-22.45 13.204,-33.675c4.621,-7.925 9.904,-15.846 18.488,-21.129c1.983,-7.925 7.266,-14.53 12.55,-21.134c5.271,-6.441 14.033,-10.366 20.379,-13.204c9.225,-4.121 17.546,-6.696 17.554,-6.7l-453.175,0l0,349.433l320.925,0c12.575,-9.05 25.129,-13.35 42.675,-21.995c8.283,-4.084 27.242,-12.792 33.667,-19.213Z" style="fill:#243b7d;fill-rule:nonzero;"/><path d="M1310.04,352.625l-375.892,0c0,0 0.713,0.117 3.571,1.654c3.05,1.638 7,3.75 9.483,5.046c4.846,2.533 9.554,5.708 12.588,10.567c1.325,1.979 3.304,5.941 1.983,8.583c-1.321,3.3 -1.983,8.583 -5.283,9.904c-3.963,1.984 -9.246,1.984 -13.867,1.321c-2.637,0 -5.283,-0.662 -7.925,-1.321c9.904,3.963 19.15,8.583 25.754,17.829c0.663,1.321 3.304,1.984 5.942,1.984c0.662,0 0.662,1.316 0.662,1.979c-1.321,1.321 -2.641,1.979 -1.983,3.958l1.983,0c3.3,-1.321 2.638,-7.921 7.263,-5.937c3.3,1.979 4.621,6.6 2.641,9.904c-2.641,2.637 -5.283,4.616 -7.924,6.6c-0.659,1.321 -0.659,3.3 0,4.621c1.983,2.641 2.641,5.283 3.304,7.925c1.979,4.62 2.637,9.904 4.62,14.525c2.642,9.908 5.284,19.812 4.621,29.716c0,5.284 -2.641,9.904 -0.658,15.188c1.321,5.283 4.621,9.246 7.262,13.866c2.642,3.963 5.284,6.605 7.267,10.563c3.958,6.604 11.221,13.208 7.921,21.133c-1.983,4.621 -9.246,3.959 -13.867,6.605c-3.962,3.3 -0.658,8.583 1.321,11.883c3.3,5.942 -3.962,9.904 -8.583,11.887c1.316,1.98 3.958,1.317 4.621,2.638c0.662,3.304 3.962,5.283 1.983,8.587c-2.646,3.963 -10.567,5.942 -6.604,11.884c2.637,4.62 0.929,9.758 -0.663,14.529c-1.979,5.942 -7.262,8.583 -11.887,9.904c-3.959,1.321 -8.579,1.321 -12.542,0.658c-1.321,-0.658 -2.642,-1.316 -3.962,-1.316c-11.225,-1.325 -22.455,-4.625 -33.68,-4.625c-3.299,0.658 -6.604,1.321 -9.241,2.641c-2.984,2.188 -5.638,4.567 -7.996,7.067c-0.025,0.029 -0.05,0.058 -0.075,0.088c-0.496,0.524 -0.975,1.062 -1.442,1.599c-0.287,0.334 -0.571,0.671 -0.85,1.013c-0.191,0.225 -0.379,0.454 -0.562,0.683c-1.929,2.413 -3.659,4.959 -5.2,7.609c-0.096,0.166 -0.196,0.337 -0.292,0.504c-0.171,0.304 -0.342,0.616 -0.508,0.925c-2.167,4.012 -3.809,8.108 -5,12.112c-4.492,15.125 -2.525,28.096 0.625,31.246c0.875,0.875 21.791,7.338 36.362,13.817c6.838,3.041 11.621,5.383 15.588,7.887l369.121,0l0,-349.433Z" style="fill:#ed1c24;fill-rule:nonzero;"/><path d="M956.508,480.1c2.642,0.662 6.605,0.662 6.605,1.983c-1.321,5.279 -9.246,6.6 -13.209,11.888l-1.983,0c-1.979,1.317 -1.321,4.621 -3.3,4.621c-1.983,-0.663 -3.963,0 -5.942,0.658c2.642,2.642 5.942,4.625 9.904,3.962c0.663,0 1.979,1.325 1.979,2.646c0,0 0.659,0 1.321,-0.666c0.663,0 1.325,0 1.325,0.666l0,2.638c-1.987,2.641 -5.287,1.321 -7.925,1.983c5.279,1.321 10.567,1.321 15.184,0c3.962,-1.321 0,-7.925 2.646,-11.229c-1.321,0 0,-1.979 -1.321,-1.979c1.321,-1.321 2.637,-3.3 3.962,-3.963c1.321,0 3.3,-0.658 3.959,-1.983c0,-1.317 -2.638,-1.979 -1.98,-3.3c3.959,-2.642 7.263,-6.604 5.942,-10.567c-0.658,-1.979 -5.942,-1.979 -9.246,-3.3c-3.3,-1.32 -7.262,0 -11.221,0.659c-3.304,0 -6.608,1.983 -9.908,2.641c-4.621,1.321 -8.583,3.963 -12.546,6.604c4.625,-1.979 9.246,-2.641 14.529,-3.962c3.963,0 7.325,-0.975 11.225,0Z" style="fill:#939598;fill-rule:nonzero;"/></g></svg>