<svg width="33" height="12" viewBox="0 0 33 12" fill="none" xmlns="http://www.w3.org/2000/svg">
<rect width="33" height="12" fill="white"/>
<path d="M10.6562 10.5498C10.6602 10.5498 10.6642 10.5439 10.6642 10.5439C10.696 10.5203 10.7279 10.4909 10.7558 10.4556C10.7518 10.4556 10.7478 10.4556 10.7438 10.4498C10.7159 10.4792 10.6841 10.5145 10.6562 10.5498Z" fill="#000091"/>
<path d="M15.0694 9.06287L14.9997 9.12287C15.0396 9.11287 15.0694 9.10287 15.0694 9.06287Z" fill="#000091"/>
<path fill-rule="evenodd" clip-rule="evenodd" d="M13.6426 10.5817C13.7704 10.4532 13.8983 10.3168 14.0261 10.1765H14.0222C14.2624 9.90382 14.4948 9.64278 14.7737 9.40512C14.8589 9.3272 14.9402 9.26097 15.0177 9.20642C15.0291 9.19498 15.0349 9.17793 15.0406 9.16122C15.0465 9.1438 15.0523 9.12676 15.0642 9.11681C15.009 9.13788 14.965 9.17119 14.9207 9.20471C14.8749 9.23936 14.8289 9.27424 14.7698 9.29603C14.7466 9.29603 14.7233 9.27266 14.7466 9.24928C14.8279 9.19084 14.9092 9.1285 14.9867 9.06616H14.9712C14.948 9.06616 14.948 9.04279 14.948 9.01941C14.6596 8.97361 14.4381 9.17082 14.2399 9.34735L14.2275 9.35837C14.1966 9.37389 14.1675 9.35849 14.1446 9.3464C14.133 9.34027 14.123 9.33499 14.1152 9.33499C13.9398 9.39381 13.7885 9.50223 13.6362 9.61137C13.4959 9.7119 13.3548 9.81303 13.1933 9.87655V9.82979C13.1384 9.84871 13.0842 9.87338 13.0298 9.8981C12.9498 9.93447 12.8696 9.97098 12.7865 9.98953C12.6349 10.0247 12.4943 10.0202 12.358 10.0158C12.3133 10.0143 12.2689 10.0129 12.2249 10.0129C11.9768 10.0375 11.7319 10.0906 11.4872 10.1437L11.4076 10.161C11.4037 10.1629 11.3998 10.1639 11.3959 10.1649C11.3921 10.1658 11.3882 10.1668 11.3843 10.1688C11.2371 10.2077 11.1016 10.2623 10.966 10.3402L10.9505 10.348C10.9452 10.3551 10.9398 10.3614 10.9349 10.3673C10.929 10.3743 10.9237 10.3806 10.9195 10.3869C10.873 10.4415 10.8304 10.4882 10.7646 10.5233C10.6673 10.5722 10.5832 10.6476 10.5005 10.7219C10.4647 10.754 10.429 10.7861 10.3927 10.8155C10.385 10.8233 10.3695 10.8272 10.3578 10.8272C10.2378 10.9441 10.1177 11.061 9.99373 11.1739C9.98598 11.1817 9.95112 11.1856 9.924 11.1817C9.924 11.1817 9.92788 11.1817 9.92788 11.1778L9.9395 11.1545L9.9976 11.061C10.0092 11.0434 10.0199 11.0259 10.0305 11.0084C10.0412 10.9908 10.0518 10.9733 10.0634 10.9558C10.0944 10.909 10.1255 10.8622 10.1603 10.8194C10.168 10.8077 10.168 10.796 10.1603 10.7882C10.1525 10.7804 10.1409 10.7765 10.1293 10.7765C10.2416 10.6675 10.3733 10.5739 10.5089 10.4921V10.4882C10.4934 10.4921 10.4702 10.4804 10.4818 10.4649C10.4932 10.4506 10.5024 10.4342 10.5112 10.4188L10.5205 10.4025C10.5225 10.3986 10.5234 10.3957 10.5244 10.3928C10.5254 10.3899 10.5263 10.3869 10.5283 10.383C10.5263 10.3791 10.5234 10.3762 10.5205 10.3733C10.5176 10.3704 10.5147 10.3675 10.5128 10.3636L10.4893 10.3791C10.4612 10.3974 10.4324 10.4163 10.4082 10.4376C10.3911 10.4523 10.3751 10.4725 10.3588 10.4932C10.3232 10.5382 10.2857 10.5856 10.23 10.5856C10.2261 10.5856 10.2068 10.5856 10.1952 10.5817C10.1835 10.5817 10.1758 10.5778 10.1719 10.5739C10.1719 10.572 10.1719 10.571 10.1724 10.5705C10.1729 10.57 10.1738 10.57 10.1758 10.57C10.1758 10.57 10.1797 10.5662 10.1797 10.5623C10.1797 10.5623 10.1797 10.5584 10.1835 10.5584C10.1855 10.5545 10.1874 10.5515 10.1893 10.5486C10.1913 10.5457 10.1932 10.5428 10.1952 10.5389C10.1971 10.535 10.199 10.5321 10.201 10.5291C10.2029 10.5262 10.2048 10.5233 10.2068 10.5194C10.2087 10.5175 10.2097 10.5145 10.2106 10.5116C10.2116 10.5087 10.2126 10.5058 10.2145 10.5038L10.2189 10.4958C10.2227 10.4889 10.2273 10.4808 10.23 10.4726C10.2319 10.4688 10.2339 10.4658 10.2358 10.4629C10.2378 10.46 10.2397 10.4571 10.2416 10.4532C10.2474 10.4454 10.2523 10.4366 10.2571 10.4278C10.262 10.4191 10.2668 10.4103 10.2726 10.4025C10.2765 10.3947 10.2804 10.3869 10.2881 10.3791C10.292 10.3713 10.2959 10.3645 10.2997 10.3577C10.3036 10.3509 10.3075 10.3441 10.3114 10.3363C10.323 10.3168 10.3114 10.3012 10.2959 10.2973C10.3385 10.2428 10.3888 10.196 10.4508 10.161H10.4431C10.4965 10.1341 10.5515 10.1026 10.6062 10.0713C10.6384 10.0528 10.671 10.0341 10.7026 10.0168C10.7142 10.0051 10.7258 9.99343 10.7413 9.98564C10.6135 10.0285 10.4973 10.0869 10.385 10.1649C10.385 10.1649 10.354 10.1765 10.3462 10.1843C10.3462 10.1843 10.323 10.1921 10.292 10.1649C10.2881 10.161 10.2881 10.1571 10.2881 10.1493C10.3016 10.1222 10.3293 10.1043 10.3594 10.0849C10.3812 10.0708 10.4041 10.056 10.4237 10.0363C10.4469 10.0363 10.4663 10.0363 10.4663 10.0597C10.9124 9.70986 11.4625 9.62894 12.0144 9.54773C12.3539 9.49779 12.6941 9.44775 13.0112 9.33499C13.0441 9.31162 13.078 9.28921 13.1119 9.26681C13.1458 9.24441 13.1797 9.22201 13.2126 9.19863C13.2691 9.17512 13.3198 9.13485 13.3734 9.0922C13.4263 9.05005 13.4822 9.00558 13.5496 8.97266C13.7278 8.8363 13.8634 8.68045 13.9331 8.45058C13.9331 8.42721 13.9099 8.40383 13.9099 8.40383C13.6155 8.71941 13.2785 8.96876 12.9182 9.15188C12.5747 9.33312 12.2067 9.35998 11.8423 9.38657C11.7054 9.39656 11.569 9.40651 11.4347 9.4246C11.4579 9.37785 11.5044 9.37785 11.547 9.37785C11.547 9.32253 11.5735 9.29873 11.6075 9.26819C11.6166 9.26002 11.6263 9.25135 11.6361 9.24149H11.702C11.7136 9.24149 11.7194 9.2298 11.7252 9.21811C11.731 9.20642 11.7368 9.19473 11.7484 9.19473C11.7949 9.19473 11.8608 9.17136 11.8375 9.17136C11.802 9.12569 11.7504 9.14377 11.6934 9.16372C11.6386 9.18291 11.5789 9.20384 11.5238 9.17136C11.5443 9.14888 11.5504 9.12191 11.556 9.09736C11.5621 9.07083 11.5675 9.04714 11.5896 9.035H11.6787C11.6787 8.98824 11.7252 8.94539 11.7252 8.94539C11.9272 8.82393 12.1223 8.71789 12.3137 8.61381C12.4416 8.5443 12.568 8.47559 12.6936 8.40383C12.6682 8.40383 12.6456 8.41428 12.6238 8.42442C12.589 8.44055 12.5558 8.45592 12.5154 8.42721C12.5386 8.42721 12.5386 8.41065 12.5386 8.39409C12.5386 8.37753 12.5386 8.36097 12.5619 8.36097C12.7072 8.32215 12.8365 8.25923 12.9686 8.19497C13.0619 8.1496 13.1565 8.10357 13.2591 8.06487C13.2287 8.06487 13.2005 8.07307 13.173 8.08105C13.1201 8.09643 13.0699 8.11103 13.0112 8.06487C13.0266 8.05713 13.039 8.04725 13.0513 8.03751C13.076 8.01781 13.1002 7.99864 13.1468 7.99864V7.93241C13.1468 7.90903 13.17 7.90903 13.1933 7.90903C13.17 7.90903 13.1468 7.88565 13.1468 7.88565C13.1591 7.8609 13.1833 7.85581 13.2103 7.85013C13.2343 7.84509 13.2605 7.83959 13.2824 7.81942C13.2591 7.81942 13.2165 7.81942 13.2165 7.79604C13.2824 7.70643 13.3947 7.68306 13.507 7.65968C13.4954 7.6363 13.4731 7.6363 13.4538 7.6363C13.4344 7.6363 13.4179 7.6363 13.4179 7.61293C13.4179 7.58955 13.4412 7.58955 13.4644 7.58955H13.4179C13.3815 7.57121 13.3879 7.53847 13.3924 7.51581C13.3936 7.50959 13.3947 7.50414 13.3947 7.49994C13.4857 7.39273 13.5156 7.2662 13.5454 7.1404C13.5599 7.07877 13.5745 7.01732 13.5961 6.95839C13.5729 6.95839 13.5496 6.95839 13.5496 6.93501C13.3318 7.17674 12.9866 7.26835 12.6587 7.35536L12.6277 7.36358H12.5154C12.4031 7.41033 12.2443 7.41033 12.1319 7.3402C12.0785 7.31217 12.0404 7.27714 11.9993 7.2393C11.9718 7.21403 11.9429 7.18751 11.9073 7.16098C11.7252 7.048 11.547 6.95839 11.3456 6.88826C10.7839 6.70904 10.199 6.61553 9.61412 6.63891C9.77746 6.54907 9.95088 6.51334 10.1266 6.47714C10.2176 6.45839 10.3093 6.43952 10.4004 6.41294C10.458 6.39599 10.515 6.37852 10.5716 6.36114C10.8929 6.26265 11.2046 6.1671 11.547 6.18697C11.5022 6.17105 11.4448 6.1768 11.392 6.1821C11.3672 6.18458 11.3434 6.18697 11.3224 6.18697C11.0634 6.16767 10.8019 6.22533 10.529 6.28548C10.4712 6.29822 10.4129 6.31107 10.354 6.32333C10.2471 6.34557 10.1455 6.37751 10.0437 6.40951C9.93151 6.44476 9.81915 6.48008 9.69934 6.50255C9.64737 6.52047 9.60565 6.55098 9.56501 6.58071C9.49962 6.62853 9.43704 6.6743 9.3391 6.66229V6.59216C9.56376 6.31943 9.83491 6.0506 10.1952 6.02723C10.5434 5.97052 10.8717 6.01091 11.2142 6.05305C11.2718 6.06013 11.3297 6.06725 11.3882 6.07398C11.669 6.09657 11.9317 6.1592 12.2148 6.22669L12.2443 6.23372C12.3062 6.23372 12.3411 6.28827 12.3748 6.34111C12.4023 6.38404 12.429 6.42584 12.4689 6.43631C12.5241 6.45533 12.5792 6.45888 12.6344 6.46242C12.7148 6.46759 12.7952 6.47277 12.8756 6.52592C12.8756 6.51019 12.873 6.4949 12.8704 6.47976C12.8653 6.44989 12.8602 6.42058 12.8756 6.38956C12.9256 6.33929 12.9829 6.35278 13.0393 6.36606C13.0834 6.37645 13.127 6.38671 13.1662 6.36618C13.289 6.28995 13.1738 6.17293 13.0585 6.0558C13.0029 5.99932 12.9472 5.94283 12.9182 5.89086C12.9182 5.86749 12.9415 5.84411 12.9415 5.84411C12.9924 5.88971 13.0398 5.9369 13.0867 5.98369C13.2043 6.10078 13.3194 6.21532 13.4799 6.29606C13.5922 6.34281 13.8634 6.40904 13.8169 6.27268C13.7373 6.09607 13.6014 5.94291 13.4642 5.7883C13.4077 5.72462 13.351 5.66068 13.2979 5.59476V5.50515C13.2625 5.50515 13.2541 5.49166 13.2435 5.47494C13.2402 5.46964 13.2367 5.46402 13.232 5.4584V5.36879C13.1752 5.33899 13.1625 5.29178 13.1497 5.24431C13.1424 5.2173 13.1351 5.19021 13.1197 5.16619C13.0808 5.10327 13.0781 5.02586 13.0752 4.94605C13.0729 4.88255 13.0705 4.81753 13.0499 4.75711C13.0035 4.62074 12.9841 4.50776 12.9609 4.3714C12.9356 4.23189 12.9079 4.0985 12.8807 3.96791C12.8328 3.73744 12.7866 3.51566 12.7594 3.28439C12.7236 2.95382 12.8905 2.67425 13.0612 2.38846C13.1118 2.30374 13.1627 2.21846 13.2088 2.13115C13.3676 1.85843 13.5458 1.5896 13.8401 1.40648C13.9044 1.14049 14.0791 0.918965 14.253 0.69854L14.2662 0.681813C14.4379 0.467905 14.7245 0.337136 14.9357 0.240761L14.9596 0.229868C15.2734 0.0896097 15.5561 0 15.56 0H0V11.996H11.0396C11.3348 11.782 11.6283 11.6469 11.9775 11.4862C12.1369 11.4129 12.3079 11.3342 12.496 11.2402C12.5359 11.2201 12.5832 11.1968 12.6357 11.171C12.951 11.0159 13.4534 10.7687 13.6426 10.5817ZM10.1396 8.96329C10.0958 8.96769 10.0494 8.97235 10.0669 8.93716C10.0832 8.85831 10.1639 8.83467 10.2428 8.81158C10.2765 8.8017 10.31 8.79191 10.3378 8.77794L10.3505 8.77136L10.3598 8.76643C10.4035 8.74323 10.457 8.71483 10.4965 8.73134C10.5231 8.76919 10.5561 8.77895 10.5881 8.78845C10.612 8.79552 10.6353 8.80243 10.6551 8.82066C10.5714 8.90467 10.4737 8.91296 10.3747 8.92136C10.3089 8.92694 10.2425 8.93257 10.1791 8.96047C10.1678 8.96047 10.1538 8.96187 10.1396 8.96329ZM6.71263 8.41541C6.71263 8.43879 6.73587 8.46216 6.73587 8.46216C7.27817 7.85048 7.77011 7.32841 8.46735 6.89594C8.48601 6.88812 8.47907 6.89789 8.46984 6.91087C8.45609 6.93021 8.43727 6.95669 8.49059 6.9427C8.72141 6.89007 8.82508 6.69233 8.92594 6.49995C8.95202 6.45021 8.97791 6.40082 9.00577 6.35439C9.11155 6.18235 9.26178 6.07213 9.41317 5.96106C9.52234 5.88096 9.63212 5.80043 9.72625 5.69595C9.72625 5.71933 9.72625 5.74271 9.703 5.76608C9.72625 5.78946 9.74949 5.78946 9.77273 5.78946C9.81359 5.75863 9.8582 5.74587 9.90095 5.73364C9.95547 5.71805 10.007 5.70332 10.0439 5.6531C9.86569 5.58297 9.63715 5.55959 9.45897 5.62972C8.9864 5.85569 8.58355 6.21803 8.20007 6.62711C7.96766 6.87257 7.7275 7.10244 7.43311 7.26217C7.23169 7.66737 7.00702 8.0297 6.71263 8.41541ZM8.60369 6.9664C8.59155 6.99077 8.57942 7.00345 8.56783 7.01556C8.55726 7.02661 8.54714 7.0372 8.5379 7.05573C8.51468 7.10233 8.49147 7.12174 8.4489 7.14505C8.42568 7.14505 8.40246 7.14505 8.40246 7.12174C8.42568 7.03242 8.49147 6.9431 8.58047 6.9198C8.60369 6.92369 8.60369 6.94699 8.60369 6.9664ZM9.59422 10.4264C9.61357 10.4069 9.63679 10.3835 9.6484 10.3601C9.66775 10.3134 9.54778 10.3251 9.52843 10.3368C9.51087 10.3509 9.49969 10.365 9.4862 10.3821L9.48199 10.3874C9.46585 10.406 9.44696 10.4232 9.42778 10.4406C9.41477 10.4525 9.40163 10.4644 9.38912 10.477C9.33494 10.5316 9.28076 10.5861 9.22271 10.6368C9.18401 10.6718 9.30785 10.6874 9.33494 10.664C9.3659 10.6407 9.39299 10.6134 9.42008 10.5861C9.4304 10.5861 9.44072 10.5844 9.4476 10.5832L9.45233 10.5825L9.45491 10.5822C9.51906 10.5607 9.5668 10.516 9.61324 10.4726L9.62518 10.4614C9.64066 10.4459 9.62131 10.4303 9.59422 10.4264ZM9.24401 10.173C9.24357 10.1731 9.24326 10.1732 9.24304 10.1734C9.24256 10.1739 9.24256 10.1749 9.24256 10.1768C9.2188 10.1931 9.19535 10.2097 9.17194 10.2263C9.11139 10.2691 9.05116 10.3117 8.98691 10.3483C8.92546 10.3829 8.86246 10.4128 8.79889 10.4429C8.76226 10.4603 8.72545 10.4778 8.68864 10.4963C8.68864 10.4963 8.68864 10.4924 8.68477 10.4924C8.67702 10.4807 8.66153 10.4768 8.64604 10.4846C8.56082 10.5314 8.48722 10.5937 8.42137 10.6599C8.40975 10.6677 8.39813 10.6794 8.39038 10.6911L8.35552 10.7262V10.7301C8.34003 10.7457 8.32453 10.7612 8.30516 10.7846C8.30114 10.7887 8.29804 10.7927 8.29507 10.7966C8.28947 10.8039 8.2843 10.8107 8.27418 10.8158C8.25868 10.8236 8.21995 10.8236 8.22382 10.8002V10.7963C8.2122 10.8041 8.1967 10.8119 8.18508 10.8158C8.17927 10.8197 8.17346 10.8226 8.16765 10.8255C8.16184 10.8284 8.15603 10.8314 8.15022 10.8353C8.14635 10.8314 8.1386 10.8314 8.13473 10.8314C8.13085 10.8314 8.12311 10.8314 8.11923 10.8353C8.1102 10.8431 8.10116 10.8504 8.09212 10.8578C8.07404 10.8725 8.05597 10.8872 8.03789 10.9054C7.99141 10.9483 7.9488 10.995 7.90619 11.0457C7.90619 11.0457 7.90619 11.0495 7.90232 11.0495C7.90232 11.0515 7.90135 11.0525 7.90038 11.0534C7.89941 11.0544 7.89844 11.0554 7.89844 11.0573L7.8907 11.0651C7.88922 11.0666 7.8883 11.0681 7.88752 11.0694C7.88626 11.0714 7.88534 11.0729 7.88295 11.0729L7.87908 11.0768C7.8752 11.0846 7.87133 11.0924 7.86358 11.1002C7.85971 11.1041 7.85196 11.108 7.84421 11.108C7.84034 11.1041 7.83647 11.1002 7.83647 11.0963C7.83453 11.0944 7.83356 11.0924 7.83259 11.0905C7.83162 11.0885 7.83066 11.0866 7.82872 11.0846C7.82485 11.0788 7.82194 11.0729 7.81904 11.0671C7.81613 11.0612 7.81322 11.0554 7.80935 11.0495V11.0457C7.80935 11.0437 7.80838 11.0418 7.80741 11.0398C7.80645 11.0379 7.80548 11.0359 7.80548 11.034L7.8752 10.9521L7.87908 10.9483C7.88295 10.9444 7.88682 10.9395 7.89069 10.9346C7.89456 10.9298 7.89844 10.9249 7.90232 10.921C7.90813 10.9132 7.9149 10.9054 7.92168 10.8976C7.92846 10.8898 7.93524 10.882 7.94105 10.8742C7.94299 10.8703 7.94493 10.8674 7.94686 10.8645C7.9488 10.8616 7.95074 10.8586 7.95267 10.8547C7.97591 10.8236 7.99915 10.7924 8.0224 10.7573V10.7534C8.02627 10.7496 8.03014 10.7457 8.03014 10.7379C8.04176 10.7223 8.05339 10.7067 8.06113 10.6911L8.08437 10.6444V10.6405L8.08825 10.6366C8.08825 10.6346 8.08921 10.6336 8.09018 10.6327C8.09115 10.6317 8.09212 10.6307 8.09212 10.6288C8.09599 10.619 8.09986 10.6103 8.10373 10.6015C8.1076 10.5928 8.11149 10.584 8.11536 10.5742V10.5703L8.11923 10.5547C8.12117 10.5509 8.12214 10.547 8.12311 10.5431C8.12408 10.5392 8.12504 10.5353 8.12698 10.5314V10.5275C8.12892 10.5216 8.12989 10.5158 8.13085 10.5099C8.13182 10.5041 8.13279 10.4983 8.13473 10.4924C8.13473 10.4885 8.13473 10.4807 8.13085 10.4768C8.1541 10.434 8.18508 10.395 8.21995 10.356C8.21801 10.356 8.21607 10.357 8.21414 10.358C8.21303 10.3586 8.21191 10.3591 8.2108 10.3595C8.20998 10.3598 8.20915 10.3599 8.20833 10.3599C8.19108 10.3708 8.17624 10.3852 8.16113 10.4C8.14908 10.4117 8.13686 10.4236 8.12311 10.434C8.09987 10.4535 8.05338 10.4223 8.08437 10.3989C8.10374 10.3833 8.11923 10.3677 8.13472 10.3522C8.13472 10.3522 8.13473 10.3483 8.1386 10.3483C8.15404 10.3343 8.16887 10.3184 8.18381 10.3025C8.20635 10.2784 8.22919 10.254 8.25481 10.2353C8.28192 10.2158 8.30129 10.2002 8.32453 10.1807C8.3284 10.1768 8.33228 10.1729 8.33615 10.1729C8.35165 10.1535 8.36714 10.134 8.38651 10.1145C8.38651 10.1145 8.39038 10.1145 8.39038 10.1106C8.5234 9.98158 8.71032 9.93608 8.90111 9.88963C9.02144 9.86033 9.14332 9.83066 9.25418 9.77943C9.3168 9.75337 9.38663 9.76362 9.45564 9.77376C9.51044 9.78181 9.5647 9.78977 9.61442 9.77943C9.68027 9.77943 9.74999 9.77943 9.81584 9.82618C9.66268 9.90774 9.5165 10.001 9.37189 10.0933C9.33002 10.12 9.28817 10.1467 9.24643 10.1729C9.24535 10.1729 9.24457 10.1729 9.24401 10.173ZM9.72805 8.58508C9.70992 8.58716 9.69817 8.58851 9.70824 8.59864C9.77409 8.66488 9.90967 8.6415 10.0026 8.59085C10.0685 8.5441 10.1382 8.5441 10.2273 8.5441C10.2505 8.5441 10.2505 8.50124 10.2505 8.47787C10.3164 8.50124 10.3629 8.50124 10.4287 8.50124C10.9671 8.38826 11.4862 8.27527 11.982 8.02592C11.4803 7.63829 10.8618 7.46561 10.256 7.29649C10.1555 7.26843 10.0554 7.24047 9.95615 7.21164C9.97796 7.21164 9.99976 7.21891 10.0217 7.22622C10.066 7.24098 10.1109 7.25594 10.1576 7.21164C10.0961 7.16261 10.0277 7.15324 9.95993 7.14395C9.90384 7.13627 9.8482 7.12865 9.79733 7.09865C9.80264 7.09865 9.80895 7.09987 9.81582 7.1012C9.83902 7.10567 9.86849 7.11136 9.88643 7.07528C9.76876 7.0161 9.6511 6.99601 9.53232 6.97572C9.47123 6.96528 9.40984 6.9548 9.348 6.93892C9.46034 6.91554 9.53006 6.82593 9.53006 6.71294C9.53006 6.68957 9.48358 6.68957 9.46034 6.68957C9.19306 6.82593 9.01101 7.07528 8.89867 7.36748C8.99995 7.42711 9.10909 7.4202 9.21607 7.41342C9.27686 7.40957 9.33694 7.40577 9.39449 7.41424C9.34369 7.46248 9.27029 7.47559 9.19974 7.48818C9.17344 7.49288 9.14753 7.4975 9.12334 7.50385C9.05361 7.51943 8.98776 7.57008 9.01101 7.61683C9.0265 7.63631 9.04199 7.64411 9.06136 7.648C9.01101 7.66359 8.96452 7.68696 8.92191 7.72982C8.98568 7.78002 9.05144 7.77033 9.11634 7.76077C9.14211 7.75697 9.16774 7.7532 9.19306 7.7532C9.19306 7.78149 9.21164 7.7911 9.23095 7.8011C9.24088 7.80624 9.25102 7.81149 9.25891 7.81943C9.14658 7.86229 9.05749 7.95579 9.03425 8.02202C9.00648 8.08951 8.95522 8.13337 8.9044 8.17685C8.87015 8.20616 8.8361 8.23529 8.80958 8.27137V8.3415C8.73475 8.40784 8.65784 8.46708 8.58199 8.5255C8.42617 8.64551 8.27479 8.76211 8.15495 8.92981C8.17819 8.92981 8.17819 8.95319 8.17819 8.97656C8.15676 9.0089 8.12627 9.03129 8.09735 9.05253C8.06355 9.07736 8.0319 9.10061 8.01938 9.1363C8.01938 9.15968 8.01938 9.18305 8.04262 9.18305C8.18476 9.13608 8.30774 9.05698 8.42831 8.97944C8.53773 8.90907 8.64515 8.83998 8.7631 8.79734C8.85949 8.77416 8.94341 8.73045 9.02529 8.68781C9.09477 8.65163 9.16277 8.61621 9.23567 8.59475C9.29184 8.58306 9.35381 8.5665 9.41579 8.54994C9.47777 8.53338 9.53974 8.51683 9.59591 8.50514C9.59591 8.52851 9.59591 8.55189 9.61915 8.55189H9.79733C9.78636 8.57838 9.75175 8.58236 9.72805 8.58508Z" fill="#000091"/>
<path d="M33.0001 0H20.0967C20.0967 0 20.1201 0.00390117 20.2176 0.0546164C20.3229 0.109233 20.4594 0.183355 20.5413 0.226268C20.7091 0.312094 20.869 0.421326 20.9743 0.589077C21.0211 0.655397 21.0874 0.791938 21.0445 0.881665C20.9977 0.994799 20.9743 1.17815 20.8612 1.22107C20.7247 1.29129 20.5452 1.29129 20.3853 1.26788C20.2956 1.26788 20.2059 1.24447 20.1123 1.22107C20.4516 1.35761 20.7715 1.51756 20.9977 1.83355C21.0211 1.88036 21.1108 1.89987 21.2006 1.89987C21.224 1.89987 21.224 1.94668 21.224 1.96619C21.1771 2.013 21.1342 2.03641 21.1576 2.10273H21.224C21.3371 2.05592 21.3137 1.82965 21.4736 1.89987C21.5867 1.96619 21.6335 2.12614 21.5633 2.23927C21.4736 2.329 21.3839 2.39922 21.2903 2.46554C21.2669 2.51235 21.2669 2.57867 21.2903 2.62549C21.3566 2.71521 21.38 2.80494 21.4034 2.89857C21.4736 3.05852 21.4931 3.23797 21.5633 3.39792C21.653 3.73732 21.7427 4.07672 21.7232 4.42003C21.7232 4.59948 21.6335 4.75943 21.6998 4.94278C21.7466 5.12224 21.8598 5.25878 21.9495 5.41873C22.0392 5.55527 22.1289 5.64499 22.1991 5.78153C22.3356 6.0078 22.5853 6.23407 22.4722 6.50715C22.4059 6.6671 22.1562 6.64369 21.9963 6.73342C21.8598 6.84655 21.9729 7.02991 22.0431 7.14304C22.1562 7.3459 21.9066 7.48245 21.7466 7.55267C21.7935 7.62289 21.8832 7.59948 21.9066 7.64239C21.93 7.75553 22.0431 7.82185 21.9729 7.93888C21.8832 8.07542 21.6101 8.14174 21.7466 8.34851C21.8364 8.50845 21.7779 8.68401 21.7232 8.84785C21.6569 9.05072 21.4736 9.14044 21.3137 9.18726C21.1771 9.23407 21.0172 9.23407 20.8846 9.21066C20.8378 9.18726 20.7949 9.16385 20.7481 9.16385C20.3619 9.11703 19.9757 9.0078 19.5935 9.0078C19.4804 9.03121 19.3672 9.05072 19.2775 9.09753C19.1761 9.17165 19.0825 9.25358 19.0045 9.3394C19.0045 9.3394 19.0045 9.3394 19.0006 9.3433C18.985 9.36281 18.9655 9.37841 18.9499 9.39792C18.9421 9.40962 18.9304 9.42133 18.9226 9.43303C18.9148 9.44083 18.9109 9.44864 18.9031 9.45644C18.8368 9.53836 18.7782 9.62809 18.7236 9.71782C18.7197 9.72562 18.7158 9.72952 18.7119 9.73342C18.708 9.74512 18.7002 9.75293 18.6924 9.76463C18.6183 9.90117 18.5637 10.0416 18.5208 10.1821C18.3648 10.7009 18.435 11.1456 18.5442 11.2549C18.5754 11.2861 19.2931 11.5085 19.7924 11.7308C20.0265 11.8362 20.1903 11.9142 20.3268 12H32.9962V0H33.0001Z" fill="#E1000F"/>
<path d="M20.8631 4.37467C20.9526 4.39805 21.0888 4.39805 21.0888 4.4448C21.0421 4.62402 20.7736 4.67078 20.6375 4.85389H20.5674C20.5013 4.90064 20.5208 5.01363 20.4546 5.01363C20.3885 4.99025 20.3185 5.01363 20.2523 5.03701C20.3418 5.12662 20.4546 5.19675 20.5908 5.17337C20.6141 5.17337 20.6569 5.22012 20.6569 5.26298C20.6569 5.26298 20.6803 5.26298 20.7036 5.2396C20.727 5.2396 20.7503 5.2396 20.7503 5.26298V5.35259C20.6842 5.4422 20.5674 5.39934 20.478 5.41882C20.6608 5.46558 20.8398 5.46558 20.9993 5.41882C21.1355 5.37207 20.9993 5.1461 21.0888 5.03311C21.0421 5.03311 21.0888 4.96298 21.0421 4.96298C21.0888 4.91623 21.1316 4.85 21.1782 4.82662C21.2249 4.82662 21.2911 4.80324 21.3144 4.75649C21.3144 4.70974 21.2249 4.69026 21.2444 4.6435C21.3806 4.55389 21.4934 4.41753 21.4467 4.28117C21.4233 4.21104 21.2444 4.21104 21.1316 4.16818C21.0187 4.12533 20.8826 4.16818 20.7464 4.19156C20.6336 4.19156 20.5208 4.26169 20.4079 4.28117C20.2484 4.32792 20.1123 4.41753 19.98 4.50714C20.1395 4.44091 20.2951 4.41753 20.478 4.37078C20.6141 4.37467 20.727 4.34351 20.8631 4.37467Z" fill="#808080"/>
</svg>
