<svg viewBox="0 0 128 128" xmlns="http://www.w3.org/2000/svg" fill-rule="evenodd" clip-rule="evenodd" stroke-linejoin="round" stroke-miterlimit="1.414">
    <g fill="#fff">
        <circle cx="64" cy="64" r="64"/>
        <path d="M128 113c0-2.76-2.24-5-5-5H5c-2.76 0-5 2.24-5 5v10c0 2.76 2.24 5 5 5h118c2.76 0 5-2.24 5-5v-10z"/>
    </g>
    <path d="M16.256 89.626l-1.219.65-.65-1.219 1.219-.65.65 1.219z" fill="#556f7b"/>
    <path d="M8.769 87.946l-1.327-.234-.217-.47 1.364.298.18.406zm.958.894l-1.328-3.043.334-.145 1.156 2.665 1.978-.858-.984-2.267.334-.145.984 2.267 2.023-.876-1.156-2.655.334-.145 1.328 3.044-5.003 2.158zm2.835-7.757c.17.482.138 1.014-.09 1.472-.316.632-.777.794-1.942 1.192-1.174.397-1.634.542-2.266.235a1.903 1.903 0 0 1-.967-1.111c-.316-.93.045-1.779.912-2.276l.136.397c-.668.398-.939 1.057-.705 1.752.127.371.38.669.732.849.497.244.912.136 2.014-.235 1.102-.379 1.499-.541 1.743-1.038.172-.352.19-.75.063-1.12-.235-.695-.858-1.075-1.625-.975l-.127-.389c1.003-.144 1.815.325 2.122 1.247zm-2.167-5.672c.433.262.741.686.867 1.192a1.928 1.928 0 0 1-.217 1.463c-.37.605-.84.732-2.032 1.021-1.201.289-1.671.397-2.276.036a1.933 1.933 0 0 1-.867-1.192 1.928 1.928 0 0 1 .217-1.463c.37-.605.831-.723 2.032-1.021 1.192-.298 1.671-.406 2.276-.036zm-4.01 1.319a1.476 1.476 0 0 0-.162 1.11c.09.38.325.705.659.904.469.289.894.216 2.032-.064 1.129-.28 1.544-.406 1.833-.885.199-.334.253-.722.163-1.111a1.431 1.431 0 0 0-.66-.903c-.469-.289-.894-.216-2.032.063-1.137.28-1.544.407-1.833.886zm-1.228-2.267l-.063-.407 5.03-.803-.461-2.863.362-.055.524 3.27-5.392.858zm4.055-7.731c.388.334.623.795.668 1.319a1.89 1.89 0 0 1-.451 1.408c-.461.542-.949.587-2.168.687-1.228.099-1.716.126-2.249-.325a1.935 1.935 0 0 1-.668-1.319 1.886 1.886 0 0 1 .452-1.409c.46-.542.939-.587 2.167-.686 1.219-.1 1.716-.136 2.249.325zm-4.164.659c-.252.298-.37.678-.334 1.066.027.388.208.75.506 1.002.425.362.849.353 2.014.262 1.165-.09 1.59-.153 1.951-.578.253-.298.37-.677.334-1.065a1.442 1.442 0 0 0-.506-1.003c-.424-.361-.849-.352-2.014-.262-1.165.091-1.589.163-1.951.578zm4.046-5.5c.398.361.615.894.615 1.445a1.887 1.887 0 0 1-.578 1.355c-.506.497-.994.497-2.222.479-1.237-.019-1.716-.028-2.213-.533a1.909 1.909 0 0 1-.542-1.373c.009-.948.66-1.698 1.617-1.842l-.009.415c-.759.154-1.237.695-1.246 1.436-.009.388.135.759.406 1.039.388.397.813.433 1.978.442 1.165.018 1.598-.009 1.996-.397.28-.271.433-.641.433-1.03a1.425 1.425 0 0 0-.514-1.138c-.299-.244-.615-.334-1.075-.343l-.488-.009-.018 1.463-.37-.009.027-1.878.894.009c.569.018.966.135 1.309.469zm-4.777-2.032l.027-.415 5.446.361-.027.415-5.446-.361zm5.572-4.398c.226.37.316.813.262 1.246a1.887 1.887 0 0 1-.731 1.283c-.56.433-1.048.379-2.267.225-1.228-.153-1.707-.225-2.132-.785a1.877 1.877 0 0 1-.379-1.427c.063-.515.325-.976.732-1.283.56-.433 1.038-.379 2.266-.225 1.111.144 1.626.216 2.023.65l.723-.56.235.307-.732.569zm-4.335-.379c-.305.24-.503.59-.551.975-.045.388.045.768.289 1.084.334.433.759.524 1.915.668 1.156.145 1.589.172 2.023-.162.307-.235.497-.588.551-.976a1.466 1.466 0 0 0-.199-.957l-.858.668-.235-.307.849-.659c-.307-.289-.776-.361-1.752-.488-1.165-.162-1.598-.19-2.032.154zm5.419-3.152c-.235 1.074-1.138 1.671-2.177 1.436l-3.603-.795.09-.406 3.55.785c.885.199 1.589-.235 1.779-1.102.189-.858-.271-1.553-1.156-1.743l-3.55-.785.091-.407 3.603.795c1.048.235 1.608 1.147 1.373 2.222zm-4.489-4.76l.994-3.161.352.109-.867 2.763 2.059.641.741-2.357.352.109-.741 2.357 2.105.659.867-2.763.352.108-.993 3.161-5.221-1.626z" fill="#3dac48"/>
    <path d="M13.448 43.675l-1.274-.524.524-1.282 1.273.524-.523 1.282z" fill="#556f7b"/>
    <path d="M15.543 39.141a1.91 1.91 0 0 1-1.12.967c-.668.217-1.111 0-2.204-.551-1.102-.56-1.526-.786-1.752-1.454a1.904 1.904 0 0 1 .118-1.472c.442-.876 1.3-1.219 2.266-.939l-.189.379c-.75-.199-1.409.072-1.743.722a1.407 1.407 0 0 0-.091 1.111c.172.524.542.75 1.581 1.274 1.039.523 1.436.695 1.96.523.37-.117.668-.388.849-.731.334-.659.162-1.364-.443-1.852l.181-.361c.795.614 1.029 1.526.587 2.384zm2.538-5.518a1.924 1.924 0 0 1-.244 1.454c-.271.443-.705.75-1.201.867-.687.163-1.111-.09-2.15-.74-1.047-.65-1.454-.912-1.616-1.599a1.92 1.92 0 0 1 .243-1.454 1.91 1.91 0 0 1 1.193-.867c.686-.162 1.101.091 2.149.741 1.048.641 1.463.912 1.626 1.598zm-3.748-1.941c-.38.09-.696.325-.904.659a1.444 1.444 0 0 0-.189 1.102c.126.542.478.794 1.463 1.409.993.614 1.373.812 1.915.686.379-.09.695-.325.903-.659a1.44 1.44 0 0 0 .189-1.102c-.126-.542-.478-.795-1.463-1.409-.993-.614-1.373-.813-1.914-.686zm5.039-3.369l-1.716 2.276 2.05 1.544-.253.334-4.362-3.287.253-.334 2.014 1.517 1.716-2.276-2.014-1.517.253-.334 4.362 3.296-.253.334-2.05-1.553zm-.831-3.531l2.213-2.466.271.244-1.942 2.159 1.608 1.445 1.652-1.834.271.244-1.652 1.833 1.634 1.472 1.942-2.158.271.244-2.213 2.465-4.055-3.648zm.416-1.247l-.344-1.309.344-.379.298 1.363-.298.325zm7.604.813c-.587.551-1.111.75-1.815.732l.009-.416c.695.018 1.092-.153 1.571-.605.632-.596.732-1.264.244-1.788-.226-.235-.47-.361-.75-.352-.262.027-.406.063-.776.334l-.533.37c-.343.244-.668.371-.985.38-.37.027-.704-.118-1.002-.434-.632-.668-.56-1.526.199-2.258.487-.469.93-.632 1.544-.659l-.009.379c-.443 0-.84.1-1.31.551-.578.551-.623 1.183-.144 1.689.217.226.451.334.695.325.253-.018.56-.144.822-.316l.488-.343c.424-.307.659-.397.957-.406.389-.028.777.126 1.075.442.65.686.551 1.59-.28 2.375zm-1.409-6.15l.316-.271 3.531 4.163-.316.271-3.531-4.163zm7.072.732a1.906 1.906 0 0 1-.759 1.264 1.896 1.896 0 0 1-1.427.37c-.695-.099-1.003-.488-1.734-1.472-.741-.984-1.021-1.382-.921-2.077a1.9 1.9 0 0 1 .758-1.264 1.892 1.892 0 0 1 1.427-.371c.696.1.994.479 1.734 1.472.732.985 1.021 1.382.922 2.078zm-2.782-3.17a1.455 1.455 0 0 0-1.084.28 1.425 1.425 0 0 0-.578.957c-.081.551.154.912.858 1.842.696.93.985 1.256 1.526 1.337.389.054.768-.045 1.084-.28.314-.227.523-.573.578-.957.081-.551-.153-.913-.858-1.843-.695-.93-.984-1.255-1.526-1.336zm2.357-1.662l2.484 4.046-.353.217-2.853-4.661.352-.216 5.166 2.393-2.475-4.037.352-.217 2.854 4.66-.352.217-5.175-2.402z" fill="#20b2e8"/>
    <path d="M39.548 15.127l-.605-1.237 1.237-.605.605 1.237-1.237.605z" fill="#556f7b"/>
    <path d="M43.901 13.177l-.388.153-1.906-4.723-1.508.605-.136-.343 3.414-1.373.136.343-1.518.605 1.906 4.733zm3.378-3.857l-1.436.452.749 2.402-.397.127-1.626-5.211 1.987-.615c.849-.261 1.644.028 1.933.931.244.785-.072 1.427-.759 1.779l2.014 2.014-.46.144-2.005-2.023zm-.669-2.492l-1.535.478.659 2.114 1.536-.479c.677-.208 1.047-.686.821-1.409-.225-.731-.803-.912-1.481-.704zm6.548 2.23l-2.484.551-.18 1.4-.434.099.786-5.78.361-.081 3.143 4.904-.433.099-.759-1.192zm-2.438.154l2.23-.497-1.806-2.89-.424 3.387zm4.118-3.938l.605 4.715-.416.054-.695-5.419.415-.054 3.73 4.299-.605-4.697.416-.054.695 5.419-.415.054-3.73-4.317zm6.927 4.164c-.804.027-1.328-.172-1.843-.651l.28-.307c.506.47.922.605 1.572.587.867-.036 1.391-.469 1.364-1.183-.01-.334-.118-.587-.326-.758-.216-.154-.343-.217-.803-.262l-.642-.072c-.415-.046-.74-.163-.993-.362-.289-.226-.452-.56-.47-.984-.036-.921.587-1.517 1.635-1.563.677-.027 1.111.145 1.599.533l-.262.28c-.335-.298-.705-.478-1.346-.451-.795.027-1.246.478-1.219 1.174.009.316.117.551.316.704.199.154.515.262.822.307l.596.073c.515.045.758.135.984.325.307.234.497.605.515 1.038.036.912-.632 1.527-1.779 1.572zm2.998-5.555l.416.009-.091 5.464-.415-.009.09-5.464zm3.215 5.609l-.415-.027.352-5.085-1.626-.108.028-.37 3.666.252-.027.371-1.635-.118-.343 5.085zm3.134-5.184l.416.054-.669 5.419-.415-.054.668-5.419zm4.263 5.699c-.425.289-.93.397-1.445.298-.515-.1-.948-.38-1.237-.804-.398-.578-.317-1.066-.091-2.276.226-1.21.325-1.689.903-2.086.421-.29.943-.398 1.445-.298.515.099.949.379 1.238.804.397.578.316 1.056.09 2.275-.226 1.202-.325 1.68-.903 2.087zm.442-4.2a1.458 1.458 0 0 0-.939-.605c-.388-.072-.777 0-1.093.226-.46.316-.569.731-.776 1.878-.217 1.147-.262 1.572.054 2.032.217.325.56.533.939.605.388.073.777 0 1.093-.225.46-.316.569-.732.777-1.879.207-1.147.252-1.571-.055-2.032zm2.827.605l-1.3 4.57-.398-.117 1.499-5.257.398.118 1.734 5.419 1.3-4.552.398.117-1.499 5.256-.398-.117-1.734-5.437z" fill="#1173ba"/>
    <path d="M83.404 12.924l.514-1.283 1.283.515-.515 1.283-1.282-.515z" fill="#556f7b"/>
    <path d="M87.784 14.829l-.37-.18 2.221-4.588-1.463-.705.163-.334 3.305 1.599-.162.334-1.472-.714-2.222 4.588zm4.931-3.612l2.863 1.671-.19.316-2.511-1.463-1.083 1.86 2.131 1.246-.19.316-2.131-1.246-1.111 1.906 2.511 1.463-.19.316-2.863-1.671 2.764-4.714zm3.992 5.988l-1.238-.858-1.445 2.059-.343-.235 3.134-4.48 1.707 1.193c.732.514.984 1.318.443 2.095-.47.677-1.175.822-1.879.487l-.37 2.827-.398-.28.389-2.808zm1.571-2.06l-1.318-.921-1.265 1.816 1.319.921c.578.406 1.183.406 1.616-.217.434-.623.226-1.192-.352-1.599zm2.375 5.112l-1.156-.966-1.616 1.932-.316-.261 3.513-4.191 1.598 1.337c.687.569.867 1.4.262 2.131-.524.632-1.237.714-1.914.316l-.614 2.782-.371-.307.614-2.773zm1.743-1.915l-1.237-1.038-1.418 1.698 1.237 1.038c.542.452 1.147.506 1.635-.072.488-.587.325-1.165-.217-1.626zm2.556 1.798l.298.289-3.757 3.964-.298-.289 3.757-3.964zm-1.427 6.304l-.289-.299 3.694-3.504-1.12-1.183.271-.253 2.529 2.665-.271.252-1.129-1.183-3.685 3.505zm3.875 3.711a1.946 1.946 0 0 1-1.725-2.113c.072-.704.451-1.02 1.4-1.788.957-.777 1.336-1.075 2.041-1.003a1.947 1.947 0 0 1 1.725 2.123c-.073.704-.443 1.011-1.4 1.788-.958.768-1.346 1.066-2.041.993zm3.052-2.908a1.457 1.457 0 0 0-.325-1.065 1.467 1.467 0 0 0-.984-.542c-.551-.054-.903.189-1.807.93-.903.731-1.219 1.03-1.273 1.58-.036.389.081.768.325 1.066.244.307.596.497.985.542.551.054.903-.19 1.806-.93.903-.732 1.219-1.03 1.273-1.581zm2.014 1.454l.244.334-4.443 3.189-.244-.335 4.443-3.188zm-.198 4.995l-.804-1.274-2.132 1.337-.216-.352 4.633-2.899 1.101 1.761c.47.758.398 1.598-.406 2.104-.695.433-1.4.298-1.915-.28l-1.436 2.456-.252-.406 1.427-2.447zm2.248-1.274l-.858-1.364-1.869 1.175.858 1.363c.379.596.93.84 1.58.434.633-.407.66-1.012.289-1.608zm1.942 2.565l1.517 2.944-.325.172-1.327-2.574-1.915.993 1.129 2.195-.325.172-1.129-2.195-1.96 1.011 1.328 2.574-.325.172-1.518-2.944 4.85-2.52zm-2.438 7.659c-.307-.741-.307-1.301-.037-1.96l.38.153c-.262.642-.244 1.075.009 1.68.334.804.921 1.138 1.58.858.307-.126.506-.316.596-.569.073-.253.082-.397-.036-.84l-.153-.623c-.1-.406-.109-.75-.009-1.057.108-.352.361-.623.758-.785.849-.353 1.626.018 2.032.984.262.623.253 1.093.064 1.68l-.353-.145c.163-.415.199-.821-.045-1.417-.307-.732-.885-1.003-1.526-.732-.289.117-.47.298-.551.542-.072.235-.063.578 0 .885l.144.578c.136.497.136.759.046 1.039-.109.37-.389.677-.795.848-.858.353-1.662-.063-2.104-1.119z" fill="#03a14f"/>
    <path d="M115.465 46.33l1.318-.424.425 1.318-1.319.425-.424-1.319z" fill="#556f7b"/>
    <path d="M116.72 50.873c-.19-.786-.09-1.337.28-1.933l.352.217c-.361.596-.415 1.021-.262 1.662.199.84.732 1.264 1.427 1.102.325-.082.551-.226.678-.47.108-.235.144-.379.099-.84l-.054-.641c-.036-.415.018-.759.162-1.039.163-.334.461-.551.876-.65.894-.217 1.608.28 1.852 1.301.153.659.081 1.119-.208 1.67l-.325-.198c.226-.389.334-.786.18-1.409-.189-.777-.713-1.129-1.39-.967-.307.073-.515.217-.624.443-.108.226-.153.56-.135.867l.045.596c.054.515.009.768-.126 1.03-.172.352-.497.605-.921.713-.913.199-1.635-.343-1.906-1.454zm1.635 5.708a1.863 1.863 0 0 1-.759-1.265 1.933 1.933 0 0 1 .343-1.436c.416-.568.903-.65 2.113-.839 1.22-.19 1.698-.253 2.267.162.416.298.687.75.759 1.265a1.926 1.926 0 0 1-.343 1.435c-.416.569-.894.651-2.114.84-1.21.19-1.697.253-2.266-.162zm4.109-.967c.235-.316.316-.704.262-1.083a1.443 1.443 0 0 0-.578-.958c-.443-.325-.876-.289-2.032-.117-1.156.181-1.572.271-1.897.723a1.457 1.457 0 0 0-.262 1.083c.063.389.262.732.578.958.443.325.876.289 2.032.117 1.156-.172 1.572-.28 1.897-.723zm1.029 2.367l.027.415-5.084.361.208 2.89-.371.027-.234-3.305 5.454-.388zm.235 4.443l.009.415-5.464.109-.009-.416 5.464-.108zm-5.066 5.184c-.316-.343-.461-.813-.434-1.382l.081-1.833 5.455.244-.081 1.833c-.027.578-.217 1.03-.56 1.346-.578.524-1.445.46-2.176.433-.732-.027-1.762-.063-2.285-.641zm4.181-.099c.343-.298.452-.714.479-1.156l.063-1.319-4.723-.217-.064 1.319c-.018.433.055.858.371 1.192.433.452 1.382.47 1.996.497.605.036 1.399.09 1.878-.316zm-3.865 4.633l.325-2.529-1.255-.641.054-.443 5.157 2.701-.046.361-5.68 1.291.054-.442 1.391-.298zm.677-2.348l-.298 2.266 3.333-.722-3.035-1.544zm3.089 4.813l-.081.407-5.365-1.012.081-.406 5.365 1.011zm-3.748 3.297l.37-1.454-2.438-.624.099-.397 5.301 1.346-.514 2.014c-.217.867-.885 1.39-1.807 1.156-.794-.199-1.183-.804-1.12-1.581l-2.772.659.117-.469 2.764-.65zm2.474.74l.398-1.562-2.141-.542-.397 1.562c-.172.687.036 1.256.777 1.436.731.19 1.192-.207 1.363-.894zm-.523 3.179l-1.084 3.134-.352-.117.948-2.746-2.041-.704-.804 2.339-.352-.118.804-2.339-2.078-.722-.948 2.745-.352-.117 1.084-3.134 5.175 1.779z" fill="#95c11f"/>
    <path d="M113.884 85.111l1.265.56-.56 1.264-1.265-.56.56-1.264z" fill="#556f7b"/>
    <path d="M12.201 60.771c1.635-28.593 26.137-50.439 54.73-48.805 28.593 1.635 50.439 26.137 48.805 54.73-1.635 28.593-26.137 50.439-54.73 48.805-28.584-1.635-50.439-26.137-48.805-54.73z" fill="#169bd8" fill-opacity=".549"/>
    <path d="M34.075 21.377c18.767 8.67 31.275 28.159 30.02 50.051-.939 16.41-9.411 30.598-21.865 39.404-18.767-8.67-31.275-28.16-30.029-50.052.939-16.418 9.411-30.607 21.874-39.403z" fill="#16428e" fill-opacity=".549"/>
    <path d="M72.295 58.721c.903-15.705 8.697-29.378 20.284-38.238 14.866 9.853 24.24 27.121 23.157 46.204-.904 15.705-8.698 29.378-20.285 38.238-14.865-9.844-24.24-27.112-23.156-46.204z" fill="#048d42" fill-opacity=".549"/>
    <path d="M79.078 14.125C69.649 30.724 51.37 41.472 31.013 40.306a52.057 52.057 0 0 1-12.147-2.158C28.304 21.54 46.583 10.801 66.94 11.966c4.208.244 8.272.985 12.138 2.159z" fill="#83bd45" fill-opacity=".549"/>
    <path d="M21.82 93.925c8.651-18.812 28.168-31.356 50.087-30.11 16.283.93 30.372 9.284 39.196 21.576-8.652 18.812-28.169 31.356-50.088 30.101-16.283-.921-30.381-9.275-39.195-21.567z" fill="#0a67b1" fill-opacity=".549"/>
    <path d="M115.528 58.215c-3.006.35-6.037.441-9.059.271-25.712-1.472-45.978-21.449-48.597-46.249a52.928 52.928 0 0 1 9.059-.271c25.721 1.473 45.978 21.45 48.597 46.249z" fill="#d5da2c" fill-opacity=".549"/>
    <path d="M102.956 29.55c-8.868 16.211-27.319 27.076-48.073 26.191-14.459-.614-27.175-7.496-36.026-17.584 9.429-16.608 27.717-27.356 48.074-26.191 14.45.831 27.175 7.496 36.025 17.584z" fill="#03a14f" fill-opacity=".549"/>
    <path d="M34.066 21.377a51.82 51.82 0 0 1 1.833 16.97c-.939 16.41-9.41 30.598-21.864 39.394a51.793 51.793 0 0 1-1.834-16.97c.939-16.409 9.411-30.589 21.865-39.394z" fill="#3dac48" fill-opacity=".549"/>
    <path d="M62.307 112.259c1.616-28.187 25.45-49.817 53.51-48.86a50.075 50.075 0 0 1-.081 3.288c-1.617 28.186-25.451 49.816-53.511 48.859a50.046 50.046 0 0 1 .082-3.287z" fill="#1173ba" fill-opacity=".549"/>
    <path d="M12.129 64.754a52.16 52.16 0 0 1 13.592-1.011c27.256 1.562 48.38 23.896 48.877 50.746a52.118 52.118 0 0 1-13.592 1.012c-27.247-1.563-48.38-23.897-48.877-50.747z" fill="#088ccd" fill-opacity=".549"/>
    <path d="M115.257 71.374c-2.944 19.914-17.205 36.143-36.044 41.932L43.359 89.482s15.398-9.582 16.356-12.22c.957-2.637-11.353-40.216-7.957-42.004 3.396-1.788 19.833-9.438 19.833-9.438l43.666 45.554z" fill="#121212" fill-opacity=".349"/>
    <path d="M63.932 115.835c16.175 0 30.616-7.406 40.126-19.02l-1.499-1.906s3.405-.514-.533-2.709c-3.938-2.194-3.938-2.294-4.823-2.917-.885-.623-3.17-.975-3.368-1.282-.19-.307 2.032-1.247-.352-2.005-2.376-.759-4.85-1.716-4.85-1.716s1.246-1.969-.235-2.701c-1.481-.731-2.971-.876-3.278-.677-.307.19-.876-.822-1.364-1.328-.488-.514-1.779-.74-2.384-.659-.542.081-4.2-.081-5.022-.415l.027.298-.189-.407c.018.036.072.073.162.109-.117-1.147-.533-5.356-.515-6.214.028-1.002.434-1.291.434-1.291s5.681.542 5.283-3.568c0 0-.56-1.508-.334-2.601 0 0 1.021-.578.271-1.472 0 0 .659-.505.307-1.914 0 0-.19-.605.027-1.202 0 0 2.186-.189 1.436-1.661-.488-.967-.578-.714-.768-1.319-.18-.605-1.038-2.321-1.219-3.125-.18-.803 1.057-2.276 1.075-2.971.018-.695-.84-2.321-1.021-3.025-.18-.705-1.038-2.52-1.21-3.721-.171-1.201-.713-3.414-1.102-3.821-.388-.406-.966-1.417-1.147-2.122-.18-.704-1.246-2.032-1.544-2.339-.289-.307-2.547-2.158-4.823-2.818-2.284-.659-2.871-.966-4.271-1.102-1.391-.135-2.195.046-2.087-.352.109-.397 1.409-.262 2.8-.036.398.063 1.761.668 3.405-.217 1.418-.767 2.682-3.431-1.328-6.927-4.01-3.495-9.058-1.119-10.178-.55-1.111.568 0-.1-2.727 1.228-2.728 1.327-6.72 5.03-7.605 8.706-.885 3.676-.09 3.694-.018 4.696.073 1.003-.153 2.195-1.083 3.567-.931 1.373-2.457 2.34-1.301 4.164 1.156 1.824.334 2.502-.181 3.396-.523.885-1.165 2.664.109 3.802 1.273 1.129 1.065 1.526 1.237 2.33.181.804.741 2.52 1.021 3.224.28.704.072 1.003-.055 2.195-.126 1.192-.93 1.372-1.056 2.276-.118.894-.018.596.894.117s-.732 1.183-.75 1.978c-.018.795.795.117.795.117s.063 1.499-.542 1.788c-.605.289.994.325 1.129-1.372.145-1.698 1.057 1.725-1.075 3.269-2.131 1.544 1.409-.47 1.409-.47l-.524 1.084s1.906-.352.38.704c-1.527 1.066-2.114.75-2.114.75s-2.149 2.15.046 2.095c2.194-.045.984.524 1.472 1.238.478.713 1.95 1.743 2.745 2.068.795.316 5.121.569 5.121.569l-.425.93s-6.43-.036-8.733.406c-2.312.443-3.739 1.707-3.757 2.601-.018.894.063 1.4-.84 1.581-.903.18-4.091 0-5.13 1.273-1.029 1.274-1.336 1.662-2.239 1.743-.903.082-2.123.849-2.24 1.644-.117.795-.253 1.996-1.273 2.962-1.021.976-4.028 1.301-4.579 3.486-.461 1.807-.307 3.902-.903 6.142 9.41 9.518 22.46 15.416 36.883 15.416z" fill="#fff"/>
    <path d="M38.392 101.06v5.942h-.515v-6.836h.515l3.947 5.924v-5.924h.514v6.836h-.514l-3.947-5.942zm8.634 5.997c-1.373 0-2.339-.94-2.339-2.276v-4.615h.514v4.551c0 1.129.723 1.879 1.825 1.879 1.102 0 1.824-.75 1.824-1.879v-4.551h.515v4.615c0 1.336-.966 2.276-2.339 2.276zm9.392-5.69l-2.077 4.678h-.515l-2.113-4.678v5.635h-.515v-6.836h.515l2.384 5.274 2.321-5.274h.515v6.836h-.515v-5.635zm2.439-1.201h4.145v.46h-3.631v2.701h3.089v.46h-3.089v2.755h3.631v.46h-4.145v-6.836zm1.508-.651l.93-1.408h.641l-1.02 1.408h-.551zm6.439 4.335h-1.878v3.152h-.515v-6.836h2.601c1.111 0 1.96.641 1.96 1.833 0 1.03-.614 1.68-1.572 1.842l1.653 3.161h-.605l-1.644-3.152zm.136-3.224h-2.014v2.764h2.014c.885 0 1.508-.434 1.508-1.382s-.623-1.382-1.508-1.382zm3.585-.46h.515v6.836h-.515v-6.836zm6.024 6.376a2.438 2.438 0 0 1-1.508.515 2.393 2.393 0 0 1-1.707-.705c-.623-.623-.632-1.237-.632-2.773 0-1.544.009-2.149.632-2.772a2.393 2.393 0 0 1 1.707-.705c.65 0 1.255.253 1.707.705.623.623.632 1.228.632 2.772 0 1.4-.009 2.06-.488 2.611l.804.803-.343.343-.804-.794zm-.217-5.446a1.816 1.816 0 0 0-1.3-.524c-.488 0-.949.181-1.301.524-.488.488-.524 1.029-.524 2.483 0 1.464.036 1.996.524 2.484.343.343.804.524 1.301.524.433 0 .822-.136 1.165-.407l-.958-.957.344-.343.948.948c.307-.433.325-1.029.325-2.258.009-1.445-.036-1.986-.524-2.474zm4.94 5.961c-1.372 0-2.339-.94-2.339-2.276v-4.615h.515v4.551c0 1.129.722 1.879 1.824 1.879s1.825-.75 1.825-1.879v-4.551h.514v4.615c0 1.336-.966 2.276-2.339 2.276zm4.164-6.891h4.145v.46H85.95v2.701h3.098v.46H85.96v2.755h3.63v.46h-4.154v-6.836zm-45.635-9.203v1.996h3.215v1.418h-3.215v3.305h-1.59v-8.137h5.356v1.418h-3.766zm9.103 6.719l-.478-1.436h-2.89l-.488 1.436h-1.653l2.962-8.137h1.247l2.971 8.137h-1.671zm-1.896-5.735l-1.03 2.962h2.023l-.993-2.962zm7.965 5.735h-3.405v-8.137h3.27c1.589 0 2.51.894 2.51 2.285 0 .903-.596 1.481-1.002 1.68.488.225 1.12.74 1.12 1.824-.009 1.526-1.048 2.348-2.493 2.348zm-.271-6.719h-1.553v1.869h1.553c.678 0 1.048-.379 1.048-.939.009-.551-.37-.93-1.048-.93zm.109 3.305h-1.653v1.996h1.653c.722 0 1.065-.46 1.065-1.002-.009-.551-.352-.994-1.065-.994zm8.588 3.414L61.81 94.44h-1.138v3.242h-1.59v-8.137h3.189c1.652 0 2.637 1.129 2.637 2.493 0 1.147-.696 1.851-1.481 2.14l1.815 3.504h-1.843zm-1.228-6.719h-1.499v2.149h1.499c.696 0 1.156-.442 1.156-1.074-.009-.633-.46-1.075-1.156-1.075zm4.389 6.719v-8.137h1.59v8.137h-1.59zm8.354.343l-.722-.722c-.461.298-1.003.442-1.644.442-.921 0-1.635-.316-2.204-.894-.821-.822-.803-1.842-.803-3.242 0-1.409-.027-2.42.803-3.242.569-.569 1.283-.894 2.204-.894.93 0 1.626.316 2.195.894.822.822.812 1.842.812 3.242 0 1.219.01 2.122-.505 2.881l.695.695-.831.84zm-1.354-6.701c-.226-.262-.587-.433-1.021-.433-.433 0-.804.171-1.03.433-.307.343-.388.723-.388 2.285 0 1.562.081 1.942.388 2.285.226.262.597.433 1.03.433a.916.916 0 0 0 .524-.144l-.705-.696.849-.83.605.605c.127-.353.145-.822.145-1.644.009-1.571-.09-1.951-.397-2.294zm6.014 6.421c-1.67 0-2.989-1.129-2.989-2.854v-5.346h1.59v5.292c0 .939.55 1.499 1.408 1.499.858 0 1.418-.56 1.418-1.499v-5.292h1.581v5.346c-.018 1.725-1.337 2.854-3.008 2.854zm4.308-.063v-8.137h5.356v1.418h-3.775v1.905h3.215v1.418h-3.215v1.978h3.775v1.418h-5.356zM6.656 117.054v-2.05l-.704 1.499h-.353l-.722-1.499v2.05h-.47v-3.071h.47l.894 1.906.876-1.906h.47v3.071h-.461zm1.346 0v-3.071h.469v3.071h-.469zm3.233 0l-1.418-2.158v2.158h-.47v-3.071h.425l1.427 2.159v-2.159h.469v3.071h-.433zm1.318 0v-3.071h.47v3.071h-.47zm2.168.027c-.461 0-.795-.108-1.084-.406l.307-.307c.226.226.47.289.786.289.397 0 .632-.172.632-.47 0-.135-.036-.244-.117-.316-.082-.072-.154-.099-.334-.126l-.362-.055c-.253-.036-.451-.117-.578-.243-.153-.145-.225-.335-.225-.587 0-.533.388-.904 1.029-.904.407 0 .687.1.948.353l-.298.289c-.189-.181-.406-.235-.668-.235-.361 0-.56.208-.56.478 0 .109.036.208.118.28a.691.691 0 0 0 .343.145l.352.054c.28.045.442.108.569.226.172.144.253.37.253.632-.009.569-.47.903-1.111.903zm2.854-2.673v2.646h-.47v-2.646h-.849v-.415h2.159v.415h-.84zm1.463 2.646v-3.071h1.96v.416h-1.5v.894h1.274v.415h-1.274v.922h1.5v.415h-1.96v.009zm.831-3.36l-.479-.695h.488l.325.695h-.334zm3.549 3.36l-.65-1.291h-.578v1.291h-.47v-3.071h1.192c.578 0 .949.38.949.895a.802.802 0 0 1-.615.812l.705 1.355h-.533v.009zm-.542-2.646h-.686v.957h.686c.307 0 .524-.18.524-.478s-.217-.479-.524-.479zm1.752 2.646v-3.071h1.96v.416h-1.499v.894h1.282v.415h-1.273v.922h1.499v.415h-1.969v.009zm5.681-.289c-.19.19-.47.289-.795.289h-1.075v-3.071h1.075c.316 0 .596.1.795.289.334.335.307.777.307 1.22 0 .451.018.948-.307 1.273zm-.325-2.149c-.127-.145-.298-.208-.524-.208h-.56v2.231h.56a.679.679 0 0 0 .524-.208c.162-.181.162-.506.162-.93 0-.425 0-.714-.162-.885zm1.409 2.438v-3.071h1.959v.416h-1.499v.894h1.274v.415h-1.274v.922h1.499v.415h-1.959v.009zm3.802 0v-3.071h.469v2.647h1.482v.415h-1.951v.009zm4.326 0l-.208-.614h-1.21l-.208.614h-.506l1.129-3.071h.38l1.129 3.071h-.506zm-.804-2.366l-.479 1.364h.94l-.461-1.364zm3.983-.28v2.646h-.47v-2.646h-.849v-.415h2.159v.415h-.84zm3.152 2.646l-.651-1.291h-.578v1.291h-.46v-3.071h1.192c.578 0 .948.38.948.895a.803.803 0 0 1-.614.812l.705 1.355h-.542v.009zm-.542-2.646h-.687v.957h.687c.307 0 .524-.18.524-.478s-.208-.479-.524-.479zm3.522 2.646l-.208-.614h-1.21l-.208.614h-.496l1.129-3.071h.379l1.129 3.071h-.515zm-.804-2.366l-.478 1.364h.939l-.461-1.364zm3.703 2.366l-1.418-2.158v2.158h-.46v-3.071h.424l1.418 2.159v-2.159h.47v3.071h-.434zm2.131.027c-.46 0-.794-.108-1.083-.406l.307-.307c.226.226.469.289.785.289.398 0 .633-.172.633-.47 0-.135-.036-.244-.118-.316-.081-.072-.153-.099-.334-.126l-.361-.055c-.253-.036-.452-.117-.578-.243-.154-.145-.226-.335-.226-.587 0-.533.388-.904 1.03-.904.406 0 .686.1.948.353l-.298.289c-.19-.181-.407-.235-.668-.235-.362 0-.56.208-.56.478 0 .109.036.208.117.28a.7.7 0 0 0 .343.145l.352.054c.28.045.443.108.569.226.172.144.253.37.253.632-.009.569-.469.903-1.111.903zm1.816-.027v-3.071h.469v3.071h-.469zm2.393-2.646v2.646h-.47v-2.646h-.849v-.415h2.159v.415h-.84zm1.454 2.646v-3.071h.47v3.071h-.47zm3.161-.298a1.11 1.11 0 0 1-.813.325c-.325 0-.596-.117-.804-.325-.298-.298-.298-.641-.298-1.228s0-.93.298-1.228c.208-.208.479-.326.804-.326.325 0 .596.118.813.326.298.298.289.641.289 1.228s.009.93-.289 1.228zm-.352-2.185a.63.63 0 0 0-.461-.19.631.631 0 0 0-.46.19c-.154.162-.181.334-.181.948 0 .614.027.786.181.948.108.117.28.19.46.19a.638.638 0 0 0 .461-.19c.153-.162.18-.334.18-.948 0-.614-.036-.786-.18-.948zm3.305 2.483l-1.418-2.158v2.158h-.469v-3.071h.424l1.418 2.159v-2.159h.47v3.071h-.425zm2.43 0v-3.071h1.959v.416h-1.499v.894h1.283v.415h-1.274v.922h1.499v.415h-1.968v.009zm1.047-3.36h-.334l.325-.695h.488l-.479.695zm2.628 3.387c-.316 0-.596-.117-.803-.325-.299-.298-.299-.641-.299-1.228s0-.93.299-1.228c.207-.208.487-.326.803-.326.569 0 .985.335 1.093.94h-.47c-.072-.307-.28-.524-.623-.524a.613.613 0 0 0-.451.19c-.154.162-.19.343-.19.957 0 .614.036.795.19.957a.613.613 0 0 0 .451.19c.343 0 .551-.217.623-.524h.47c-.099.596-.533.921-1.093.921zm3.604-.325a1.11 1.11 0 0 1-.813.325c-.325 0-.596-.117-.804-.325-.298-.298-.298-.641-.298-1.228s0-.93.298-1.228c.208-.208.479-.326.804-.326.325 0 .596.118.813.326.298.298.289.641.289 1.228.009.587.018.93-.289 1.228zm-.352-2.185a.63.63 0 0 0-.461-.19.63.63 0 0 0-.461.19c-.153.162-.18.334-.18.948 0 .614.027.786.18.948.109.117.28.19.461.19a.638.638 0 0 0 .461-.19c.153-.162.18-.334.18-.948 0-.614-.027-.786-.18-.948zm1.426 2.483v-3.071h.47v2.647h1.481v.415h-1.951v.009zm4.245-.298a1.11 1.11 0 0 1-.813.325c-.325 0-.596-.117-.803-.325-.298-.298-.298-.641-.298-1.228s0-.93.298-1.228a1.1 1.1 0 0 1 .803-.326c.325 0 .596.118.813.326.298.298.289.641.289 1.228.009.587.018.93-.289 1.228zm-.352-2.185a.63.63 0 0 0-.461-.19.631.631 0 0 0-.46.19c-.154.162-.181.334-.181.948 0 .614.027.786.181.948.108.117.28.19.46.19a.634.634 0 0 0 .461-.19c.153-.162.181-.334.181-.948 0-.614-.028-.786-.181-.948zm3.26 2.167c-.22.232-.529.36-.849.352-.316 0-.596-.117-.803-.325-.299-.298-.299-.641-.299-1.228s0-.93.299-1.228a1.1 1.1 0 0 1 .803-.326c.651 0 1.03.425 1.12.949h-.469c-.082-.334-.298-.533-.651-.533a.613.613 0 0 0-.451.19c-.154.162-.19.334-.19.948 0 .614.036.795.19.957a.613.613 0 0 0 .451.19c.199 0 .38-.081.497-.217.108-.126.154-.28.154-.479v-.171h-.651v-.398h1.12v.47c0 .379-.072.632-.271.849zm1.048.316v-3.071h.469v3.071h-.469zm3.287.145l-.307-.307c-.18.126-.397.189-.641.189-.325 0-.596-.117-.804-.325-.298-.298-.298-.641-.298-1.228s0-.93.298-1.228c.208-.208.479-.326.804-.326.325 0 .596.118.813.326.298.298.289.641.289 1.228 0 .524 0 .84-.199 1.12l.298.298-.253.253zm-.487-2.628a.63.63 0 0 0-.461-.19.63.63 0 0 0-.461.19c-.153.162-.18.334-.18.948 0 .614.027.786.18.948.109.117.28.19.461.19a.542.542 0 0 0 .316-.1l-.325-.325.262-.262.298.298c.081-.153.09-.361.09-.758 0-.605-.027-.777-.18-.939zm2.474 2.51c-.623 0-1.102-.424-1.102-1.056v-2.032h.47v2.013c0 .407.253.66.632.66s.641-.253.641-.66v-2.013h.47v2.032c-.009.632-.488 1.056-1.111 1.056zm1.942-.027v-3.071h1.96v.416h-1.5v.894h1.274v.415h-1.274v.922h1.5v.415h-1.96v.009zm3.811 0v-3.071h1.96v.416h-1.499v.894h1.273v.415h-1.273v.922h1.499v.415h-1.96v.009zm3.721-2.646v2.646h-.47v-2.646h-.849v-.415h2.159v.415h-.84zm3.396 2.673c-.461 0-.795-.108-1.084-.406l.307-.307c.226.226.47.289.786.289.397 0 .632-.172.632-.47 0-.135-.036-.244-.118-.316-.081-.072-.153-.099-.334-.126l-.361-.055c-.253-.036-.451-.117-.578-.243-.153-.145-.226-.335-.226-.587 0-.533.389-.904 1.03-.904.406 0 .686.1.948.353l-.298.289c-.19-.181-.406-.235-.668-.235-.361 0-.56.208-.56.478 0 .109.036.208.117.28a.71.71 0 0 0 .343.145l.353.054c.28.045.442.108.569.226.171.144.253.37.253.632-.01.569-.47.903-1.111.903zm3.612-.325a1.11 1.11 0 0 1-.813.325c-.325 0-.596-.117-.803-.325-.298-.298-.298-.641-.298-1.228s0-.93.298-1.228a1.1 1.1 0 0 1 .803-.326c.325 0 .596.118.813.326.298.298.289.641.289 1.228.009.587.018.93-.289 1.228zm-.352-2.185a.63.63 0 0 0-.461-.19.631.631 0 0 0-.46.19c-.154.162-.181.334-.181.948 0 .614.027.786.181.948.108.117.28.19.46.19a.634.634 0 0 0 .461-.19c.153-.162.181-.334.181-.948 0-.614-.028-.786-.181-.948zm1.427 2.483v-3.071h.47v2.647h1.481v.415h-1.951v.009zm2.556 0v-3.071h.469v3.071h-.469zm3.224-.289c-.19.19-.47.289-.795.289h-1.075v-3.071h1.075c.316 0 .596.1.795.289.334.335.307.777.307 1.22 0 .451.027.948-.307 1.273zm-.316-2.149c-.127-.145-.298-.208-.524-.208h-.569v2.231h.569a.679.679 0 0 0 .524-.208c.162-.181.162-.506.162-.93 0-.425-.009-.714-.162-.885zm3.125 2.438l-.208-.614h-1.21l-.208.614h-.497l1.129-3.071h.379l1.129 3.071h-.514zm-.804-2.366l-.479 1.364h.939l-.46-1.364zm1.824 2.366v-3.071h.47v3.071h-.47zm3.044 0l-.651-1.291h-.578v1.291h-.469v-3.071h1.192c.578 0 .948.38.948.895a.803.803 0 0 1-.614.812l.705 1.355h-.533v.009zm-.542-2.646h-.687v.957h.687c.307 0 .524-.18.524-.478s-.208-.479-.524-.479zm1.752 2.646v-3.071h1.96v.416h-1.5v.894h1.274v.415h-1.274v.922h1.5v.415h-1.96v.009zM17.06 122.536v-2.05l-.704 1.499h-.344l-.722-1.499v2.05h-.47v-3.071h.47l.894 1.906.876-1.906h.47v3.071h-.47zm1.355 0v-3.071h.469v3.071h-.469zm3.233 0l-1.418-2.158v2.158h-.47v-3.071h.425l1.418 2.159v-2.159h.469v3.071h-.424zm1.318 0v-3.071h.47v3.071h-.47zm2.168.027c-.461 0-.795-.108-1.084-.406l.307-.307c.226.225.47.289.786.289.397 0 .632-.172.632-.47 0-.135-.036-.244-.117-.316-.081-.072-.154-.099-.334-.126l-.362-.055c-.252-.036-.451-.117-.578-.243-.153-.145-.225-.335-.225-.588 0-.532.388-.903 1.029-.903.407 0 .687.1.948.353l-.298.289c-.189-.181-.406-.235-.668-.235-.361 0-.56.207-.56.478 0 .109.036.208.118.28a.691.691 0 0 0 .343.145l.352.054c.28.045.443.108.569.226.172.144.253.37.253.632-.009.56-.47.903-1.111.903zm2.854-2.682v2.646h-.47v-2.646h-.849v-.416h2.159v.416h-.84zm1.463 2.655v-3.071h1.96v.416h-1.499v.894h1.273v.415h-1.273v.922h1.499v.415h-1.96v.009zm.831-3.369l-.479-.695h.488l.325.695h-.334zm3.54 3.369l-.65-1.291h-.578v1.291h-.47v-3.071h1.201c.578 0 .949.38.949.895a.802.802 0 0 1-.615.812l.705 1.355h-.542v.009zm-.533-2.655h-.686v.957h.686c.307 0 .524-.18.524-.478s-.217-.479-.524-.479zm1.752 2.655v-3.071h1.96v.416h-1.499v.894h1.273v.415h-1.273v.922h1.499v.415h-1.96v.009zm5.681-.289c-.19.19-.47.289-.795.289h-1.075v-3.071h1.075c.316 0 .596.1.795.289.334.335.307.777.307 1.22 0 .451.018.939-.307 1.273zm-.325-2.158c-.127-.145-.298-.208-.524-.208h-.56v2.231h.56a.679.679 0 0 0 .524-.208c.162-.181.162-.506.162-.93 0-.425 0-.705-.162-.885zm1.409 2.447v-3.071h1.959v.416h-1.499v.894h1.274v.415h-1.274v.922h1.499v.415h-1.959v.009zm3.802 0v-3.071h.469v2.647h1.482v.415h-1.951v.009zm4.326 0l-.208-.614h-1.21l-.208.614h-.497l1.129-3.071h.38l1.129 3.071h-.515zm-.804-2.375l-.479 1.364h.94l-.461-1.364zm3.929 2.402c-.316 0-.596-.117-.804-.325-.298-.298-.298-.641-.298-1.228s0-.93.298-1.228c.208-.208.488-.326.804-.326.569 0 .984.335 1.092.94h-.469c-.072-.307-.28-.524-.623-.524a.607.607 0 0 0-.452.19c-.153.162-.19.343-.19.957 0 .614.037.795.19.957a.607.607 0 0 0 .452.19c.343 0 .551-.217.623-.524h.469c-.099.587-.532.921-1.092.921zm3.603-.334a1.11 1.11 0 0 1-.813.325c-.325 0-.596-.117-.803-.325-.299-.298-.299-.641-.299-1.228s0-.93.299-1.228a1.1 1.1 0 0 1 .803-.326c.325 0 .596.118.813.326.298.298.289.641.289 1.228.009.587.018.93-.289 1.228zm-.352-2.177a.633.633 0 0 0-.461-.189.634.634 0 0 0-.46.189c-.154.163-.181.335-.181.949 0 .614.027.785.181.948.108.117.28.19.46.19a.634.634 0 0 0 .461-.19c.153-.163.181-.334.181-.948 0-.614-.028-.786-.181-.949zm3.134 2.484v-1.337h-1.247v1.337h-.469v-3.071h.469v1.31h1.247v-1.31h.469v3.071h-.469zm1.354 0v-3.071h1.96v.416h-1.499v.894h1.273v.415h-1.273v.922h1.499v.415h-1.96v.009zm1.048-3.369h-.334l.325-.695h.488l-.479.695zm2.457 3.396c-.461 0-.795-.108-1.084-.406l.307-.307c.226.225.469.289.786.289.397 0 .632-.172.632-.47 0-.135-.036-.244-.118-.316-.081-.072-.153-.099-.334-.126l-.361-.055c-.253-.036-.452-.117-.578-.243-.154-.145-.226-.335-.226-.588 0-.532.389-.903 1.03-.903.406 0 .686.1.948.353l-.298.289c-.19-.181-.406-.235-.668-.235-.362 0-.56.207-.56.478 0 .109.036.208.117.28a.7.7 0 0 0 .343.145l.353.054c.28.045.442.108.569.226.171.144.252.37.252.632-.009.56-.469.903-1.11.903zm1.806-.027v-3.071h.469v3.071h-.469zm3.161-.307a1.11 1.11 0 0 1-.813.325c-.325 0-.596-.117-.804-.325-.298-.298-.298-.641-.298-1.228s0-.93.298-1.228c.208-.208.479-.326.804-.326.325 0 .596.118.813.326.298.298.289.641.289 1.228s.009.93-.289 1.228zm-.352-2.177a.637.637 0 0 0-.461-.189.637.637 0 0 0-.461.189c-.153.163-.18.335-.18.949 0 .614.027.785.18.948.109.117.28.19.461.19a.638.638 0 0 0 .461-.19c.153-.163.18-.334.18-.948 0-.614-.036-.786-.18-.949zm3.305 2.484l-1.418-2.158v2.158h-.47v-3.071h.425l1.418 2.159v-2.159h.469v3.071h-.424zm4.299-.289c-.19.19-.47.289-.795.289h-1.075v-3.071h1.075c.316 0 .596.1.795.289.334.335.307.777.307 1.22.009.451.027.939-.307 1.273zm-.316-2.158c-.127-.145-.298-.208-.524-.208h-.569v2.231h.569a.679.679 0 0 0 .524-.208c.162-.181.162-.506.162-.93 0-.425 0-.705-.162-.885zm1.409 2.447v-3.071h1.959v.416h-1.499v.894h1.274v.415h-1.274v.922h1.499v.415h-1.959v.009zm3.495.027c-.461 0-.795-.108-1.084-.406l.307-.307c.226.225.47.289.786.289.397 0 .632-.172.632-.47 0-.135-.036-.244-.117-.316-.082-.072-.154-.099-.335-.126l-.361-.055c-.253-.036-.451-.117-.578-.243-.153-.145-.226-.335-.226-.588 0-.532.389-.903 1.03-.903.406 0 .686.1.948.353l-.298.289c-.19-.181-.406-.235-.668-.235-.361 0-.56.207-.56.478 0 .109.036.208.117.28a.71.71 0 0 0 .343.145l.353.054c.28.045.442.108.569.226.171.144.253.37.253.632-.009.56-.47.903-1.111.903zm3.973-2.682v2.646h-.46v-2.646h-.849v-.416h2.158v.416h-.849zm1.464 2.655v-3.071h1.959v.416h-1.499v.894h1.274v.415h-1.274v.922h1.499v.415h-1.959v.009zm4.38 0l-.651-1.291h-.578v1.291h-.469v-3.071h1.192c.578 0 .948.38.948.895a.803.803 0 0 1-.614.812l.705 1.355h-.533v.009zm-.542-2.655h-.687v.957h.687c.307 0 .524-.18.524-.478s-.208-.479-.524-.479zm3.45 2.655l-.65-1.291h-.578v1.291h-.47v-3.071h1.192c.578 0 .948.38.948.895a.803.803 0 0 1-.614.812l.705 1.355h-.533v.009zm-.542-2.655h-.686v.957h.686c.307 0 .524-.18.524-.478s-.208-.479-.524-.479zm1.761 2.655v-3.071h.47v3.071h-.47zm2.384-2.655v2.646h-.469v-2.646h-.849v-.416h2.158v.416h-.84zm3.179 2.348a1.11 1.11 0 0 1-.813.325c-.325 0-.596-.117-.803-.325-.298-.298-.298-.641-.298-1.228s0-.93.298-1.228a1.1 1.1 0 0 1 .803-.326c.326 0 .596.118.813.326.298.298.289.641.289 1.228.009.587.018.93-.289 1.228zm-.352-2.177a.633.633 0 0 0-.461-.189.634.634 0 0 0-.46.189c-.154.163-.181.335-.181.949 0 .614.027.785.181.948.108.117.28.19.46.19a.634.634 0 0 0 .461-.19c.154-.163.181-.334.181-.948 0-.614-.027-.786-.181-.949zm1.427 2.484v-3.071h.47v3.071h-.47zm3.043 0l-.65-1.291h-.578v1.291h-.469v-3.071h1.192c.578 0 .948.38.948.895a.803.803 0 0 1-.614.812l.704 1.355h-.533v.009zm-.541-2.655h-.687v.957h.687c.307 0 .523-.18.523-.478s-.207-.479-.523-.479zm1.761 2.655v-3.071h1.959v.416h-1.499v.894h1.274v.415h-1.274v.922h1.499v.415h-1.959v.009zm3.495.027c-.461 0-.795-.108-1.084-.406l.307-.307c.226.225.47.289.786.289.397 0 .632-.172.632-.47 0-.135-.036-.244-.117-.316-.082-.072-.154-.099-.335-.126l-.361-.055c-.253-.036-.451-.117-.578-.243-.153-.145-.226-.335-.226-.588 0-.532.389-.903 1.03-.903.406 0 .686.1.948.353l-.298.289c-.189-.181-.406-.235-.668-.235-.361 0-.56.207-.56.478 0 .109.036.208.117.28a.7.7 0 0 0 .344.145l.352.054c.28.045.442.108.569.226.171.144.253.37.253.632-.009.56-.47.903-1.111.903z" fill="#556f7b"/>
</svg>
