<?xml version="1.0" encoding="utf-8"?>
<!-- Generator: Adobe Illustrator 23.0.1, SVG Export Plug-In . SVG Version: 6.00 Build 0)  -->
<svg version="1.1" id="Calque_1" xmlns="http://www.w3.org/2000/svg" xmlns:xlink="http://www.w3.org/1999/xlink" x="0px" y="0px"
	 viewBox="0 0 141.73 141.73" style="enable-background:new 0 0 141.73 141.73;" xml:space="preserve">
<style type="text/css">
	.st0{fill:#FFFFFF;}
	.st1{fill:#556F7B;}
	.st2{opacity:0.55;}
	.st3{clip-path:url(#SVGID_2_);fill-rule:evenodd;clip-rule:evenodd;fill:#159BD8;}
	.st4{clip-path:url(#SVGID_4_);fill-rule:evenodd;clip-rule:evenodd;fill:#16428F;}
	.st5{clip-path:url(#SVGID_6_);fill-rule:evenodd;clip-rule:evenodd;fill:#048D42;}
	.st6{clip-path:url(#SVGID_8_);fill-rule:evenodd;clip-rule:evenodd;fill:#83BC45;}
	.st7{clip-path:url(#SVGID_10_);fill-rule:evenodd;clip-rule:evenodd;fill:#0A67B1;}
	.st8{clip-path:url(#SVGID_12_);fill-rule:evenodd;clip-rule:evenodd;fill:#D5DA2C;}
	.st9{clip-path:url(#SVGID_14_);fill-rule:evenodd;clip-rule:evenodd;fill:#03A14F;}
	.st10{clip-path:url(#SVGID_16_);fill-rule:evenodd;clip-rule:evenodd;fill:#3DAC48;}
	.st11{clip-path:url(#SVGID_18_);fill-rule:evenodd;clip-rule:evenodd;fill:#1173BA;}
	.st12{clip-path:url(#SVGID_20_);fill-rule:evenodd;clip-rule:evenodd;fill:#088CCD;}
	.st13{opacity:0.35;}
</style>
<g>
	<path class="st0" d="M141.38,70.87c0,38.94-31.57,70.52-70.52,70.52S0.35,109.81,0.35,70.87S31.92,0.35,70.87,0.35
		S141.38,31.92,141.38,70.87"/>
	<path class="st1" d="M70.87,141.73C31.79,141.73,0,109.94,0,70.87C0,31.79,31.79,0,70.87,0s70.87,31.79,70.87,70.87
		C141.73,109.94,109.94,141.73,70.87,141.73 M70.87,0.7C32.18,0.7,0.7,32.18,0.7,70.87c0,38.69,31.48,70.17,70.17,70.17
		s70.17-31.48,70.17-70.17C141.03,32.18,109.56,0.7,70.87,0.7"/>
	<g class="st2">
		<g>
			<defs>
				<rect id="SVGID_1_" x="20.04" y="19.92" width="101.66" height="101.65"/>
			</defs>
			<clipPath id="SVGID_2_">
				<use xlink:href="#SVGID_1_"  style="overflow:visible;"/>
			</clipPath>
			<path class="st3" d="M20.12,67.84C21.73,39.82,45.74,18.4,73.77,20c28.02,1.6,49.44,25.62,47.84,53.65s-25.62,49.44-53.65,47.84
				C39.94,119.88,18.52,95.87,20.12,67.84"/>
		</g>
	</g>
	<g class="st2">
		<g>
			<defs>
				<rect id="SVGID_3_" x="20.04" y="29.22" width="51.03" height="87.68"/>
			</defs>
			<clipPath id="SVGID_4_">
				<use xlink:href="#SVGID_3_"  style="overflow:visible;"/>
			</clipPath>
			<path class="st4" d="M41.56,29.22c18.39,8.5,30.66,27.61,29.43,49.06c-0.92,16.09-9.23,29.99-21.43,38.62
				C31.16,108.4,18.9,89.3,20.12,67.84C21.04,51.76,29.35,37.85,41.56,29.22"/>
		</g>
	</g>
	<g class="st2">
		<g>
			<defs>
				<rect id="SVGID_5_" x="78.95" y="28.35" width="42.75" height="82.78"/>
			</defs>
			<clipPath id="SVGID_6_">
				<use xlink:href="#SVGID_5_"  style="overflow:visible;"/>
			</clipPath>
			<path class="st5" d="M79.03,65.84c0.88-15.39,8.53-28.79,19.88-37.48c14.57,9.66,23.76,26.58,22.69,45.29
				c-0.88,15.4-8.53,28.79-19.89,37.48C87.16,101.47,77.96,84.55,79.03,65.84"/>
		</g>
	</g>
	<g class="st2">
		<g>
			<defs>
				<rect id="SVGID_7_" x="26.65" y="19.92" width="59.03" height="27.95"/>
			</defs>
			<clipPath id="SVGID_8_">
				<use xlink:href="#SVGID_7_"  style="overflow:visible;"/>
			</clipPath>
			<path class="st6" d="M85.68,22.12c-9.25,16.28-27.17,26.81-47.12,25.67c-4.13-0.24-8.12-0.96-11.91-2.12
				C35.89,29.39,53.81,18.86,73.77,20C77.9,20.24,81.89,20.97,85.68,22.12"/>
		</g>
	</g>
	<g class="st2">
		<g>
			<defs>
				<rect id="SVGID_9_" x="29.55" y="70.74" width="87.51" height="50.83"/>
			</defs>
			<clipPath id="SVGID_10_">
				<use xlink:href="#SVGID_9_"  style="overflow:visible;"/>
			</clipPath>
			<path class="st7" d="M29.55,100.34C38.03,81.9,57.16,69.6,78.64,70.83c15.96,0.91,29.77,9.1,38.42,21.15
				c-8.48,18.43-27.61,30.74-49.1,29.51C52,120.58,38.19,112.39,29.55,100.34"/>
		</g>
	</g>
	<g class="st2">
		<g>
			<defs>
				<rect id="SVGID_11_" x="64.89" y="19.92" width="56.52" height="45.77"/>
			</defs>
			<clipPath id="SVGID_12_">
				<use xlink:href="#SVGID_11_"  style="overflow:visible;"/>
			</clipPath>
			<path class="st8" d="M121.41,65.34c-2.9,0.34-5.87,0.44-8.88,0.26c-25.21-1.44-45.07-21.02-47.64-45.34
				c2.9-0.34,5.86-0.43,8.88-0.26C98.98,21.45,118.84,41.02,121.41,65.34"/>
		</g>
	</g>
	<g class="st2">
		<g>
			<defs>
				<rect id="SVGID_13_" x="26.65" y="19.92" width="82.43" height="43.04"/>
			</defs>
			<clipPath id="SVGID_14_">
				<use xlink:href="#SVGID_13_"  style="overflow:visible;"/>
			</clipPath>
			<path class="st9" d="M109.08,37.24c-8.69,15.89-26.78,26.54-47.12,25.67c-14.18-0.61-26.64-7.35-35.31-17.24
				C35.89,29.39,53.81,18.86,73.77,20C87.93,20.81,100.41,27.35,109.08,37.24z"/>
		</g>
	</g>
	<g class="st2">
		<g>
			<defs>
				<rect id="SVGID_15_" x="20.04" y="29.22" width="23.39" height="55.25"/>
			</defs>
			<clipPath id="SVGID_16_">
				<use xlink:href="#SVGID_15_"  style="overflow:visible;"/>
			</clipPath>
			<path class="st10" d="M41.55,29.23c1.48,5.27,2.12,10.87,1.79,16.63c-0.92,16.08-9.23,29.99-21.43,38.62
				c-1.48-5.27-2.12-10.87-1.79-16.63C21.04,51.76,29.35,37.85,41.55,29.23"/>
		</g>
	</g>
	<g class="st2">
		<g>
			<defs>
				<rect id="SVGID_17_" x="69.15" y="70.39" width="52.54" height="51.18"/>
			</defs>
			<clipPath id="SVGID_18_">
				<use xlink:href="#SVGID_17_"  style="overflow:visible;"/>
			</clipPath>
			<path class="st11" d="M69.23,118.32c1.58-27.63,24.94-48.83,52.46-47.89c0,1.07-0.02,2.14-0.08,3.23
				c-1.58,27.63-24.94,48.83-52.46,47.89C69.15,120.47,69.17,119.4,69.23,118.32"/>
		</g>
	</g>
	<g class="st2">
		<g>
			<defs>
				<rect id="SVGID_19_" x="20.05" y="70.67" width="61.24" height="50.9"/>
			</defs>
			<clipPath id="SVGID_20_">
				<use xlink:href="#SVGID_19_"  style="overflow:visible;"/>
			</clipPath>
			<path class="st12" d="M20.05,71.74c4.28-0.89,8.75-1.25,13.33-0.99c26.72,1.53,47.43,23.43,47.91,49.75
				c-4.28,0.89-8.75,1.25-13.32,0.99C41.25,119.96,20.54,98.06,20.05,71.74"/>
		</g>
	</g>
	<g class="st13">
		<g>
			<defs>
				<rect id="SVGID_21_" x="50.67" y="33.57" width="70.47" height="85.77"/>
			</defs>
			<clipPath id="SVGID_22_">
				<use xlink:href="#SVGID_21_"  style="overflow:visible;"/>
			</clipPath>
		</g>
	</g>
	<path class="st0" d="M70.83,121.81c15.86,0,30.02-7.26,39.34-18.64c-0.85-1.08-1.47-1.87-1.47-1.87s3.34-0.51-0.52-2.66
		c-3.86-2.15-3.86-2.25-4.73-2.86c-0.87-0.61-3.11-0.96-3.3-1.26c-0.19-0.3,1.99-1.22-0.34-1.97c-2.33-0.74-4.76-1.68-4.76-1.68
		s1.22-1.93-0.23-2.65c-1.45-0.72-2.92-0.86-3.22-0.67c-0.3,0.19-0.86-0.81-1.34-1.31c-0.48-0.5-1.75-0.73-2.33-0.64
		c-0.53,0.07-4.11-0.08-4.92-0.41c0.02,0.18,0.03,0.29,0.03,0.29l-0.19-0.4c0.02,0.04,0.07,0.07,0.16,0.11
		c-0.11-1.13-0.52-5.25-0.5-6.09c0.02-0.98,0.42-1.26,0.42-1.26s5.57,0.53,5.18-3.5c0,0-0.55-1.48-0.33-2.55c0,0,1-0.56,0.27-1.44
		c0,0,0.65-0.5,0.3-1.88c0,0-0.18-0.59,0.03-1.17c0,0,2.14-0.18,1.41-1.63c-0.48-0.95-0.57-0.7-0.75-1.29
		c-0.18-0.59-1.02-2.28-1.2-3.06c-0.18-0.79,1.03-2.23,1.05-2.91c0.02-0.68-0.83-2.27-1.01-2.96c-0.18-0.69-1.02-2.47-1.18-3.65
		c-0.17-1.18-0.7-3.35-1.08-3.75c-0.38-0.4-0.94-1.39-1.12-2.08c-0.18-0.69-1.22-1.99-1.51-2.29c-0.29-0.3-2.49-2.12-4.73-2.76
		c-2.24-0.64-2.82-0.95-4.18-1.08c-1.37-0.13-2.15,0.04-2.05-0.34c0.11-0.39,1.38-0.26,2.74-0.03c0.39,0.06,1.73,0.66,3.34-0.21
		c1.39-0.75,2.63-3.36-1.3-6.79c-3.93-3.43-8.88-1.1-9.97-0.54c-1.09,0.56,0-0.1-2.67,1.21c-2.67,1.31-6.58,4.93-7.45,8.53
		c-0.87,3.6-0.09,3.62-0.01,4.6c0.07,0.98-0.15,2.15-1.06,3.5c-0.92,1.35-2.41,2.29-1.27,4.08c1.13,1.79,0.33,2.46-0.18,3.33
		c-0.51,0.87-1.14,2.62,0.1,3.72c1.25,1.11,1.04,1.49,1.22,2.28c0.18,0.79,0.72,2.47,1,3.16c0.28,0.69,0.07,0.98-0.05,2.15
		c-0.13,1.17-0.91,1.35-1.03,2.23c-0.12,0.88-0.01,0.59,0.88,0.12c0.89-0.47-0.71,1.16-0.73,1.94c-0.02,0.78,0.78,0.12,0.78,0.12
		s0.06,1.47-0.53,1.75c-0.59,0.28,0.97,0.32,1.11-1.34c0.14-1.66,1.04,1.69-1.06,3.21c-2.09,1.52,1.38-0.46,1.38-0.46l-0.52,1.07
		c0,0,1.87-0.35,0.38,0.69c-1.49,1.04-2.07,0.73-2.07,0.73s-2.11,2.1,0.05,2.06c2.15-0.05,0.97,0.51,1.44,1.21
		c0.47,0.7,1.92,1.71,2.69,2.02c0.78,0.31,5.02,0.56,5.02,0.56l-0.42,0.91c0,0-6.3-0.04-8.56,0.4c-2.26,0.43-3.66,1.67-3.69,2.55
		s0.06,1.37-0.82,1.55c-0.89,0.17-4.01,0-5.02,1.25c-1.01,1.25-1.31,1.63-2.2,1.71c-0.88,0.08-2.08,0.83-2.19,1.61
		c-0.12,0.78-0.24,1.95-1.25,2.91c-1,0.95-3.95,1.27-4.49,3.41c-0.45,1.77-0.3,3.83-0.89,6.02
		C43.9,116.04,56.69,121.81,70.83,121.81"/>
	<polygon class="st1" points="27.8,108.32 26.36,108.74 26.27,108.62 26.91,107.27 25.65,108.33 25.55,108.21 27.08,106.92 
		27.18,107.04 26.45,108.57 28.07,108.09 28.17,108.21 26.64,109.5 26.54,109.38 	"/>
	<rect x="27.25" y="109.7" transform="matrix(0.733 -0.6802 0.6802 0.733 -67.1308 48.5214)" class="st1" width="2" height="0.15"/>
	<polygon class="st1" points="29.74,110.3 28.5,111.51 28.39,111.41 29.82,110.01 29.92,110.11 29.5,112.15 30.73,110.94 
		30.84,111.05 29.41,112.45 29.3,112.34 	"/>
	<polygon class="st1" points="31.67,111.85 31.78,111.96 30.4,113.4 30.29,113.3 	"/>
	<path class="st1" d="M31.64,114.57c-0.22-0.2-0.31-0.38-0.32-0.64l0.15-0.01c0.01,0.25,0.09,0.39,0.26,0.56
		c0.24,0.21,0.48,0.23,0.66,0.04c0.08-0.09,0.12-0.18,0.11-0.28c-0.02-0.1-0.03-0.14-0.14-0.27l-0.15-0.18
		c-0.1-0.12-0.15-0.23-0.17-0.35c-0.02-0.13,0.03-0.26,0.13-0.38c0.22-0.25,0.54-0.25,0.83,0.01c0.18,0.17,0.26,0.32,0.28,0.55
		l-0.14,0.01c-0.01-0.16-0.06-0.31-0.24-0.46c-0.22-0.19-0.45-0.19-0.62,0c-0.08,0.08-0.11,0.17-0.1,0.26
		c0.01,0.09,0.07,0.2,0.14,0.29l0.14,0.17c0.12,0.14,0.16,0.23,0.18,0.34c0.02,0.14-0.02,0.29-0.13,0.4
		C32.28,114.87,31.95,114.85,31.64,114.57"/>
	<polygon class="st1" points="33.37,116.05 33.25,115.95 34.45,114.52 33.99,114.14 34.08,114.04 35.11,114.9 35.02,115 
		34.56,114.62 	"/>
	<path class="st1" d="M35.82,115.46l0.96,0.74l-0.08,0.11l-0.84-0.65l-0.48,0.62l0.72,0.55l-0.08,0.11l-0.72-0.55l-0.49,0.64
		l0.84,0.65l-0.08,0.11l-0.96-0.74L35.82,115.46z M36.38,115.13l0.15,0.11l-0.04,0.49l-0.13-0.1L36.38,115.13z"/>
	<path class="st1" d="M37.53,118.08l-0.45-0.32l-0.53,0.75l-0.12-0.09l1.16-1.63l0.62,0.44c0.27,0.19,0.36,0.49,0.16,0.77
		c-0.17,0.25-0.43,0.3-0.69,0.17l-0.14,1.03l-0.14-0.1L37.53,118.08z M38.1,117.33l-0.48-0.34l-0.47,0.66l0.48,0.34
		c0.21,0.15,0.43,0.15,0.59-0.07C38.39,117.69,38.31,117.48,38.1,117.33"/>
	<polygon class="st1" points="39.53,118.15 40.55,118.81 40.47,118.92 39.58,118.34 39.15,119 39.91,119.5 39.84,119.61 
		39.08,119.12 38.64,119.79 39.53,120.37 39.46,120.48 38.44,119.82 	"/>
	<path class="st1" d="M42.59,122.13c-0.16,0.05-0.34,0.02-0.53-0.09l-0.58-0.33l0.98-1.74l0.59,0.33c0.18,0.1,0.3,0.24,0.35,0.4
		c0.08,0.28-0.09,0.55-0.22,0.78C43.05,121.72,42.87,122.05,42.59,122.13 M43.25,120.75c-0.04-0.16-0.16-0.27-0.3-0.35l-0.42-0.24
		l-0.85,1.51l0.42,0.24c0.14,0.08,0.29,0.13,0.45,0.08c0.22-0.07,0.38-0.38,0.49-0.57C43.16,121.22,43.31,120.97,43.25,120.75"/>
	<polygon class="st1" points="44.58,121.13 45.66,121.69 45.6,121.81 44.66,121.32 44.3,122.03 45.1,122.44 45.04,122.56 
		44.24,122.15 43.87,122.87 44.82,123.35 44.76,123.47 43.67,122.92 	"/>
	<polygon class="st1" points="47.7,122.65 47.84,122.71 47.09,124.42 48.07,124.85 48.01,124.97 46.9,124.48 	"/>
	<path class="st1" d="M50.03,125.26l-0.87-0.34l-0.34,0.39l-0.15-0.06l1.42-1.59l0.13,0.05l-0.05,2.13l-0.15-0.06L50.03,125.26z
		 M49.26,124.81l0.78,0.31l0.04-1.25L49.26,124.81z"/>
	<polygon class="st1" points="52.79,126.74 52.65,126.7 53.22,124.92 52.66,124.74 52.7,124.61 53.98,125.02 53.94,125.15 
		53.37,124.97 	"/>
	<path class="st1" d="M55.24,126.52l-0.53-0.15l-0.25,0.89l-0.15-0.04l0.54-1.92l0.73,0.21c0.31,0.09,0.5,0.34,0.4,0.67
		c-0.08,0.29-0.31,0.42-0.59,0.39l0.21,1.02l-0.17-0.05L55.24,126.52z M55.53,125.62l-0.57-0.16l-0.22,0.78l0.57,0.16
		c0.25,0.07,0.46,0,0.53-0.27C55.92,125.86,55.78,125.69,55.53,125.62"/>
	<path class="st1" d="M57.77,127.62l-0.91-0.22l-0.28,0.43l-0.16-0.04l1.18-1.77l0.13,0.03l0.25,2.12l-0.16-0.04L57.77,127.62z
		 M56.94,127.28l0.81,0.19l-0.13-1.24L56.94,127.28z"/>
	<polygon class="st1" points="59.41,126.69 59.07,128.4 58.93,128.37 59.31,126.4 59.46,126.43 60.26,128.36 60.59,126.65 
		60.74,126.68 60.36,128.65 60.21,128.62 	"/>
	<path class="st1" d="M62.04,128.94c-0.29-0.04-0.47-0.15-0.62-0.36l0.12-0.09c0.15,0.2,0.29,0.28,0.53,0.32
		c0.31,0.05,0.53-0.07,0.57-0.33c0.02-0.12,0-0.22-0.07-0.29c-0.07-0.07-0.11-0.1-0.27-0.15l-0.22-0.07
		c-0.15-0.04-0.26-0.11-0.33-0.2c-0.09-0.1-0.12-0.23-0.1-0.39c0.05-0.33,0.31-0.51,0.69-0.45c0.24,0.04,0.39,0.13,0.54,0.3
		l-0.11,0.08c-0.1-0.13-0.22-0.22-0.45-0.26c-0.29-0.04-0.48,0.09-0.52,0.34c-0.02,0.11,0,0.2,0.06,0.27
		c0.06,0.07,0.17,0.13,0.28,0.17l0.21,0.07c0.18,0.05,0.26,0.1,0.33,0.18c0.09,0.1,0.14,0.25,0.11,0.41
		C62.74,128.83,62.46,129,62.04,128.94"/>
	
		<rect x="62.97" y="128.09" transform="matrix(0.1184 -0.993 0.993 0.1184 -70.875 176.5155)" class="st1" width="2" height="0.15"/>
	<polygon class="st1" points="65.66,129.35 65.51,129.34 65.67,127.48 65.07,127.43 65.09,127.29 66.43,127.41 66.42,127.54 
		65.82,127.49 	"/>
	<polygon class="st1" points="67.35,127.47 67.5,127.48 67.38,129.48 67.23,129.47 	"/>
	<path class="st1" d="M69.7,129.38c-0.14,0.13-0.31,0.2-0.5,0.19s-0.37-0.08-0.49-0.22c-0.18-0.19-0.18-0.37-0.16-0.82
		c0.01-0.45,0.02-0.63,0.21-0.8c0.14-0.13,0.31-0.2,0.51-0.19c0.19,0,0.37,0.08,0.49,0.22c0.18,0.19,0.18,0.36,0.16,0.82
		C69.9,129.02,69.89,129.2,69.7,129.38 M69.62,127.84c-0.1-0.1-0.23-0.16-0.38-0.16c-0.14,0-0.28,0.05-0.38,0.14
		c-0.15,0.14-0.16,0.3-0.17,0.72c-0.01,0.43,0,0.58,0.14,0.73c0.1,0.1,0.23,0.16,0.38,0.16s0.28-0.05,0.38-0.14
		c0.15-0.14,0.16-0.3,0.17-0.72C69.77,128.14,69.76,127.99,69.62,127.84"/>
	<polygon class="st1" points="71.15,127.84 71.18,129.58 71.03,129.58 70.99,127.59 71.14,127.58 72.33,129.29 72.3,127.56 
		72.45,127.56 72.48,129.56 72.33,129.56 	"/>
	<path class="st1" d="M74.85,127.45l1.21-0.1l0.01,0.14l-1.06,0.08l0.06,0.79l0.9-0.07l0.01,0.13l-0.9,0.07l0.06,0.8l1.06-0.08
		l0.01,0.13l-1.21,0.1L74.85,127.45z M75.27,127.22l0.24-0.43l0.19-0.01l-0.26,0.43L75.27,127.22z"/>
	<path class="st1" d="M77.87,129.18c-0.19,0.02-0.37-0.03-0.52-0.15c-0.2-0.16-0.23-0.34-0.28-0.78c-0.05-0.45-0.07-0.63,0.09-0.83
		c0.12-0.15,0.28-0.24,0.47-0.26c0.36-0.04,0.64,0.15,0.74,0.5l-0.15,0.02c-0.09-0.27-0.31-0.42-0.58-0.38
		c-0.14,0.02-0.27,0.08-0.36,0.2c-0.13,0.16-0.12,0.32-0.07,0.74c0.05,0.43,0.08,0.58,0.24,0.7c0.11,0.09,0.25,0.13,0.39,0.11
		c0.27-0.03,0.45-0.22,0.47-0.51l0.15-0.02C78.45,128.89,78.22,129.14,77.87,129.18"/>
	<path class="st1" d="M80.72,128.57c-0.11,0.15-0.27,0.25-0.46,0.28c-0.19,0.03-0.37-0.01-0.53-0.12c-0.21-0.15-0.24-0.33-0.31-0.77
		c-0.07-0.45-0.1-0.62,0.06-0.83c0.11-0.15,0.27-0.25,0.46-0.28c0.19-0.03,0.38,0.01,0.53,0.12c0.21,0.15,0.24,0.33,0.31,0.77
		C80.85,128.18,80.87,128.36,80.72,128.57 M80.36,127.07c-0.12-0.08-0.26-0.11-0.4-0.09c-0.14,0.02-0.27,0.1-0.35,0.21
		c-0.12,0.16-0.1,0.32-0.04,0.74c0.07,0.42,0.1,0.58,0.27,0.69c0.12,0.08,0.26,0.12,0.4,0.09c0.14-0.02,0.26-0.1,0.35-0.21
		c0.12-0.16,0.11-0.32,0.04-0.74C80.56,127.34,80.52,127.19,80.36,127.07"/>
	<polygon class="st1" points="81.67,126.55 81.82,126.53 82.19,128.35 83.23,128.14 83.25,128.27 82.07,128.51 	"/>
	<path class="st1" d="M85.19,127.63c-0.1,0.16-0.25,0.27-0.44,0.32c-0.19,0.05-0.38,0.02-0.53-0.08c-0.22-0.13-0.27-0.31-0.37-0.74
		c-0.11-0.44-0.14-0.61-0.01-0.83c0.1-0.16,0.25-0.27,0.44-0.32c0.19-0.04,0.38-0.02,0.54,0.08c0.22,0.13,0.26,0.31,0.37,0.74
		C85.28,127.23,85.32,127.41,85.19,127.63 M84.71,126.16c-0.12-0.08-0.27-0.1-0.41-0.06c-0.14,0.04-0.26,0.12-0.33,0.24
		c-0.11,0.17-0.08,0.33,0.02,0.74s0.15,0.57,0.32,0.67c0.12,0.07,0.27,0.09,0.4,0.06c0.14-0.03,0.26-0.12,0.33-0.24
		c0.11-0.17,0.08-0.33-0.02-0.74C84.93,126.42,84.88,126.26,84.71,126.16"/>
	<path class="st1" d="M87.54,126.96c-0.09,0.18-0.25,0.31-0.44,0.37c-0.18,0.05-0.38,0.03-0.54-0.06c-0.23-0.13-0.28-0.3-0.4-0.73
		c-0.13-0.43-0.17-0.6-0.05-0.83c0.09-0.16,0.24-0.28,0.42-0.33c0.33-0.1,0.66,0.05,0.82,0.37l-0.15,0.04
		c-0.13-0.25-0.38-0.36-0.64-0.28c-0.14,0.04-0.25,0.13-0.32,0.25c-0.1,0.18-0.07,0.33,0.05,0.74c0.12,0.41,0.17,0.56,0.35,0.66
		c0.13,0.07,0.27,0.08,0.41,0.04c0.15-0.04,0.28-0.15,0.35-0.3c0.05-0.13,0.05-0.25,0.01-0.42l-0.05-0.17l-0.52,0.15l-0.04-0.13
		l0.66-0.19l0.09,0.31C87.62,126.65,87.62,126.8,87.54,126.96"/>
	<polygon class="st1" points="88.22,124.87 88.37,124.83 88.98,126.73 88.83,126.78 	"/>
	<path class="st1" d="M91.07,125.87c-0.08,0.14-0.21,0.24-0.36,0.29c-0.18,0.06-0.37,0.06-0.54-0.02c-0.23-0.11-0.3-0.28-0.45-0.7
		c-0.15-0.43-0.21-0.59-0.1-0.83c0.08-0.17,0.22-0.3,0.4-0.36c0.18-0.06,0.37-0.05,0.54,0.03c0.23,0.11,0.3,0.28,0.45,0.7
		c0.14,0.39,0.2,0.57,0.12,0.77l0.3,0.14l-0.06,0.13L91.07,125.87z M90.47,124.39c-0.13-0.06-0.27-0.07-0.41-0.02
		c-0.13,0.05-0.24,0.14-0.3,0.27c-0.09,0.18-0.04,0.34,0.1,0.74c0.14,0.4,0.21,0.55,0.39,0.63c0.13,0.06,0.27,0.07,0.41,0.02
		c0.12-0.04,0.21-0.12,0.28-0.23l-0.36-0.17l0.06-0.13l0.35,0.17c0.04-0.15-0.01-0.32-0.13-0.65
		C90.72,124.62,90.65,124.48,90.47,124.39"/>
	<path class="st1" d="M93.02,125.27c-0.37,0.15-0.74,0-0.89-0.36l-0.51-1.25l0.14-0.06l0.5,1.23c0.13,0.31,0.4,0.43,0.7,0.31
		c0.3-0.12,0.41-0.4,0.29-0.71l-0.5-1.23l0.14-0.06l0.51,1.25C93.55,124.76,93.39,125.12,93.02,125.27"/>
	<polygon class="st1" points="93.91,122.7 95.02,122.2 95.07,122.32 94.11,122.76 94.44,123.48 95.26,123.1 95.32,123.22 
		94.49,123.6 94.83,124.33 95.79,123.89 95.85,124.01 94.75,124.52 	"/>
	<polygon class="st1" points="97.03,121.2 98.1,120.63 98.16,120.75 97.23,121.25 97.6,121.94 98.4,121.52 98.46,121.64 
		97.66,122.06 98.04,122.77 98.98,122.27 99.04,122.39 97.97,122.96 	"/>
	<polygon class="st1" points="100.42,121.61 100.29,121.68 99.35,120.07 98.84,120.37 98.77,120.25 99.93,119.57 100,119.69 
		99.48,119.99 	"/>
	<path class="st1" d="M103.32,119.82c-0.25,0.16-0.45,0.2-0.7,0.15l0.03-0.15c0.25,0.05,0.4,0.01,0.61-0.12
		c0.26-0.18,0.34-0.41,0.2-0.63c-0.07-0.1-0.15-0.16-0.25-0.17c-0.1-0.01-0.15,0-0.3,0.07l-0.22,0.1c-0.14,0.07-0.26,0.09-0.38,0.08
		c-0.14-0.01-0.25-0.09-0.34-0.22c-0.19-0.28-0.11-0.59,0.21-0.8c0.21-0.14,0.38-0.17,0.6-0.14l-0.03,0.14
		c-0.16-0.03-0.31-0.02-0.51,0.11c-0.24,0.16-0.3,0.39-0.16,0.6c0.06,0.1,0.14,0.15,0.23,0.16c0.09,0.01,0.21-0.02,0.32-0.06
		l0.2-0.09c0.17-0.08,0.26-0.1,0.37-0.09c0.14,0.01,0.27,0.09,0.36,0.23C103.77,119.27,103.67,119.59,103.32,119.82"/>
	<path class="st1" d="M105.54,118.02c-0.03,0.18-0.13,0.35-0.28,0.46s-0.34,0.16-0.53,0.13c-0.25-0.04-0.36-0.19-0.63-0.55
		c-0.27-0.37-0.37-0.51-0.32-0.77c0.03-0.18,0.13-0.35,0.28-0.46c0.15-0.11,0.34-0.16,0.53-0.13c0.26,0.04,0.36,0.18,0.63,0.55
		C105.48,117.62,105.59,117.76,105.54,118.02 M104.55,116.84c-0.14-0.02-0.28,0.01-0.4,0.1c-0.12,0.08-0.19,0.21-0.22,0.35
		c-0.03,0.2,0.05,0.33,0.3,0.68c0.25,0.35,0.35,0.47,0.55,0.5c0.14,0.02,0.28-0.01,0.4-0.1c0.12-0.08,0.19-0.21,0.22-0.35
		c0.03-0.2-0.05-0.34-0.3-0.68C104.85,116.99,104.75,116.87,104.55,116.84"/>
	<polygon class="st1" points="105.47,115.8 105.59,115.71 106.74,117.17 107.58,116.52 107.66,116.62 106.71,117.37 	"/>
	<polygon class="st1" points="107.14,114.46 107.26,114.36 108.54,115.9 108.43,115.99 	"/>
	<path class="st1" d="M110.22,114.2c-0.01,0.17-0.1,0.33-0.25,0.47l-0.5,0.45l-1.33-1.49l0.5-0.45c0.16-0.14,0.32-0.21,0.49-0.2
		c0.29,0.02,0.49,0.26,0.67,0.46C109.98,113.64,110.23,113.91,110.22,114.2 M109.12,113.13c-0.17-0.01-0.3,0.06-0.42,0.17
		l-0.36,0.32l1.15,1.29l0.36-0.32c0.12-0.11,0.21-0.24,0.22-0.4c0.01-0.23-0.23-0.48-0.38-0.65
		C109.53,113.37,109.35,113.15,109.12,113.13"/>
	<path class="st1" d="M111.67,112.4l-0.67,0.65l0.21,0.47l-0.12,0.11l-0.86-1.95l0.1-0.09l1.92,0.93l-0.12,0.11L111.67,112.4z
		 M110.94,112.92l0.6-0.58l-1.12-0.56L110.94,112.92z"/>
	<polygon class="st1" points="111.48,110.45 111.59,110.34 113.02,111.73 112.92,111.84 	"/>
	<path class="st1" d="M113.65,109.71l-0.37,0.41l0.68,0.62l-0.1,0.11l-1.48-1.35l0.51-0.56c0.22-0.24,0.52-0.3,0.78-0.06
		c0.22,0.2,0.24,0.46,0.09,0.7l1.01,0.26l-0.12,0.13L113.65,109.71z M112.98,109.05l-0.4,0.44l0.6,0.54l0.4-0.43
		c0.17-0.19,0.2-0.41,0-0.6C113.37,108.81,113.15,108.86,112.98,109.05"/>
	<polygon class="st1" points="113.96,107.74 114.74,106.81 114.84,106.9 114.16,107.71 114.76,108.22 115.34,107.52 115.45,107.61 
		114.87,108.3 115.49,108.82 116.17,108.01 116.27,108.09 115.49,109.02 	"/>
	<polygon class="st1" points="9.98,73.38 8.6,72.82 8.59,72.67 9.94,72.01 8.29,72.06 8.29,71.9 10.29,71.84 10.29,72 8.77,72.74 
		10.33,73.37 10.34,73.52 8.34,73.58 8.34,73.43 	"/>
	<polygon class="st1" points="10.41,74.67 10.42,74.82 8.42,74.95 8.41,74.8 	"/>
	<polygon class="st1" points="10.25,76.14 8.52,76.31 8.5,76.16 10.49,75.97 10.51,76.12 8.89,77.43 10.62,77.27 10.63,77.42 
		8.64,77.61 8.63,77.46 	"/>
	<polygon class="st1" points="10.77,78.55 10.79,78.7 8.81,78.96 8.79,78.81 	"/>
	<path class="st1" d="M9.03,80.65c-0.05-0.29,0.01-0.49,0.16-0.7l0.12,0.09c-0.15,0.2-0.18,0.36-0.15,0.6
		c0.05,0.31,0.23,0.48,0.49,0.44c0.12-0.02,0.21-0.07,0.26-0.15c0.05-0.08,0.06-0.13,0.06-0.3v-0.24c0-0.15,0.03-0.28,0.09-0.38
		c0.07-0.12,0.18-0.19,0.34-0.21c0.33-0.05,0.58,0.15,0.64,0.53c0.04,0.24,0,0.41-0.12,0.6l-0.11-0.08
		c0.09-0.13,0.15-0.28,0.11-0.51c-0.05-0.29-0.23-0.43-0.48-0.39c-0.11,0.02-0.19,0.06-0.24,0.14c-0.05,0.08-0.07,0.2-0.08,0.31
		l0,0.22c0,0.19-0.02,0.28-0.08,0.37c-0.07,0.12-0.2,0.21-0.36,0.23C9.34,81.28,9.09,81.07,9.03,80.65"/>
	<polygon class="st1" points="9.44,82.88 9.41,82.73 11.24,82.38 11.13,81.8 11.26,81.77 11.52,83.09 11.38,83.12 11.27,82.53 	"/>
	<path class="st1" d="M11.71,83.99l0.27,1.18l-0.13,0.03l-0.24-1.04l-0.77,0.18l0.2,0.88l-0.13,0.03l-0.2-0.88l-0.79,0.18l0.24,1.04
		l-0.13,0.03l-0.27-1.18L11.71,83.99z M12.36,84.1l0.04,0.19l-0.34,0.36l-0.04-0.16L12.36,84.1z"/>
	<path class="st1" d="M11.37,87.1l-0.14-0.53l-0.89,0.24l-0.04-0.15l1.93-0.53l0.2,0.74c0.09,0.32-0.03,0.6-0.37,0.7
		c-0.29,0.08-0.52-0.04-0.64-0.3l-0.77,0.71L10.6,87.8L11.37,87.1z M12.29,86.89l-0.16-0.57l-0.78,0.21l0.16,0.57
		c0.07,0.25,0.24,0.39,0.51,0.32C12.28,87.35,12.36,87.14,12.29,86.89"/>
	<polygon class="st1" points="12.87,88.41 13.23,89.57 13.1,89.61 12.79,88.6 12.03,88.84 12.3,89.7 12.17,89.74 11.9,88.88 
		11.13,89.12 11.45,90.13 11.32,90.17 10.96,89.01 	"/>
	<path class="st1" d="M12.67,93.44c-0.16-0.07-0.27-0.21-0.35-0.4l-0.24-0.63l1.87-0.71l0.24,0.63c0.07,0.2,0.08,0.38,0.01,0.53
		c-0.12,0.26-0.42,0.36-0.67,0.46C13.28,93.42,12.94,93.56,12.67,93.44 M14.07,92.8c0.07-0.15,0.05-0.31-0.01-0.46l-0.17-0.45
		l-1.62,0.61l0.17,0.45c0.06,0.15,0.14,0.28,0.29,0.35c0.21,0.09,0.53-0.04,0.74-0.12C13.69,93.1,13.97,93.01,14.07,92.8"/>
	<polygon class="st1" points="14.84,93.96 15.32,95.07 15.19,95.13 14.78,94.15 14.05,94.46 14.4,95.29 14.28,95.34 13.93,94.51 
		13.18,94.82 13.6,95.8 13.47,95.85 13,94.74 	"/>
	<polygon class="st1" points="16.25,97.12 16.32,97.26 14.65,98.08 15.11,99.03 14.99,99.09 14.46,98 	"/>
	<path class="st1" d="M16.36,100.63l-0.44-0.82l-0.51,0.08l-0.08-0.14l2.11-0.3l0.06,0.12l-1.41,1.6l-0.08-0.14L16.36,100.63z
		 M16.06,99.78l0.4,0.74l0.84-0.93L16.06,99.78z"/>
	<path class="st1" d="M17.52,103.64c-0.1-0.16-0.13-0.35-0.09-0.53c0.06-0.25,0.21-0.35,0.59-0.58c0.39-0.24,0.54-0.33,0.79-0.27
		c0.18,0.04,0.34,0.16,0.44,0.32c0.19,0.31,0.13,0.64-0.14,0.89l-0.08-0.13c0.21-0.2,0.25-0.45,0.11-0.68
		c-0.08-0.12-0.19-0.21-0.33-0.24c-0.2-0.05-0.34,0.03-0.7,0.25c-0.36,0.22-0.49,0.32-0.54,0.51c-0.03,0.14-0.01,0.28,0.07,0.4
		c0.14,0.23,0.39,0.31,0.66,0.22l0.08,0.13C18.04,104.04,17.71,103.94,17.52,103.64"/>
	<path class="st1" d="M19.27,105.96c-0.18-0.04-0.34-0.14-0.45-0.3c-0.11-0.16-0.14-0.35-0.11-0.53c0.05-0.25,0.2-0.36,0.57-0.61
		c0.38-0.25,0.52-0.35,0.78-0.3c0.18,0.04,0.34,0.14,0.45,0.3c0.11,0.16,0.14,0.35,0.11,0.53c-0.05,0.25-0.2,0.35-0.57,0.6
		C19.67,105.91,19.52,106.01,19.27,105.96 M20.48,105.01c0.03-0.14,0-0.28-0.08-0.4c-0.08-0.12-0.2-0.2-0.34-0.23
		c-0.2-0.04-0.34,0.04-0.69,0.28c-0.36,0.24-0.48,0.33-0.52,0.53c-0.03,0.14,0,0.28,0.08,0.4c0.08,0.12,0.2,0.2,0.34,0.23
		c0.2,0.04,0.34-0.04,0.69-0.28S20.44,105.2,20.48,105.01"/>
	<polygon class="st1" points="21.34,107.57 20.72,106.73 19.96,107.28 19.88,107.16 21.49,105.98 21.58,106.1 20.83,106.65 
		21.45,107.49 22.19,106.95 22.28,107.07 20.67,108.25 20.58,108.12 	"/>
	<path class="st1" d="M22.97,107.98l0.75,0.95l-0.11,0.08l-0.66-0.83l-0.62,0.49l0.56,0.71l-0.1,0.08l-0.56-0.71l-0.63,0.5
		l0.66,0.83l-0.11,0.08l-0.75-0.95L22.97,107.98z M23.4,108.2l0.49-0.04l0.12,0.15l-0.51,0.02L23.4,108.2z"/>
	<path class="st1" d="M23.14,111.37c-0.19-0.22-0.25-0.42-0.23-0.68l0.15,0.01c-0.02,0.25,0.03,0.4,0.19,0.58
		c0.21,0.24,0.45,0.29,0.65,0.12c0.09-0.08,0.14-0.17,0.14-0.27c0-0.1-0.02-0.15-0.11-0.29l-0.12-0.2
		c-0.08-0.13-0.12-0.25-0.12-0.37c0-0.14,0.06-0.26,0.18-0.36c0.26-0.22,0.57-0.18,0.82,0.12c0.16,0.19,0.21,0.35,0.21,0.58
		l-0.14-0.01c0.01-0.16-0.02-0.31-0.17-0.49c-0.19-0.22-0.42-0.25-0.62-0.08c-0.09,0.08-0.13,0.16-0.13,0.25
		c0,0.09,0.04,0.21,0.1,0.31l0.11,0.19c0.1,0.16,0.13,0.25,0.13,0.36c0,0.14-0.06,0.28-0.18,0.38
		C23.74,111.75,23.41,111.69,23.14,111.37"/>
	
		<rect x="24.1" y="111.99" transform="matrix(0.7393 -0.6733 0.6733 0.7393 -68.9139 46.1094)" class="st1" width="2" height="0.15"/>
	<path class="st1" d="M26.12,114.35c-0.19,0-0.36-0.08-0.49-0.22c-0.13-0.14-0.2-0.32-0.2-0.5c0.01-0.26,0.13-0.39,0.46-0.7
		c0.33-0.31,0.46-0.43,0.72-0.42c0.19,0,0.36,0.08,0.49,0.22c0.13,0.14,0.2,0.32,0.2,0.5c-0.01,0.26-0.13,0.38-0.46,0.69
		C26.51,114.23,26.38,114.36,26.12,114.35 M27.15,113.2c0-0.14-0.05-0.28-0.15-0.38c-0.1-0.1-0.23-0.16-0.37-0.17
		c-0.2,0-0.32,0.1-0.63,0.39c-0.31,0.3-0.42,0.41-0.42,0.61c0,0.14,0.05,0.28,0.15,0.38c0.1,0.1,0.23,0.16,0.37,0.17
		c0.2,0,0.32-0.1,0.63-0.39C27.04,113.52,27.14,113.4,27.15,113.2"/>
	<polygon class="st1" points="28.23,114.28 27.03,115.53 26.92,115.42 28.31,113.98 28.41,114.09 28.04,116.14 29.25,114.89 
		29.36,114.99 27.97,116.43 27.86,116.33 	"/>
	<path class="st1" d="M30.85,118.75c-0.17,0.01-0.34-0.05-0.5-0.19l-0.51-0.44l1.3-1.52l0.51,0.44c0.16,0.14,0.25,0.29,0.26,0.46
		c0.02,0.29-0.19,0.52-0.36,0.73C31.37,118.44,31.13,118.73,30.85,118.75 M31.76,117.52c-0.01-0.17-0.11-0.29-0.23-0.4l-0.37-0.32
		l-1.12,1.32l0.37,0.31c0.12,0.1,0.26,0.18,0.43,0.16c0.23-0.02,0.45-0.29,0.59-0.46C31.58,117.96,31.77,117.75,31.76,117.52"/>
	<polygon class="st1" points="33,118.15 33.95,118.9 33.87,119.01 33.03,118.35 32.54,118.97 33.26,119.53 33.17,119.64 
		32.46,119.08 31.96,119.71 32.8,120.37 32.71,120.48 31.76,119.73 	"/>
	<path class="st1" d="M33.97,121.44c-0.24-0.17-0.34-0.35-0.38-0.61l0.15-0.02c0.04,0.25,0.13,0.39,0.32,0.53
		c0.26,0.19,0.51,0.18,0.66-0.03c0.07-0.1,0.1-0.19,0.08-0.29c-0.03-0.09-0.05-0.14-0.17-0.26l-0.17-0.17
		c-0.11-0.11-0.18-0.21-0.2-0.33c-0.03-0.13,0-0.26,0.09-0.39c0.2-0.27,0.51-0.3,0.82-0.08c0.2,0.15,0.29,0.29,0.34,0.51l-0.14,0.02
		c-0.03-0.16-0.09-0.3-0.28-0.44c-0.24-0.17-0.47-0.14-0.62,0.06c-0.07,0.09-0.09,0.18-0.07,0.27c0.02,0.09,0.09,0.19,0.17,0.28
		l0.15,0.15c0.14,0.13,0.19,0.21,0.21,0.32c0.04,0.14,0.01,0.29-0.09,0.42C34.64,121.66,34.31,121.68,33.97,121.44"/>
	<polygon class="st1" points="36.9,123.44 36.77,123.35 37.79,121.79 37.29,121.47 37.36,121.35 38.49,122.09 38.42,122.2 
		37.92,121.87 	"/>
	<polygon class="st1" points="39.28,122.57 40.32,123.2 40.26,123.31 39.34,122.77 38.94,123.44 39.71,123.91 39.64,124.02 
		38.87,123.56 38.45,124.25 39.36,124.8 39.29,124.91 38.25,124.29 	"/>
	<path class="st1" d="M41.28,124.97l-0.48-0.26l-0.44,0.81l-0.13-0.07l0.96-1.75l0.67,0.37c0.28,0.16,0.41,0.44,0.24,0.75
		c-0.14,0.26-0.39,0.34-0.66,0.25l-0.02,1.04l-0.16-0.08L41.28,124.97z M41.76,124.17l-0.52-0.28l-0.39,0.71l0.52,0.28
		c0.23,0.12,0.45,0.1,0.58-0.14C42.09,124.49,41.99,124.29,41.76,124.17"/>
	<path class="st1" d="M43.42,126.09l-0.49-0.25l-0.41,0.82l-0.14-0.07l0.9-1.79l0.68,0.34c0.29,0.14,0.43,0.42,0.27,0.74
		c-0.13,0.27-0.38,0.36-0.65,0.28l0.02,1.04l-0.16-0.08L43.42,126.09z M43.88,125.27L43.35,125l-0.36,0.72l0.53,0.26
		c0.23,0.12,0.45,0.08,0.58-0.17C44.21,125.58,44.11,125.38,43.88,125.27"/>
	<polygon class="st1" points="45.41,125.85 45.55,125.91 44.71,127.73 44.57,127.67 	"/>
	<polygon class="st1" points="46.29,128.44 46.15,128.38 46.88,126.66 46.34,126.43 46.39,126.3 47.63,126.83 47.57,126.96 
		47.02,126.72 	"/>
	<path class="st1" d="M48.81,129.25c-0.17,0.07-0.36,0.08-0.54,0.01c-0.18-0.07-0.32-0.2-0.39-0.37c-0.1-0.24-0.04-0.4,0.12-0.82
		c0.16-0.42,0.23-0.58,0.47-0.69c0.17-0.08,0.36-0.08,0.54-0.01c0.18,0.07,0.32,0.2,0.39,0.37c0.1,0.24,0.04,0.4-0.12,0.82
		C49.11,128.98,49.04,129.14,48.81,129.25 M49.25,127.77c-0.06-0.13-0.17-0.23-0.3-0.28c-0.13-0.05-0.28-0.05-0.41,0.01
		c-0.19,0.08-0.25,0.22-0.41,0.62c-0.15,0.4-0.2,0.55-0.12,0.73c0.06,0.13,0.17,0.23,0.3,0.28c0.13,0.05,0.28,0.05,0.41-0.01
		c0.19-0.08,0.25-0.22,0.41-0.62C49.29,128.1,49.33,127.95,49.25,127.77"/>
	<polygon class="st1" points="50.64,127.99 50.79,128.04 50.12,129.92 49.98,129.87 	"/>
	<path class="st1" d="M52.21,129.65l-0.53-0.17l-0.28,0.88l-0.14-0.05l0.61-1.9l0.73,0.23c0.31,0.1,0.49,0.35,0.38,0.68
		c-0.09,0.29-0.32,0.41-0.6,0.37l0.18,1.03l-0.17-0.05L52.21,129.65z M52.53,128.76l-0.56-0.18l-0.25,0.77l0.56,0.18
		c0.25,0.08,0.46,0.01,0.54-0.25C52.91,129.02,52.78,128.84,52.53,128.76"/>
	<polygon class="st1" points="54.13,129.11 55.29,129.43 55.26,129.56 54.24,129.28 54.03,130.04 54.9,130.28 54.86,130.41 
		53.99,130.17 53.78,130.94 54.8,131.23 54.76,131.36 53.59,131.03 	"/>
	<path class="st1" d="M56.29,131.76c-0.29-0.07-0.45-0.19-0.59-0.41l0.13-0.08c0.13,0.22,0.26,0.3,0.5,0.36
		c0.31,0.07,0.53-0.03,0.6-0.28c0.03-0.12,0.02-0.22-0.04-0.3c-0.06-0.08-0.1-0.11-0.26-0.17l-0.22-0.09
		c-0.14-0.06-0.25-0.13-0.31-0.22c-0.08-0.11-0.1-0.24-0.07-0.4c0.08-0.33,0.36-0.48,0.73-0.39c0.24,0.06,0.38,0.16,0.51,0.34
		l-0.12,0.07c-0.09-0.14-0.2-0.24-0.43-0.29c-0.28-0.07-0.49,0.04-0.55,0.29c-0.03,0.11-0.01,0.21,0.04,0.28
		c0.06,0.07,0.16,0.14,0.26,0.19l0.2,0.08c0.18,0.07,0.25,0.12,0.32,0.21c0.09,0.11,0.12,0.26,0.08,0.42
		C56.99,131.7,56.7,131.85,56.29,131.76"/>
	<polygon class="st1" points="59.62,130.4 60.81,130.61 60.79,130.75 59.74,130.56 59.61,131.34 60.5,131.5 60.47,131.63 
		59.58,131.47 59.44,132.27 60.49,132.45 60.46,132.59 59.27,132.38 	"/>
	<polygon class="st1" points="62.02,132.82 61.87,132.8 62.13,130.96 61.54,130.87 61.56,130.74 62.89,130.93 62.87,131.06 
		62.28,130.98 	"/>
	<path class="st1" d="M66.07,133.08c-0.13,0.11-0.3,0.16-0.51,0.14l-0.67-0.06l0.17-1.99l0.67,0.06c0.21,0.02,0.37,0.09,0.48,0.22
		c0.18,0.22,0.15,0.53,0.13,0.8C66.31,132.53,66.29,132.9,66.07,133.08 M66.09,131.55c-0.1-0.13-0.26-0.18-0.42-0.19l-0.48-0.04
		l-0.15,1.72l0.48,0.04c0.16,0.01,0.32-0.01,0.44-0.12c0.17-0.15,0.19-0.5,0.21-0.72C66.2,132.02,66.24,131.73,66.09,131.55"/>
	<polygon class="st1" points="67.49,131.35 68.7,131.41 68.69,131.55 67.63,131.5 67.59,132.29 68.5,132.33 68.49,132.46 
		67.59,132.42 67.55,133.23 68.61,133.28 68.6,133.41 67.39,133.35 	"/>
	<path class="st1" d="M70.16,133.46c-0.3-0.01-0.48-0.09-0.66-0.27l0.11-0.11c0.18,0.18,0.32,0.24,0.56,0.25
		c0.32,0.01,0.52-0.14,0.52-0.4c0-0.12-0.03-0.22-0.11-0.28c-0.07-0.06-0.12-0.09-0.29-0.11l-0.23-0.04
		c-0.15-0.02-0.27-0.07-0.35-0.15c-0.1-0.09-0.15-0.21-0.15-0.37c0.01-0.34,0.25-0.54,0.63-0.54c0.25,0,0.4,0.07,0.57,0.23l-0.1,0.1
		c-0.12-0.11-0.25-0.19-0.48-0.19c-0.29-0.01-0.47,0.15-0.47,0.4c0,0.11,0.03,0.2,0.1,0.26c0.07,0.06,0.18,0.11,0.3,0.13l0.22,0.04
		c0.19,0.03,0.28,0.07,0.35,0.14c0.11,0.09,0.17,0.23,0.17,0.39C70.84,133.26,70.58,133.47,70.16,133.46"/>
	<path class="st1" d="M73.88,132.45l-0.55,0.03l0.04,0.92l-0.15,0.01l-0.09-2l0.76-0.04c0.33-0.01,0.58,0.16,0.6,0.51
		c0.01,0.3-0.16,0.5-0.44,0.56l0.53,0.9l-0.18,0.01L73.88,132.45z M73.88,131.51l-0.59,0.03l0.04,0.81l0.59-0.03
		c0.26-0.01,0.44-0.15,0.42-0.43C74.32,131.61,74.13,131.49,73.88,131.51"/>
	<polygon class="st1" points="75.49,131.28 76.7,131.17 76.71,131.31 75.65,131.4 75.72,132.18 76.62,132.11 76.63,132.24 
		75.73,132.32 75.8,133.12 76.86,133.03 76.87,133.17 75.66,133.27 	"/>
	<polygon class="st1" points="77.69,131.07 77.84,131.05 78.06,132.9 79.12,132.77 79.13,132.91 77.93,133.05 	"/>
	<path class="st1" d="M81.02,132.13l-0.92,0.15l-0.1,0.51l-0.16,0.03l0.42-2.09l0.13-0.02l1.04,1.86l-0.16,0.03L81.02,132.13z
		 M80.13,132.14l0.83-0.13l-0.6-1.1L80.13,132.14z"/>
	<polygon class="st1" points="82.71,132.32 82.56,132.35 82.21,130.52 81.63,130.63 81.6,130.5 82.92,130.25 82.95,130.38 
		82.36,130.49 	"/>
	<polygon class="st1" points="83.83,130.06 83.98,130.02 84.41,131.98 84.26,132.01 	"/>
	<path class="st1" d="M86.61,131.25c-0.1,0.16-0.25,0.27-0.43,0.32s-0.37,0.02-0.54-0.08c-0.22-0.13-0.27-0.31-0.38-0.74
		c-0.11-0.44-0.15-0.61-0.02-0.83c0.1-0.16,0.25-0.27,0.43-0.32c0.18-0.05,0.37-0.02,0.53,0.08c0.22,0.13,0.27,0.3,0.38,0.74
		C86.7,130.85,86.75,131.03,86.61,131.25 M86.12,129.79c-0.12-0.07-0.27-0.09-0.41-0.06c-0.14,0.04-0.26,0.12-0.33,0.24
		c-0.1,0.17-0.08,0.33,0.03,0.74c0.1,0.41,0.15,0.56,0.33,0.67c0.12,0.07,0.27,0.09,0.41,0.06s0.26-0.12,0.33-0.24
		c0.1-0.17,0.08-0.33-0.03-0.74C86.34,130.04,86.29,129.89,86.12,129.79"/>
	<polygon class="st1" points="87.6,129.38 88.09,131.05 87.95,131.09 87.38,129.17 87.53,129.13 89.12,130.47 88.63,128.8 
		88.78,128.76 89.34,130.68 89.2,130.72 	"/>
	<path class="st1" d="M90.99,130.15c-0.28,0.1-0.48,0.08-0.72-0.03l0.07-0.14c0.23,0.11,0.39,0.12,0.61,0.04
		c0.3-0.1,0.44-0.31,0.35-0.56c-0.04-0.11-0.1-0.19-0.19-0.23c-0.09-0.03-0.14-0.04-0.31-0.01l-0.23,0.04
		c-0.15,0.03-0.28,0.02-0.38-0.02c-0.13-0.05-0.22-0.15-0.27-0.3c-0.11-0.32,0.05-0.6,0.41-0.72c0.23-0.08,0.4-0.07,0.61,0.02
		l-0.06,0.13c-0.15-0.07-0.3-0.1-0.52-0.02c-0.28,0.1-0.39,0.3-0.31,0.54c0.04,0.11,0.1,0.18,0.18,0.21
		c0.08,0.03,0.21,0.04,0.32,0.02l0.22-0.04c0.19-0.04,0.28-0.03,0.38,0.01c0.13,0.05,0.24,0.16,0.29,0.31
		C91.56,129.73,91.39,130.02,90.99,130.15"/>
	<path class="st1" d="M94.6,128.26l-0.87,0.35l0.02,0.52l-0.15,0.06l-0.07-2.13l0.13-0.05l1.44,1.58l-0.15,0.06L94.6,128.26z
		 M93.72,128.47l0.78-0.31l-0.83-0.94L93.72,128.47z"/>
	<polygon class="st1" points="96.21,128.1 94.8,126.54 94.95,126.47 96.17,127.83 95.97,126.01 96.12,125.95 96.33,128.05 	"/>
	<polygon class="st1" points="96.9,125.59 97.99,125.06 98.05,125.18 97.1,125.64 97.44,126.35 98.25,125.95 98.31,126.07 
		97.5,126.47 97.85,127.19 98.81,126.73 98.87,126.85 97.78,127.38 	"/>
	<path class="st1" d="M100.36,126.09c-0.17,0.09-0.36,0.11-0.54,0.05c-0.25-0.07-0.33-0.23-0.54-0.63c-0.21-0.4-0.29-0.56-0.22-0.8
		c0.05-0.18,0.18-0.33,0.34-0.42c0.32-0.17,0.64-0.09,0.88,0.19l-0.14,0.07c-0.18-0.22-0.44-0.28-0.68-0.15
		c-0.13,0.07-0.22,0.18-0.26,0.32c-0.06,0.19,0.01,0.34,0.21,0.71c0.2,0.38,0.29,0.51,0.48,0.57c0.14,0.04,0.28,0.03,0.41-0.04
		c0.24-0.13,0.33-0.37,0.25-0.65l0.13-0.07C100.79,125.61,100.67,125.93,100.36,126.09"/>
	<polygon class="st1" points="102,122.84 102.13,122.76 103.11,124.36 104.01,123.8 104.08,123.92 103.05,124.55 	"/>
	<polygon class="st1" points="103.82,121.71 104.83,121.04 104.91,121.15 104.02,121.74 104.46,122.4 105.21,121.9 105.29,122.01 
		104.53,122.51 104.98,123.18 105.86,122.6 105.94,122.71 104.92,123.38 	"/>
	<path class="st1" d="M107.22,121.83c-0.24,0.17-0.44,0.21-0.7,0.17l0.02-0.15c0.25,0.04,0.4,0,0.6-0.14
		c0.26-0.19,0.33-0.42,0.18-0.64c-0.07-0.1-0.15-0.16-0.25-0.17c-0.1,0-0.15,0-0.3,0.08l-0.21,0.11c-0.14,0.07-0.26,0.1-0.38,0.09
		c-0.14-0.01-0.25-0.08-0.34-0.21c-0.2-0.27-0.13-0.58,0.19-0.81c0.2-0.14,0.37-0.18,0.6-0.16l-0.02,0.14
		c-0.16-0.02-0.31-0.01-0.5,0.13c-0.24,0.17-0.29,0.4-0.14,0.61c0.07,0.09,0.15,0.15,0.24,0.15c0.09,0.01,0.21-0.02,0.32-0.07
		l0.19-0.1c0.17-0.09,0.26-0.11,0.37-0.1c0.14,0.01,0.27,0.08,0.37,0.21C107.65,121.26,107.57,121.58,107.22,121.83"/>
	<path class="st1" d="M110.13,119.62c-0.15,0.12-0.33,0.18-0.52,0.15c-0.26-0.03-0.37-0.17-0.65-0.51
		c-0.28-0.35-0.39-0.49-0.37-0.75c0.02-0.19,0.11-0.35,0.26-0.47c0.28-0.23,0.62-0.21,0.9,0.03l-0.12,0.1
		c-0.22-0.18-0.48-0.19-0.69-0.02c-0.11,0.09-0.18,0.22-0.2,0.36c-0.02,0.2,0.07,0.33,0.34,0.66c0.27,0.33,0.38,0.45,0.58,0.47
		c0.14,0.01,0.28-0.03,0.39-0.12c0.21-0.17,0.26-0.43,0.13-0.68l0.12-0.09C110.46,119.06,110.4,119.4,110.13,119.62"/>
	<path class="st1" d="M112.21,117.59c-0.01,0.19-0.1,0.36-0.24,0.48c-0.14,0.13-0.32,0.19-0.51,0.17c-0.26-0.02-0.38-0.15-0.67-0.49
		c-0.3-0.34-0.41-0.48-0.39-0.73c0.01-0.19,0.1-0.36,0.24-0.48c0.14-0.13,0.33-0.19,0.51-0.17c0.26,0.02,0.38,0.15,0.67,0.49
		C112.12,117.2,112.23,117.34,112.21,117.59 M111.11,116.51c-0.14-0.01-0.28,0.04-0.39,0.13c-0.11,0.09-0.18,0.22-0.19,0.37
		c-0.01,0.2,0.08,0.33,0.36,0.65c0.28,0.32,0.39,0.43,0.59,0.45c0.14,0.01,0.28-0.04,0.39-0.13c0.11-0.09,0.18-0.22,0.18-0.36
		c0.01-0.2-0.08-0.33-0.36-0.65C111.43,116.64,111.32,116.53,111.11,116.51"/>
	<polygon class="st1" points="111.96,115.38 112.07,115.28 113.34,116.64 114.12,115.91 114.21,116.01 113.32,116.84 	"/>
	<polygon class="st1" points="113.5,113.91 113.6,113.8 114.93,115.11 115.67,114.36 115.77,114.46 114.92,115.32 	"/>
	<polygon class="st1" points="114.99,112.38 115.81,111.49 115.91,111.58 115.19,112.36 115.77,112.9 116.38,112.23 116.48,112.32 
		115.87,112.99 116.46,113.54 117.18,112.76 117.28,112.85 116.46,113.74 	"/>
	<path class="st1" d="M118.39,111.61c-0.13,0.15-0.3,0.23-0.48,0.25c-0.26,0.02-0.4-0.1-0.74-0.39c-0.34-0.29-0.48-0.41-0.5-0.67
		c-0.01-0.19,0.05-0.37,0.17-0.51c0.23-0.27,0.57-0.32,0.89-0.14l-0.1,0.12c-0.25-0.14-0.51-0.1-0.68,0.11
		c-0.09,0.11-0.14,0.25-0.13,0.39c0.01,0.2,0.13,0.31,0.45,0.59c0.32,0.28,0.45,0.37,0.65,0.36c0.14-0.01,0.27-0.08,0.36-0.19
		c0.18-0.21,0.18-0.47,0-0.7l0.1-0.11C118.62,111,118.62,111.34,118.39,111.61"/>
	<polygon class="st1" points="119.82,109.85 119.73,109.97 118.27,108.8 117.9,109.27 117.79,109.18 118.64,108.13 118.74,108.22 
		118.37,108.68 	"/>
	<polygon class="st1" points="119.2,107.39 119.29,107.27 120.89,108.47 120.8,108.6 	"/>
	<polygon class="st1" points="121.82,107.2 119.81,106.57 119.9,106.44 121.64,106.99 120.56,105.53 120.65,105.4 121.9,107.1 	"/>
	
		<rect x="121.94" y="104.17" transform="matrix(0.5578 -0.83 0.83 0.5578 -33.3325 147.7801)" class="st1" width="0.15" height="2"/>
	<polygon class="st1" points="123.83,104.22 123.75,104.34 122.17,103.35 121.85,103.85 121.74,103.78 122.46,102.64 122.57,102.71 
		122.25,103.22 	"/>
	<path class="st1" d="M122.99,101.37l-0.22-0.44l0.1-0.16l0.21,0.47L122.99,101.37z M122.93,101.85l0.61-1.05l0.12,0.07l-0.54,0.92
		l0.68,0.4l0.46-0.78l0.12,0.07l-0.46,0.78l0.7,0.41l0.54-0.92l0.11,0.07l-0.61,1.05L122.93,101.85z"/>
	<path class="st1" d="M126.05,100.45c-0.14,0.26-0.3,0.39-0.55,0.46l-0.04-0.14c0.24-0.07,0.36-0.18,0.48-0.39
		c0.15-0.28,0.11-0.53-0.12-0.65c-0.11-0.06-0.21-0.07-0.3-0.04c-0.09,0.04-0.13,0.07-0.23,0.2l-0.14,0.19
		c-0.09,0.12-0.19,0.2-0.3,0.24c-0.13,0.05-0.26,0.04-0.4-0.04c-0.3-0.16-0.37-0.47-0.19-0.81c0.12-0.22,0.25-0.32,0.46-0.4
		l0.04,0.13c-0.15,0.05-0.28,0.13-0.39,0.34c-0.14,0.26-0.08,0.48,0.14,0.6c0.1,0.06,0.19,0.07,0.28,0.03
		c0.09-0.03,0.18-0.11,0.25-0.2l0.13-0.17c0.11-0.15,0.19-0.21,0.29-0.25c0.13-0.05,0.28-0.05,0.42,0.03
		C126.18,99.75,126.24,100.08,126.05,100.45"/>
	<polygon class="st1" points="127.63,97.26 127.56,97.39 125.87,96.6 125.62,97.14 125.5,97.08 126.07,95.87 126.19,95.92 
		125.94,96.46 	"/>
	<polygon class="st1" points="126.44,95.02 126.91,93.9 127.04,93.95 126.62,94.93 127.35,95.24 127.7,94.41 127.83,94.46 
		127.47,95.29 128.22,95.61 128.63,94.63 128.76,94.68 128.28,95.8 	"/>
	<path class="st1" d="M128.54,92.71l-0.2,0.52l0.86,0.33l-0.05,0.14l-1.87-0.71l0.27-0.71c0.12-0.31,0.38-0.47,0.71-0.35
		c0.28,0.11,0.4,0.34,0.34,0.62l1.04-0.12l-0.06,0.17L128.54,92.71z M127.67,92.34l-0.21,0.55l0.76,0.29l0.21-0.55
		c0.09-0.24,0.04-0.46-0.22-0.56C127.95,91.97,127.77,92.09,127.67,92.34"/>
	<path class="st1" d="M129.35,90.44l-0.18,0.52l0.87,0.3L130,91.41l-1.9-0.64l0.24-0.72c0.1-0.31,0.36-0.48,0.69-0.37
		c0.28,0.1,0.41,0.33,0.36,0.61l1.03-0.16l-0.06,0.17L129.35,90.44z M128.47,90.11l-0.19,0.56l0.77,0.26l0.19-0.56
		c0.08-0.25,0.02-0.46-0.24-0.55C128.73,89.73,128.55,89.86,128.47,90.11"/>
	
		<rect x="129.74" y="87.72" transform="matrix(0.2885 -0.9575 0.9575 0.2885 7.4107 187.4223)" class="st1" width="0.15" height="2"/>
	<polygon class="st1" points="131.27,87.27 131.23,87.42 129.43,86.93 129.27,87.51 129.14,87.47 129.5,86.17 129.63,86.21 
		129.47,86.79 	"/>
	<path class="st1" d="M131.73,84.67c0.1,0.16,0.13,0.35,0.09,0.53c-0.04,0.18-0.15,0.34-0.31,0.44c-0.22,0.14-0.4,0.1-0.83,0
		c-0.44-0.1-0.61-0.15-0.75-0.37c-0.1-0.16-0.13-0.35-0.09-0.53c0.04-0.19,0.15-0.34,0.31-0.44c0.22-0.13,0.39-0.1,0.83,0.01
		C131.42,84.41,131.59,84.45,131.73,84.67 M130.2,84.44c-0.12,0.08-0.21,0.19-0.24,0.33c-0.03,0.14-0.01,0.28,0.06,0.4
		c0.11,0.17,0.26,0.22,0.67,0.32c0.41,0.1,0.57,0.12,0.74,0.01c0.12-0.07,0.21-0.19,0.24-0.33c0.03-0.14,0.01-0.28-0.06-0.4
		c-0.11-0.17-0.26-0.22-0.67-0.32C130.53,84.36,130.38,84.33,130.2,84.44"/>
	<path class="st1" d="M131.42,82.55l-0.1,0.54l0.9,0.17l-0.03,0.15l-1.96-0.38l0.14-0.75c0.06-0.32,0.29-0.53,0.63-0.46
		c0.3,0.06,0.45,0.27,0.44,0.55l1-0.3l-0.03,0.17L131.42,82.55z M130.5,82.33l-0.11,0.58l0.79,0.15l0.11-0.58
		c0.05-0.25-0.04-0.46-0.32-0.51C130.7,81.92,130.55,82.08,130.5,82.33"/>
	
		<rect x="131.58" y="79.78" transform="matrix(0.1589 -0.9873 0.9873 0.1589 30.9714 197.921)" class="st1" width="0.15" height="2"/>
	<path class="st1" d="M132.48,78.61l-0.12,0.93l0.46,0.24l-0.02,0.16l-1.89-0.99l0.02-0.14l2.08-0.47l-0.02,0.16L132.48,78.61z
		 M132.23,79.47l0.11-0.83l-1.22,0.26L132.23,79.47z"/>
	<polygon class="st1" points="131.12,77.21 131.13,77.06 132.99,77.23 133.09,76.18 133.22,76.19 133.11,77.4 	"/>
	<polygon class="st1" points="131.3,75.08 131.37,73.87 131.51,73.88 131.45,74.94 132.23,74.98 132.29,74.08 132.42,74.09 
		132.37,74.99 133.17,75.04 133.24,73.98 133.37,73.99 133.3,75.2 	"/>
	<path class="st1" d="M133.44,72.42c-0.01,0.3-0.09,0.48-0.28,0.66l-0.1-0.11c0.18-0.18,0.24-0.32,0.25-0.56
		c0.01-0.32-0.14-0.52-0.4-0.52c-0.12,0-0.22,0.03-0.28,0.1c-0.06,0.08-0.09,0.12-0.11,0.29l-0.04,0.23
		c-0.03,0.15-0.08,0.27-0.15,0.35c-0.09,0.1-0.21,0.15-0.37,0.15c-0.34-0.01-0.54-0.25-0.53-0.63c0.01-0.25,0.08-0.4,0.23-0.57
		l0.1,0.1c-0.11,0.12-0.19,0.25-0.2,0.48c-0.01,0.29,0.15,0.47,0.4,0.47c0.12,0,0.2-0.03,0.26-0.1c0.06-0.07,0.11-0.18,0.13-0.29
		l0.04-0.22c0.03-0.19,0.07-0.27,0.14-0.35c0.09-0.11,0.23-0.17,0.39-0.17C133.25,71.74,133.45,72,133.44,72.42"/>
	<polygon class="st1" points="9,61.09 10.54,61.35 11.09,58.08 13.02,58.4 12.47,61.67 15.87,62.24 15.51,64.41 6.7,62.93 
		7.7,56.94 9.64,57.27 	"/>
	<path class="st1" d="M18.71,51.31l-1.39-0.03l-0.88,2.6l1.12,0.84l-0.74,2.17l-7.42-5.94l0.54-1.6l9.5-0.22L18.71,51.31z
		 M12.9,51.19l2,1.52l0.5-1.47L12.9,51.19z"/>
	<path class="st1" d="M22.47,43.37l-1.88,3.4l-7.81-4.32l1.79-3.24c0.9-1.62,2.29-1.99,3.64-1.24c0.89,0.49,1.04,1.38,1.07,1.71
		c0.37-0.21,1.14-0.63,2.23-0.03C23,40.48,23.24,41.97,22.47,43.37 M16.22,40.28l-0.66,1.2l1.27,0.7l0.66-1.2
		c0.29-0.53,0.05-0.87-0.26-1.04C16.93,39.77,16.51,39.76,16.22,40.28 M19.27,41.84l-0.72,1.3l1.37,0.76l0.72-1.29
		c0.29-0.53,0.03-0.9-0.3-1.08C20.01,41.33,19.56,41.31,19.27,41.84"/>
	<path class="st1" d="M28.51,34.74l-3.58-0.87l-0.47,0.57l2.58,2.1l-1.39,1.7l-6.93-5.63l2.23-2.75c1.25-1.54,3.01-1.48,4.15-0.55
		c0.94,0.77,1.06,1.83,0.89,2.6l4.11,0.85L28.51,34.74z M22.42,31.19l-0.78,0.96l1.4,1.14l0.78-0.96c0.38-0.47,0.26-1.02-0.1-1.31
		C23.36,30.73,22.8,30.72,22.42,31.19"/>
	
		<rect x="28.99" y="22.23" transform="matrix(0.7348 -0.6783 0.6783 0.7348 -10.1263 27.4902)" class="st1" width="2.19" height="8.93"/>
	<path class="st1" d="M41.46,23.96l-0.96-0.18c-0.24,0.5-0.62,0.93-1.19,1.32c-0.9,0.62-1.72,0.76-2.62,0.59
		c-1.31-0.24-1.99-1.29-2.75-2.4c-0.76-1.1-1.51-2.11-1.27-3.42c0.17-0.91,0.59-1.62,1.48-2.24c0.9-0.62,1.72-0.76,2.62-0.59
		c1.31,0.24,1.99,1.29,2.75,2.4c0.63,0.92,1.26,1.78,1.31,2.8l0.91,0.17L41.46,23.96z M36.21,19.07c-0.26-0.08-0.61-0.05-0.94,0.18
		c-0.33,0.23-0.49,0.55-0.5,0.82c-0.01,0.33,0.05,0.65,0.98,1.99c0.93,1.34,1.19,1.51,1.51,1.61c0.25,0.08,0.62,0.06,0.95-0.17
		c0.05-0.04,0.09-0.06,0.14-0.11l-0.78-0.14l0.28-1.55l0.59,0.11c-0.15-0.26-0.36-0.62-0.71-1.11
		C36.8,19.35,36.52,19.17,36.21,19.07"/>
	<path class="st1" d="M47.87,20.25c-1.69,0.77-3.59,0.26-4.4-1.52l-2.4-5.28l2-0.91l2.38,5.23c0.34,0.75,0.95,1,1.61,0.7
		c0.66-0.3,0.9-0.93,0.56-1.69l-2.38-5.23l2-0.91l2.4,5.28C50.44,17.7,49.56,19.48,47.87,20.25"/>
	<polygon class="st1" points="54.14,17.69 51.91,9.04 57.79,7.53 58.28,9.42 54.52,10.39 54.89,11.84 58.1,11.01 58.59,12.9 
		55.38,13.73 55.77,15.25 59.53,14.28 60.01,16.18 	"/>
	<polygon class="st1" points="69.41,7.41 69.28,15.18 68.6,15.17 68.76,6.24 69.43,6.25 74.45,14.08 74.59,6.34 75.27,6.35 
		75.11,15.28 74.43,15.27 	"/>
	<path class="st1" d="M82.37,16.48c-1.76-0.37-2.74-1.83-2.39-3.54l1.24-5.91l0.66,0.14l-1.22,5.82c-0.3,1.45,0.42,2.6,1.83,2.9
		c1.41,0.3,2.53-0.47,2.84-1.92l1.22-5.82l0.66,0.14l-1.24,5.91C85.62,15.91,84.12,16.85,82.37,16.48"/>
	<polygon class="st1" points="98.65,14.21 93.75,18.74 93.12,18.48 93.01,11.78 90.09,18.53 89.47,18.26 93.01,10.07 93.63,10.34 
		93.76,17.89 99.28,12.77 99.9,13.04 96.36,21.24 95.74,20.97 	"/>
	<path class="st1" d="M105.2,16.11l4.48,3.05l-0.34,0.5l-3.92-2.67l-1.99,2.91l3.34,2.27l-0.34,0.5l-3.34-2.27l-2.03,2.98l3.92,2.67
		l-0.34,0.5l-4.48-3.05L105.2,16.11z M107.31,16.51l2.04-0.84l0.69,0.47l-2.14,0.78L107.31,16.51z"/>
	<path class="st1" d="M112.72,28.2l-1.77-1.71l-2.86,2.95l-0.49-0.47l6.21-6.41l2.44,2.36c1.04,1.01,1.25,2.38,0.17,3.5
		c-0.93,0.96-2.1,1.02-3.15,0.3l-1.32,4.46l-0.57-0.55L112.72,28.2z M115.78,25.3l-1.89-1.83l-2.51,2.59l1.89,1.83
		c0.83,0.8,1.81,0.96,2.67,0.07C116.8,27.07,116.61,26.1,115.78,25.3"/>
	
		<rect x="113.79" y="33.54" transform="matrix(0.7882 -0.6155 0.6155 0.7882 4.2021 79.9614)" class="st1" width="8.93" height="0.68"/>
	<path class="st1" d="M120.56,44.4c-0.66-0.26-1.22-0.75-1.57-1.36c-0.43-0.74-0.54-1.58-0.33-2.39c0.3-1.11,0.98-1.53,2.72-2.53
		c1.75-1.01,2.44-1.4,3.55-1.1c0.81,0.21,1.48,0.73,1.91,1.47c0.43,0.74,0.54,1.58,0.33,2.39c-0.3,1.12-0.97,1.52-2.72,2.54
		c-1.58,0.92-2.33,1.34-3.27,1.16l-0.38,1.44l-0.62-0.16L120.56,44.4z M126.58,40.59c0.16-0.62,0.07-1.26-0.25-1.81
		c-0.32-0.55-0.83-0.96-1.45-1.12c-0.87-0.23-1.51,0.08-3.16,1.03c-1.65,0.96-2.23,1.35-2.46,2.23c-0.16,0.62-0.07,1.26,0.25,1.81
		c0.28,0.49,0.69,0.85,1.22,1.05l0.46-1.71l0.62,0.16l-0.45,1.7c0.69,0.06,1.38-0.31,2.76-1.11
		C125.76,41.86,126.34,41.47,126.58,40.59"/>
	<path class="st1" d="M123.22,52.16c-0.6-1.69,0.13-3.3,1.77-3.88l5.68-2.03l0.23,0.64l-5.6,2c-1.39,0.5-2,1.71-1.51,3.07
		c0.49,1.36,1.72,1.92,3.12,1.42l5.6-2l0.23,0.64l-5.68,2.03C125.41,54.63,123.82,53.85,123.22,52.16"/>
	<polygon class="st1" points="134.16,57.78 135.06,63.12 134.47,63.22 133.68,58.54 130.21,59.13 130.87,63.11 130.28,63.21 
		129.61,59.23 126.06,59.82 126.84,64.5 126.25,64.59 125.36,59.25 	"/>
</g>
</svg>
