<svg viewBox="0 0 358 79" xmlns="http://www.w3.org/2000/svg">
    <path fill="#fff" d="M0 0h357.5v78.7H0z"/>
    <path fill="#fff" stroke="#1a171b" d="M238.5-.3h119v79h-119z"/>
    <g fill="#1a171b">
        <path d="M273.3 29.5l-2.8-6.1v4.9c0 .4 0 .7.1.8.1.2.3.2.6.2h.3v.2H269v-.2h.3c.3 0 .5-.1.7-.3.1-.1.1-.4.1-.8v-4.8c0-.3 0-.6-.1-.7 0-.1-.1-.2-.3-.3-.1-.1-.4-.1-.6-.1v-.2h2.1l2.6 5.7 2.6-5.7h2.1v.2h-.3c-.3 0-.5.1-.7.3-.1.1-.1.4-.1.8v4.8c0 .4.1.7.2.8.1.2.3.2.6.2h.3v.2h-3.1v-.2h.3c.3 0 .5-.1.7-.3.1-.1.1-.4.1-.8v-4.9l-2.8 6.1h-.4v.2zm8.7-.2v.2h-3.1v-.2h.3c.3 0 .5-.1.7-.3.1-.1.1-.4.1-.8v-4.7c0-.4 0-.6-.1-.7 0-.1-.1-.2-.2-.2-.2-.1-.3-.1-.5-.1h-.3v-.2h3.1v.2h-.3c-.3 0-.5.1-.6.3-.1.1-.1.4-.1.8v4.7c0 .4 0 .6.1.7 0 .1.1.2.2.2.2.1.3.1.5.1h.2z"/>
        <path d="M282 22.2h2l4.5 5.5v-4.2c0-.4 0-.7-.2-.8-.1-.2-.3-.2-.6-.2h-.3v-.2h2.5v.2h-.3c-.3 0-.5.1-.7.3-.1.1-.1.4-.1.8v6.1h-.2l-4.8-5.9v4.5c0 .4 0 .7.1.8.1.2.3.2.6.2h.3v.2h-2.5v-.2h.3c.3 0 .5-.1.7-.3.1-.1.1-.4.1-.8v-5.1l-.5-.5c-.1-.1-.3-.2-.5-.2h-.5v-.2h.1zm11.5 7.1v.2h-3.1v-.2h.3c.3 0 .5-.1.7-.3.1-.1.1-.4.1-.8v-4.7c0-.4 0-.6-.1-.7 0-.1-.1-.2-.2-.2-.2-.1-.3-.1-.5-.1h-.3v-.2h3.1v.2h-.3c-.3 0-.5.1-.7.3-.1.1-.1.4-.1.8v4.7c0 .4 0 .6.1.7 0 .1.1.2.2.2.2.1.3.1.5.1h.3zm5.2-7.2v2.5h-.2c-.1-.5-.2-.9-.3-1.2-.2-.3-.4-.5-.7-.7-.3-.2-.6-.3-1-.3s-.7.1-.9.3c-.2.2-.4.5-.4.8 0 .2.1.4.2.6.2.3.8.6 1.6 1.1.7.4 1.1.6 1.4.8.3.2.4.4.6.7.1.3.2.5.2.8 0 .6-.2 1-.6 1.4-.4.4-1 .6-1.7.6h-.6c-.1 0-.3-.1-.7-.2-.3-.1-.6-.2-.7-.2-.1 0-.2 0-.2.1-.1.1-.1.2-.1.3h-.2V27h.2c.1.5.2.9.4 1.2.2.3.4.5.7.6.3.1.7.3 1.1.3.4 0 .8-.1 1.1-.4.3-.3.4-.5.4-.8 0-.2 0-.4-.1-.5-.1-.2-.3-.4-.5-.5-.1-.1-.5-.3-1.1-.7-.6-.3-1.1-.6-1.3-.8-.3-.2-.5-.4-.6-.7-.1-.3-.2-.5-.2-.8 0-.5.2-1 .6-1.4.4-.4.9-.6 1.5-.6.4 0 .8.1 1.2.3.2.1.3.1.4.1.1 0 .2 0 .2-.1.1-.1.1-.2.1-.3h.2v.2zm7.4.1l.1 1.7h-.2c0-.3-.1-.5-.2-.6-.1-.2-.3-.4-.4-.5-.2-.1-.4-.1-.7-.1h-1v5.6c0 .4 0 .7.1.8.1.2.3.2.6.2h.3v.2h-3.1v-.2h.3c.3 0 .5-.1.7-.3.1-.1.1-.4.1-.8v-5.6h-.9c-.3 0-.6 0-.7.1-.2.1-.3.2-.5.4s-.2.5-.2.8h-.2l.1-1.7h5.8zm2.6.4v2.9h1.6c.4 0 .7-.1.8-.2.2-.2.3-.5.3-.9h.2V27h-.2c-.1-.4-.1-.6-.2-.7l-.3-.3c-.1-.1-.4-.1-.7-.1h-1.6v3c0 .1.1.1.2.2.1 0 .2.1.4.1h1.2c.4 0 .7 0 .9-.1.2-.1.4-.2.5-.3.2-.2.4-.6.7-1h.2l-.6 1.8h-5.6v-.2h.3c.2 0 .3 0 .5-.1.1-.1.2-.1.2-.3 0-.2.1-.3.1-.7v-4.7c0-.5 0-.7-.1-.9-.1-.1-.3-.2-.6-.2h-.3v-.2h5.6l.1 1.6h-.2c-.1-.4-.2-.6-.3-.8-.1-.2-.2-.3-.4-.3-.1-.1-.4-.1-.8-.1h-1.9v-.1zm-.1-2.7h1.2l.6 1.9h-.2l-1.6-1.9zm11.9 9.6h-1.9l-2.5-3.4h-.8v2.1c0 .5 0 .7.2.9.1.2.3.2.6.2h.3v.2h-3.1v-.2h.3c.3 0 .5-.1.7-.3.1-.1.1-.4.1-.8v-4.7c0-.5 0-.7-.2-.9-.1-.2-.3-.2-.6-.2h-.3v-.2h2.7c.8 0 1.3.1 1.7.2.4.1.7.3.9.6.2.3.4.7.4 1.1 0 .4-.1.8-.4 1.2-.3.3-.7.6-1.4.7l1.5 2.1c.3.5.6.8.9 1 .2.2.6.3 1 .3v.1h-.1zm-5.2-3.7h.3c.7 0 1.2-.2 1.6-.5.4-.3.5-.7.5-1.1 0-.5-.1-.8-.4-1.1-.3-.3-.7-.4-1.1-.4-.2 0-.5 0-.8.1v3h-.1z"/>
        <path d="M322.7 22.6v2.9h1.6c.4 0 .7-.1.8-.2.2-.2.3-.5.3-.9h.2V27h-.2c-.1-.4-.1-.6-.2-.7l-.3-.3c-.1-.1-.4-.1-.7-.1h-1.6v3c0 .1.1.1.2.2.1 0 .2.1.4.1h1.2c.4 0 .7 0 .9-.1.2-.1.4-.2.5-.3.2-.2.4-.6.7-1h.2l-.6 1.8h-5.6v-.2h.3c.2 0 .3 0 .5-.1.1-.1.2-.1.2-.3 0-.2.1-.3.1-.7v-4.7c0-.5 0-.7-.1-.9-.1-.1-.3-.2-.6-.2h-.3v-.2h5.6l.1 1.6h-.2c-.1-.4-.2-.6-.3-.8-.1-.2-.2-.3-.4-.3-.1-.1-.4-.1-.8-.1h-1.9v-.1zM255.6 42.1v-.2h.3c.3 0 .5-.1.7-.3.1-.1.1-.4.1-.8v-4.7c0-.5-.1-.7-.2-.9-.1-.2-.3-.2-.6-.2h-.3v-.2h3c1.1 0 1.9.1 2.5.4.6.2 1 .7 1.4 1.2.3.6.5 1.2.5 2 0 1-.3 1.9-.9 2.5-.7.8-1.7 1.1-3.2 1.1h-3.3v.1zm2.1-.5c.5.1.8.2 1.1.2.8 0 1.5-.3 2.1-.9.5-.6.8-1.4.8-2.4s-.3-1.8-.8-2.4c-.5-.6-1.3-.9-2.1-.9-.3 0-.7.1-1.1.2v6.2zm7.9-6.4v2.9h1.6c.4 0 .7-.1.8-.2.2-.2.3-.5.3-.9h.2v2.5h-.2c0-.4-.1-.6-.2-.7l-.3-.3c-.1-.1-.4-.1-.7-.1h-1.6v3c0 .1.1.1.2.2.1 0 .2.1.4.1h1.2c.4 0 .7 0 .9-.1.2-.1.4-.2.5-.3.2-.2.4-.6.7-1h.2l-.6 1.8h-5.6v-.2h.3c.2 0 .3 0 .5-.1.1-.1.2-.1.2-.3 0-.1.1-.3.1-.7v-4.7c0-.5 0-.7-.1-.9-.1-.1-.3-.2-.6-.2h-.3v-.2h5.6l.1 1.6h-.2c-.1-.4-.2-.6-.2-.8-.1-.1-.2-.3-.4-.3-.1-.1-.4-.1-.8-.1h-2zm13.4 4.9h.2l-.6 2H273v-.2h.3c.3 0 .5-.1.7-.3.1-.1.1-.4.1-.8v-4.7c0-.5 0-.7-.2-.9-.1-.2-.3-.2-.6-.2h-.3v-.2h3.3v.2c-.4 0-.7 0-.8.1-.2.1-.3.2-.3.3 0 .1-.1.4-.1.8v4.6c0 .3 0 .5.1.6 0 .1.1.1.2.2.1 0 .4.1.8.1h.5c.6 0 1 0 1.2-.1.2-.1.4-.2.6-.4.1-.3.3-.6.5-1.1zm1.6-2.7v-.3c.4-.2.6-.4.8-.6.1-.1.1-.3.1-.5 0-.1 0-.2-.1-.2 0-.1-.1-.1-.1-.1h-.4c-.1 0-.3-.1-.4-.2-.1-.1-.2-.2-.2-.4s.1-.3.2-.4c.2-.1.3-.2.5-.2s.5.1.6.3c.1.2.3.5.3.8 0 .4-.2.8-.5 1.2-.1.3-.4.5-.8.6zm4.6-2.2v2.9h1.6c.4 0 .7-.1.8-.2.2-.2.3-.5.3-.9h.2v2.5h-.1c0-.4-.1-.6-.2-.7l-.3-.3c-.1-.1-.4-.1-.7-.1h-1.6v3c0 .1.1.1.2.2s.2.1.4.1h1.2c.4 0 .7 0 .9-.1.2-.1.4-.2.5-.3.2-.2.4-.6.7-1h.2l-.6 1.8h-5.6v-.2h.3c.2 0 .3 0 .5-.1.1-.1.2-.1.2-.3 0-.1.1-.3.1-.7v-4.7c0-.5 0-.7-.1-.9-.1-.1-.3-.2-.6-.2h-.3v-.2h5.6l.1 1.6h-.2c-.1-.4-.2-.6-.2-.8-.1-.1-.2-.3-.4-.3-.1-.1-.4-.1-.8-.1h-2.1zm2.3-2.7l-1.6 1.9h-.2l.6-1.9h1.2zm8.7 2.2l.2 2.5h-.2c-.2-.7-.5-1.3-1-1.6-.5-.3-.9-.5-1.5-.5-.5 0-.9.1-1.3.4-.4.3-.7.6-.9 1.2-.2.6-.3 1.2-.3 2 0 .7.1 1.2.3 1.7.2.5.5.9 1 1.1.4.3.9.4 1.5.4.5 0 .9-.1 1.3-.3.4-.2.8-.6 1.2-1.2l.2.1c-.4.6-.8 1.1-1.3 1.4-.5.3-1.1.5-1.7.5-1.2 0-2.1-.4-2.8-1.3-.5-.7-.7-1.5-.7-2.4 0-.7.2-1.4.5-2 .3-.6.8-1.1 1.3-1.4.5-.3 1.2-.5 1.9-.5.5 0 1 .1 1.6.4.2.1.3.1.3.1.1 0 .2 0 .3-.1.1-.1.2-.2.2-.4h-.1v-.1zm4.7 0c.9 0 1.8.4 2.5 1.1.7.7 1 1.6 1 2.7s-.3 2-1 2.8c-.7.7-1.5 1.1-2.5 1.1s-1.8-.4-2.5-1.1c-.7-.7-1-1.6-1-2.8 0-1.2.4-2.1 1.2-2.8.5-.7 1.3-1 2.3-1zm-.1.4c-.7 0-1.2.2-1.6.7-.5.6-.7 1.5-.7 2.6 0 1.2.3 2.1.8 2.7.4.5.9.7 1.5.7.7 0 1.2-.3 1.7-.8.4-.5.7-1.4.7-2.5 0-1.2-.2-2.2-.7-2.8-.5-.4-1-.6-1.7-.6zm3.8-.3h2l4.5 5.5v-4.2c0-.4 0-.7-.2-.8-.1-.2-.3-.2-.6-.2h-.3v-.2h2.5v.1h-.3c-.3 0-.5.1-.7.3-.1.1-.1.4-.1.8v6.1h-.2l-4.8-5.9v4.5c0 .4 0 .7.1.8.1.2.3.2.6.2h.3v.2H305v-.2h.3c.3 0 .5-.1.7-.3.1-.1.1-.4.1-.8v-5.1l-.5-.5c-.1-.1-.3-.2-.5-.2h-.5v-.1zm12.1-.1c.9 0 1.8.4 2.5 1.1.7.7 1 1.6 1 2.7s-.3 2-1 2.8c-.7.7-1.5 1.1-2.5 1.1s-1.8-.4-2.5-1.1c-.7-.7-1-1.6-1-2.8 0-1.2.4-2.1 1.2-2.8.5-.7 1.3-1 2.3-1zm-.1.4c-.7 0-1.2.2-1.6.7-.5.6-.7 1.5-.7 2.6 0 1.2.3 2.1.8 2.7.4.5.9.7 1.5.7.7 0 1.2-.3 1.7-.8.4-.5.7-1.4.7-2.5 0-1.2-.2-2.2-.7-2.8-.5-.4-1-.6-1.7-.6zm8.4 7l-2.8-6.1v4.9c0 .4 0 .7.1.8.1.2.3.2.6.2h.3v.2h-2.5v-.2h.3c.3 0 .5-.1.7-.3.1-.1.1-.4.1-.8V36c0-.3 0-.6-.1-.7 0-.1-.1-.2-.3-.3-.1-.1-.4-.1-.6-.1v-.2h2.1l2.6 5.7 2.6-5.7h2.1v.3h-.3c-.3 0-.5.1-.7.3-.1.1-.1.4-.1.8v4.8c0 .4 0 .7.2.8.1.2.3.2.6.2h.3v.2H327v-.2h.3c.3 0 .5-.1.7-.3.1-.1.1-.4.1-.8V36l-2.8 6.1h-.3zm8.7-.2v.2h-3.1v-.2h.3c.3 0 .5-.1.7-.3.1-.1.1-.4.1-.8v-4.7c0-.4 0-.6-.1-.7 0-.1-.1-.2-.2-.2-.2-.1-.3-.1-.5-.1h-.3v-.2h3.1v.1h-.3c-.3 0-.5.1-.6.3-.1.1-.1.4-.1.8v4.7c0 .4 0 .6.1.7 0 .1.1.2.2.2.2.1.3.1.5.1h.2v.1zm2.5-6.7v2.9h1.6c.4 0 .7-.1.8-.2.2-.2.3-.5.3-.9h.2v2.5h-.2c0-.4-.1-.6-.2-.7l-.3-.3c-.1-.1-.4-.1-.7-.1h-1.6v3c0 .1.1.1.2.2s.2.1.4.1h1.2c.4 0 .7 0 .9-.1.2-.1.4-.2.5-.3.2-.2.4-.6.7-1h.2l-.6 1.8H334v-.2h.3c.2 0 .3 0 .5-.1.1-.1.2-.1.2-.3 0-.2.1-.3.1-.7v-4.7c0-.5 0-.7-.1-.9-.1-.1-.3-.2-.6-.2h-.3v-.2h5.6l.1 1.6h-.2c-.1-.4-.2-.6-.2-.8-.1-.1-.2-.3-.4-.3-.1-.1-.4-.1-.8-.1h-2zM253.9 48.7v2.9h1.6c.4 0 .7-.1.8-.2.2-.2.3-.5.3-.9h.2V53h-.2c0-.4-.1-.6-.2-.7l-.3-.3c-.1-.1-.4-.1-.7-.1h-1.6v3c0 .1.1.1.2.2.1 0 .2.1.4.1h1.2c.4 0 .7 0 .9-.1.2-.1.4-.2.5-.3.2-.2.4-.6.7-1h.2l-.6 1.8h-5.6v-.2h.3c.2 0 .3 0 .5-.1.1-.1.2-.1.2-.3 0-.1.1-.3.1-.7v-4.7c0-.5 0-.7-.1-.9-.1-.1-.3-.2-.6-.2h-.3v-.2h5.6l.1 1.6h-.2c-.1-.4-.2-.6-.2-.8-.1-.1-.2-.3-.4-.3-.1-.1-.4-.1-.8-.1h-2zm10.8-.4l.1 1.7h-.2c0-.3-.1-.5-.2-.6-.1-.2-.3-.4-.4-.5-.2-.1-.4-.1-.7-.1h-1v5.6c0 .4 0 .7.1.8.1.2.3.2.6.2h.3v.2h-3.1v-.2h.3c.3 0 .5-.1.7-.3.1-.1.1-.4.1-.8v-5.6h-.9c-.3 0-.6 0-.7.1-.2.1-.3.2-.5.4-.1.2-.2.5-.2.8h-.2l.1-1.7h5.8zm3.1 7.3v-.2h.3c.3 0 .5-.1.7-.3.1-.1.1-.4.1-.8v-4.7c0-.5-.1-.7-.2-.9-.1-.2-.3-.2-.6-.2h-.3v-.2h3c1.1 0 1.9.1 2.5.4.6.2 1 .7 1.4 1.2.3.6.5 1.2.5 2 0 1-.3 1.9-.9 2.5-.7.8-1.7 1.1-3.2 1.1h-3.3v.1zm2.1-.5c.5.1.8.2 1.1.2.8 0 1.5-.3 2.1-.9.5-.6.8-1.4.8-2.4s-.3-1.8-.8-2.4c-.5-.6-1.3-.9-2.1-.9-.3 0-.7.1-1.1.2v6.2zm7.9-6.4v2.9h1.6c.4 0 .7-.1.8-.2.2-.2.3-.5.3-.9h.2V53h-.2c0-.4-.1-.6-.2-.7l-.3-.3c-.1-.1-.4-.1-.7-.1h-1.6v3c0 .1.1.1.2.2.1 0 .2.1.4.1h1.2c.4 0 .7 0 .9-.1.2-.1.4-.2.5-.3.2-.2.4-.6.7-1h.2l-.6 1.8h-5.6v-.2h.3c.2 0 .3 0 .5-.1.1-.1.2-.1.2-.3 0-.1.1-.3.1-.7v-4.7c0-.5 0-.7-.1-.9-.1-.1-.3-.2-.6-.2h-.3v-.2h5.6l.1 1.6h-.2c-.1-.4-.2-.6-.2-.8-.1-.1-.2-.3-.4-.3-.1-.1-.4-.1-.8-.1h-2zm9.4-.5v2.5h-.2c-.1-.5-.2-.9-.3-1.2-.2-.3-.4-.5-.7-.7-.3-.2-.6-.3-1-.3s-.7.1-.9.3c-.2.2-.4.5-.4.8 0 .2.1.4.2.6.2.3.8.6 1.6 1.1.7.4 1.1.6 1.4.8.2.2.4.4.6.7.1.3.2.5.2.8 0 .6-.2 1-.6 1.4-.4.4-1 .6-1.7.6h-.6c-.1 0-.3-.1-.7-.2-.3-.1-.6-.2-.7-.2-.1 0-.2 0-.2.1-.1.1-.1.2-.1.3h-.1v-2.5h.2c.1.5.2.9.4 1.2.2.3.4.5.7.6.3.2.7.3 1.1.3.4 0 .8-.1 1.1-.4.3-.2.4-.5.4-.8 0-.2 0-.4-.1-.5-.1-.2-.3-.4-.5-.5-.1-.1-.5-.3-1.1-.7-.6-.3-1.1-.6-1.3-.8-.3-.2-.5-.4-.6-.7-.1-.3-.2-.5-.2-.8 0-.5.2-1 .6-1.4.4-.4.9-.6 1.5-.6.4 0 .8.1 1.2.3.2.1.3.1.4.1.1 0 .2 0 .2-.1.1-.1.1-.2.1-.3h.1v.2zm6 .5v2.9h1.3c.3 0 .5-.1.7-.2.1-.1.2-.4.3-.8h.2v2.5h-.2c0-.3 0-.5-.1-.6l-.3-.3c-.1-.1-.3-.1-.6-.1h-1.3v2.3c0 .4 0 .6.1.7 0 .1.1.2.2.2.2.1.3.1.5.1h.3v.2h-3.1v-.2h.3c.3 0 .5-.1.7-.3.1-.1.1-.4.1-.8v-4.7c0-.4 0-.6-.1-.7 0-.1-.1-.2-.2-.2-.2-.1-.3-.1-.5-.1h-.3v-.2h5.4l.1 1.6h-.2c-.1-.3-.2-.6-.3-.7-.1-.2-.3-.3-.5-.3s-.5-.1-.8-.1h-1.7v-.2zm7.2 6.7v.2h-3.1v-.2h.3c.3 0 .5-.1.7-.3.1-.1.1-.4.1-.8v-4.7c0-.4 0-.6-.1-.7 0-.1-.1-.2-.2-.2-.2-.1-.3-.1-.5-.1h-.3v-.2h3.1v.2h-.3c-.3 0-.5.1-.7.3-.1.1-.1.4-.1.8v4.7c0 .4 0 .6.1.7 0 .1.1.2.2.2.2.1.3.1.5.1h.3zm.1-7.1h2l4.5 5.5v-4.2c0-.4-.1-.7-.2-.8-.1-.2-.3-.2-.6-.2h-.3v-.2h2.5v.2h-.3c-.3 0-.5.1-.7.3-.1.1-.1.4-.1.8v6.1h-.2l-4.8-5.9v4.5c0 .4 0 .7.1.8.1.2.3.2.6.2h.3v.2h-2.5v-.2h.3c.3 0 .5-.1.7-.3.1-.1.1-.4.1-.8v-5.1l-.5-.5c-.1-.1-.3-.2-.5-.2h-.5v-.2h.1zm13.1 4.9h-2.8l-.5 1.1c-.1.3-.2.5-.2.6 0 .1.1.2.2.3.1.1.3.1.7.2v.2h-2.3v-.2c.3-.1.5-.1.6-.2.2-.2.4-.5.6-1l2.6-6h.2l2.5 6.1c.2.5.4.8.6.9.2.1.4.2.7.2v.2h-2.9v-.2c.3 0 .5-.1.6-.1.1-.1.2-.2.2-.3 0-.2-.1-.4-.2-.7l-.6-1.1zm-.2-.4l-1.2-2.9-1.3 2.9h2.5zm2.9-4.5h2l4.5 5.5v-4.2c0-.4 0-.7-.2-.8-.1-.2-.3-.2-.6-.2h-.3v-.2h2.5v.2h-.3c-.3 0-.5.1-.7.3-.1.1-.1.4-.1.8v6.1h-.1l-4.8-5.9v4.5c0 .4 0 .7.1.8.1.2.3.2.6.2h.3v.2h-2.5v-.2h.3c.3 0 .5-.1.7-.3.1-.1.1-.4.1-.8v-5.1l-.5-.5c-.1-.1-.3-.2-.5-.2h-.5v-.2zm14.6-.1l.2 2.5h-.2c-.2-.7-.5-1.3-1-1.6-.5-.3-.9-.5-1.5-.5-.5 0-.9.1-1.3.4-.4.3-.7.6-.9 1.2-.2.6-.3 1.2-.3 2 0 .7.1 1.2.3 1.7.2.5.5.9 1 1.1.4.3.9.4 1.5.4.5 0 .9-.1 1.3-.3.4-.2.8-.6 1.2-1.2l.2.1c-.4.6-.8 1.1-1.3 1.4-.5.3-1.1.5-1.7.5-1.2 0-2.1-.4-2.8-1.3-.5-.7-.7-1.5-.7-2.4 0-.7.2-1.4.5-2 .3-.6.8-1.1 1.3-1.4.5-.3 1.2-.5 1.9-.5.5 0 1 .1 1.6.4.2.1.3.1.3.1.1 0 .2 0 .3-.1.1-.1.2-.2.2-.4h-.1v-.1zm3 .5v2.9h1.6c.4 0 .7-.1.8-.2.2-.2.3-.5.3-.9h.2V53h-.2c0-.4-.1-.6-.2-.7l-.3-.3c-.1-.1-.4-.1-.7-.1h-1.6v3c0 .1.1.1.2.2s.2.1.4.1h1.2c.4 0 .7 0 .9-.1.2-.1.4-.2.5-.3.2-.2.4-.6.7-1h.2l-.6 1.8h-5.6v-.2h.3c.2 0 .3 0 .5-.1.1-.1.2-.1.2-.3 0-.2.1-.3.1-.7v-4.7c0-.5 0-.7-.1-.9-.1-.1-.3-.2-.6-.2h-.3v-.2h5.6l.1 1.6h-.2c-.1-.4-.2-.6-.2-.8-.1-.1-.2-.3-.4-.3-.1-.1-.4-.1-.8-.1h-2zm9.4-.5v2.5h-.2c-.1-.5-.2-.9-.3-1.2-.2-.3-.4-.5-.7-.7-.3-.2-.6-.3-1-.3s-.7.1-.9.3c-.2.2-.4.5-.4.8 0 .2.1.4.2.6.2.3.8.6 1.6 1.1.7.4 1.1.6 1.4.8.3.2.4.4.6.7.1.3.2.5.2.8 0 .6-.2 1-.6 1.4-.4.4-1 .6-1.7.6h-.6c-.1 0-.3-.1-.7-.2-.3-.1-.6-.2-.7-.2-.1 0-.2 0-.2.1-.1.1-.1.2-.1.3h-.2v-2.5h.2c.1.5.2.9.4 1.2.2.3.4.5.7.6.3.1.7.3 1.1.3.4 0 .8-.1 1.1-.4.3-.3.4-.5.4-.8 0-.2 0-.4-.1-.5-.1-.1-.3-.4-.5-.5-.1-.1-.5-.3-1.1-.7-.6-.3-1.1-.6-1.3-.8-.3-.2-.5-.4-.6-.7-.1-.3-.2-.5-.2-.8 0-.5.2-1 .6-1.4.4-.4.9-.6 1.5-.6.4 0 .8.1 1.2.3.2.1.3.1.4.1.1 0 .2 0 .2-.1.1-.1.1-.2.1-.3h.2v.2z"/>
    </g>
    <path fill="#fff" stroke="#1a171b" d="M119.5-.3h119v79h-119z"/>
    <g fill="#1a171b">
        <path d="M154.8 24.1L152 18v4.9c0 .4 0 .7.1.8.1.2.3.2.6.2h.3v.2h-2.5v-.2h.3c.3 0 .5-.1.7-.3.1-.1.1-.4.1-.8V18c0-.3 0-.6-.1-.7 0-.1-.1-.2-.3-.3-.1-.1-.3-.1-.6-.1v-.2h2.1l2.6 5.7 2.6-5.7h2.1v.2h-.3c-.3 0-.5.1-.7.3-.1.1-.1.4-.1.8v4.8c0 .4 0 .7.2.8.1.2.3.2.6.2h.3v.2h-3.1v-.2h.3c.3 0 .5-.1.7-.3.1-.1.1-.4.1-.8V18l-2.8 6.1h-.4zm8.6-.2v.2h-3.1v-.2h.3c.3 0 .5-.1.7-.3.1-.1.1-.4.1-.8v-4.7c0-.4 0-.6-.1-.7 0-.1-.1-.2-.2-.2-.2-.1-.3-.1-.5-.1h-.3v-.2h3.1v.2h-.3c-.3 0-.5.1-.7.3-.1.1-.1.4-.1.8v4.7c0 .4 0 .6.1.7 0 .1.1.2.2.2.2.1.3.1.5.1h.3zm.1-7h2l4.5 5.5v-4.2c0-.4 0-.7-.2-.8-.1-.2-.3-.2-.6-.2h-.3V17h2.5v.2h-.3c-.3 0-.5.1-.7.3-.1.1-.1.4-.1.8v6.1h-.2l-4.8-5.9V23c0 .4 0 .7.1.8.1.2.3.2.6.2h.3v.2h-2.5V24h.3c.3 0 .5-.1.7-.3.1-.1.1-.4.1-.8v-5.1l-.5-.5c-.1-.1-.3-.2-.5-.2h-.5v-.2h.1zm11.4 7v.2h-3.1v-.2h.3c.3 0 .5-.1.7-.3.1-.1.1-.4.1-.8v-4.7c0-.4 0-.6-.1-.7 0-.1-.1-.2-.2-.2-.2-.1-.3-.1-.5-.1h-.3v-.2h3.1v.2h-.3c-.3 0-.5.1-.6.3-.1.1-.1.4-.1.8v4.7c0 .4 0 .6.1.7 0 .1.1.2.2.2.2.1.3.1.5.1h.2zm5.3-7.2v2.5h-.2c-.1-.5-.2-.9-.3-1.2-.2-.3-.4-.5-.7-.7-.3-.2-.6-.3-1-.3s-.7.1-.9.3c-.2.2-.4.5-.4.8 0 .2.1.4.2.6.2.3.8.6 1.6 1.1.7.4 1.1.6 1.4.8.3.2.4.4.6.7.1.3.2.5.2.8 0 .6-.2 1-.6 1.4-.4.4-1 .6-1.7.6h-.6c-.1 0-.3-.1-.7-.2-.3-.1-.6-.2-.7-.2-.1 0-.2 0-.2.1-.1.1-.1.2-.1.3h-.2v-2.5h.2c.1.5.2.9.4 1.2.2.3.4.5.7.6.3.1.7.3 1.1.3.4 0 .8-.1 1.1-.4.3-.3.4-.5.4-.8 0-.2 0-.4-.1-.5-.1-.2-.3-.4-.5-.5-.1-.1-.5-.3-1.1-.7-.6-.3-1.1-.6-1.3-.8-.3-.2-.5-.4-.6-.7-.1-.3-.2-.5-.2-.8 0-.5.2-1 .6-1.4.4-.4.9-.6 1.5-.6.4 0 .8.1 1.2.3.2.1.3.1.4.1.1 0 .2 0 .2-.1.1-.1.1-.2.1-.3h.2v.2zm7.3.2l.1 1.7h-.2c0-.3-.1-.5-.2-.6-.1-.2-.3-.4-.4-.5-.1-.1-.4-.1-.7-.1h-1V23c0 .4 0 .7.1.8.1.2.3.2.6.2h.3v.2H183V24h.3c.3 0 .5-.1.7-.3.1-.1.1-.4.1-.8v-5.6h-.9c-.3 0-.6 0-.7.1-.2.1-.3.2-.5.4s-.2.5-.2.8h-.2l.1-1.7h5.8zm2.7.3v2.9h1.6c.4 0 .7-.1.8-.2.2-.2.3-.5.3-.9h.2v2.5h-.2c0-.4-.1-.6-.2-.7l-.3-.3c-.1-.1-.4-.1-.7-.1h-1.6v3c0 .1.1.1.2.2s.2.1.4.1h1.2c.4 0 .7 0 .9-.1.2-.1.4-.2.5-.3.2-.2.4-.6.7-1h.2l-.6 1.8H188v-.2h.3c.2 0 .3 0 .5-.1.1-.1.2-.1.2-.3 0-.2.1-.3.1-.7v-4.7c0-.5 0-.7-.1-.9-.1-.1-.3-.2-.6-.2h-.3v-.2h5.6l.1 1.6h-.2c-.1-.4-.2-.6-.2-.8-.1-.1-.2-.3-.4-.3-.1-.1-.4-.1-.8-.1h-2zm-.2-2.7h1.2l.6 1.9h-.2l-1.6-1.9zm12 9.6h-2l-2.5-3.4h-.8v2.1c0 .5 0 .7.2.9.1.2.3.2.6.2h.3v.2h-3.1v-.2h.3c.3 0 .5-.1.7-.3.1-.1.1-.4.1-.8v-4.7c0-.5 0-.7-.2-.9-.1-.2-.3-.2-.6-.2h-.3v-.2h2.7c.8 0 1.3.1 1.7.2.4.1.7.3.9.6.2.3.4.7.4 1.1 0 .4-.1.8-.4 1.2-.3.4-.7.6-1.4.7l1.5 2.1c.3.5.6.8.9 1 .2.2.6.3 1 .3v.1zm-5.2-3.7h.3c.7 0 1.2-.2 1.6-.5.4-.3.5-.7.5-1.1 0-.5-.1-.8-.4-1.1-.3-.3-.7-.4-1.1-.4-.2 0-.5 0-.8.1v3h-.1z"/>
        <path d="M204.1 17.2v2.9h1.6c.4 0 .7-.1.8-.2.2-.2.3-.5.3-.9h.2v2.5h-.2c0-.4-.1-.6-.2-.7l-.3-.3c-.1-.1-.4-.1-.7-.1H204v3c0 .1.1.1.2.2s.2.1.4.1h1.2c.4 0 .7 0 .9-.1.2-.1.4-.2.5-.3.2-.2.4-.6.7-1h.2l-.6 1.8h-5.6v-.2h.3c.2 0 .3 0 .5-.1.1-.1.2-.1.2-.3 0-.2.1-.3.1-.7v-4.7c0-.5 0-.7-.1-.9-.1-.1-.3-.2-.6-.2h-.3v-.2h5.6l.1 1.6h-.2c-.1-.4-.2-.6-.2-.8-.1-.1-.2-.3-.4-.3-.1-.1-.4-.1-.8-.1h-2zM130 36.7v-.2h.3c.3 0 .5-.1.7-.3.1-.1.1-.4.1-.8v-4.7c0-.5-.1-.7-.2-.9-.1-.2-.3-.2-.6-.2h-.3v-.2h3c1.1 0 1.9.1 2.5.4.6.2 1 .7 1.4 1.2.3.6.5 1.2.5 2 0 1-.3 1.9-.9 2.5-.7.8-1.7 1.1-3.2 1.1H130v.1zm2.1-.5c.5.1.8.2 1.1.2.8 0 1.5-.3 2.1-.9.5-.6.8-1.4.8-2.4s-.3-1.8-.8-2.4c-.5-.6-1.3-.9-2.1-.9-.3 0-.7.1-1.1.2v6.2zm7.9-6.4v2.9h1.6c.4 0 .7-.1.8-.2.2-.2.3-.5.3-.9h.2v2.5h-.2c0-.4-.1-.6-.2-.7l-.3-.3c-.1-.1-.4-.1-.7-.1H140v3c0 .1.1.1.2.2.1 0 .2.1.4.1h1.2c.4 0 .7 0 .9-.1.2-.1.4-.2.5-.3.2-.2.4-.6.7-1h.2l-.6 1.8h-5.6v-.2h.3c.2 0 .3 0 .5-.1.1-.1.2-.1.2-.3 0-.1.1-.3.1-.7v-4.7c0-.5 0-.7-.1-.9-.1-.1-.3-.2-.6-.2h-.3v-.2h5.6l.1 1.6h-.2c-.1-.4-.2-.6-.2-.8-.1-.1-.2-.3-.4-.3-.1-.1-.4-.1-.8-.1H140zm13.4 4.9h.2l-.6 2h-5.6v-.2h.3c.3 0 .5-.1.7-.3.1-.1.1-.4.1-.8v-4.7c0-.5 0-.7-.2-.9-.1-.2-.3-.2-.6-.2h-.3v-.2h3.3v.2c-.4 0-.7 0-.8.1-.2.1-.3.2-.3.3 0 .1-.1.4-.1.8v4.6c0 .3 0 .5.1.6 0 .1.1.1.2.2.1 0 .4.1.8.1h.5c.6 0 1 0 1.2-.1.2-.1.4-.2.6-.4.1-.3.3-.6.5-1.1zm5.4-.4H156l-.5 1.1c-.1.3-.2.5-.2.6 0 .1.1.2.2.3.1.1.3.1.7.2v.2h-2.3v-.2c.3-.1.5-.1.6-.2.2-.2.4-.5.6-1l2.6-6h.2l2.5 6.1c.2.5.4.8.6.9.2.1.4.2.7.2v.2h-2.9v-.2c.3 0 .5-.1.6-.1.1 0 .2-.2.2-.3 0-.2-.1-.4-.2-.7l-.6-1.1zm-.2-.4l-1.2-2.9-1.3 2.9h2.5zm11.3-4.5l.1 1.7h-.2c0-.3-.1-.5-.2-.6-.1-.2-.3-.4-.4-.5-.2-.1-.4-.1-.7-.1h-1v5.6c0 .4 0 .7.1.8.1.2.3.2.6.2h.3v.2h-3.1v-.2h.3c.3 0 .5-.1.7-.3.1-.1.1-.4.1-.8v-5.6h-.9c-.3 0-.6 0-.7.1-.2.1-.3.2-.5.4-.1.2-.2.5-.2.8h-.2l.1-1.7h5.8zm7.8 7.3h-1.9l-2.5-3.4h-.8v2.1c0 .5.1.7.2.9.1.2.3.2.6.2h.3v.2h-3.1v-.2h.3c.3 0 .5-.1.7-.3.1-.1.1-.4.1-.8v-4.7c0-.5-.1-.7-.2-.9-.1-.2-.3-.2-.6-.2h-.3v-.2h2.7c.8 0 1.3.1 1.7.2.4.1.7.3.9.6.3.3.4.7.4 1.1 0 .4-.1.8-.4 1.2-.3.3-.7.6-1.4.7l1.5 2.1c.3.5.6.8.9 1 .2.2.6.3 1 .3v.1h-.1zm-5.2-3.7h.3c.7 0 1.2-.2 1.6-.5.4-.3.5-.7.5-1.1 0-.5-.1-.8-.4-1.1-.3-.3-.7-.4-1.1-.4-.2 0-.5 0-.8.1v3h-.1z"/>
        <path d="M182.5 34.3h-2.8l-.5 1.1c-.1.3-.2.5-.2.6 0 .1.1.2.2.3.1.1.3.1.7.2v.2h-2.3v-.2c.3-.1.5-.1.6-.2.2-.2.4-.5.6-1l2.6-6h.2l2.5 6.1c.2.5.4.8.6.9.2.1.4.2.7.2v.2h-2.9v-.2c.3 0 .5-.1.6-.1.1-.1.2-.2.2-.3 0-.2-.1-.4-.2-.7l-.6-1.1zm-.1-.4l-1.2-2.9-1.3 2.9h2.5zm2.9-4.5h2l4.5 5.5v-4.2c0-.4 0-.7-.2-.8-.1-.2-.3-.2-.6-.2h-.3v-.2h2.5v.2h-.3c-.3 0-.5.1-.7.3-.1.1-.1.4-.1.8v6.1h-.1l-4.8-5.9v4.5c0 .4 0 .7.1.8.1.2.3.2.6.2h.3v.2h-2.5v-.2h.3c.3 0 .5-.1.7-.3.1-.1.1-.4.1-.8v-5.1l-.5-.5c-.1-.1-.3-.2-.5-.2h-.5v-.2zm13-.1v2.5h-.2c-.1-.5-.2-.9-.3-1.2-.2-.3-.4-.5-.7-.7-.3-.2-.6-.3-1-.3s-.7.1-.9.3c-.2.2-.4.5-.4.8 0 .2.1.4.2.6.2.3.8.6 1.6 1.1.7.4 1.1.6 1.4.8.3.2.4.4.6.7.1.3.2.5.2.8 0 .6-.2 1-.6 1.4-.4.4-1 .6-1.7.6h-.6c-.1 0-.3-.1-.7-.2-.3-.1-.6-.2-.7-.2-.1 0-.2 0-.2.1-.1.1-.1.2-.1.3h-.2v-2.5h.2c.1.5.2.9.4 1.2.2.3.4.5.7.6.3.1.7.3 1.1.3.4 0 .8-.1 1.1-.4.3-.3.4-.5.4-.8 0-.2 0-.4-.1-.5-.1-.1-.3-.4-.5-.5-.1-.1-.5-.3-1.1-.7-.6-.3-1.1-.6-1.3-.8-.3-.2-.5-.4-.6-.7-.1-.3-.2-.5-.2-.8 0-.5.2-1 .6-1.4.4-.4.9-.6 1.5-.6.4 0 .8.1 1.2.3.2.1.3.1.4.1.1 0 .2 0 .2-.1.1-.1.1-.2.1-.3h.2v.2zm4.4 7.2v.2h-3.1v-.2h.3c.3 0 .5-.1.7-.3.1-.1.1-.4.1-.8v-4.7c0-.4 0-.6-.1-.7 0-.1-.1-.2-.2-.2-.2-.1-.3-.1-.5-.1h-.3v-.2h3.1v.2h-.3c-.3 0-.5.1-.6.3-.1.1-.1.4-.1.8v4.7c0 .4 0 .6.1.7 0 .1.1.2.2.2.2.1.3.1.5.1h.2zm6.6-7.1l.1 1.7h-.2c0-.3-.1-.5-.2-.6-.1-.2-.3-.4-.4-.5-.1-.1-.4-.1-.7-.1h-1v5.6c0 .4 0 .7.1.8.1.2.3.2.6.2h.3v.2h-3.1v-.2h.3c.3 0 .5-.1.7-.3.1-.1.1-.4.1-.8v-5.6h-.9c-.3 0-.6 0-.7.1-.2.1-.3.2-.5.4s-.2.5-.2.8h-.2l.1-1.7h5.8zm3.7 7.1v.2h-3.1v-.2h.3c.3 0 .5-.1.7-.3.1-.1.1-.4.1-.8v-4.7c0-.4 0-.6-.1-.7 0-.1-.1-.2-.2-.2-.2-.1-.3-.1-.5-.1h-.3v-.2h3.1v.2h-.3c-.3 0-.5.1-.6.3-.1.1-.1.4-.1.8v4.7c0 .4 0 .6.1.7 0 .1.1.2.2.2.2.1.3.1.5.1h.2zm4.3-7.2c.9 0 1.8.4 2.5 1.1.7.7 1 1.6 1 2.7s-.3 2-1 2.8c-.7.7-1.5 1.1-2.5 1.1s-1.8-.4-2.5-1.1c-.7-.7-1-1.6-1-2.8 0-1.2.4-2.1 1.2-2.8.5-.7 1.3-1 2.3-1zm-.1.4c-.7 0-1.2.2-1.6.7-.5.6-.7 1.5-.7 2.6 0 1.2.3 2.1.8 2.7.4.5.9.7 1.5.7.7 0 1.2-.3 1.7-.8.4-.5.7-1.4.7-2.5 0-1.2-.2-2.2-.7-2.8-.5-.4-1-.6-1.7-.6zm3.8-.3h2l4.5 5.5v-4.2c0-.4 0-.7-.2-.8-.1-.2-.3-.2-.6-.2h-.3v-.2h2.5v.2h-.3c-.3 0-.5.1-.7.3-.1.1-.1.4-.1.8v6.1h-.2l-4.8-5.9v4.5c0 .4 0 .7.1.8.1.2.3.2.6.2h.3v.2h-2.5v-.2h.3c.3 0 .5-.1.7-.3.1-.1.1-.4.1-.8v-5.1l-.5-.5c-.1-.1-.3-.2-.5-.2h-.5v-.2h.1zM146.5 42.4v2.9h1.6c.4 0 .7-.1.8-.2.2-.2.3-.5.3-.9h.2v2.5h-.2c-.1-.4-.1-.6-.2-.7l-.3-.3c-.1-.1-.4-.1-.7-.1h-1.6v3c0 .1.1.1.2.2s.2.1.4.1h1.2c.4 0 .7 0 .9-.1.2-.1.4-.2.5-.3.2-.2.4-.6.7-1h.2l-.6 1.8h-5.6v-.2h.3c.2 0 .3 0 .5-.1.1-.1.2-.1.2-.3 0-.2.1-.3.1-.7v-4.7c0-.5 0-.7-.1-.9-.1-.1-.3-.2-.6-.2h-.3V42h5.6l.1 1.6h-.2c-.1-.4-.2-.6-.3-.8-.1-.1-.2-.3-.4-.3-.1-.1-.4-.1-.8-.1h-1.9zm2.3-2.7l-1.6 1.9h-.2l.6-1.9h1.2zm8.7 2.2l.2 2.5h-.2c-.2-.7-.5-1.3-1-1.6-.4-.3-.9-.5-1.5-.5-.5 0-.9.1-1.3.4-.4.2-.7.6-.9 1.2-.2.5-.3 1.2-.3 2 0 .7.1 1.2.3 1.7.2.5.5.9 1 1.1.5.2.9.4 1.5.4.5 0 .9-.1 1.3-.3.4-.2.8-.6 1.2-1.2l.2.1c-.4.6-.8 1.1-1.3 1.4-.5.3-1.1.5-1.7.5-1.2 0-2.1-.4-2.8-1.3-.5-.7-.7-1.5-.7-2.4 0-.7.2-1.4.5-2 .3-.6.8-1.1 1.3-1.4.6-.3 1.2-.5 1.9-.5.5 0 1 .1 1.6.4.2.1.3.1.3.1.1 0 .2 0 .3-.1.1-.1.2-.2.2-.4h-.1v-.1zm4.7 0c.9 0 1.8.4 2.5 1.1.7.7 1 1.6 1 2.7s-.3 2-1 2.8c-.7.8-1.5 1.1-2.5 1.1s-1.8-.4-2.5-1.1c-.7-.7-1-1.6-1-2.8 0-1.2.4-2.1 1.2-2.8.5-.7 1.3-1 2.3-1zm-.1.4c-.7 0-1.2.2-1.6.7-.5.6-.7 1.5-.7 2.6 0 1.2.3 2.1.8 2.7.4.5.9.7 1.5.7.7 0 1.2-.3 1.7-.8.4-.5.7-1.4.7-2.5 0-1.2-.2-2.2-.7-2.8-.5-.4-1-.6-1.7-.6zm10.3 5h.2l-.6 2h-5.6v-.2h.3c.3 0 .5-.1.7-.3.1-.1.1-.4.1-.8v-4.7c0-.5 0-.7-.2-.9-.1-.2-.3-.2-.6-.2h-.3V42h3.3v.2c-.4 0-.7 0-.8.1-.2.1-.3.2-.3.3-.1.1-.1.4-.1.8V48c0 .3 0 .5.1.6 0 .1.1.1.2.2s.4.1.8.1h.5c.6 0 1 0 1.2-.1.2-.1.4-.2.6-.4.1-.3.3-.6.5-1.1zm4.4-5.4c.9 0 1.8.4 2.5 1.1.7.7 1 1.6 1 2.7s-.3 2-1 2.8c-.7.8-1.5 1.1-2.5 1.1s-1.8-.4-2.5-1.1c-.7-.7-1-1.6-1-2.8 0-1.2.4-2.1 1.2-2.8.5-.7 1.3-1 2.3-1zm-.1.4c-.7 0-1.2.2-1.6.7-.5.6-.7 1.5-.7 2.6 0 1.2.3 2.1.8 2.7.4.5.9.7 1.5.7.7 0 1.2-.3 1.7-.8.4-.5.7-1.4.7-2.5 0-1.2-.2-2.2-.7-2.8-.5-.4-1-.6-1.7-.6zm10.7-.4l.2 2.3h-.2c-.2-.6-.4-1-.7-1.3-.4-.4-1-.6-1.7-.6-.9 0-1.6.4-2.1 1.1-.4.6-.6 1.4-.6 2.2 0 .7.1 1.3.4 1.9.3.6.6 1 1.1 1.3.4.3.9.4 1.3.4.3 0 .5 0 .8-.1.3-.1.5-.2.7-.3v-2.1c0-.4 0-.6-.1-.7-.1-.1-.1-.2-.3-.3-.1-.1-.3-.1-.6-.1v-.2h2.8v.2h-.1c-.3 0-.5.1-.6.3-.1.1-.1.4-.1.8v2.2c-.4.2-.8.4-1.2.5-.4.1-.8.2-1.3.2-1.4 0-2.5-.5-3.2-1.4-.5-.7-.8-1.5-.8-2.3 0-.6.2-1.3.5-1.8.4-.7.9-1.2 1.5-1.6.5-.3 1.2-.5 1.9-.5.3 0 .5 0 .7.1.2.1.5.1.9.3.2.1.3.1.4.1.1 0 .1 0 .2-.1 0-.1.1-.2.1-.4h.1v-.1zm4.5 7.2v.2h-3.1v-.2h.3c.3 0 .5-.1.7-.3.1-.1.1-.4.1-.8v-4.7c0-.4 0-.6-.1-.7 0-.1-.1-.2-.2-.2-.2-.1-.3-.1-.5-.1h-.3V42h3.1v.2h-.3c-.3 0-.5.1-.6.3-.1.1-.1.4-.1.8V48c0 .4 0 .6.1.7 0 .1.1.2.2.2.2.1.3.1.5.1h.2v.1zm5.1.3c.4.6.8 1.1 1.2 1.4.4.3.9.5 1.4.5v.2c-.5 0-1-.1-1.6-.3-.6-.2-1.1-.4-1.6-.8s-.9-.7-1.3-1c-.5-.2-.9-.4-1.2-.7-.4-.3-.8-.8-1-1.3-.2-.5-.4-1.1-.4-1.8 0-1.1.4-2 1.1-2.7.7-.7 1.6-1.1 2.6-1.1s1.8.4 2.5 1.1c.7.7 1 1.6 1 2.7 0 .9-.2 1.7-.7 2.3-.5.6-1.2 1.3-2 1.5zm-.9-7.1c-.7 0-1.2.2-1.6.7-.5.6-.8 1.5-.8 2.7 0 1.2.3 2.1.8 2.7.4.5.9.7 1.6.7.7 0 1.2-.2 1.6-.7.5-.6.7-1.4.7-2.6 0-.9-.1-1.6-.4-2.2-.2-.5-.5-.8-.8-1-.3-.2-.7-.3-1.1-.3zm9.2-.1V42h2.6v.2h-.3c-.3 0-.5.1-.7.4-.1.1-.1.4-.1.8v3c0 .7-.1 1.3-.2 1.7-.1.4-.4.7-.9 1-.4.3-1 .4-1.7.4-.8 0-1.4-.1-1.8-.4-.4-.3-.7-.6-.9-1.1-.1-.3-.2-.9-.2-1.8v-2.8c0-.4-.1-.7-.2-.9-.1-.1-.3-.2-.6-.2h-.3V42h3.1v.2h-.3c-.3 0-.5.1-.6.3-.1.1-.1.4-.1.8v3.2c0 .3 0 .6.1 1s.1.7.3.9c.1.2.3.4.6.5.3.1.6.2.9.2.5 0 .9-.1 1.3-.3.4-.2.6-.5.8-.8.2-.3.2-.9.2-1.6v-2.9c0-.5 0-.7-.2-.9-.1-.2-.3-.2-.6-.2h-.2v-.2zm4.9.2v2.9h1.6c.4 0 .7-.1.8-.2.2-.2.3-.5.3-.9h.2v2.5h-.2c0-.4-.1-.6-.2-.7l-.3-.3c-.1-.1-.4-.1-.7-.1h-1.6v3c0 .1.1.1.2.2s.2.1.4.1h1.2c.4 0 .7 0 .9-.1.2-.1.4-.2.5-.3.2-.2.4-.6.7-1h.2l-.6 1.8H208v-.2h.3c.2 0 .3 0 .5-.1.1-.1.2-.1.2-.3 0-.2.1-.3.1-.7v-4.7c0-.5 0-.7-.1-.9-.1-.1-.3-.2-.6-.2h-.3V42h5.6l.1 1.6h-.2c-.1-.4-.2-.6-.2-.8-.1-.1-.2-.3-.4-.3-.1-.1-.4-.1-.8-.1h-2z"/>
        <g>
            <path d="M145 55v2.9h1.6c.4 0 .7-.1.8-.2.2-.2.3-.5.3-.9h.2v2.5h-.2c-.1-.4-.1-.6-.2-.7l-.3-.3c-.1-.1-.4-.1-.7-.1H145v3c0 .1.1.1.2.2.1 0 .2.1.4.1h1.2c.4 0 .7 0 .9-.1.2-.1.4-.2.5-.3.2-.2.4-.6.7-1h.2l-.6 1.8h-5.6v-.2h.3c.2 0 .3 0 .5-.1.1-.1.2-.1.2-.3 0-.2.1-.3.1-.7v-4.7c0-.5 0-.7-.1-.9-.1-.1-.3-.2-.6-.2h-.3v-.2h5.6l.1 1.6h-.2c-.1-.4-.2-.6-.3-.8-.1-.2-.2-.3-.4-.3-.1-.1-.4-.1-.8-.1h-2zm10.7-.4l.1 1.7h-.2c0-.3-.1-.5-.2-.6-.1-.2-.3-.4-.4-.5-.1-.1-.4-.1-.7-.1h-1v5.6c0 .4 0 .7.1.8.1.2.3.2.6.2h.3v.2h-3.1v-.2h.3c.3 0 .5-.1.7-.3.1-.1.1-.4.1-.8V55h-.9c-.3 0-.6 0-.7.1-.2.1-.3.2-.5.4s-.2.5-.2.8h-.2l.1-1.7h5.8zm7.9-.1V57h-.2c-.1-.5-.2-.9-.3-1.2-.2-.3-.4-.5-.7-.7-.3-.2-.6-.3-1-.3s-.7.1-.9.3c-.2.2-.4.5-.4.8 0 .2.1.4.2.6.2.3.8.6 1.6 1.1.7.4 1.1.6 1.4.8.3.2.4.4.6.7.1.3.2.5.2.8 0 .6-.2 1-.6 1.4-.4.4-1 .6-1.7.6h-.6c-.1 0-.3-.1-.7-.2-.3-.1-.6-.2-.7-.2-.1 0-.2 0-.2.1-.1.1-.1.2-.1.3h-.2v-2.5h.2c.1.5.2.9.4 1.2.2.3.4.5.7.6.3.1.7.3 1.1.3.4 0 .8-.1 1.1-.4.3-.3.4-.5.4-.8 0-.2 0-.4-.1-.5-.1-.1-.3-.4-.5-.5-.1-.1-.5-.3-1.1-.7-.6-.3-1.1-.6-1.3-.8-.3-.2-.5-.4-.6-.7-.1-.3-.2-.5-.2-.8 0-.5.2-1 .6-1.4.4-.4.9-.6 1.5-.6.4 0 .8.1 1.2.3.2.1.3.1.4.1.1 0 .2 0 .2-.1.1-.1.1-.2.1-.3h.2v.2zm5 0c.9 0 1.8.4 2.5 1.1.7.7 1 1.6 1 2.7s-.3 2-1 2.8c-.7.7-1.5 1.1-2.5 1.1s-1.8-.4-2.5-1.1c-.7-.7-1-1.6-1-2.8 0-1.2.4-2.1 1.2-2.8.5-.7 1.3-1 2.3-1zm-.1.4c-.7 0-1.2.2-1.6.7-.5.6-.7 1.5-.7 2.6 0 1.2.3 2.1.8 2.7.4.5.9.7 1.5.7.7 0 1.2-.3 1.7-.8.4-.5.7-1.4.7-2.5 0-1.2-.2-2.2-.7-2.8-.5-.4-1-.6-1.7-.6zm10.3 5h.2l-.6 2h-5.6v-.2h.3c.3 0 .5-.1.7-.3.1-.1.1-.4.1-.8v-4.7c0-.5 0-.7-.2-.9-.1-.2-.3-.2-.6-.2h-.3v-.2h3.3v.2c-.4 0-.7 0-.8.1-.2.1-.3.2-.3.3-.1.1-.1.4-.1.8v4.6c0 .3 0 .5.1.6 0 .1.1.1.2.2s.4.1.8.1h.5c.6 0 1 0 1.2-.1.2-.1.4-.2.6-.4.1-.3.3-.6.5-1.1zm3.7 1.8v.2h-3.1v-.2h.3c.3 0 .5-.1.7-.3.1-.1.1-.4.1-.8v-4.7c0-.4 0-.6-.1-.7 0-.1-.1-.2-.2-.2-.2-.1-.3-.1-.5-.1h-.3v-.2h3.1v.2h-.3c-.3 0-.5.1-.6.3-.1.1-.1.4-.1.8v4.7c0 .4 0 .6.1.7 0 .1.1.2.2.2.2.1.3.1.5.1h.2zm.4.2v-.2h.3c.3 0 .5-.1.7-.3.1-.1.1-.4.1-.8v-4.7c0-.5 0-.7-.2-.9-.1-.2-.3-.2-.6-.2h-.3v-.2h3c1.1 0 1.9.1 2.5.4.6.2 1 .7 1.4 1.2.3.6.5 1.2.5 2 0 1-.3 1.9-.9 2.5-.7.8-1.7 1.1-3.2 1.1h-3.3v.1zm2.1-.5c.5.1.8.2 1.1.2.8 0 1.5-.3 2.1-.9.5-.6.8-1.4.8-2.4s-.3-1.8-.8-2.4c-.5-.6-1.2-.9-2.1-.9-.3 0-.7.1-1.1.2v6.2zm10.7-1.9h-2.8l-.5 1.1c-.1.3-.2.5-.2.6 0 .1.1.2.2.3.1.1.3.1.7.2v.2h-2.3v-.2c.3-.1.5-.1.6-.2.2-.2.4-.5.6-1l2.6-6h.2l2.5 6.1c.2.5.4.8.6.9.2.1.4.2.7.2v.2h-2.9v-.2c.3 0 .5-.1.6-.1.1-.1.2-.2.2-.3 0-.2-.1-.4-.2-.7l-.6-1.1zm-.2-.4l-1.2-2.9-1.3 2.9h2.5zm6.4 2.6v.2h-3.1v-.2h.3c.3 0 .5-.1.7-.3.1-.1.1-.4.1-.8v-4.7c0-.4 0-.6-.1-.7 0-.1-.1-.2-.2-.2-.2-.1-.3-.1-.5-.1h-.3v-.2h3.1v.2h-.3c-.3 0-.5.1-.6.3-.1.1-.1.4-.1.8v4.7c0 .4 0 .6.1.7 0 .1.1.2.2.2.2.1.3.1.5.1h.2zm7.7.2h-1.9l-2.5-3.4h-.8v2.1c0 .5 0 .7.2.9.1.2.3.2.6.2h.3v.2h-3.1v-.2h.3c.3 0 .5-.1.7-.3.1-.1.1-.4.1-.8v-4.7c0-.5 0-.7-.2-.9-.1-.2-.3-.2-.6-.2h-.3v-.2h2.7c.8 0 1.3.1 1.7.2.4.1.7.3.9.6.2.3.4.7.4 1.1 0 .4-.1.8-.4 1.2-.3.4-.7.6-1.4.7l1.5 2.1c.3.5.6.8.9 1 .2.2.6.3 1 .3v.1h-.1zm-5.2-3.7h.3c.7 0 1.2-.2 1.6-.5.4-.3.5-.7.5-1.1 0-.5-.1-.8-.4-1.1-.3-.3-.7-.4-1.1-.4-.2 0-.5 0-.8.1v3h-.1z"/>
            <path d="M211.7 55v2.9h1.6c.4 0 .7-.1.8-.2.2-.2.3-.5.3-.9h.2v2.5h-.2c0-.4-.1-.6-.2-.7l-.3-.3c-.1-.1-.4-.1-.7-.1h-1.6v3c0 .1.1.1.2.2s.2.1.4.1h1.2c.4 0 .7 0 .9-.1.2-.1.4-.2.5-.3.2-.2.4-.6.7-1h.2l-.6 1.8h-5.6v-.2h.3c.2 0 .3 0 .5-.1.1-.1.2-.1.2-.3 0-.2.1-.3.1-.7v-4.7c0-.5 0-.7-.1-.9-.1-.1-.3-.2-.6-.2h-.3v-.2h5.6l.1 1.6h-.2c-.1-.4-.2-.6-.2-.8-.1-.1-.2-.3-.4-.3-.1-.1-.4-.1-.8-.1h-2z"/>
        </g>
    </g>
    <path fill="#fff" stroke="#1a171b" d="M0-.3h119.5v79H0z"/>
    <path fill="#fff" d="M17.4 14.2h85v28.5h-85z"/>
    <path d="M17.2 42.9c.1-7.1 0-14.1.2-21.2.1-2.5-.1-5.1-.1-7.6 1.8-.3 3.5-.1 5.3-.1h33.6c-.8.4-1.7.7-2.3 1.4-.5.6-1 1.3-1.2 2.1-.8.5-1.4 1.3-1.8 2.1-.6 1.1-1.4 2.1-1.3 3.3.1 1 .4 2 .6 3.1.1.4.1.7.3 1.1.1.4 0 .8.2 1.2.1.2.1.5.3.6v.3c.1.1.1.1.2.1v.3c.5.6 1.2 1.2 1.5 1.9.1.4-.6.2-1 .1-.7-.3-1-.8-1.6-1.3l-.1.1c.3.5 1.2 1 .7 1.4-.3.1-.6-.2-.8.1-.1.1 0 .3 0 .4-.4-.3-.8-.1-1.2-.3-.3-.1-.3-.6-.6-.6-.8-.2-1.6-.4-2.5-.5-1.2-.1-2.3-.3-3.4-.1-1 .1-1.8.8-2.5 1.6v.2c.5.1.6-.3 1-.5.6-.1 1.2-.4 1.9-.5 1-.2 1.9-.5 2.8-.4.2 0 .5-.1.6 0-1.2-.1-2.2.3-3.3.6-.8.2-1.6.3-2.3.7 1.7-.1 3.4.2 5 .7.6.2 1.1.5 1.6.8.3.2.4.4.6.5.3.2.8.2 1.1.1h.3c1-.3 2-.5 2.7-1.2 0 .1.1.1.1.1-.2.5-.2 1.1-.6 1.6 0 .1-.1.2.1.3h.1c-.1 0-.1 0-.1.1s.2 0 .3.1c-.3.1-.7.1-.8.4 0 .1.1.1.2.1-.1.1-.3.1-.4.2l.1.1c-.1 0-.1 0-.1.1v.2c-.2 0-.3.1-.4.2.3.2.5 0 .7 0-.7.3-1.3.6-2 .8-.1 0 0 .2-.1.2.2.1.3-.1.5-.1-.9.5-1.8 1-2.8 1.6 0 0-.1.1-.1.3h-.3c-.1.1-.1.3-.2.4.3.2.7-.3.9 0 .1 0-.1.1-.3.1-.1 0-.1.1-.1.1h-.2c-.1.1-.3.2-.3.4-.1 0-.3 0-.3.1 1.4-.2 2.9-.1 4.3-.8 1-.5 2-1.2 2.9-2.1l.1.1c-.2.6-.6 1.1-1.1 1.5-.4.2-.6.5-1 .6-.2.1-.4.3-.6.4-2.4.8-5.3.5-7.3 2.1 0-.1-.1-.1-.1-.1-.1.1-.3.2-.4.3 0 .1.2.1.3.1.4-.3.8-.5 1.2-.6-.5.3-1 .6-1.6.8-1.1.2-2.1.1-3.2 0 .7-.4 1.3-.8 2-1.2-.2-.1-.4-.1-.6-.1-.3.1-.7-.1-1 0-1 .5-2.3.3-2.8 1.4" fill="#004493"/>
    <path d="M39.1 35c-.2.1-.4.2-.3.3.2.3.6-.1.9-.1-.4.1-.8.1-1.2.4.3.2.5.1.8.1 0 .1.1.1.2.2-.3.1-.6.4-.6.6-.1.3-.5.5-.7.7v.2c-.6.6-1.4 1-1.9 1.7.1 0 .1.1.1.1-.1.2-.4.3-.5.5 0 .1 0 .1.1.1.8-.3 1.4-.8 2.1-1.1.5-.1.9-.5 1.4-.6.3-.1.7-.2 1-.3 0 .1 0 .1.1.1h.5c-.1.1-.3.1-.3.1.2.2.6.1.8 0h.7c.1 0 .1-.1.1-.2.2.1.3.1.5.1 1.6-.3 3.1-.6 4.5-1.4-1.7-1.3-3.8-1.8-5.8-2.3.2 0 .4.2.6 0-.3-.3-.7-.1-1-.3.1 0 .2.1.3-.1-.5-.3-1-.3-1.6-.4.3-.1.5-.3.5-.6 0-.1-.1-.1-.2-.1-.8.4-1.3 1.1-1.6 1.9.5.3 1 .1 1.4.1-.3.2-.6.2-.9.3m-2.6-2.5c-.7.7-1.4 1.4-2.2 1.8-.6 1.2-1.2 2.2-2.1 3.3 0 .1.1.1.1.1 1.6-1.8 3-3.2 5-4.5.1-.1-.2.2.1.1.8-.2 1.1-1 1.5-1.7.5-.8 1.4-1.2 2.1-1.9 0 .1 0 .1-.1.2.1.1.1.1.2.1.3-.2.6-.1.8-.4-.5-.2-1.2-.3-1.7-.1-1.5.8-2.6 1.8-3.7 3" fill="#fff"/>
    <path d="M37.4 33.7c.1-.1.1-.1.2-.3 0-.1 0-.1-.1-.1-.3.1-.5.3-.5.6 0 .1.1.1.1.1.2-.1.3-.2.3-.3m5.2 5c-.3.1-.7.1-.8.5-.1.1.2.1.3.1.5-.2 1 0 1.4-.4-.1-.1-.3-.1-.5-.3-.1-.1-.2 0-.4.1" fill="#fff"/>
    <path d="M49.7 42.2c.4-.1.8-.3 1.2-.5v.1c1-.4 1.7-1.2 2.7-1.6.1 0 .2.1.3.1.6-.5 1.2-1.1 2.1-1 0 .1 0 .1.1.1s.1 0 .1-.1c-.3.2-.5.4-.8.6-.1.1 0 .1.1.1.3-.1.5-.4.8-.5-.1.1-.1.2-.1.3-1.2.9-2.1 1.9-3.1 3.1h-2c0-.1 0-.1-.1-.1-2.3.2-4.5.1-6.8.1 1.3-.2 2.6-.6 3.9-.7.5 0 1 .1 1.6 0" fill="#004c98"/>
    <path d="M75.3 38.8c.2-.5.3-1 .1-1.4-.4-.6.4-.8.6-1.2.2-.3-.1-.5-.2-.8-.1-.1-.3-.1-.5-.3.5-.2 1.2-.6.8-1.2-.2-.3-.5-.8-.1-1.2.5-.3 1.2-.2 1.4-.7.3-.8-.4-1.4-.8-2.1-.2-.4-.5-.7-.7-1-.3-.5-.6-.8-.7-1.4-.2-.5.1-1 .1-1.5.1-1-.2-1.9-.5-2.9-.2-.5-.3-1-.5-1.4-.1-.3-.1-.5-.3-.8-.1-.1-.1-.3 0-.5.3-.2.5-.4.8-.6.2-.3.1-.8-.3-1-.5-.2-.4.5-.7.6h-.2c-.1-.2.1-.3.2-.4 0-.1 0-.2-.1-.2-.3 0-.5-.1-.6-.2-.6-.9-1.6-1.4-2.5-1.8.3.1.5.1.8.1.5.1 1 .1 1.4-.1.3-.1.4-.6.5-1 .1-.3-.1-.7-.2-.8-.3-.5-.8-.8-1.4-1.1h30.8c.1 9.6-.1 19.2-.1 28.8-12.1.2-24.3 0-36.4 0 .4-1.3 1.1-2.5 2.3-3.4l.9-.3c1.1 0 2.2.3 3.3.5.1 0 .3.1.4.1.4.1.8.1 1.2-.1.5.2 1-.1 1.2-.7" fill="#e1001a"/>
    <path d="M72.8 26.1c-.4-.1-.7 0-1.1 0-.5.1-1 .2-1.4.4.4-.3.8-.5 1.2-.6.3-.1.6-.3 1-.3.4-.1.8-.2 1.1-.1.3.1.8.1.9.3.1.4-.2.8-.6 1-.1.1.2.2.2.3-.1.1-.3.2-.4.2l-.4.4c.1 0 0 .2.1.2-.3.3.1 1-.3 1.1-.5.1-1 .1-1.5 0 .3-.1.6.1.8-.2v-.3c0-.1-.1-.1-.1-.1l-.1.1c0-.1-.1-.3-.2-.3-.4.1-.7-.1-1-.4.2-.1.4-.1.6-.1.2 0 .1-.3.3-.5h.2c.4-.5 1.2-.6 1.3-1.2.1.1-.3.1-.6.1" fill="#9b9c9e"/>
    <path d="M57.7 58.8c-.1.1-.1.2-.1.5v2.1c0 .5-.1.8-.3 1.1-.3.5-.9.7-1.6.7-.4 0-.8-.1-1.1-.3-.5-.3-.7-.7-.7-1.5V59c0-.2-.2-.4-.5-.4v-.2h2v.2c-.2 0-.3.1-.4.2-.1.1-.1.2-.1.6v1.3c0 1.2 0 1.4.2 1.7.2.2.5.3.8.3.5 0 .9-.2 1.1-.7.1-.3.1-.5.1-1.3V60c0-.8 0-1-.1-1.2-.1-.1-.2-.2-.4-.2v-.2H58v.2c-.1 0-.2.1-.3.2M62 63c-.1.1-.1.1-.5.1h-2.7v-.2c.3 0 .5-.2.5-.5v-2.8c0-.4 0-.5-.1-.7-.1-.2-.2-.3-.4-.3v-.2H62v1.1h-.3c0-.5-.3-.7-1.1-.7h-.5v1.6h.3c.7 0 1-.1 1-.5h.3v1.4h-.3c0-.4-.2-.5-.9-.5h-.4v1.3c0 .3.1.4.2.4h.5c.8 0 1-.2 1.2-.7l.3.1c-.1.5-.3.9-.3 1.1m6.4-4.2c0-.6-.4-.8-1.3-.8h-.6v1.9h.5c.8 0 1-.1 1.1-.6h.3V61H68c-.1-.5-.3-.6-1.1-.6h-.4v1.5c0 .5 0 .9.6.9v.2h-2.2v-.2c.4 0 .5-.3.6-.6v-3.3c0-.5 0-.7-.1-.8-.1-.2-.2-.3-.5-.4v-.2h3.9v1.4h-.4v-.1zm4.7 4.3c-.3 0-.4 0-.6-.1-.2-.2-.5-.6-.6-.8-.2-.4-.5-.9-.8-1.2h-.3v1c0 .4 0 .5.1.7.1.2.2.3.4.3v.2h-2V63c.2 0 .3 0 .3-.1.1-.1.1-.2.1-.4v-2.2c0-.9 0-1.1-.1-1.3 0-.2-.2-.3-.4-.3v-.2h2.1c.5 0 .8.1 1 .2.3.2.4.6.4.9 0 .6-.4 1-1 1.3.3.3.5.7.7 1.1.2.4.4.7.6.8.1.1.2.1.3.2v.2c.2-.1 0-.1-.2-.1m-1.8-4.3c-.1 0-.3 0-.4.1v1.7h.3c.6 0 1-.4 1-.9 0-.6-.4-.9-.9-.9m6.9 4.3h-1.7v-.2c.2 0 .4-.1.4-.3 0-.1 0-.2-.1-.4-.1-.3-.1-.4-.2-.7h-1.3l-.1.4c-.1.3-.2.5-.2.7 0 .2.1.3.3.3v.2h-1.4v-.2c.1 0 .1 0 .2-.1s.3-.4.5-.9l.7-1.7c.2-.5.5-1.2.6-1.8h.5c.1.2.2.6.3.8l1 2.5c.2.4.3.7.4.8.1.2.2.3.4.3v.2l-.3.1zm-2.3-3.5c-.2.5-.4 1.1-.5 1.4h1l-.5-1.4zm7.3-.8c-.1.1-.1.2-.1.6v3.7h-.5c-.5-.6-1.4-1.7-1.4-1.7-.1-.1-1-1.2-1.4-1.8v2.6c0 .3 0 .4.1.6.1.1.2.2.4.2v.2h-1.5V63c.5 0 .5-.4.5-.8v-2.5c0-.6 0-.7-.1-.9-.1-.1-.2-.2-.4-.2v-.2H80c.1.2.2.3.7.9.7.8 1.3 1.5 1.9 2.3V60c0-.7 0-.9-.1-1.1-.1-.2-.2-.3-.4-.4v-.2h1.4v.2c-.1.1-.3.1-.3.3m4.8 4.1c-.5.2-.9.3-1.4.3l-.1.3h.1c.3 0 .4.2.4.4 0 .4-.3.6-.8.6-.1 0-.3 0-.4-.1l.1-.3c.1 0 .2.1.3.1.2 0 .3-.1.3-.3 0-.1-.1-.2-.2-.2s-.1 0-.2.1h-.2l.1-.6c-.6-.1-1.1-.3-1.4-.7-.4-.4-.7-1-.7-1.8 0-1.5 1-2.4 2.6-2.4.5 0 1 .1 1.4.2v1h-.3c-.1-.5-.5-.8-1.1-.8-1 0-1.6.7-1.6 1.7 0 1.3.7 2.2 1.7 2.2.6 0 1-.3 1.1-.9l.3.1c.1.3.1.7 0 1.1m4.9.2h-1.7v-.2c.2 0 .4-.1.4-.3 0-.1 0-.2-.1-.4-.1-.3-.1-.4-.2-.7H90l-.1.4c-.1.3-.2.5-.2.7 0 .2.1.3.3.3v.2h-1.4v-.2c.1 0 .1 0 .2-.1s.3-.4.5-.9l.7-1.7c.2-.5.5-1.2.6-1.8h.4c.1.2.2.6.3.8l1 2.5c.2.4.3.7.4.8.1.2.2.3.4.3v.2l-.2.1zm-2.3-3.5c-.2.5-.4 1.1-.5 1.4h1l-.5-1.4zm4.6 3.5h-1.8v-.2c.3 0 .5-.2.5-.5V59.6c0-.4 0-.5-.1-.7-.1-.2-.2-.3-.4-.3v-.2h2v.2c-.3 0-.5.2-.5.5v2.2c0 .9 0 1.1.1 1.3.1.2.2.3.4.3v.2h-.2zm2.1.1c-.4 0-.7-.1-1.2-.2 0-.3-.1-.7-.1-1h.3c.2.6.5.9 1.1.9.5 0 .8-.3.8-.7 0-.3-.2-.5-.5-.7l-.7-.6c-.5-.3-.8-.7-.8-1.3 0-.8.6-1.3 1.5-1.3.4 0 .8.1 1.1.3v.9h-.3c-.1-.5-.4-.8-.9-.8-.4 0-.7.3-.7.7 0 .3.2.6.6.8l.6.4c.6.4.9.7.9 1.3 0 .7-.7 1.3-1.7 1.3m5.7-.2c-.1.1-.1.1-.5.1h-2.7v-.2c.3 0 .5-.2.5-.5v-2.8c0-.4 0-.5-.1-.7-.1-.2-.2-.3-.4-.3v-.2h3.3v1.1h-.3c-.1-.5-.3-.7-1.1-.7h-.5v1.6h.3c.7 0 1-.1 1-.5h.3v1.4h-.3c0-.4-.2-.5-.9-.5h-.4v1.3c0 .3 0 .4.2.4h.5c.8 0 1-.2 1.2-.7l.3.1c-.2.5-.4.9-.4 1.1M55.3 51.3c-.1 0-.2-.1-.2-.4-.5.3-.9.4-1.2.4-.4 0-.6-.2-.6-.6 0-.4.2-.9.5-1.3.4-.6.8-.9 1.5-.9.3 0 .6.1.9.1v.1c-.2.8-.4 1.6-.4 1.9 0 .2 0 .3.1.3s.2 0 .4-.1v.2c-.5.2-.8.3-1 .3m-.3-2.6c-.3 0-.5.2-.8.6-.3.4-.4 1-.4 1.3 0 .2.1.3.3.3.3 0 .7-.2.9-.4.1-.1.2-.2.2-.5.1-.4.2-.8.3-1.3-.2.1-.4 0-.5 0m3.4-1.4c-.2.9-.5 1.9-.7 2.9-.1.3-.1.5-.1.6 0 .1 0 .1.2.1.1 0 .2 0 .4-.1v.2c-.4.1-.8.3-1 .3-.1 0-.2-.1-.2-.2s0-.2.1-.6c.2-.9.4-1.9.6-2.7.1-.4.1-.6.1-.7 0-.1 0-.1-.1-.1s-.2 0-.3.1v-.2c.3-.1.7-.2.9-.2.1 0 .1 0 .1.1.1 0 .1.1 0 .5m1.7.5c-.2 0-.3-.1-.3-.3 0-.2.2-.4.4-.4s.3.1.3.3c0 .2-.2.4-.4.4m-.8 3.5c-.1 0-.2-.1-.2-.2s0-.2.1-.3c.1-.4.2-.9.3-1.1.1-.4.1-.6.1-.7 0-.1 0-.1-.1-.1s-.1 0-.3.1v-.2c.4-.1.7-.2.9-.2.1 0 .1 0 .1.1s0 .3-.2.8l-.1.4c-.2.7-.2.9-.2 1 0 .1.1.2.2.2s.2 0 .4-.1v.2c-.4 0-.8.1-1 .1m3.4-2.4h-.6l-.3 1.4c-.1.4-.1.5-.1.5 0 .1.1.1.1.1s.1 0 .3-.1h.1v.2c-.4.1-.7.2-.9.2-.1 0-.2-.1-.2-.2s0-.3.1-.5.1-.4.2-.7l.2-1h-.4v-.2c.5-.1.6-.5.8-.8l.3-.1-.2.8h.6v.4zm2.1-.9l-.2-.2.8-.9.6.1-1.2 1zm-.7 2.1h-.2v.3c0 .3.1.5.4.5.2 0 .5-.1.9-.4l.1.2c-.5.3-.9.5-1.2.5-.4 0-.7-.3-.7-.7 0-1.1.8-2.1 1.6-2.1.4 0 .7.2.7.5-.1.7-.8 1.2-1.6 1.2m.7-1.4c-.3 0-.7.5-.8 1.1.6 0 1.1-.3 1.1-.8 0-.1-.1-.3-.3-.3m12.9-1.1h-.2v-.2c0-.1 0-.2-.1-.3-.1-.1-.4-.1-.9-.1H76c-.1.6-.2 1.1-.4 1.7h.4c.8 0 .9-.1 1-.5h.2c-.1.4-.2.9-.3 1.3h-.2v-.1c0-.1 0-.2-.1-.3 0-.1-.1-.1-.5-.1h-.5l-.1.5c-.1.7-.2 1-.2 1.2 0 .3.1.4.4.4v.1H74v-.1c.2 0 .3-.1.4-.2.1-.1.2-.3.3-.7.1-.4.1-.6.3-1.3l.1-.5c.1-.5.1-.9.1-1 0-.3-.1-.4-.4-.5v-.1h3c.1.2 0 .5-.1.8m2.3 1.7h-.2V49c0-.1-.1-.2-.3-.2-.1 0-.2.1-.3.2-.3.3-.4.8-.5 1.5l-.1.7c-.3 0-.3 0-.6.1.1-.3.1-.5.2-.7l.2-.6c.1-.4.1-.7.1-.8 0-.2 0-.2-.1-.2h-.2l-.2-.1v-.2c.3-.1.7-.2.9-.2.1 0 .1 0 .1.1v.3c.3-.3.6-.4.8-.4.1 0 .3.1.5.2l-.3.6m2.7 2c-.1 0-.2-.1-.2-.4-.5.3-.9.4-1.2.4-.4 0-.6-.2-.6-.6 0-.4.2-.9.5-1.3.4-.6.8-.9 1.5-.9.3 0 .6.1.9.1v.1c-.2.8-.4 1.6-.4 1.9 0 .2 0 .3.1.3s.2 0 .4-.1v.2c-.5.2-.8.3-1 .3m-.3-2.6c-.3 0-.5.2-.8.6-.3.4-.4 1-.4 1.3 0 .2.1.3.3.3.3 0 .7-.2.9-.4.1-.1.1-.2.2-.5.1-.4.2-.8.3-1.3-.2.1-.4 0-.5 0m3.6.2h-.6l-.3 1.4c-.1.4-.1.5-.1.5 0 .1 0 .1.1.1 0 0 .2 0 .3-.1h.1v.2c-.4.1-.7.2-.9.2-.1 0-.2-.1-.2-.2s0-.3.1-.5.1-.4.2-.7l.2-1h-.4v-.2c.5-.1.6-.5.8-.8l.3-.1-.2.8h.6v.4zm1.3 1.2h-.2v.3c0 .3.1.5.4.5.2 0 .5-.1.9-.4l.1.2c-.5.3-.9.5-1.2.5-.4 0-.7-.3-.7-.7 0-1.1.8-2.1 1.6-2.1.4 0 .7.2.7.5 0 .7-.7 1.2-1.6 1.2m.7-1.4c-.3 0-.7.5-.8 1.1h.1c.6 0 1.1-.3 1.1-.8 0-.1-.2-.3-.4-.3m3.6.6h-.2V49c0-.1-.1-.2-.3-.2-.1 0-.2.1-.3.2-.3.3-.4.8-.5 1.5l-.1.7c-.3 0-.3 0-.6.1.1-.3.1-.5.2-.7l.1-.6c.1-.4.1-.7.1-.8 0-.2 0-.2-.1-.2h-.2l-.2.1v-.2c.3-.1.7-.2.9-.2.1 0 .1 0 .1.1v.3c.3-.3.6-.4.8-.4.1 0 .3.1.4.2 0 0-.1.2-.1.4m2.7 2c-.1 0-.2-.1-.2-.2s0-.2.1-.6l.1-.3c.2-.9.3-1.1.3-1.3 0-.1 0-.2-.1-.2s-.3.1-.5.2-.4.3-.5.4c-.1.1-.1.3-.2.6-.1.5-.2.8-.2 1.2-.3 0-.3 0-.6.1.1-.5.2-.9.3-1.4.1-.5.1-.7.1-.8 0-.2 0-.2-.2-.2-.1 0-.2 0-.3.1v-.2c.3-.1.7-.2.8-.2.1 0 .2.1.2.4v.1c.5-.3 1-.5 1.4-.5.2 0 .3.1.3.2s0 .4-.2.9c-.1.3-.2.6-.2.8 0 .2-.1.3-.1.4 0 .1.1.2.1.2.1 0 .2 0 .4-.1v.2c-.2.1-.6.2-.8.2m2.9-3.5c-.2 0-.3-.1-.3-.3 0-.2.2-.4.4-.4s.3.1.3.3c0 .2-.2.4-.4.4m-.8 3.5c-.1 0-.2-.1-.2-.2s0-.2.1-.3c.1-.4.2-.9.3-1.1.1-.4.1-.6.1-.7 0-.1 0-.1-.1-.1s-.1 0-.3.1v-.2c.4-.1.7-.2.9-.2.1 0 .1 0 .1.1s0 .3-.2.8l-.1.3c-.2.7-.2.9-.2 1 0 .1.1.2.2.2s.2 0 .4-.1v.2c-.4.1-.8.2-1 .2m3.5-2.4h-.6l-.3 1.4c-.1.4-.1.5-.1.5 0 .1 0 .1.1.1 0 0 .1 0 .3-.1h.1v.2c-.4.1-.7.2-.9.2-.1 0-.2-.1-.2-.2s0-.3.1-.5.1-.4.2-.7l.2-1h-.4v-.2c.5-.1.6-.5.8-.8l.3-.1-.2.8h.6v.4zm2-.9l-.2-.2.8-.9.6.1-1.2 1zm-.7 2.1h-.2v.3c0 .3.1.5.4.5.2 0 .5-.1.9-.4l.1.2c-.5.3-.9.5-1.2.5-.4 0-.7-.3-.7-.7 0-1.1.8-2.1 1.6-2.1.4 0 .7.2.7.5-.1.7-.7 1.2-1.6 1.2m.7-1.4c-.3 0-.7.5-.8 1.1h.1c.6 0 1.1-.3 1.1-.8-.1-.1-.2-.3-.4-.3M70 50c.5 0 .8-.4.8-.8s-.4-.8-.8-.8c-.5 0-.8.4-.8.8s.4.8.8.8M21.7 63.1c-.3 0-.5 0-.7-.2-.3-.2-.6-.7-.7-1l-.9-1.5h-.3v1.3c0 .5 0 .7.1.8.1.2.2.3.5.4v.2h-2.2v-.2c.2 0 .3-.1.4-.2.1-.1.2-.3.2-.5v-2.6c0-1 0-1.3-.1-1.5-.1-.2-.2-.3-.5-.4v-.2H20c.6 0 .9.1 1.2.3.3.2.5.7.5 1.1 0 .7-.5 1.3-1.2 1.6.3.4.6.8.9 1.3.3.4.5.8.8 1 .1.1.2.2.4.2v.2c-.4-.1-.6-.1-.9-.1m-2.1-5.3c-.2 0-.3 0-.5.1V60h.4c.7 0 1.2-.4 1.2-1.1-.1-.6-.6-1.1-1.1-1.1m4.9.2l-.3-.2.7-1 .8.1-1.2 1.1zm1.6 5c-.1.1-.1.1-.5.1h-2.7v-.2c.3 0 .5-.2.5-.5v-2.8c0-.4 0-.5-.1-.7-.1-.2-.2-.3-.4-.3v-.2h3.3v1.1h-.3c0-.5-.3-.7-1.1-.7h-.5v1.6h.3c.7 0 1-.1 1-.5h.3v1.4h-.3c0-.4-.2-.5-.9-.5h-.4v1.3c0 .3 0 .4.2.4h.5c.8 0 1-.2 1.2-.7l.3.1c-.2.5-.3.9-.4 1.1m2.9-2h-.2l-.2-.4c.7 0 1-.4 1-.9 0-.6-.4-1-.9-1h-.3v2.5c0 .9 0 1.1.1 1.3.1.2.2.3.4.3v.2h-2v-.2c.3 0 .5-.2.5-.5v-2.8c0-.4 0-.5-.1-.7-.1-.2-.2-.3-.4-.3v-.2h1.9c1 0 1.6.5 1.6 1.3.2.8-.5 1.4-1.4 1.4m6.4-2.2c-.1.1-.1.2-.1.5v2.1c0 .5-.1.8-.3 1.1-.3.5-.9.7-1.6.7-.4 0-.8-.1-1.1-.3-.5-.3-.7-.7-.7-1.5V59c0-.2-.2-.4-.5-.4v-.2h2v.2c-.2 0-.3.1-.4.2-.1.1-.1.2-.1.6v1.3c0 1.2 0 1.4.2 1.7.2.2.5.3.8.3.5 0 .9-.2 1.1-.7.1-.3.1-.5.1-1.3V60c0-.8 0-1-.1-1.2-.1-.1-.2-.2-.4-.2v-.2h1.4v.2c-.2 0-.3.1-.3.2m4.3 3.9c-.3.3-.7.3-1.4.3h-1.8v-.2c.3 0 .5-.2.5-.5V60c0-.6 0-.9-.1-1.1-.1-.2-.2-.3-.4-.3v-.2h2.4c.6 0 1.2.3 1.2 1 0 .5-.3.9-1 1.1.7.1 1.1.6 1.1 1.3-.1.4-.2.7-.5.9m-1.6-3.9h-.4v1.5h.3c.7 0 1.1-.3 1.1-.8 0-.4-.4-.7-1-.7m.1 1.9h-.4v.9c0 .4 0 .6.1.7.1.2.2.3.5.3.6 0 .9-.3.9-.9-.1-.6-.5-1-1.1-1m5.9 2.3c-.1.1-.1.1-.5.1H41v-.2c.2 0 .3 0 .3-.1.1-.1.2-.3.2-.8v-1.7c0-.9 0-1.1-.1-1.3-.1-.2-.2-.3-.4-.3v-.2h2v.2c-.4 0-.5.2-.6.5v2.2c0 1 0 1.1.1 1.2.1.1.2.1.5.1.4 0 .6 0 .8-.1.2-.1.3-.3.4-.6l.3.1c-.2.3-.3.8-.4.9m2.4.1h-1.8v-.2c.3 0 .5-.2.5-.5V59.6c0-.4 0-.5-.1-.7-.1-.2-.2-.3-.4-.3v-.2h2v.2c-.3 0-.5.2-.5.5v2.2c0 .9 0 1.1.1 1.3.1.2.2.3.4.3v.2h-.2zm6.6 1.2c-.5 0-1.1-.2-1.7-.5-.3-.2-.8-.5-1.1-.7h-.6c-1.4 0-2.4-.9-2.4-2.3 0-1.5 1-2.5 2.5-2.5 1.4 0 2.4.9 2.4 2.3 0 1-.5 1.9-1.3 2.3.3.1.5.3.7.4.7.4 1.2.6 1.7.6.3 0 .5-.1.8-.2l.1.2c-.2.3-.7.4-1.1.4m-3.3-5.5c-.9 0-1.5.7-1.5 1.7 0 1.2.7 2.2 1.6 2.2.9 0 1.5-.7 1.5-1.7 0-1.3-.7-2.2-1.6-2.2m-30-7.7c-.1.1-.2.1-.4.1h-2.6v-.1c.2 0 .3-.1.4-.2.1-.1.2-.3.3-.7.1-.4.1-.6.3-1.3l.1-.5c.1-.5.2-.9.2-1 0-.3-.1-.4-.4-.5v-.1h1.8v.1c-.2 0-.3.1-.4.2-.2.2-.3.5-.5 1.8l-.1.5c-.1.6-.1.8-.2 1v.2c0 .3.1.3.6.3.8 0 1.1-.2 1.3-.7l.2.1c-.3.3-.5.7-.6.8m2-3.3c-.2 0-.3-.1-.3-.3 0-.2.2-.4.4-.4s.3.1.3.3c0 .2-.1.4-.4.4m-.7 3.5c-.1 0-.2-.1-.2-.2s0-.2.1-.3c.1-.4.2-.9.3-1.1.1-.4.1-.6.1-.7 0-.1 0-.1-.1-.1s-.1 0-.3.1v-.2c.4-.1.7-.2.9-.2.1 0 .1 0 .1.1s0 .3-.2.8l-.1.4c-.2.7-.2.9-.2 1 0 .1.1.2.2.2s.2 0 .4-.1v.2c-.4 0-.8.1-1 .1m3.7-.4c-.3.2-.6.3-1.1.3-.5 0-.8-.1-.8-.2s0-.1.1-.4l.4-1.5c.1-.5.2-.9.3-1.4.1-.3.1-.5.1-.6 0-.1 0-.1-.1-.1 0 0-.2 0-.3.1v-.2h.1c.4-.1.7-.2.8-.2.1 0 .1 0 .1.1s0 .2-.1.8l-.2.9c-.1.3-.1.4-.1.5.4-.3.8-.4 1.1-.4.4 0 .6.2.6.6 0 .5-.4 1.3-.9 1.7m0-2.1c-.1 0-.3 0-.5.2-.1 0-.3.1-.3.2-.1.1-.2.3-.3.8-.1.4-.1.7-.1.8 0 .1.1.2.4.2.3 0 .5-.1.7-.4.3-.4.5-1 .5-1.5-.1-.2-.2-.3-.4-.3m2.4 1.3H27v.3c0 .3.1.5.4.5.2 0 .5-.1.9-.4l.1.2c-.5.3-.9.5-1.2.5-.4 0-.7-.3-.7-.7 0-1.1.8-2.1 1.6-2.1.4 0 .7.2.7.5-.1.7-.7 1.2-1.6 1.2m.7-1.4c-.3 0-.7.5-.8 1.1h.1c.6 0 1.1-.3 1.1-.8-.1-.1-.2-.3-.4-.3m3.6.6h-.2V49c0-.1-.1-.2-.3-.2-.1 0-.2.1-.3.2-.3.3-.4.8-.5 1.5l-.2.7c-.3 0-.3 0-.6.1.1-.3.1-.5.2-.7l.2-.6c.1-.4.2-.7.2-.8 0-.2 0-.2-.1-.2h-.2l-.2.1v-.2c.3-.1.7-.2.9-.2.1 0 .1 0 .1.1v.3c.3-.3.6-.4.8-.4.1 0 .3.1.5.2-.2 0-.3.2-.3.4m2.3-.4h-.6l-.3 1.4c-.1.4-.1.5-.1.5 0 .1 0 .1.1.1 0 0 .2 0 .3-.1h.1v.2c-.4.1-.7.2-.9.2-.1 0-.2-.1-.2-.2s0-.3.1-.5.1-.4.2-.7l.2-1h-.4v-.2c.5-.1.6-.5.8-.8l.3-.1-.2.8h.6v.4zm2.1-.9l-.2-.2.8-.9.6.1-1.2 1zm-.8 2.1h-.2v.3c0 .3.1.5.4.5.2 0 .5-.1.9-.4l.1.2c-.5.3-.9.5-1.2.5-.4 0-.7-.3-.7-.7 0-1.1.8-2.1 1.6-2.1.4 0 .7.2.7.5-.1.7-.7 1.2-1.6 1.2m.7-1.4c-.3 0-.7.5-.8 1.1.6 0 1.1-.3 1.1-.8 0-.1-.1-.3-.3-.3m11.8-2.5l-.3-.2.8-.9.6.1-1.1 1zm1.3 1.4h-.2v-.1c0-.4-.2-.5-.9-.5h-.7c-.1.6-.2 1.1-.4 1.7h1.1c.3 0 .4-.2.5-.5h.2c-.1.4-.2 1-.3 1.3H48v-.1c0-.3-.2-.4-.7-.4h-.6c0 .2 0 0-.2.8-.1.4-.1.6-.1.7 0 .2.1.3.6.3.9 0 1.1-.1 1.4-.7l.2.1c-.2.4-.3.8-.4.9-.1.1-.2.1-.4.1h-2.6v-.1c.2 0 .3-.1.4-.2.1-.1.2-.3.3-.7.1-.4.1-.5.3-1.3l.1-.5c.1-.5.1-.9.1-1 0-.3-.1-.4-.4-.5v-.1h3c0 .2-.1.5-.1.8m3.3 1.3h-.5c.1.1.1.3.1.4 0 .6-.5 1.1-1.2 1.1-.1 0-.2 0-.4-.1-.2.1-.2.1-.2.2s.1.1.4.2l.5.2c.5.2.8.3.8.7 0 .7-.7 1.3-1.6 1.3-.7 0-1.2-.4-1.2-.9s.3-.8.9-.9c-.3-.1-.4-.2-.4-.3 0-.2.2-.3.6-.6-.2-.2-.3-.3-.3-.6 0-.6.5-1.1 1.2-1.1.2 0 .3 0 .5.1h.9l-.1.3zm-1.3-.2c-.4 0-.7.4-.7.9 0 .3.2.5.4.5.4 0 .7-.4.7-.8.1-.4-.1-.6-.4-.6m.1 2.8c-.2-.1-.5-.2-.8-.3-.5.1-.8.5-.8.9s.3.6.8.6c.6 0 1.1-.4 1.1-.8.1-.2 0-.3-.3-.4M41.1 50c.5 0 .8-.4.8-.8s-.4-.8-.8-.8c-.5 0-.8.4-.8.8s.3.8.8.8m-23.8 4.1h84.9v.3H17.3z" fill="#1a171b"/>
</svg>
