<?xml version="1.0" encoding="UTF-8"?>
<svg width="82px" height="89px" viewBox="0 0 82 89" version="1.1" xmlns="http://www.w3.org/2000/svg" xmlns:xlink="http://www.w3.org/1999/xlink">
    <title>Group 3</title>
    <g id="Saison-2" stroke="none" stroke-width="1" fill="none" fill-rule="evenodd">
        <g id="étape-5" transform="translate(-218.000000, -338.000000)">
            <g id="Group-3" transform="translate(219.000000, 339.000000)">
                <g id="app-working-1-software-app-performances-timer-hourglass-window-control-dashboard-testing-pc-mac">
                    <circle id="Oval" stroke="#DAEDF7" stroke-width="0.995850622" fill="#E8F4FA" fill-rule="nonzero" cx="39.9618257" cy="46.7356017" r="39.8340249"></circle>
                    <g id="Group" transform="translate(3.983402, 0.000000)">
                        <ellipse id="Oval" fill="#45413C" fill-rule="nonzero" opacity="0.15" cx="30.6635685" cy="79.0957676" rx="11.6793361" ry="2.03153527"></ellipse>
                        <rect id="Rectangle" fill="#00B8F0" fill-rule="nonzero" x="0.174605809" y="24.1238174" width="61.4818257" height="43.9160166" rx="4.49327801"></rect>
                        <path d="M0.174605809,61.306888 L0.174605809,28.706722 C0.174605809,26.1767537 2.22555036,24.1258091 4.75551867,24.1258091 L37.3576763,24.1258091 L0.174605809,61.306888 Z" id="Path" fill="#4ACFFF" fill-rule="nonzero"></path>
                        <path d="M61.6574274,51.3523651 C61.6514133,53.2902443 60.0819455,54.8597121 58.1440664,54.8657261 L14.2270539,54.8657261 C12.2889486,54.8602559 10.7191632,53.2904705 10.7136929,51.3523651 L10.7136929,24.1238174 L57.0745228,24.1238174 C59.6044911,24.1238174 61.6554357,26.174762 61.6554357,28.7047303 L61.6574274,51.3523651 Z" id="Path" fill="#00B8F0" fill-rule="nonzero"></path>
                        <path d="M61.6574274,61.0708714 L61.6574274,63.4609129 C61.6574274,65.9908812 59.6064828,68.0418257 57.0765145,68.0418257 L4.75751037,68.0418257 C2.22754206,68.0418257 0.17659751,65.9908812 0.17659751,63.4609129 L0.17659751,61.0708714 L61.6574274,61.0708714 Z" id="Path" fill="#FFFFFF" fill-rule="nonzero"></path>
                        <path d="M61.6574274,61.0708714 L61.6574274,63.4609129 C61.6574274,65.9908812 59.6064828,68.0418257 57.0765145,68.0418257 L4.75751037,68.0418257 C2.22754206,68.0418257 0.17659751,65.9908812 0.17659751,63.4609129 L0.17659751,61.0708714 L61.6574274,61.0708714 Z" id="Path" stroke="#45413C" stroke-width="0.995850622" stroke-linecap="round" stroke-linejoin="round"></path>
                        <rect id="Rectangle" stroke="#45413C" stroke-width="0.995850622" stroke-linecap="round" stroke-linejoin="round" x="0.174605809" y="24.1238174" width="61.4818257" height="43.9160166" rx="4.49327801"></rect>
                        <g transform="translate(19.585062, 67.717842)" id="Path">
                            <polygon fill="#E0E0E0" fill-rule="nonzero" points="16.6004979 7.34871369 6.06141079 7.34871369 6.93975104 0.321991701 15.7221577 0.321991701"></polygon>
                            <polygon fill="#87898C" fill-rule="nonzero" points="16.0517842 2.95701245 6.61012448 2.95701245 6.93975104 0.321991701 15.7221577 0.321991701"></polygon>
                            <path d="M22.4461411,9.43302905 C22.5866745,9.74727446 22.5583156,10.1113374 22.370816,10.4000305 C22.1833164,10.6887237 21.8622458,10.862677 21.5180083,10.8620762 L1.14390041,10.8620762 C0.799662904,10.862677 0.478592359,10.6887237 0.291092722,10.4000305 C0.103593084,10.1113374 0.0752342093,9.74727446 0.215767635,9.43302905 C0.780316481,8.16506649 2.03842596,7.34830993 3.42639004,7.34871354 L19.2355187,7.34871354 C20.6234827,7.34830993 21.8815922,8.16506649 22.4461411,9.43302905 Z" stroke="#45413C" stroke-width="0.995850622" fill="#FFFFFF" fill-rule="nonzero" stroke-linecap="round" stroke-linejoin="round"></path>
                            <polygon stroke="#45413C" stroke-width="0.995850622" stroke-linecap="round" stroke-linejoin="round" points="16.6004979 7.34871369 6.06141079 7.34871369 6.93975104 0.321991701 15.7221577 0.321991701"></polygon>
                        </g>
                        <path d="M66.4385062,51.6441494 L16.8939419,51.6441494 C15.0501338,51.6281339 13.5403347,50.1738647 13.4552697,48.3319502 L13.4552697,11.7633195 L69.8204149,11.7005809 L69.8204149,48.2682158 C69.8149323,50.1327486 68.3030458,51.6419639 66.4385062,51.6441494 Z" id="Path" fill="#B8ECFF" fill-rule="nonzero"></path>
                        <path d="M66.4385062,51.6441494 L16.8939419,51.6441494 C15.0501338,51.6281339 13.5403347,50.1738647 13.4552697,48.3319502 L13.4552697,11.7633195 L69.8204149,11.7005809 L69.8204149,48.2682158 C69.8149323,50.1327486 68.3030458,51.6419639 66.4385062,51.6441494 Z" id="Path" stroke="#45413C" stroke-width="0.995850622" stroke-linecap="round" stroke-linejoin="round"></path>
                        <path d="M69.8154357,11.7005809 L13.4552697,11.7633195 L13.5180083,3.42904564 C13.5234774,1.56683906 15.0317353,0.058581104 16.8939419,0.0531120332 L66.4385062,0.0531120332 C68.3011017,0.0580344131 69.8099639,1.5664517 69.8154357,3.42904564 L69.8154357,11.7005809 Z" id="Path" stroke="#45413C" stroke-width="0.995850622" fill="#FFFFFF" fill-rule="nonzero" stroke-linecap="round" stroke-linejoin="round"></path>
                        <circle id="Oval" stroke="#FF6242" stroke-width="0.995850622" fill="#FF6242" fill-rule="nonzero" stroke-linecap="round" stroke-linejoin="round" cx="19.3417427" cy="5.87684647" r="1.94091286"></circle>
                        <path d="M29.0482988,5.87684647 C29.0235493,6.9735675 28.1403725,7.85674435 27.0436515,7.88149378 C25.9617923,7.8644361 25.0953333,6.97956918 25.1009916,5.89759053 C25.1067055,4.81561188 25.9824169,3.93990056 27.0643955,3.93418663 C28.1463742,3.92852836 29.0312411,4.79498735 29.0482988,5.87684647 L29.0482988,5.87684647 Z" id="Path" stroke="#FFE500" stroke-width="0.995850622" fill="#FFE500" fill-rule="nonzero" stroke-linecap="round" stroke-linejoin="round"></path>
                        <circle id="Oval" stroke="#6DD627" stroke-width="0.995850622" fill="#6DD627" fill-rule="nonzero" stroke-linecap="round" stroke-linejoin="round" cx="34.8720332" cy="5.87684647" r="1.94091286"></circle>
                        <line x1="20.7419087" y1="37.4682158" x2="51.2089627" y2="37.4682158" id="Path" stroke="#45413C" stroke-width="0.995850622" stroke-linecap="round" stroke-linejoin="round"></line>
                        <line x1="20.7419087" y1="42.5460581" x2="51.2089627" y2="42.5460581" id="Path" stroke="#45413C" stroke-width="0.995850622" stroke-linecap="round" stroke-linejoin="round"></line>
                        <line x1="54.2552697" y1="42.5460581" x2="58.3173444" y2="42.5460581" id="Path" stroke="#45413C" stroke-width="0.995850622" stroke-linecap="round" stroke-linejoin="round"></line>
                        <g transform="translate(18.589212, 17.925311)" stroke="#45413C" stroke-linecap="round" stroke-linejoin="round" stroke-width="0.995850622">
                            <path d="M6.94871369,0.0760165233 C4.22540063,0.0756138001 1.77001856,1.71578804 0.727572653,4.23168564 C-0.314873252,6.74758324 0.260923198,9.6437067 2.18645393,11.5695223 C4.11198466,13.4953378 7.00802291,14.0715627 9.52407469,13.0294889 C12.0401265,11.9874152 13.6806639,9.53227575 13.6806639,6.80896266 C13.6806639,3.0908481 10.6668282,0.0765665331 6.94871369,0.0760165233 L6.94871369,0.0760165233 Z" id="Shape" fill="#FFFFFF" fill-rule="nonzero"></path>
                            <circle id="Oval" cx="6.94871369" cy="6.80896266" r="6.73294606"></circle>
                        </g>
                        <g transform="translate(35.186722, 17.925311)" stroke="#45413C" stroke-linecap="round" stroke-linejoin="round" stroke-width="0.995850622">
                            <path d="M12.6712033,3.24780083 C10.7044242,0.0920342772 6.55179113,-0.871848764 3.39600595,1.09490043 C0.240220764,3.06164963 -0.723701613,7.2142736 1.24301769,10.3700774 C3.20973699,13.5258812 7.36235183,14.4898429 10.5181743,12.5231535 C12.0336919,11.5786921 13.1119428,10.0708667 13.5157158,8.33139305 C13.9194889,6.59191942 13.6157078,4.76329166 12.6712033,3.24780083 Z" id="Shape" fill="#FFFFFF" fill-rule="nonzero"></path>
                            <circle id="Oval" cx="6.95701245" cy="6.80896266" r="6.73294606"></circle>
                        </g>
                        <g transform="translate(52.780083, 17.925311)" stroke="#45413C" stroke-linecap="round" stroke-linejoin="round" stroke-width="0.995850622">
                            <path d="M1.25311203,10.6619087 C2.81148499,12.8952591 5.56177767,13.9699175 8.22146866,13.3847472 C10.8811596,12.7995769 12.9264358,10.6698244 13.4035403,7.98863962 C13.8806448,5.30745485 12.6956142,2.60288411 10.4010541,1.13612765 C8.10649403,-0.330628813 5.15430687,-0.270700461 2.92116183,1.2879668 C-0.127776553,3.41603299 -0.874552327,7.61268992 1.25311203,10.6619087 Z" id="Shape" fill="#FFFFFF" fill-rule="nonzero"></path>
                            <circle id="Oval" cx="6.77410788" cy="6.80896266" r="6.73294606"></circle>
                        </g>
                        <path d="M31.9312863,64.5553527 C31.9312863,65.1163457 31.4765116,65.5711203 30.9155187,65.5711203 C30.3545257,65.5711203 29.899751,65.1163457 29.899751,64.5553527 C29.899751,63.9943597 30.3545257,63.5395851 30.9155187,63.5395851 C31.4765116,63.5395851 31.9312863,63.9943597 31.9312863,64.5553527 L31.9312863,64.5553527 Z" id="Path" fill="#45413C" fill-rule="nonzero"></path>
                    </g>
                </g>
                <g id="coche" transform="translate(22.700000, 18.000000)">
                    <g id="Group">
                        <circle id="Oval" fill="#F0F0F0" fill-rule="nonzero" cx="6.83333333" cy="6.841" r="6.533"></circle>
                        <path d="M6.83333333,2.75766667 C9.96825855,2.75922907 12.6601884,4.98727909 13.2476667,8.06666667 C13.7477644,5.48053851 12.6459539,2.84704058 10.4532347,1.38754104 C8.26051541,-0.0719584946 5.40581792,-0.0719584946 3.21309867,1.38754104 C1.02037941,2.84704058 -0.0814311089,5.48053851 0.418666667,8.06666667 C1.00616852,4.98715587 3.69828258,2.75906916 6.83333333,2.75766667 Z" id="Path" fill="#FFFFFF" fill-rule="nonzero"></path>
                        <circle id="Oval" stroke="#45413C" stroke-width="0.5" stroke-linecap="round" stroke-linejoin="round" cx="6.83333333" cy="6.841" r="6.533"></circle>
                    </g>
                    <path d="M5.475,10.2456669 C5.2235391,10.2458481 4.98234561,10.1459405 4.80466667,9.968 L2.90833333,8.07166667 C2.53802643,7.70145179 2.53795183,7.10114027 2.90816669,6.73083336 C3.27838156,6.36052645 3.87869307,6.36045181 4.249,6.73066667 L5.475,7.95666667 L9.33566667,4.09633333 C9.70624848,3.72826962 10.3047271,3.72928975 10.674052,4.09861466 C11.0433769,4.46793956 11.044397,5.06641819 10.6763333,5.437 L6.14533333,9.96666667 C5.96793625,10.1451899 5.72667491,10.2456669 5.475,10.2456669 L5.475,10.2456669 Z" id="Path" stroke="#45413C" stroke-width="0.5" fill="#9CEB60" fill-rule="nonzero"></path>
                </g>
            </g>
        </g>
    </g>
</svg>