<?xml version="1.0" encoding="UTF-8"?>
<svg width="82px" height="82px" viewBox="0 0 82 82" version="1.1" xmlns="http://www.w3.org/2000/svg" xmlns:xlink="http://www.w3.org/1999/xlink">
    <title>card-secure-1-payment-secure-credit-debit-card-information-protect-https-browser-protocol-lock</title>
    <g id="Saison-2" stroke="none" stroke-width="1" fill="none" fill-rule="evenodd">
        <g id="étape-5" transform="translate(-218.000000, -132.000000)">
            <g id="card-secure-1-payment-secure-credit-debit-card-information-protect-https-browser-protocol-lock" transform="translate(219.000000, 133.000000)">
                <circle id="Oval" stroke="#DAEDF7" fill="#E8F4FA" fill-rule="nonzero" cx="40" cy="40" r="40"></circle>
                <g id="Group" transform="translate(1.000000, 5.200000)">
                    <g transform="translate(0.000000, 22.600000)">
                        <path d="M59.394,0.05 L7.563,0.05 C6.28722223,0.05 5.253,1.08422223 5.253,2.36 L5.253,35.888 L61.7,35.888 L61.7,2.36 C61.7,1.08578269 60.6682154,0.0522064369 59.394,0.05 Z" id="Path" stroke="#45413C" fill="#F0F0F0" fill-rule="nonzero" stroke-linecap="round" stroke-linejoin="round"></path>
                        <polygon id="Path" fill="#00B8F0" fill-rule="nonzero" points="57.719 4.035 9.294 4.035 9.238 35.888 57.719 35.888"></polygon>
                        <polygon id="Path" fill="#4ACFFF" fill-rule="nonzero" points="45.71 4.035 11.507 35.888 9.238 35.888 9.294 4.035"></polygon>
                        <path d="M12.978,30.535 C12.978,31.4539751 13.3430615,32.3353114 13.992875,32.985125 C14.6426886,33.6349385 15.5240249,34 16.443,34 L57.719,34 L57.719,4.035 L12.978,4.035 L12.978,30.535 Z" id="Path" fill="#00B8F0" fill-rule="nonzero"></path>
                        <polygon id="Path" stroke="#45413C" stroke-linecap="round" stroke-linejoin="round" points="57.719 4.035 9.294 4.035 9.238 35.888 57.719 35.888"></polygon>
                        <ellipse id="Oval" fill="#525252" fill-rule="nonzero" opacity="0.15" cx="34.807" cy="43.858" rx="31.878" ry="1.992"></ellipse>
                        <path d="M66.685,39.873 L0.273,39.873 L0.273,37.043 C0.273,36.4055014 0.789501673,35.8885519 1.427,35.888 L65.527,35.888 C66.1648889,35.888 66.682,36.4051111 66.682,37.043 L66.685,39.873 Z" id="Path" stroke="#45413C" fill="#F0F0F0" fill-rule="nonzero" stroke-linecap="round" stroke-linejoin="round"></path>
                        <path d="M66.685,39.873 C60.51673,41.6350509 54.133012,42.529 47.718,42.529 L19.24,42.529 C12.824988,42.529 6.44127004,41.6350509 0.273,39.873 L66.685,39.873 L66.685,39.873 Z" id="Path" stroke="#45413C" fill="#BDBEC0" fill-rule="nonzero" stroke-linecap="round" stroke-linejoin="round"></path>
                    </g>
                    <g transform="translate(16.400000, 0.200000)">
                        <path d="M50.865,48.5679896 C50.8633442,51.2373124 49.3124957,53.4 47.4,53.4 L3.51,53.4 C1.59633334,53.4 0.045,51.2347606 0.045,48.5638024 L0.045,10.6 L50.865,10.6 L50.865,48.5679896 Z" id="Path" fill="#4ACFFF" fill-rule="nonzero"></path>
                        <rect id="Rectangle" fill="#00B8F0" fill-rule="nonzero" x="0.043" y="10.732" width="50.82" height="3.938"></rect>
                        <g>
                            <path d="M50.865,3.807 C50.865,1.89333334 49.3136667,0.342 47.4,0.342 L3.51,0.342 C1.59633334,0.342 0.045,1.89333334 0.045,3.807 L0.045,10.737 L50.865,10.737 L50.865,3.807 Z" id="Path" stroke="#45413C" fill="#FFFFFF" fill-rule="nonzero" stroke-linecap="round" stroke-linejoin="round"></path>
                            <circle id="Oval" fill="#FF6242" fill-rule="nonzero" cx="5.242" cy="5.539" r="1.732"></circle>
                            <circle id="Oval" fill="#FFE500" fill-rule="nonzero" cx="11.017" cy="5.539" r="1.732"></circle>
                            <circle id="Oval" fill="#6DD627" fill-rule="nonzero" cx="16.792" cy="5.539" r="1.732"></circle>
                            <path d="M50.865,49.938 C50.8633442,51.850495 49.3124957,53.4 47.4,53.4 L3.51,53.4 C1.59633334,53.4 0.045,51.8486667 0.045,49.935 L0.044,10.6 L50.864,10.6 L50.865,49.938 Z" id="Path" stroke="#45413C" stroke-linecap="round" stroke-linejoin="round"></path>
                        </g>
                    </g>
                    <g transform="translate(25.400000, 15.600000)">
                        <path d="M30.312,27.6162215 C30.312,30.0704525 29.0673516,32.0600002 27.532,32.0600002 L3.064,32.0600002 C2.32661683,32.0604241 1.61935875,31.5923779 1.09795008,30.7589158 C0.576541403,29.9254537 0.28399982,28.7949148 0.28399982,27.6162215 L0.28399982,4.50537703 C0.285103051,2.0509939 1.52955324,0.0617633872 3.065,0.0600001802 L27.532,0.0600001802 C29.0674468,0.0617633872 30.3118969,2.0509939 30.313,4.50537703 L30.312,27.6162215 Z" id="Path" fill="#E8F4FA" fill-rule="nonzero"></path>
                        <path d="M3.064,0.066 C1.52855324,0.0677901274 0.284103051,2.087392 0.282994071,4.57924837 L0.282994071,28.0429467 C0.281454182,29.2559752 0.582259313,30.4184584 1.117,31.266 L20.343,0.066 L3.064,0.066 Z" id="Path" fill="#FFFFFF" fill-rule="nonzero"></path>
                        <line x1="3.62" y1="29.524" x2="11.961" y2="29.523" id="Path" stroke="#45413C" stroke-linecap="round" stroke-linejoin="round"></line>
                        <rect id="Rectangle" fill="#E8F4FA" fill-rule="nonzero" x="3.62" y="22.05" width="23.356" height="3.337"></rect>
                        <path d="M30.312,29.28 C30.312,30.8153516 29.0673516,32.0600005 27.532,32.0600005 L3.064,32.0600005 C2.32661683,32.0600005 1.61935875,31.7674586 1.09795008,31.2460499 C0.576541403,30.7246413 0.28399982,30.0173832 0.28399982,29.28 L0.28399982,2.822 C0.285103051,1.28655324 1.52955324,0.0421030513 3.065,0.041 L27.532,0.041 C29.0674468,0.0421030513 30.3118969,1.28655324 30.313,2.822 L30.312,29.28 Z" id="Path" stroke="#45413C" stroke-linecap="round" stroke-linejoin="round"></path>
                        <rect id="Rectangle" stroke="#45413C" stroke-linecap="round" stroke-linejoin="round" x="3.62" y="22.854" width="23.356" height="3.337"></rect>
                        <line x1="3.62" y1="19.522" x2="11.961" y2="19.521" id="Path" stroke="#45413C" stroke-linecap="round" stroke-linejoin="round"></line>
                        <rect id="Rectangle" stroke="#45413C" stroke-linecap="round" stroke-linejoin="round" x="3.62" y="12.852" width="23.356" height="3.337"></rect>
                        <line x1="3.62" y1="9.52" x2="11.961" y2="9.519" id="Path" stroke="#45413C" stroke-linecap="round" stroke-linejoin="round"></line>
                        <rect id="Rectangle" stroke="#45413C" stroke-linecap="round" stroke-linejoin="round" x="3.62" y="2.85" width="23.356" height="3.337"></rect>
                    </g>
                </g>
            </g>
        </g>
    </g>
</svg>