<?xml version="1.0" encoding="UTF-8"?>
<svg width="82px" height="82px" viewBox="0 0 82 82" version="1.1" xmlns="http://www.w3.org/2000/svg" xmlns:xlink="http://www.w3.org/1999/xlink">
    <title>pin-lock-screen-2-mobile-phone-lock-security-smartphone-passcode-password-pin-hand</title>
    <g id="Saison-2" stroke="none" stroke-width="1" fill="none" fill-rule="evenodd">
        <g id="étape-5" transform="translate(-600.000000, -132.000000)">
            <g id="pin-lock-screen-2-mobile-phone-lock-security-smartphone-passcode-password-pin-hand" transform="translate(601.000000, 133.000000)">
                <circle id="Oval" stroke="#DAEDF7" fill="#E8F4FA" fill-rule="nonzero" cx="40" cy="40" r="40"></circle>
                <g id="Group" transform="translate(14.000000, 1.000000)">
                    <g>
                        <path d="M35.791,60.488 C35.791,63.2124207 33.5824207,65.4210004 30.858,65.4210004 L5.278,65.4210004 C3.96978961,65.4210004 2.71500767,64.9020813 1.78996316,63.9770368 C0.864918652,63.0519923 0.345469178,61.7972104 0.345999594,60.489 L0.345999594,5.627 C0.348208133,2.90485562 2.55585478,0.699999896 5.278,0.699999896 L30.859,0.699999896 C33.5828014,0.701104039 35.7904482,2.9091984 35.791,5.633 L35.791,60.488 Z" id="Path" fill="#FFFFFF" fill-rule="nonzero"></path>
                        <path d="M0.345999594,60.488 C0.345469178,61.7962104 0.864918652,63.0509923 1.78996316,63.9760368 C2.71500767,64.9010813 3.96978961,65.4205308 5.278,65.4200004 L30.858,65.4200004 C32.1663129,65.4200004 33.4210408,64.9002747 34.3461578,63.9751578 C35.2712747,63.0500408 35.791,61.7953129 35.791,60.487 L35.791,56.117 C35.7904479,58.841192 33.582192,61.0494479 30.858,61.05 L5.278,61.05 C3.96978961,61.0505308 2.71500767,60.5310813 1.78996316,59.6060368 C0.864918652,58.6809923 0.345469178,57.4262104 0.345999594,56.118 L0.345999594,60.488 Z" id="Path" fill="#DAEDF7" fill-rule="nonzero"></path>
                        <path d="M35.791,60.488 C35.791,63.2124207 33.5824207,65.4210004 30.858,65.4210004 L5.278,65.4210004 C3.96978961,65.4210004 2.71500767,64.9020813 1.78996316,63.9770368 C0.864918652,63.0519923 0.345469178,61.7972104 0.345999594,60.489 L0.345999594,5.627 C0.348208133,2.90485562 2.55585478,0.699999896 5.278,0.699999896 L30.859,0.699999896 C33.5828014,0.701104039 35.7904482,2.9091984 35.791,5.633 L35.791,60.488 Z" id="Path" stroke="#45413C" stroke-linecap="round" stroke-linejoin="round"></path>
                        <rect id="Rectangle" fill="#00B8F0" fill-rule="nonzero" x="3.428" y="9.941" width="29.281" height="45.463"></rect>
                        <polygon id="Path" fill="#4ACFFF" fill-rule="nonzero" points="3.428 34.497 27.985 9.941 3.428 9.941"></polygon>
                        <rect id="Rectangle" stroke="#45413C" stroke-linecap="round" stroke-linejoin="round" x="3.428" y="9.941" width="29.281" height="45.463"></rect>
                        <line x1="16.527" y1="5.318" x2="25.003" y2="5.317" id="Path" stroke="#45413C" stroke-linecap="round" stroke-linejoin="round"></line>
                        <path d="M12.8610005,5.317 C12.8614044,5.70465654 12.6281436,6.05434809 12.2700729,6.20288471 C11.9120022,6.35142133 11.4997069,6.26952249 11.2255922,5.99540778 C10.9514775,5.72129306 10.8695787,5.3089978 11.0181153,4.9509271 C11.1666519,4.5928564 11.5163435,4.35959556 11.904,4.35999947 C12.1578935,4.35973428 12.4014647,4.46047545 12.5809946,4.64000539 C12.7605246,4.81953534 12.8612657,5.06310645 12.8610005,5.317 Z" id="Path" fill="#45413C" fill-rule="nonzero"></path>
                        <circle id="Oval" stroke="#45413C" fill="#FFFFFF" fill-rule="nonzero" stroke-linecap="round" stroke-linejoin="round" cx="18.069" cy="60.412" r="2.697"></circle>
                    </g>
                    <g transform="translate(7.000000, 16.000000)" fill-rule="nonzero">
                        <circle id="Oval" stroke="#45413C" fill="#E8F4FA" stroke-linecap="round" stroke-linejoin="round" cx="3.904" cy="15.13" r="2.37"></circle>
                        <circle id="Oval" stroke="#45413C" fill="#E8F4FA" stroke-linecap="round" stroke-linejoin="round" cx="11.015" cy="15.13" r="2.37"></circle>
                        <circle id="Oval" stroke="#45413C" fill="#E8F4FA" stroke-linecap="round" stroke-linejoin="round" cx="18.125" cy="15.13" r="2.37"></circle>
                        <circle id="Oval" stroke="#45413C" fill="#E8F4FA" stroke-linecap="round" stroke-linejoin="round" cx="3.904" cy="22.24" r="2.37"></circle>
                        <circle id="Oval" stroke="#45413C" fill="#E8F4FA" stroke-linecap="round" stroke-linejoin="round" cx="11.015" cy="22.24" r="2.37"></circle>
                        <circle id="Oval" stroke="#45413C" fill="#E8F4FA" stroke-linecap="round" stroke-linejoin="round" cx="11.015" cy="29.351" r="2.37"></circle>
                        <circle id="Oval" stroke="#45413C" fill="#E8F4FA" stroke-linecap="round" stroke-linejoin="round" cx="3.904" cy="29.351" r="2.37"></circle>
                        <rect id="Rectangle" stroke="#45413C" fill="#FFFFFF" stroke-linecap="round" stroke-linejoin="round" x="0.349" y="0.908" width="21.332" height="7.111" rx="1.97"></rect>
                        <circle id="Oval" fill="#45413C" cx="3.904" cy="4.463" r="1.185"></circle>
                        <circle id="Oval" fill="#45413C" cx="8.644" cy="4.463" r="1.185"></circle>
                        <circle id="Oval" fill="#45413C" cx="13.385" cy="4.463" r="1.185"></circle>
                        <circle id="Oval" fill="#45413C" cx="18.125" cy="4.463" r="1.185"></circle>
                    </g>
                </g>
                <g id="Group" transform="translate(55.000000, 6.000000)">
                    <rect id="Rectangle" stroke="#45413C" fill="#FFE500" fill-rule="nonzero" stroke-linecap="round" stroke-linejoin="round" x="0.522" y="11.399" width="19.448" height="16.409" rx="2.431"></rect>
                    <path d="M17.539,11.3999998 L2.953,11.3999998 C2.30817738,11.3997346 1.6896888,11.6557718 1.23373032,12.1117303 C0.777771833,12.5676888 0.521734586,13.1861774 0.521999794,13.831 L0.521999794,16.667 C0.521999794,15.3243958 1.61039577,14.236 2.953,14.236 L17.539,14.236 C18.8813756,14.2365519 19.9694481,15.3246244 19.97,16.667 L19.97,13.83 C19.9694479,12.4877863 18.8812138,11.3999998 17.539,11.3999998 Z" id="Path" fill="#FFF48C" fill-rule="nonzero"></path>
                    <circle id="Oval" stroke="#45413C" fill="#656769" fill-rule="nonzero" stroke-linecap="round" stroke-linejoin="round" cx="10.246" cy="19.604" r="2.038"></circle>
                    <rect id="Rectangle" stroke="#45413C" stroke-linecap="round" stroke-linejoin="round" x="0.522" y="11.399" width="19.448" height="16.409" rx="2.431"></rect>
                    <path d="M14.066,11.4 L14.066,8 C14.066,5.89027226 12.3557277,4.18 10.246,4.18 C8.13627226,4.18 6.426,5.89027226 6.426,8 L6.426,11.4 L2.953,11.4 L2.953,8 C2.953,3.97218732 6.21818732,0.707 10.246,0.707 C14.2738127,0.707 17.539,3.97218732 17.539,8 L17.539,11.4 L14.066,11.4 Z" id="Path" stroke="#45413C" fill="#E8F4FA" fill-rule="nonzero" stroke-linecap="round" stroke-linejoin="round"></path>
                </g>
                <g id="Group" transform="translate(37.000000, 38.000000)">
                    <path d="M9.309,18.829 L0.914,4.6 C0.438007638,3.80955406 0.422862807,2.8244567 0.874331415,2.01975203 C1.32580002,1.21504736 2.17441666,0.714551619 3.09709784,0.70876257 C4.01977903,0.703073278 4.87455602,1.19297374 5.336,1.992 L11.775,12.909 C11.0545445,11.68707 11.46107,10.1124555 12.683,9.392 C13.90493,8.67154454 15.4795445,9.07806999 16.2,10.3 L16.852,11.405 C16.3861256,10.6152644 16.3769589,9.63697762 16.8279528,8.8386508 C17.2789467,8.04032398 18.1215846,7.54324197 19.0384529,7.53465077 C19.9553211,7.52605957 20.8071257,8.00726438 21.273,8.797 L21.925,9.903 C21.2205817,8.68324469 21.6306239,7.12369733 22.8438808,6.4081446 C24.0571378,5.69259186 25.6203728,6.08834301 26.347,7.295 L31.075,15.309 C34.434,21.009 32.811,23.309 34.732,26.563 L36.525,29.603 L23.809,37.1 C20.052,30.729 14.385,36.541 8.45,26.479 C6.209,22.677 6.57,20.445 9.309,18.829 Z" id="Path" fill="#FFDA8F" fill-rule="nonzero"></path>
                    <path d="M13.738,32.038 C21.4070001,31.6870875 28.5760074,28.1312483 33.496,22.238 C33.5890041,23.7522531 34.0096955,25.2282556 34.729,26.564 L36.522,29.604 L23.809,37.1 C21.193,32.662 17.651,34.132 13.738,32.038 Z" id="Path" fill="#FFBE3D" fill-rule="nonzero"></path>
                    <g id="Path" stroke="#45413C" stroke-linecap="round" stroke-linejoin="round">
                        <g transform="translate(9.000000, 9.000000)">
                            <line x1="9.261" y1="4.797" x2="7.849" y2="2.402" fill="#FFCEBF" fill-rule="nonzero"></line>
                            <line x1="4.731" y1="7.221" x2="2.775" y2="3.905" fill="#FFCEBF" fill-rule="nonzero"></line>
                            <line x1="13.683" y1="2.189" x2="12.922" y2="0.9" fill="#FFCEBF" fill-rule="nonzero"></line>
                            <line x1="3.243" y1="14.804" x2="0.309" y2="9.829"></line>
                        </g>
                        <path d="M23.809,37.1 C20.052,30.729 14.385,36.541 8.45,26.479 C6.209,22.679 6.57,20.447 9.309,18.831 L0.914,4.6 C0.438007638,3.80955406 0.422862807,2.8244567 0.874331415,2.01975203 C1.32580002,1.21504736 2.17441666,0.714551619 3.09709784,0.70876257 C4.01977903,0.703073278 4.87455602,1.19297374 5.336,1.992 L11.775,12.909 C11.0545445,11.68707 11.46107,10.1124555 12.683,9.392 C13.90493,8.67154454 15.4795445,9.07806999 16.2,10.3 L16.852,11.405 C16.3861256,10.6152644 16.3769589,9.63697762 16.8279528,8.8386508 C17.2789467,8.04032398 18.1215846,7.54324197 19.0384529,7.53465077 C19.9553211,7.52605957 20.8071257,8.00726438 21.273,8.797 L21.925,9.903 C21.2205817,8.68324469 21.6306239,7.12369733 22.8438808,6.4081446 C24.0571378,5.69259186 25.6203728,6.08834301 26.347,7.295 L31.075,15.309 C34.434,21.009 32.811,23.309 34.732,26.563 L36.525,29.603"></path>
                    </g>
                </g>
            </g>
        </g>
    </g>
</svg>