<svg xmlns="http://www.w3.org/2000/svg" viewBox="0 0 1366 768"><path d="M609.21 209.99c106.01-111.22 279.43-119.38 395.3-21.63-4.02-4.35-8.15-8.62-12.51-12.76-115.51-110.15-298.44-105.78-408.6 9.77-110.16 115.53-105.8 298.46 9.72 408.61 4.34 4.17 8.79 8.06 13.33 11.89-103.15-111.11-103.25-284.71 2.76-395.88z" fill="#ea6126"/><path d="M1047.62 379.15c3.67 153.59-113.16 281.99-264.24 294.82 5.91.21 11.85.34 17.85.19 159.59-3.79 285.85-136.26 282.05-295.86-3.79-159.58-136.25-285.86-295.84-282.06-6 .14-11.92.54-17.79 1.02 151.46 5.64 274.3 128.31 277.97 281.89z" fill="#5394d0"/><path d="M615.96 572.63C504.03 466.9 495.04 293.16 592.51 176.61a251.37 251.37 0 0 0-12.75 12.56C469.89 305.44 475.1 488.76 591.37 598.64c116.29 109.88 299.64 104.65 409.5-11.64 4.08-4.34 8.02-8.85 11.8-13.41-110.82 103.88-284.81 104.77-396.71-.96z" fill="#2f5972"/><path d="M749.25 526.55l119.81-.06c6.33 0 11.27-5.27 11.27-13.38v-17.03c0-8.43-5.65-14.4-11.63-14.4l-71.68-.12c-6.34 0-11.93-3.84-11.93-9.15V278.17c0-7.01-7.05-12.3-15.13-12.3h-34.03c-12.28 0-15.83 5.28-15.83 13.37v223.37c-.01 18.62 14.76 23.94 29.15 23.94zm255.12 7.71c49.87 0 95.15-35.83 95.15-78.72V339.62c0-43.52-45.29-79.72-95.15-79.72-49.87 0-93.76 36.2-93.76 79.72v115.92c0 42.9 43.89 78.72 93.76 78.72zM976.28 332.6c0-15.11 15.1-29.15 32.66-29.15 17.91 0 33.37 14.04 33.37 29.15v132.11c0 15.44-15.12 28.81-33.37 28.81-18.26 0-32.66-13.38-32.66-28.81V332.6zM46.48 475.75h36.15c10.18 0 14.04-6.67 14.04-15.13v-43.69c0-8.07 14.4-12.31 21.09-1.05l50.92 99.03c4.21 7.77 8.43 12 19.63 12h37.96c8.06 0 17.17-5.67 11.57-15.85l-70.23-126.11c-5.62-8.8-6.66-14.76 0-25.29L215 283.1c7.04-9.14 0-17.22-8.77-17.22h-31.6c-8.8 0-13.68 3.53-17.22 9.14l-55.12 89.21c-1.04 1.75-5.62 2.47-5.62.34v-87.45c0-6.32-5.26-11.25-13.35-11.25H45.41c-8.42 0-14.41 5.64-14.41 11.61v183.14c0 8.16 7.58 15.13 15.48 15.13zm258.62 50.8h118c.18 0 .29-.06.49-.06h5.58c6.32 0 11.25-5.27 11.25-13.38v-17.03c0-8.43-5.64-14.4-11.62-14.4h-81.96c-4.38-.57-7.32-2.58-7.32-4.67v-52.34c0-2.38 2.47-4.38 5.32-5h58.43c6.33 0 11.25-5.24 11.25-13.36v-13.49c0-8.44-5.63-14.42-11.59-14.42l-54.63-.15c-5.61 0-9.46-2.78-9.46-7.36v-55.87c0-2.79 3.49-5.27 7.02-5.27h78.56c6.34 0 11.25-5.25 11.25-13.36v-16.14c0-8.43-5.62-14.4-11.6-14.4H304.09c-14.75 0-26.35 8.08-26.35 22.82v217.81c-.03 14.75 9.1 20.07 27.36 20.07zm926.36 7.71c26.71 0 29.15-3.85 54.08-22.14 7.71-7.03 14.4-8.44 28.1-6.69 11.59 1.78 20.36-6.3 20.36-16.84v-67.8c0-10.85-7.04-13.69-16.51-13.69h-68.45c-9.14 0-16.87 5.96-16.87 14.04 0 7.75 8.08 13.73 16.87 13.73 14.36 0 31.58 11.57 31.58 25.61 0 14.08-14.07 23.91-31.58 24.98-1.79.35-6.35 0-6.35 0-33.36 0-32.99-23.57-32.99-57.99v-63.23c0-24.97-7.73-56.2 34.08-56.2 15.08 0 23.15 3.51 42.1 10.53 8.8 2.79 14.06 1.75 18.97-7.74l9.83-20.72c3.16-7-.68-12.62-8.4-15.8-15.82-5.96-29.51-14.76-62.5-14.76-74.46 0-99.76 35.13-99.41 94.5v91.31c0 60.07 48.82 88.9 87.09 88.9zm-728.4-268.39c-12.31 0-15.83 5.28-15.83 13.37v184.24c0 7.01 7.04 12.28 15.1 12.28h34.04c12.3 0 15.85-5.27 15.85-13.35v-42.2c39.09 1.35 53.56 87.13 56.18 95.03 3.22 7.67 8.09 10.95 19.35 11.64h37.99c7.37 0 15.81-3.37 12.67-14.45-1.44-5.01-15.36-61.49-42.55-88.68-11.65-11.64-21.12-11.97-21.12-17.58 0-3.48 1.76-2.81 5.64-4.57 27.09-13.41 39.39-29.92 39.39-54.56v-9.85c0-39.52-37.45-70.89-87.65-71.29l-.05-.02h-69.01zm49.17 43.9h11.2c19.22.17 38.66 12.39 38.66 30.58v7.05c0 15.81-16.89 30.98-38.71 30.98h-11.16v-68.61zm190.59 302.4c-3.43 0-6.54-.58-9.32-1.76s-5.15-2.77-7.11-4.78c-1.96-2.02-3.47-4.36-4.54-7.03a22.571 22.571 0 0 1-1.59-8.41c0-3.05.52-5.93 1.55-8.63s2.53-5.07 4.49-7.11 4.35-3.66 7.15-4.87c2.8-1.19 5.95-1.8 9.44-1.8 3.49 0 6.61.6 9.36 1.8 2.75 1.2 5.09 2.81 7.03 4.83 1.93 2.01 3.4 4.36 4.41 7.02 1.01 2.67 1.51 5.45 1.51 8.34 0 .71-.01 1.39-.04 2.04-.03.65-.1 1.19-.21 1.63h-33.1c.16 1.69.57 3.19 1.22 4.5s1.5 2.43 2.54 3.35c1.03.92 2.21 1.63 3.51 2.13 1.31.49 2.67.73 4.09.73 2.18 0 4.24-.52 6.17-1.59 1.93-1.06 3.25-2.46 3.96-4.21l9.4 2.61c-1.58 3.27-4.1 5.95-7.56 8.05-3.44 2.11-7.57 3.16-12.36 3.16zm11.12-25.83c-.27-3.22-1.46-5.79-3.56-7.72-2.1-1.93-4.65-2.9-7.64-2.9-1.47 0-2.85.26-4.13.78-1.28.52-2.41 1.24-3.4 2.17-.98.93-1.78 2.05-2.41 3.35-.63 1.31-1 2.76-1.1 4.33h22.24zm29.99 3.59c0-2.99.52-5.83 1.55-8.5a20.63 20.63 0 0 1 4.49-7.02c1.96-2.02 4.33-3.62 7.11-4.83 2.78-1.19 5.91-1.8 9.4-1.8 4.69 0 8.68 1.01 11.98 3.03 3.29 2.01 5.76 4.65 7.39 7.93l-10.7 3.26c-.93-1.57-2.15-2.79-3.68-3.63-1.53-.85-3.22-1.26-5.07-1.26-1.58 0-3.06.31-4.41.93-1.36.63-2.55 1.51-3.56 2.61-1.01 1.13-1.8 2.47-2.37 4.05-.57 1.58-.86 3.32-.86 5.23 0 1.91.3 3.65.9 5.24.6 1.58 1.4 2.94 2.41 4.09 1.01 1.14 2.19 2.03 3.56 2.65 1.36.63 2.8.94 4.33.94 1.96 0 3.77-.5 5.43-1.48 1.66-.98 2.82-2.18 3.47-3.59l10.7 3.27c-1.47 3.26-3.9 5.94-7.28 8-3.38 2.07-7.44 3.11-12.18 3.11-3.49 0-6.62-.6-9.4-1.8-2.78-1.2-5.15-2.82-7.11-4.87-1.96-2.04-3.47-4.41-4.54-7.11-1.03-2.68-1.56-5.5-1.56-8.45zm82.88 22.24c-3.49 0-6.62-.6-9.4-1.8-2.78-1.2-5.13-2.82-7.07-4.87-1.93-2.04-3.42-4.4-4.45-7.07-1.03-2.66-1.55-5.47-1.55-8.41 0-3 .52-5.83 1.55-8.5s2.52-5.03 4.45-7.07c1.93-2.04 4.29-3.66 7.07-4.87 2.78-1.19 5.92-1.8 9.4-1.8 3.48 0 6.61.6 9.35 1.8 2.75 1.2 5.09 2.83 7.03 4.87s3.42 4.4 4.45 7.07c1.03 2.67 1.55 5.5 1.55 8.5 0 2.94-.52 5.75-1.55 8.41a21.798 21.798 0 0 1-4.41 7.07c-1.91 2.05-4.25 3.66-7.03 4.87-2.77 1.19-5.91 1.8-9.39 1.8zm-11.21-22.15c0 1.9.29 3.63.86 5.19.57 1.55 1.36 2.9 2.37 4.05 1.01 1.14 2.19 2.03 3.56 2.65 1.36.63 2.83.94 4.42.94 1.58 0 3.05-.31 4.41-.94 1.36-.62 2.55-1.52 3.56-2.65 1.01-1.15 1.8-2.51 2.37-4.09s.86-3.32.86-5.24c0-1.85-.29-3.57-.86-5.15-.57-1.57-1.36-2.94-2.37-4.08-1.01-1.15-2.2-2.03-3.56-2.66-1.36-.62-2.83-.93-4.41-.93s-3.06.32-4.42.97c-1.36.66-2.55 1.55-3.56 2.7-1.01 1.15-1.8 2.51-2.37 4.09-.57 1.58-.86 3.29-.86 5.15zm56.89-38.33h5.56v50.02c0 1.58.44 2.82 1.31 3.72.87.89 2.1 1.35 3.68 1.35.6 0 1.31-.09 2.12-.25.82-.16 1.58-.38 2.29-.65l.98 4.5c-1.03.44-2.3.79-3.8 1.06s-2.79.41-3.89.41c-2.56 0-4.58-.72-6.05-2.17-1.47-1.44-2.21-3.47-2.21-6.09v-51.9zm54.35 60.48c-3.1 0-5.95-.58-8.54-1.76-2.59-1.18-4.82-2.77-6.7-4.78-1.88-2.02-3.34-4.36-4.37-7.03a23.154 23.154 0 0 1-1.55-8.41c0-3 .53-5.83 1.59-8.5s2.54-5.01 4.42-7.03c1.88-2.01 4.11-3.62 6.7-4.82 2.59-1.2 5.41-1.8 8.46-1.8 3.06 0 5.87.59 8.46 1.8 2.59 1.19 4.82 2.81 6.7 4.82 1.88 2.02 3.35 4.36 4.41 7.03s1.6 5.5 1.6 8.5c0 2.94-.53 5.74-1.6 8.41-1.06 2.67-2.53 5.01-4.41 7.03-1.88 2.01-4.11 3.6-6.7 4.78-2.6 1.17-5.42 1.76-8.47 1.76zm-15.45-21.91c0 2.4.39 4.61 1.19 6.66.79 2.04 1.88 3.84 3.27 5.39 1.39 1.55 3.03 2.77 4.91 3.63 1.88.87 3.88 1.31 6.01 1.31 2.12 0 4.12-.45 6-1.35 1.88-.89 3.53-2.12 4.94-3.67 1.42-1.55 2.54-3.37 3.35-5.44.82-2.07 1.23-4.3 1.23-6.7 0-2.34-.41-4.56-1.23-6.65-.82-2.1-1.93-3.92-3.35-5.48a16.113 16.113 0 0 0-4.9-3.68c-1.86-.89-3.84-1.35-5.97-1.35-2.12 0-4.12.46-6 1.35-1.88.9-3.52 2.14-4.91 3.72-1.39 1.58-2.49 3.42-3.31 5.52-.82 2.1-1.23 4.34-1.23 6.74zm77.64 21.66c-2.94 0-5.63-.61-8.05-1.85a20.788 20.788 0 0 1-6.29-4.86c-1.77-2.02-3.15-4.33-4.13-6.95s-1.47-5.31-1.47-8.09c0-2.94.48-5.76 1.43-8.46.95-2.7 2.3-5.05 4.04-7.07 1.74-2.01 3.83-3.62 6.26-4.82 2.42-1.2 5.1-1.8 8.05-1.8 3.65 0 6.81.91 9.48 2.73 2.67 1.83 4.96 4.13 6.87 6.91v-8.91h4.98v42.75c0 2.93-.56 5.54-1.68 7.8-1.12 2.26-2.61 4.16-4.49 5.68-1.88 1.53-4.1 2.67-6.66 3.43-2.56.77-5.26 1.15-8.09 1.15-4.85 0-8.77-.87-11.77-2.61-3-1.75-5.42-4.09-7.27-7.03l3.43-2.69c1.69 2.72 3.92 4.72 6.7 6 2.78 1.28 5.75 1.92 8.91 1.92 2.07 0 4.05-.29 5.93-.86 1.88-.57 3.52-1.42 4.91-2.54 1.39-1.12 2.49-2.53 3.31-4.24.82-1.72 1.23-3.72 1.23-6v-8.42c-1.69 2.73-3.94 4.88-6.74 6.46-2.82 1.58-5.78 2.37-8.89 2.37zm1.56-4.66c1.63 0 3.24-.3 4.82-.89 1.58-.6 3.01-1.41 4.29-2.42 1.28-1 2.36-2.14 3.23-3.39.87-1.25 1.45-2.54 1.72-3.84v-13.16c-.6-1.53-1.43-2.94-2.49-4.25a17.575 17.575 0 0 0-3.56-3.35c-1.31-.93-2.71-1.66-4.21-2.21-1.5-.54-3.01-.83-4.54-.83-2.4 0-4.52.51-6.37 1.52a15.505 15.505 0 0 0-4.74 3.96c-1.31 1.63-2.3 3.49-2.99 5.56-.68 2.07-1.02 4.17-1.02 6.29 0 2.29.41 4.47 1.23 6.54.82 2.07 1.93 3.89 3.35 5.44 1.42 1.55 3.09 2.78 5.03 3.67 1.93.91 4.01 1.36 6.25 1.36zm46.25-47.4v-8.17h5.56v8.17h-5.56zm0 51.49v-42.59h5.56v42.59h-5.56zm29.43-21.42c0-2.99.52-5.83 1.55-8.5 1.03-2.66 2.49-4.99 4.37-6.98 1.88-1.99 4.13-3.56 6.74-4.7 2.62-1.14 5.5-1.71 8.66-1.71 4.03 0 7.55.91 10.54 2.73 3 1.83 5.26 4.29 6.78 7.4l-5.39 1.72c-1.2-2.19-2.86-3.89-4.99-5.11-2.12-1.22-4.49-1.85-7.11-1.85-2.18 0-4.21.44-6.09 1.31s-3.52 2.06-4.91 3.56c-1.39 1.5-2.48 3.28-3.27 5.35s-1.19 4.33-1.19 6.78c0 2.4.41 4.66 1.23 6.79.82 2.12 1.93 3.96 3.35 5.52 1.42 1.55 3.06 2.78 4.94 3.67 1.88.9 3.89 1.35 6.01 1.35 1.36 0 2.71-.19 4.05-.57s2.57-.91 3.72-1.59c1.14-.68 2.12-1.46 2.94-2.33.82-.86 1.39-1.8 1.71-2.78l5.4 1.64c-.6 1.53-1.47 2.92-2.62 4.21-1.15 1.28-2.49 2.4-4.05 3.35-1.55.95-3.27 1.69-5.15 2.21-1.88.51-3.83.78-5.84.78-3.11 0-5.96-.58-8.58-1.76-2.61-1.18-4.88-2.78-6.79-4.82-1.9-2.05-3.39-4.4-4.45-7.07-1.03-2.68-1.56-5.54-1.56-8.6zm62.43-30.07v-8.17h5.56v8.17h-5.56zm0 51.49v-42.59h5.56v42.59h-5.56zm50.84.82c-3.11 0-5.96-.58-8.58-1.76-2.61-1.18-4.88-2.78-6.79-4.82-1.9-2.05-3.39-4.4-4.45-7.07s-1.59-5.53-1.59-8.59c0-2.99.53-5.81 1.59-8.45a21.81 21.81 0 0 1 4.45-6.96c1.91-1.98 4.16-3.57 6.75-4.73 2.58-1.18 5.43-1.76 8.54-1.76s5.95.58 8.54 1.76c2.59 1.17 4.81 2.76 6.66 4.78 1.85 2.01 3.29 4.33 4.33 6.95 1.03 2.61 1.55 5.39 1.55 8.33 0 .44-.01.87-.04 1.31-.03.44-.07.73-.12.89h-36.37c.16 2.29.69 4.4 1.59 6.33.9 1.93 2.04 3.61 3.43 5.03a14.79 14.79 0 0 0 4.82 3.3c1.83.8 3.77 1.19 5.85 1.19 1.41 0 2.8-.18 4.17-.57 1.36-.38 2.61-.89 3.76-1.54 1.14-.66 2.17-1.46 3.06-2.42.9-.95 1.59-2 2.08-3.14l4.82 1.3c-.66 1.58-1.58 3.01-2.78 4.29-1.2 1.28-2.59 2.4-4.17 3.35-1.58.95-3.32 1.69-5.23 2.21-1.89.52-3.85.79-5.87.79zm15.69-24.36c-.17-2.29-.69-4.37-1.59-6.26-.9-1.87-2.04-3.5-3.43-4.87-1.39-1.36-3.01-2.42-4.86-3.19-1.86-.76-3.82-1.14-5.89-1.14s-4.03.38-5.88 1.14c-1.86.77-3.48 1.83-4.87 3.19-1.39 1.37-2.51 3-3.35 4.91-.85 1.91-1.35 3.98-1.51 6.22h31.38zm28.61-36.12h5.56v50.02c0 1.58.44 2.82 1.31 3.72.87.89 2.1 1.35 3.68 1.35.6 0 1.31-.09 2.12-.25.82-.16 1.58-.38 2.29-.65l.98 4.5c-1.03.44-2.3.79-3.8 1.06s-2.79.41-3.89.41c-2.56 0-4.58-.72-6.05-2.17-1.47-1.44-2.21-3.47-2.21-6.09v-51.9zm50.34 60.48c-3.32 0-6.57-.54-9.72-1.63-3.16-1.1-5.89-2.67-8.17-4.74l2.54-3.76c2.39 1.96 4.83 3.43 7.31 4.41 2.48.98 5.13 1.47 7.97 1.47 3.43 0 6.17-.69 8.21-2.08 2.04-1.39 3.06-3.36 3.06-5.93 0-1.19-.27-2.2-.82-2.98-.54-.79-1.35-1.49-2.41-2.09-1.06-.59-2.4-1.13-4.01-1.59-1.61-.46-3.47-.94-5.6-1.43-2.45-.6-4.58-1.19-6.38-1.8-1.8-.6-3.28-1.28-4.45-2.04-1.17-.77-2.04-1.71-2.61-2.83-.57-1.12-.86-2.52-.86-4.21 0-2.13.42-4 1.27-5.64.84-1.63 1.99-2.98 3.43-4.04 1.44-1.06 3.13-1.87 5.07-2.41 1.93-.54 3.99-.82 6.17-.82 3.27 0 6.24.52 8.91 1.59 2.67 1.06 4.82 2.47 6.46 4.21l-2.7 3.27c-1.58-1.64-3.5-2.87-5.76-3.68-2.26-.82-4.62-1.22-7.07-1.22-1.47 0-2.83.15-4.08.45-1.25.3-2.36.78-3.31 1.43-.96.66-1.7 1.49-2.25 2.5s-.82 2.2-.82 3.56c0 1.15.19 2.07.57 2.78.38.71 1.01 1.32 1.88 1.84.87.52 1.98.98 3.31 1.39 1.34.41 2.95.84 4.86 1.27 2.72.65 5.12 1.3 7.19 1.96 2.07.65 3.8 1.41 5.19 2.28 1.39.87 2.44 1.93 3.15 3.19s1.06 2.78 1.06 4.58c0 3.92-1.5 7.03-4.5 9.33-2.99 2.26-7.03 3.41-12.09 3.41z" fill="#29265b"/></svg>