<svg xmlns="http://www.w3.org/2000/svg" fill="none" viewBox="0 0 24 24" stroke-width="1.5" height="48" width="48"><path stroke="#ffffff" d="M5.25098 5.62524C5.04387 5.62524 4.87598 5.45735 4.87598 5.25024C4.87598 5.04314 5.04387 4.87524 5.25098 4.87524"></path><path stroke="#ffffff" d="M5.25098 5.62524C5.45808 5.62524 5.62598 5.45735 5.62598 5.25024C5.62598 5.04314 5.45808 4.87524 5.25098 4.87524"></path><path stroke="#ffffff" stroke-linecap="round" stroke-linejoin="round" d="M10.501 5.25024H17.251"></path><path stroke="#ffffff" d="M5.25098 14.6252C5.04387 14.6252 4.87598 14.4574 4.87598 14.2502C4.87598 14.0431 5.04387 13.8752 5.25098 13.8752"></path><path stroke="#ffffff" d="M5.25098 14.6252C5.45808 14.6252 5.62598 14.4574 5.62598 14.2502C5.62598 14.0431 5.45808 13.8752 5.25098 13.8752"></path><path stroke="#ffffff" stroke-linecap="round" stroke-linejoin="round" d="M5.25098 9.75024C4.0575 9.75024 2.91291 9.27614 2.069 8.43222C1.22508 7.58831 0.750977 6.44372 0.750977 5.25024C0.750977 4.05677 1.22508 2.91218 2.069 2.06826C2.91291 1.22435 4.0575 0.750244 5.25098 0.750244H17.251C18.1538 0.750319 19.0358 1.02198 19.7822 1.5299C20.5286 2.03783 21.105 2.75855 21.4365 3.59837C21.7679 4.4382 21.839 5.3583 21.6406 6.23909C21.4422 7.11988 20.9835 7.92062 20.324 8.53724"></path><path stroke="#ffffff" stroke-linecap="round" stroke-linejoin="round" d="M9.75098 18.7502H5.25098C4.0575 18.7502 2.91291 18.2761 2.069 17.4322C1.22508 16.5883 0.750977 15.4437 0.750977 14.2502C0.750977 13.0568 1.22508 11.9122 2.069 11.0683C2.91291 10.2244 4.0575 9.75024 5.25098 9.75024H13.5"></path><path stroke="#ffffff" stroke-linecap="round" stroke-linejoin="round" d="M10.501 14.2502H11.251"></path><g><path stroke="#ffffff" d="M17.1506 21.0002C16.9435 21.0002 16.7756 20.8324 16.7756 20.6252C16.7756 20.4181 16.9435 20.2502 17.1506 20.2502"></path><path stroke="#ffffff" d="M17.1506 21.0002C17.3577 21.0002 17.5256 20.8324 17.5256 20.6252C17.5256 20.4181 17.3577 20.2502 17.1506 20.2502"></path><path stroke="#ffffff" stroke-linecap="round" stroke-linejoin="round" d="M17.1506 18.0002V15.0002"></path><path stroke="#ffffff" stroke-linecap="round" stroke-linejoin="round" d="M22.9636 20.6822C23.099 20.9527 23.163 21.2534 23.1495 21.5556C23.1359 21.8578 23.0454 22.1515 22.8863 22.4088C22.7273 22.6661 22.5051 22.8785 22.2409 23.0258C21.9766 23.1731 21.6791 23.2503 21.3766 23.2502H12.9246C12.6221 23.2503 12.3246 23.1731 12.0604 23.0258C11.7962 22.8785 11.574 22.6661 11.4149 22.4088C11.2559 22.1515 11.1653 21.8578 11.1518 21.5556C11.1383 21.2534 11.2022 20.9527 11.3376 20.6822L15.5636 12.2312C15.7109 11.9364 15.9374 11.6884 16.2177 11.5151C16.498 11.3418 16.8211 11.25 17.1506 11.25C17.4802 11.25 17.8032 11.3418 18.0836 11.5151C18.3639 11.6884 18.5904 11.9364 18.7376 12.2312L22.9636 20.6822Z"></path></g></svg>