<?xml version="1.0" encoding="UTF-8"?>
<svg width="82px" height="82px" viewBox="0 0 82 82" version="1.1" xmlns="http://www.w3.org/2000/svg" xmlns:xlink="http://www.w3.org/1999/xlink">
    <title>Group 2</title>
    <g id="Saison-2" stroke="none" stroke-width="1" fill="none" fill-rule="evenodd">
        <g id="étape-5" transform="translate(-600.000000, -344.000000)">
            <g id="Group-2" transform="translate(601.000000, 345.000000)">
                <g id="downloading-1-cloud-network-download-desktop-imac-pc-progress-bar">
                    <circle id="Oval" stroke="#DAEDF7" fill="#E8F4FA" fill-rule="nonzero" cx="40" cy="40.196" r="40"></circle>
                    <g id="Group" transform="translate(11.000000, 21.000000)">
                        <g>
                            <ellipse id="Oval" fill="#45413C" fill-rule="nonzero" opacity="0.15" cx="29.106" cy="55.957" rx="10" ry="1.154"></ellipse>
                            <path d="M58.3499999,4.958 C58.3499999,2.35342512 56.2385749,0.242 53.634,0.242 L5.065,0.242 C3.81433097,0.242 2.6149007,0.738894743 1.73063792,1.62334506 C0.846375148,2.50779538 0.349999894,3.707331 0.349999894,4.958 L0.349999894,37.151 L58.3499999,37.151 L58.3499999,4.958 Z" id="Path" fill="#00B8F0" fill-rule="nonzero"></path>
                            <path d="M39.1,0.242 L5.065,0.242 C3.81433097,0.242 2.6149007,0.738894743 1.73063792,1.62334506 C0.846375148,2.50779538 0.349999894,3.707331 0.349999894,4.958 L0.349999894,37.151 L2.194,37.151 L39.1,0.242 Z" id="Path" fill="#4ACFFF" fill-rule="nonzero"></path>
                            <polygon id="Path" fill="#DAEDF7" fill-rule="nonzero" points="36.38 51.211 22.319 51.211 23.198 44.181 35.501 44.181"></polygon>
                            <polygon id="Path" fill="#C0DCEB" fill-rule="nonzero" points="35.831 46.818 22.868 46.818 23.198 44.181 35.501 44.181"></polygon>
                            <polygon id="Path" stroke="#45413C" stroke-linecap="round" stroke-linejoin="round" points="36.38 51.211 22.319 51.211 23.198 44.181 35.501 44.181"></polygon>
                            <path d="M39.417,54.727 L19.282,54.727 C18.9131711,54.7311939 18.5672884,54.5484035 18.3629654,54.2413133 C18.1586424,53.9342231 18.1236544,53.5445783 18.27,53.206 C18.8536116,51.9847338 20.0864518,51.2069167 21.44,51.206 L37.259,51.206 C38.6125482,51.2069167 39.8453884,51.9847338 40.429,53.206 C40.5753456,53.5445783 40.5403576,53.9342231 40.3360346,54.2413133 C40.1317116,54.5484035 39.7858289,54.7311939 39.417,54.727 L39.417,54.727 Z" id="Path" stroke="#45413C" fill="#E8F4FA" fill-rule="nonzero" stroke-linecap="round" stroke-linejoin="round"></path>
                            <path d="M53.634,44.181 C54.884669,44.181 56.0840993,43.6841053 56.9683621,42.7996549 C57.8526249,41.9152046 58.3489999,40.715669 58.3489999,39.465 L58.3489999,37.151 L0.348999894,37.151 L0.348999894,39.465 C0.348999894,40.715669 0.845375148,41.9152046 1.72963792,42.7996549 C2.6139007,43.6841053 3.81333097,44.181 5.064,44.181 L53.634,44.181 Z" id="Path" stroke="#45413C" fill="#E8F4FA" fill-rule="nonzero" stroke-linecap="round" stroke-linejoin="round"></path>
                            <path d="M58.3499999,4.958 C58.3499999,2.35342512 56.2385749,0.242 53.634,0.242 L5.065,0.242 C3.81433097,0.242 2.6149007,0.738894743 1.73063792,1.62334506 C0.846375148,2.50779538 0.349999894,3.707331 0.349999894,4.958 L0.349999894,37.151 L58.3499999,37.151 L58.3499999,4.958 Z" id="Path" stroke="#45413C" stroke-linecap="round" stroke-linejoin="round"></path>
                            <path d="M30.35,40.666 C30.35,41.2182847 29.9022847,41.666 29.35,41.666 C28.7977153,41.666 28.35,41.2182847 28.35,40.666 C28.35,40.1137153 28.7977153,39.666 29.35,39.666 C29.9022847,39.666 30.35,40.1137153 30.35,40.666 Z" id="Path" fill="#45413C" fill-rule="nonzero"></path>
                        </g>
                        <g transform="translate(11.000000, 21.000000)" id="Path">
                            <path d="M35.783,3.606 C35.783,5.34238325 34.3753833,6.75 32.639,6.75 L4.06,6.75 C2.92357196,6.77026994 1.86468645,6.17559497 1.29054039,5.19465875 C0.716394332,4.21372254 0.716394332,2.99927746 1.29054039,2.01834125 C1.86468645,1.03740503 2.92357196,0.442730059 4.06,0.463 L32.639,0.463 C34.3749928,0.462999912 35.7824478,1.87000728 35.783,3.606 L35.783,3.606 Z" stroke="#45413C" fill="#45413C" fill-rule="nonzero" stroke-linejoin="round"></path>
                            <path d="M25.041,0.463 L4.06,0.463 C2.92357196,0.442730059 1.86468645,1.03740503 1.29054039,2.01834125 C0.716394332,2.99927746 0.716394332,4.21372254 1.29054039,5.19465875 C1.86468645,6.17559497 2.92357196,6.77026994 4.06,6.75 L25.041,6.75 L25.041,0.463 Z" stroke="#45413C" fill="#6DD627" fill-rule="nonzero" stroke-linejoin="round"></path>
                            <path d="M25.041,0.463 L4.06,0.463 C2.3240072,0.463 0.916552161,1.87000728 0.916,3.606 L25.041,3.606 L25.041,0.463 Z" fill="#9CEB60" fill-rule="nonzero"></path>
                            <path d="M25.041,0.463 L4.06,0.463 C2.92357196,0.442730059 1.86468645,1.03740503 1.29054039,2.01834125 C0.716394332,2.99927746 0.716394332,4.21372254 1.29054039,5.19465875 C1.86468645,6.17559497 2.92357196,6.77026994 4.06,6.75 L25.041,6.75 L25.041,0.463 Z" stroke="#45413C" stroke-linejoin="round"></path>
                        </g>
                    </g>
                </g>
                <g id="bsd2" transform="translate(24.000000, 8.000000)">
                    <path d="M30.356,0.108999635 L6.906,0.108999635 L0.185,6.832 L0.185,28.882 L31.728,28.882 L31.728,1.48 C31.728,1.11621487 31.5834186,0.767344018 31.3260899,0.510202878 C31.0687612,0.253061738 30.719785,0.108999635 30.356,0.108999635 Z" id="Path" fill="#FFFFFF" fill-rule="nonzero"></path>
                    <rect id="Rectangle" fill="#E8F4FA" fill-rule="nonzero" x="0.185" y="22.025" width="31.542" height="6.857"></rect>
                    <path d="M30.356,0.108999635 L6.906,0.108999635 L0.185,6.832 L0.185,28.882 L31.728,28.882 L31.728,1.48 C31.728,1.11621487 31.5834186,0.767344018 31.3260899,0.510202878 C31.0687612,0.253061738 30.719785,0.108999635 30.356,0.108999635 Z" id="Path" stroke="#45413C" stroke-linecap="round" stroke-linejoin="round"></path>
                    <path d="M0.185,6.832 L5.946,6.832 C6.47619336,6.832 6.906,6.40219336 6.906,5.872 L6.906,0.109 L0.185,6.832 Z" id="Path" stroke="#45413C" fill="#E8F4FA" fill-rule="nonzero" stroke-linecap="round" stroke-linejoin="round"></path>
                    <line x1="5.605" y1="10.908" x2="19.938" y2="10.908" id="Path" stroke="#627B8C" stroke-linecap="round" stroke-linejoin="round"></line>
                    <line x1="5.605" y1="15.318" x2="25.45" y2="15.318" id="Path" stroke="#627B8C" stroke-linecap="round" stroke-linejoin="round"></line>
                    <line x1="5.605" y1="19.728" x2="18.835" y2="19.728" id="Path" stroke="#627B8C" stroke-linecap="round" stroke-linejoin="round"></line>
                </g>
            </g>
        </g>
    </g>
</svg>