<?xml version="1.0" encoding="UTF-8"?>
<svg width="273px" height="279px" viewBox="0 0 273 279" version="1.1" xmlns="http://www.w3.org/2000/svg" xmlns:xlink="http://www.w3.org/1999/xlink">
    <title>Group 2</title>
    <g id="Saison-2" stroke="none" stroke-width="1" fill="none" fill-rule="evenodd">
        <g id="étape-6" transform="translate(-114.000000, -163.000000)">
            <g id="Group-2" transform="translate(115.000000, 164.000000)">
                <g id="chatting-with-bot-1-robot-chatbot-chatting-ai-speech-bubble-message-messaging-app" transform="translate(146.000000, 157.000000)">
                    <circle id="Oval" stroke="#DAEDF7" stroke-width="1.5" fill="#E8F4FA" fill-rule="nonzero" cx="65.145" cy="60" r="60"></circle>
                    <g id="Group" transform="translate(0.000000, 12.000000)">
                        <path d="M112.5645,38.6175 C112.5645,40.3745939 111.140094,41.799 109.383,41.799 L45.7575,41.799 C44.9137137,41.799 44.1044868,41.4638072 43.5078398,40.8671602 C42.9111928,40.2705132 42.576,39.4612863 42.576,38.6175 L42.576,3.6225 C42.576,2.77871374 42.9111928,1.96948676 43.5078398,1.37283978 C44.1044868,0.776192788 44.9137137,0.441 45.7575,0.441 L109.383,0.441 C111.140094,0.441 112.5645,1.86540607 112.5645,3.6225 L112.5645,19.53 L122.937,31.2 C123.353883,31.6680696 123.456874,32.3373815 123.199993,32.909127 C122.943113,33.4808725 122.374301,33.8483491 121.7475,33.8475 L112.5645,33.8475 L112.5645,38.6175 Z" id="Path" stroke="#45413C" stroke-width="1.5" fill="#FFFFFF" fill-rule="nonzero" stroke-linecap="round" stroke-linejoin="round"></path>
                        <g transform="translate(79.000000, 10.500000)" id="Path" stroke="#45413C" stroke-linecap="round" stroke-linejoin="round" stroke-width="1.5">
                            <line x1="24.02" y1="1.077" x2="0.161" y2="1.077"></line>
                            <line x1="24.02" y1="9.03" x2="0.161" y2="9.03"></line>
                            <line x1="13.4165" y1="16.983" x2="0.161" y2="16.983"></line>
                        </g>
                        <path d="M13.0215,94.035 C13.0256257,96.0173715 14.6316285,97.6233743 16.614,97.6275 L88.464,97.6275 C90.4492998,97.6275 92.059864,96.0202955 92.064,94.035 L92.064,54.516 C92.064,52.5277749 90.4522251,50.916 88.464,50.916 L16.614,50.916 C14.6287045,50.920136 13.0214957,52.5307002 13.0215,54.516 L13.0215,72.4785 L1.3095,85.65 C0.842214779,86.1807128 0.728949811,86.9358607 1.0199716,87.5803122 C1.31099339,88.2247638 1.95238516,88.6391234 2.6595,88.6395 L13.029,88.6395 L13.0215,94.035 Z" id="Path" stroke="#45413C" stroke-width="1.5" fill="#FFFFFF" fill-rule="nonzero" stroke-linecap="round" stroke-linejoin="round"></path>
                        <g transform="translate(55.500000, 66.000000)" id="Path" stroke="#45413C" stroke-linecap="round" stroke-linejoin="round" stroke-width="1.5">
                            <line x1="27.5775" y1="1.632" x2="0.633" y2="1.632"></line>
                            <line x1="27.5775" y1="10.6125" x2="0.633" y2="10.6125"></line>
                            <line x1="15.603" y1="19.5945" x2="0.633" y2="19.5945"></line>
                        </g>
                        <g transform="translate(47.500000, 7.500000)" fill-rule="nonzero">
                            <circle id="Oval" stroke="#45413C" stroke-width="1.5" fill="#FFE8D1" cx="12.614" cy="13.2675" r="12.372"></circle>
                            <path d="M8.633,12.981 C8.633,15.1796456 10.4153544,16.962 12.614,16.962 C14.8126456,16.962 16.595,15.1796456 16.595,12.981 L16.595,10.9905 C16.595,8.79185441 14.8126456,7.0095 12.614,7.0095 C10.4153544,7.0095 8.633,8.79185441 8.633,10.9905 L8.633,12.981 Z" id="Path" fill="#E8F4FA"></path>
                            <path d="M8.633,12.981 C8.633,15.1796456 10.4153544,16.962 12.614,16.962 C14.8126456,16.962 16.595,15.1796456 16.595,12.981 L16.595,10.9905 C16.595,8.79185441 14.8126456,7.0095 12.614,7.0095 C10.4153544,7.0095 8.633,8.79185441 8.633,10.9905 L8.633,12.981 Z" id="Path" stroke="#45413C" stroke-width="1.5" fill="#FFCEBF"></path>
                            <path d="M4.3475,22.4715 C9.04907573,26.6955915 16.1789243,26.6955915 20.8805,22.4715 C19.4902706,19.1340046 16.2294687,16.9598999 12.614,16.9598999 C8.99853134,16.9598999 5.73772941,19.1340046 4.3475,22.4715 L4.3475,22.4715 Z" id="Path" stroke="#45413C" stroke-width="1.5" fill="#FF6242"></path>
                            <path d="M8.666,10.476 C8.88028627,8.83250377 10.0904074,7.49371569 11.7039701,7.11501558 C13.3175328,6.73631548 14.996913,7.39694311 15.92,8.7735 C14.0009689,10.6352792 11.212943,11.2896236 8.666,10.476 Z" id="Path" stroke="#45413C" stroke-width="1.5" fill="#A86C4D" stroke-linejoin="round"></path>
                        </g>
                        <g transform="translate(18.000000, 58.500000)">
                            <circle id="Oval" stroke="#45413C" stroke-width="1.5" fill="#B8ECFF" fill-rule="nonzero" cx="14.772" cy="14.697" r="13.971"></circle>
                            <g transform="translate(6.000000, 3.000000)">
                                <rect id="Rectangle" fill="#00B8F0" fill-rule="nonzero" x="0.777" y="6.621" width="15.9915" height="13.2225" rx="1.983"></rect>
                                <rect id="Rectangle" stroke="#45413C" stroke-width="1.5" stroke-linecap="round" stroke-linejoin="round" x="0.777" y="6.621" width="15.9915" height="13.2225" rx="1.983"></rect>
                                <path d="M15.0165,6.633 L3,19.8420023 L2.76,19.8420023 C2.23383152,19.8427978 1.72898402,19.6341314 1.3569263,19.2620737 C0.98486857,18.890016 0.776202169,18.3851685 0.776997721,17.859 L0.776997721,8.604 C0.776202169,8.07783152 0.98486857,7.57298402 1.3569263,7.2009263 C1.72898402,6.82886857 2.23383152,6.62020217 2.76,6.62099772 L14.784,6.62099772 C14.8635,6.62099772 14.937,6.627 15.0165,6.633 Z" id="Path" fill="#4ACFFF" fill-rule="nonzero"></path>
                                <path d="M16.7685023,8.604 L16.7685023,17.859 C16.769299,18.3854289 16.5604269,18.8905047 16.1880443,19.2626058 C15.8156617,19.6347069 15.3104282,19.843197 14.784,19.8420051 L2.76,19.8420051 C2.23383152,19.8427978 1.72898402,19.6341314 1.3569263,19.2620737 C0.98486857,18.890016 0.776202169,18.3851685 0.776997721,17.859 L0.776997721,8.604 C0.776202169,8.07783152 0.98486857,7.57298402 1.3569263,7.2009263 C1.72898402,6.82886857 2.23383152,6.62020217 2.76,6.62099772 L14.784,6.62099772 C14.8635,6.62099772 14.934,6.62099772 15.0165,6.633 C16.0157056,6.75087669 16.7685023,7.59786542 16.7685023,8.604 Z" id="Path" stroke="#45413C" stroke-width="1.5" stroke-linecap="round" stroke-linejoin="round"></path>
                                <line x1="8.772" y1="6.621" x2="8.772" y2="4.197" id="Path" stroke="#45413C" stroke-width="1.5" fill="#FF6242" fill-rule="nonzero" stroke-linecap="round" stroke-linejoin="round"></line>
                                <circle id="Oval" stroke="#45413C" stroke-width="1.5" fill="#FF6242" fill-rule="nonzero" stroke-linecap="round" stroke-linejoin="round" cx="8.772" cy="2.6145" r="1.683"></circle>
                                <polyline id="Path" stroke="#45413C" stroke-width="1.5" stroke-linecap="round" stroke-linejoin="round" points="6.822 22.4625 6.822 19.842 10.7235 19.842 10.7235 22.4415"></polyline>
                                <g transform="translate(4.500000, 10.500000)" fill="#FFFFFF" fill-rule="nonzero" id="Oval" stroke="#45413C" stroke-linecap="round" stroke-linejoin="round" stroke-width="1.5">
                                    <circle cx="2.205" cy="2.1135" r="2.067"></circle>
                                    <circle cx="6.3405" cy="2.1135" r="2.067"></circle>
                                </g>
                            </g>
                        </g>
                    </g>
                </g>
                <g id="app-content-software-digital-apps-messages-content-interactive-chat-web-page-html">
                    <circle id="Oval" stroke="#DAEDF7" stroke-width="1.5" fill="#E8F4FA" fill-rule="nonzero" cx="64.875" cy="60" r="60"></circle>
                    <g id="Group">
                        <g transform="translate(18.000000, 49.500000)">
                            <path d="M87.852,3.492 C87.852,2.61678558 87.5043224,1.77741767 86.8854524,1.15854762 C86.2665823,0.539677573 85.4272144,0.192 84.552,0.192 L10.5075,0.192 C9.63228558,0.192 8.79291767,0.539677573 8.17404762,1.15854762 C7.55517757,1.77741767 7.2075,2.61678558 7.2075,3.492 L7.2075,51.3885 L87.852,51.3885 L87.852,3.492 Z" id="Path" stroke="#45413C" stroke-width="1.5" fill="#FFFFFF" fill-rule="nonzero" stroke-linecap="round" stroke-linejoin="round"></path>
                            <polygon id="Path" fill="#00B8F0" fill-rule="nonzero" points="82.1595 5.8845 12.9795 5.8845 12.9 51.3885 82.1595 51.3885"></polygon>
                            <polygon id="Path" fill="#4ACFFF" fill-rule="nonzero" points="65.0025 5.8845 16.1415 51.3885 12.9 51.3885 12.9795 5.8845"></polygon>
                            <polygon id="Path" stroke="#45413C" stroke-width="1.5" stroke-linecap="round" stroke-linejoin="round" points="82.1595 5.8845 12.9795 5.8845 12.9 51.3885 82.1595 51.3885"></polygon>
                            <ellipse id="Oval" fill="#45413C" fill-rule="nonzero" opacity="0.15" cx="49.4265" cy="62.361" rx="36.3" ry="2.475"></ellipse>
                            <path d="M94.9665,57.081 L0.0915,57.081 L0.0915,53.031 C0.0915,52.1197302 0.830230163,51.381 1.7415,51.381 L93.3165,51.381 C94.2277698,51.381 94.9665,52.1197302 94.9665,53.031 L94.9665,57.081 Z" id="Path" stroke="#45413C" stroke-width="1.5" fill="#F0F0F0" fill-rule="nonzero" stroke-linecap="round" stroke-linejoin="round"></path>
                            <path d="M94.9665,57.081 C86.1547769,59.5991873 77.0349821,60.8764836 67.8705,60.8760001 L27.1875,60.8760001 C18.0230329,60.8762688 8.90326775,59.5989766 0.0915,57.081 L94.9665,57.081 Z" id="Path" stroke="#45413C" stroke-width="1.5" fill="#BDBEC0" fill-rule="nonzero" stroke-linecap="round" stroke-linejoin="round"></path>
                        </g>
                        <g transform="translate(89.500000, 5.500000)" id="Path" stroke-linecap="round" stroke-linejoin="round" stroke-width="1.5">
                            <path d="M42.2825,5.2415 C42.2825,2.50769049 40.0663095,0.2915 37.3325,0.2915 L5.1575,0.2915 C2.42369049,0.2915 0.2075,2.50769049 0.2075,5.2415 L0.2075,25.0415 C0.2075,27.7753095 2.42369049,29.9915 5.1575,29.9915 L10.1075,29.9915 L10.1075,38.288 C10.1082091,38.5968372 10.2810456,38.8795134 10.5556181,39.0209024 C10.8301905,39.1622915 11.1606849,39.1388017 11.4125,38.96 L23.969,29.9915 L37.3325,29.9915 C40.0663095,29.9915 42.2825,27.7753095 42.2825,25.0415 L42.2825,5.2415 Z" stroke="#45413C" fill="#FFFFFF" fill-rule="nonzero"></path>
                            <line x1="12.5825" y1="7.7165" x2="29.9075" y2="7.7165" stroke="#627B8C"></line>
                            <line x1="12.5825" y1="15.1415" x2="29.9075" y2="15.1415" stroke="#627B8C"></line>
                            <line x1="12.5825" y1="22.5665" x2="29.9075" y2="22.5665" stroke="#627B8C"></line>
                        </g>
                        <g id="Path" stroke-linecap="round" stroke-linejoin="round" stroke-width="1.5">
                            <path d="M0.2175,5.7915 C0.2175,3.05769049 2.43369049,0.8415 5.1675,0.8415 L37.35,0.8415 C40.0838095,0.8415 42.3,3.05769049 42.3,5.7915 L42.3,25.5915 C42.3,26.9043216 41.7784836,28.1633735 40.8501786,29.0916786 C39.9218735,30.0199836 38.6628216,30.5415 37.35,30.5415 L32.4,30.5415 L32.4,38.838 C32.3992909,39.1468372 32.2264544,39.4295134 31.9518819,39.5709024 C31.6773095,39.7122915 31.3468151,39.6888017 31.095,39.51 L18.5385,30.5415 L5.1675,30.5415 C2.43369049,30.5415 0.2175,28.3253095 0.2175,25.5915 L0.2175,5.7915 Z" stroke="#45413C" fill="#FFFFFF" fill-rule="nonzero"></path>
                            <line x1="29.9175" y1="8.2665" x2="12.5925" y2="8.2665" stroke="#627B8C"></line>
                            <line x1="29.9175" y1="15.6915" x2="12.5925" y2="15.6915" stroke="#627B8C"></line>
                            <line x1="29.9175" y1="23.1165" x2="12.5925" y2="23.1165" stroke="#627B8C"></line>
                        </g>
                        <g transform="translate(37.500000, 38.500000)" id="Path">
                            <path d="M55.6695,62.3885 L0.8895,62.3885 L0.8895,3.35 C0.8895,1.52746033 2.36696033,0.05 4.1895,0.05 L52.3695,0.05 C53.2447144,0.05 54.0840823,0.397677573 54.7029524,1.01654762 C55.3218224,1.63541767 55.6695,2.47478558 55.6695,3.35 L55.6695,62.3885 Z" fill="#FFFFFF" fill-rule="nonzero"></path>
                            <path d="M55.6695,62.3885 L0.8895,62.3885 L0.8895,3.35 C0.8895,1.52746033 2.36696033,0.05 4.1895,0.05 L52.3695,0.05 C53.2447144,0.05 54.0840823,0.397677573 54.7029524,1.01654762 C55.3218224,1.63541767 55.6695,2.47478558 55.6695,3.35 L55.6695,62.3885 Z" stroke="#45413C" stroke-width="1.5" stroke-linecap="round" stroke-linejoin="round"></path>
                        </g>
                        <path d="M93.1695,46.143 L38.3895,46.143 L38.3895,41.85 C38.3895,40.0274603 39.8669603,38.55 41.6895,38.55 L89.8695,38.55 C90.7447144,38.55 91.5840823,38.8976776 92.2029524,39.5165476 C92.8218224,40.1354177 93.1695,40.9747856 93.1695,41.85 L93.1695,46.143 Z" id="Path" stroke="#45413C" stroke-width="1.5" fill="#B8ECFF" fill-rule="nonzero" stroke-linecap="round" stroke-linejoin="round"></path>
                        <line x1="46.9695" y1="77.5215" x2="73.3695" y2="77.5215" id="Path" stroke="#627B8C" stroke-width="1.5" stroke-linecap="round" stroke-linejoin="round"></line>
                        <line x1="46.9695" y1="84.1215" x2="73.3695" y2="84.1215" id="Path" stroke="#627B8C" stroke-width="1.5" stroke-linecap="round" stroke-linejoin="round"></line>
                        <line x1="46.9695" y1="90.7215" x2="73.3695" y2="90.7215" id="Path" stroke="#627B8C" stroke-width="1.5" stroke-linecap="round" stroke-linejoin="round"></line>
                        <rect id="Rectangle" stroke="#45413C" stroke-width="1.5" fill="#4ACFFF" fill-rule="nonzero" stroke-linecap="round" stroke-linejoin="round" x="43.6695" y="51.1215" width="44.55" height="19.8" rx="1.65"></rect>
                        <rect id="Rectangle" stroke="#627B8C" stroke-width="1.5" fill="#E8F4FA" fill-rule="nonzero" x="81.6195" y="75.8715" width="6.6" height="19.8435" rx="1.65"></rect>
                        <circle id="Oval" stroke="#45413C" stroke-width="1.5" fill="#FFF48C" fill-rule="nonzero" stroke-linecap="round" stroke-linejoin="round" cx="70.0695" cy="59.3715" r="3.3"></circle>
                        <path d="M61.8195,70.9215 L69.4185,66.363 C69.8316854,66.1152427 70.332517,66.0604472 70.7895,66.213 L74.052,67.3005 C74.6448439,67.4986195 75.2987417,67.3447271 75.741,66.903 L82.686,59.9565 C82.8407286,59.8016987 83.0506293,59.7147262 83.2695,59.7147262 C83.4883707,59.7147262 83.6982714,59.8016987 83.853,59.9565 L88.2195,64.323 L88.2195,69.273 C88.2195,70.1842698 87.4807698,70.923 86.5695,70.923 L61.8195,70.9215 Z" id="Path" stroke="#45413C" stroke-width="1.5" fill="#9CEB60" fill-rule="nonzero" stroke-linecap="round" stroke-linejoin="round"></path>
                    </g>
                </g>
            </g>
        </g>
    </g>
</svg>