<?xml version="1.0" encoding="UTF-8"?><svg xmlns="http://www.w3.org/2000/svg" width="48" height="48" viewBox="0 0 24 24"><g><polygon points="21.96 6.25 21.96 17.75 12 23.5 2.04 17.75 2.04 6.25 12 0.5 21.96 6.25" fill="none" stroke="#000000" stroke-linecap="round" stroke-linejoin="round"></polygon><path d="M14.75,4.41,12,6,9.36,4.47,5.11,6.93,12,10.85c2.18-1.23,5-2.84,7-4Z" fill="none" stroke="#000000" stroke-linecap="round" stroke-linejoin="round"></path><path d="M4.21,8.73V13.5L6.8,15v3.05L11,20.48v-7.9C7.84,10.8,5.69,9.59,4.21,8.73Z" fill="none" stroke="#000000" stroke-linecap="round" stroke-linejoin="round"></path><path d="M17.2,15,20,13.38V8.61c-1.48.86-3.69,2.11-7,4v8l4.2-2.42Z" fill="none" stroke="#000000" stroke-linecap="round" stroke-linejoin="round"></path></g></svg>