<svg xmlns="http://www.w3.org/2000/svg" viewBox="0 0 24 24" width="24" height="24">
  <defs>
    <style>
      .cls-1 {
        fill: #fff;
        stroke: #000091;
        stroke-miterlimit: 10;
      }
    </style>
  </defs>
  <path class="cls-1" d="M16.49,3.27c-1.09-1.16-2.74-2.03-4.49-2.06s-3.4,.83-4.49,1.99c-.96,1.02-1.55,2.5-1.53,3.9,.05,2.92,1.36,4.02,3.47,8.04,.76,1.77,1.55,3.64,2.3,6.74,.1,.46,.21,.88,.25,.92,.05,.04,.15-.39,.25-.85,.75-3.1,1.54-4.97,2.3-6.73,2.1-4.02,3.42-5.12,3.47-8.04,.02-1.4-.58-2.88-1.53-3.9Zm-4.49,6.24c-1.27,0-2.3-1.03-2.3-2.3s1.03-2.3,2.3-2.3,2.3,1.03,2.3,2.3-1.03,2.3-2.3,2.3Z"/>
</svg>