<svg width="24" height="24" viewBox="0 0 24 24" fill="none" xmlns="http://www.w3.org/2000/svg">
<path fill-rule="evenodd" clip-rule="evenodd" d="M10 4V5.33333H14V4H15.3333V5.33333H17.3333C17.7015 5.33333 18 5.63181 18 6V18C18 18.3682 17.7015 18.6667 17.3333 18.6667H6.66667C6.29848 18.6667 6 18.3682 6 18V6C6 5.63181 6.29848 5.33333 6.66667 5.33333H8.66667V4H10ZM8.66667 6.66667H7.33333V17.3333H16.6667V6.66667H15.3333V8H14V6.66667H10V8H8.66667V6.66667ZM15.3333 12V13.3333H8.66667V12H15.3333ZM15.3333 9.33333V10.6667H8.66667V9.33333H15.3333Z" fill="#000091"/>
</svg>
