<svg width="16" height="16" viewBox="0 0 16 16" fill="none" xmlns="http://www.w3.org/2000/svg">
<path fill-rule="evenodd" clip-rule="evenodd" d="M13.0413 8.06463L14.062 9.83329C14.7067 10.9493 14.324 12.3766 13.2087 13.0206C12.8533 13.2253 12.4513 13.3333 12.042 13.3333H10.6667V15L7.33334 12.6666L10.6667 10.3333V12H12.0413C12.2167 12 12.3893 11.9533 12.5413 11.866C13.02 11.59 13.1833 10.978 12.908 10.5L11.8867 8.73129L13.0413 8.06463ZM4.86934 6.08929L5.22267 10.1426L3.78001 9.30929L3.09267 10.5C3.00467 10.652 2.95867 10.8246 2.95867 11C2.95867 11.552 3.40601 12 3.95867 12H6.00001V13.3333H3.95867C2.67001 13.3333 1.62534 12.2886 1.62534 11C1.62534 10.5906 1.73334 10.188 1.93801 9.83329L2.62467 8.64196L1.18201 7.80929L4.86867 6.08929H4.86934ZM9.16667 1.97929C9.52134 2.18396 9.81601 2.47863 10.0207 2.83329L10.7073 4.02329L12.1513 3.18996L11.798 7.24396L8.11001 5.52396L9.55334 4.69063L8.86601 3.49996C8.77801 3.34796 8.65201 3.22196 8.50001 3.13396C8.02201 2.85796 7.41001 3.02196 7.13401 3.49996L6.11267 5.26863L4.95801 4.60196L5.98001 2.83329C6.62401 1.71729 8.05134 1.33463 9.16734 1.97929H9.16667Z" fill="#000091"/>
</svg>
