<svg width="19" height="20" viewBox="0 0 19 20" fill="none" xmlns="http://www.w3.org/2000/svg">
<path d="M4.59591 15.015L5.54406 15.0149L8.66186 3.85027C8.69225 3.7401 8.91628 3.66669 9.02521 3.66669H10.5779V3.66792C10.6868 3.66792 10.8627 3.7401 10.8932 3.85027L14.0147 15.0149H15.0056C15.2437 15.0149 15.4376 15.1542 15.4376 15.3239V16.0243C15.4376 16.194 15.2425 16.3334 15.0056 16.3334L4.596 16.3333C4.35791 16.3333 4.16406 16.1939 4.16406 16.0242V15.3238C4.16406 15.1529 4.35904 15.015 4.59591 15.015ZM8.80468 5.65137H10.7995L10.3891 4.1644H9.2137L8.80468 5.65137ZM11.5049 8.21364H8.0979L7.55713 10.1755H12.0482L11.5049 8.21364ZM12.7537 12.7377H6.84911L6.22088 15.015H13.3818L12.7537 12.7377Z" fill="#000091"/>
<path d="M4.59591 15.015L5.54406 15.0149L8.66186 3.85027C8.69225 3.7401 8.91628 3.66669 9.02521 3.66669H10.5779V3.66792C10.6868 3.66792 10.8627 3.7401 10.8932 3.85027L14.0147 15.0149H15.0056C15.2437 15.0149 15.4376 15.1542 15.4376 15.3239V16.0243C15.4376 16.194 15.2425 16.3334 15.0056 16.3334L4.596 16.3333C4.35791 16.3333 4.16406 16.1939 4.16406 16.0242V15.3238C4.16406 15.1529 4.35904 15.015 4.59591 15.015ZM8.80468 5.65137H10.7995L10.3891 4.1644H9.2137L8.80468 5.65137ZM11.5049 8.21364H8.0979L7.55713 10.1755H12.0482L11.5049 8.21364ZM12.7537 12.7377H6.84911L6.22088 15.015H13.3818L12.7537 12.7377Z" />
</svg>
