<svg width="16" height="16" viewBox="0 0 16 16" fill="none" xmlns="http://www.w3.org/2000/svg">
<path fill-rule="evenodd" clip-rule="evenodd" d="M11.3333 2.00008H13.9999C14.3681 2.00008 14.6666 2.29856 14.6666 2.66675V13.3334C14.6666 13.7016 14.3681 14.0001 13.9999 14.0001H1.99992C1.63173 14.0001 1.33325 13.7016 1.33325 13.3334V2.66675C1.33325 2.29856 1.63173 2.00008 1.99992 2.00008H4.66659V0.666748H5.99992V2.00008H9.99992V0.666748H11.3333V2.00008ZM9.99992 3.33341H5.99992V4.66675H4.66659V3.33341H2.66659V6.00008H13.3333V3.33341H11.3333V4.66675H9.99992V3.33341ZM13.3333 7.33341H2.66659V12.6667H13.3333V7.33341Z" fill="#000091"/>
</svg>
