<svg width="24" height="24" viewBox="0 0 24 24" fill="none" xmlns="http://www.w3.org/2000/svg">
<path d="M15.7453 7.97875L16.714 7.01008L17.6566 7.95275L16.688 8.92141C17.6451 10.1195 18.1072 11.6387 17.9793 13.1668C17.8515 14.695 17.1433 16.1162 16.0003 17.1386C14.8573 18.1609 13.3662 18.7068 11.8333 18.6641C10.3004 18.6215 8.84196 17.9935 7.75761 16.9091C6.67325 15.8247 6.04524 14.3663 6.00257 12.8334C5.9599 11.3005 6.50579 9.80943 7.52814 8.66642C8.5505 7.52342 9.9717 6.81525 11.4999 6.68736C13.028 6.55947 14.5472 7.02157 15.7453 7.97875ZM12 17.3334C12.6128 17.3334 13.2196 17.2127 13.7858 16.9782C14.352 16.7437 14.8664 16.3999 15.2998 15.9666C15.7331 15.5332 16.0769 15.0188 16.3114 14.4526C16.5459 13.8864 16.6666 13.2796 16.6666 12.6667C16.6666 12.0539 16.5459 11.4471 16.3114 10.8809C16.0769 10.3147 15.7331 9.80026 15.2998 9.36692C14.8664 8.93358 14.352 8.58983 13.7858 8.35531C13.2196 8.12079 12.6128 8.00008 12 8.00008C10.7623 8.00008 9.5753 8.49175 8.70013 9.36692C7.82496 10.2421 7.33329 11.4291 7.33329 12.6667C7.33329 13.9044 7.82496 15.0914 8.70013 15.9666C9.5753 16.8417 10.7623 17.3334 12 17.3334ZM11.3333 9.33342H12.6666V13.3334H11.3333V9.33342ZM9.33329 4.66675H14.6666V6.00008H9.33329V4.66675Z" fill="#000091"/>
</svg>
