<svg width="24" height="24" viewBox="0 0 24 24" fill="none" xmlns="http://www.w3.org/2000/svg">
<path fill-rule="evenodd" clip-rule="evenodd" d="M16.6667 6C17.403 6 18 6.59695 18 7.33333V9.33333H18.6667V12H18V17.3333H17.3333V18C17.3333 18.3682 17.0349 18.6667 16.6667 18.6667H16C15.6318 18.6667 15.3333 18.3682 15.3333 18V17.3333H8.66667V18C8.66667 18.3682 8.36819 18.6667 8 18.6667H7.33333C6.96514 18.6667 6.66667 18.3682 6.66667 18V17.3333H6V12H5.33333V9.33333H6V7.33333C6 6.59695 6.59695 6 7.33333 6H16.6667ZM16.6667 13.3333H7.33333V16H16.6667V13.3333ZM10.6667 14V15.3333H8V14H10.6667ZM16 14V15.3333H13.3333V14H16ZM16.6667 7.33333H7.33333V12H16.6667V7.33333Z" fill="#000091"/>
</svg>
