<?xml version="1.0" encoding="UTF-8" standalone="no"?><!DOCTYPE svg PUBLIC "-//W3C//DTD SVG 1.1//EN" "http://www.w3.org/Graphics/SVG/1.1/DTD/svg11.dtd"><svg width="100%" height="100%" viewBox="0 0 1261 1016" version="1.1" xmlns="http://www.w3.org/2000/svg" xmlns:xlink="http://www.w3.org/1999/xlink" xml:space="preserve" xmlns:serif="http://www.serif.com/" style="fill-rule:evenodd;clip-rule:evenodd;stroke-linejoin:round;stroke-miterlimit:2;"><g id="Calque-3" serif:id="Calque 3"><path d="M103.211,932.703l0.463,-1.436c-6.159,-1.157 -6.946,-1.157 -4.492,-7.872l2.501,-6.899l6.807,0c3.056,0 3.103,1.25 2.639,4.584l1.76,0l4.075,-11.16l-1.76,0c-1.528,2.639 -2.732,4.584 -6.066,4.584l-6.714,0l3.565,-9.77c1.112,-3.103 1.76,-3.751 5.928,-3.751l2.963,0c4.307,0 4.816,1.157 4.816,5.51l1.714,0l1.435,-7.594l-25.561,0l-0.463,1.435c4.954,1.019 5.418,1.482 3.102,7.873l-5.557,15.188c-2.315,6.344 -3.287,6.854 -8.983,7.872l-0.417,1.436l18.245,0Zm35.471,-18.615c0.879,-3.01 0.416,-5.65 -1.899,-5.65c-2.732,0 -3.427,2.084 -6.205,8.058l-0,-3.427c-0,-2.454 -0.787,-4.631 -3.01,-4.631c-2.593,0 -4.955,4.029 -6.761,8.011l1.204,0c1.25,-1.806 2.408,-2.871 3.334,-2.871c1.112,0 1.714,1.714 -0,5.511l-5.001,11.113c-0.926,2.084 0.046,3.427 2.084,3.427c1.25,0 1.806,-0.324 2.315,-1.667l4.909,-13.012c1.389,-1.714 2.639,-3.195 4.214,-4.862l4.816,0Zm22.504,-6.715l-1.945,-0.139l-2.176,2.13l-0.463,0c-10.558,0 -19.681,11.855 -19.681,20.468c-0,2.408 1.482,3.797 3.797,3.797c2.733,0 5.418,-3.89 8.428,-8.057l-0.139,1.482c-0.37,4.26 0.927,6.575 3.149,6.575c2.593,0 4.955,-4.029 6.761,-8.011l-1.204,0c-1.25,1.806 -2.408,2.871 -3.334,2.871c-0.972,0 -1.667,-1.76 -0,-5.51l6.807,-15.606Zm-19.495,19.032c-0,-5.695 6.344,-13.429 9.91,-13.429c0.787,0 1.528,0.093 2.176,0.278l-3.705,9.863c-2.13,2.594 -5.417,5.743 -6.946,5.743c-0.879,0 -1.435,-0.741 -1.435,-2.455m23.384,-14.401l4.261,0l-6.761,18.476c-0.602,1.575 0.231,3.149 1.852,3.149c3.844,0 10.049,-3.797 12.225,-8.983l-1.204,0c-1.713,1.806 -5.001,4.214 -7.826,4.723l6.205,-17.365l6.344,0l0.788,-2.64l-6.159,0l2.361,-6.668l-2.454,0l-4.399,6.668l-5.233,0.741l-0,1.899Zm30.239,12.688l-1.575,0c-1.991,2.362 -4.121,4.214 -6.251,4.214c-2.177,0 -3.288,-1.297 -3.288,-4.214c-0,-1.204 0.139,-2.408 0.371,-3.519l12.827,-4.214c2.5,-5.928 -0.51,-8.521 -4.029,-8.521c-6.066,0 -12.966,10.141 -12.966,19.032c-0,3.983 1.899,6.159 4.862,6.159c3.473,0 7.085,-3.38 10.049,-8.937m-4.399,-12.827c1.713,0 3.195,1.296 2.408,4.584l-7.965,1.853c1.389,-3.705 3.704,-6.437 5.557,-6.437m28.432,2.223c0.88,-3.01 0.417,-5.65 -1.898,-5.65c-2.733,0 -3.427,2.084 -6.206,8.058l-0,-3.427c-0,-2.454 -0.787,-4.631 -3.01,-4.631c-2.593,0 -4.954,4.029 -6.76,8.011l1.204,0c1.25,-1.806 2.408,-2.871 3.334,-2.871c1.111,0 1.713,1.714 -0,5.511l-5.001,11.113c-0.927,2.084 0.046,3.427 2.083,3.427c1.251,0 1.806,-0.324 2.316,-1.667l4.908,-13.012c1.389,-1.714 2.64,-3.195 4.214,-4.862l4.816,0Zm0.092,16.114c-0.926,2.084 0.046,3.427 2.084,3.427c1.25,0 1.806,-0.324 2.315,-1.667l4.909,-13.012c2.269,-2.779 6.946,-5.742 8.798,-5.742c1.343,0 1.158,1.111 0.278,2.778l-7.548,14.494c-0.741,1.436 0.231,3.149 1.852,3.149c3.705,0 8.104,-3.334 9.864,-8.011l-1.204,0c-1.204,1.713 -3.242,3.612 -5.14,3.936l6.483,-13.105c0.833,-1.667 1.25,-3.241 1.25,-4.492c-0,-2.13 -1.204,-3.519 -3.427,-3.519c-3.195,0 -6.437,3.612 -10.28,8.058l-0,-3.427c-0,-2.454 -0.787,-4.631 -3.01,-4.631c-1.389,0 -2.732,1.204 -3.982,2.917l-0,0.464c2.408,-0.139 3.473,3.473 1.759,7.27l-5.001,11.113Zm40.796,-28.339c1.667,0 3.056,-1.343 3.056,-3.057c-0,-1.667 -1.389,-3.056 -3.056,-3.056c-1.713,0 -3.056,1.389 -3.056,3.056c-0,1.714 1.343,3.057 3.056,3.057m-1.297,9.261c0.51,-1.713 -0.648,-2.686 -1.528,-2.686c-3.704,0 -8.103,3.334 -9.863,8.011l1.204,0c1.204,-1.713 3.241,-3.612 5.14,-3.936l-7.085,18.43c-0.648,1.714 0.648,2.686 1.528,2.686c3.519,0 7.641,-3.38 9.4,-8.011l-1.204,0c-1.204,1.713 -3.241,3.612 -5.14,3.936l7.548,-18.43Zm5.742,0.88l4.26,0l-6.761,18.476c-0.602,1.575 0.232,3.149 1.853,3.149c3.843,0 10.048,-3.797 12.225,-8.983l-1.204,0c-1.714,1.806 -5.002,4.214 -7.826,4.723l6.205,-17.365l6.344,0l0.787,-2.64l-6.159,0l2.362,-6.668l-2.454,0l-4.399,6.668l-5.233,0.741l-0,1.899Zm27.691,-5.927l9.03,-8.428l-0,-0.973l-4.863,0l-5.556,9.401l1.389,0Zm2.547,18.615l-1.575,0c-1.991,2.362 -4.121,4.214 -6.251,4.214c-2.177,0 -3.288,-1.297 -3.288,-4.214c-0,-1.204 0.139,-2.408 0.371,-3.519l12.827,-4.214c2.5,-5.928 -0.51,-8.521 -4.029,-8.521c-6.066,0 -12.966,10.141 -12.966,19.032c-0,3.983 1.898,6.159 4.862,6.159c3.473,0 7.085,-3.38 10.049,-8.937m-4.399,-12.827c1.713,0 3.195,1.296 2.408,4.584l-7.965,1.853c1.389,-3.705 3.704,-6.437 5.557,-6.437" style="fill:#1d1d1c;fill-rule:nonzero;"/><path d="M112.379,838.746l9.03,-6.205l0,-0.973l-5.464,0l-5.002,7.178l1.436,0Zm-3.705,19.403c3.057,0 3.103,1.25 2.64,4.584l1.76,0l4.075,-11.16l-1.76,0c-1.528,2.64 -2.732,4.584 -6.066,4.584l-6.715,0l3.381,-9.307c1.111,-3.103 1.759,-3.705 5.927,-3.705l2.964,0c4.306,0 4.815,1.158 4.815,5.464l1.714,0l1.435,-7.594l-25.561,0l-0.463,1.436c4.955,1.018 5.418,1.481 3.102,7.872l-5.556,15.188c-2.316,6.344 -3.288,6.854 -8.984,7.873l-0.417,1.435l28.433,0l5.094,-8.057l-1.945,0c-3.242,3.056 -7.317,5.973 -13.013,5.973c-7.548,0 -6.853,-0.324 -4.352,-7.224l2.685,-7.362l6.807,0Zm32.369,19.819c0,-2.964 -2.639,-4.029 -6.946,-5.325c-3.705,-1.112 -5.372,-1.436 -5.372,-2.64c0,-0.972 0.788,-2.13 2.362,-2.963c6.066,-0.325 10.002,-5.789 10.002,-10.373c0,-0.973 -0.185,-1.806 -0.509,-2.547l5.14,0l0.787,-2.64l-8.15,0c-0.972,-0.602 -2.13,-0.926 -3.288,-0.926c-6.436,0 -10.604,5.65 -10.604,10.234c0,3.473 2.223,5.65 4.909,6.159c-3.01,1.343 -4.677,2.917 -4.677,4.77c0,1.065 0.37,1.806 1.25,2.5c-6.946,2.038 -9.678,4.353 -9.678,7.641c0,3.195 4.214,4.538 9.215,4.538c8.474,0 15.559,-4.585 15.559,-8.428m-10.049,-12.688c-1.528,0 -2.13,-1.297 -2.13,-2.779c0,-4.121 2.223,-10.187 5.696,-10.187c1.528,0 2.13,1.297 2.13,2.778c0,4.122 -2.223,10.188 -5.696,10.188m-9.585,14.957c0,-2.454 2.362,-3.982 5.742,-5.325c1.111,0.555 2.778,1.157 5.001,1.898c3.519,1.158 4.862,1.621 4.862,2.686c0,2.269 -3.843,3.983 -9.076,3.983c-4.399,0 -6.529,-0.927 -6.529,-3.242m47.14,-30.748l-1.945,-0.139l-2.177,2.13l-0.463,0c-10.558,0 -19.68,11.855 -19.68,20.468c0,2.408 1.482,3.797 3.797,3.797c2.732,0 5.418,-3.89 8.428,-8.057l-0.139,1.482c-0.37,4.26 0.926,6.575 3.149,6.575c2.593,0 4.955,-4.028 6.761,-8.011l-1.204,0c-1.251,1.806 -2.408,2.871 -3.334,2.871c-0.973,0 -1.667,-1.759 0,-5.51l6.807,-15.606Zm-19.495,19.032c0,-5.695 6.344,-13.429 9.909,-13.429c0.787,0 1.529,0.093 2.178,0.278l-3.706,9.864c-2.13,2.593 -5.418,5.742 -6.946,5.742c-0.88,0 -1.435,-0.741 -1.435,-2.455m24.542,3.149l12.919,-33.85l-0.417,-0.51l-8.103,0.927l0,0.972l1.575,1.204c1.435,1.111 0.972,2.176 -0.325,5.603l-10.095,26.58c-0.741,1.436 0.232,3.149 1.852,3.149c3.705,0 7.642,-3.334 9.401,-8.011l-1.204,0c-1.204,1.714 -3.705,3.612 -5.603,3.936m24.635,-27.691c1.668,0 3.056,-1.343 3.056,-3.057c0,-1.667 -1.388,-3.056 -3.056,-3.056c-1.713,0 -3.055,1.389 -3.055,3.056c-0,1.714 1.343,3.057 3.055,3.057m-1.297,9.261c0.511,-1.713 -0.648,-2.686 -1.528,-2.686c-3.704,0 -8.103,3.334 -9.863,8.011l1.204,0c1.204,-1.713 3.241,-3.612 5.14,-3.936l-7.084,18.43c-0.649,1.714 0.647,2.686 1.528,2.686c3.518,0 7.641,-3.38 9.4,-8.011l-1.204,0c-1.204,1.714 -3.241,3.612 -5.14,3.936l7.547,-18.43Zm5.743,0.88l4.26,0l-6.761,18.476c-0.602,1.575 0.231,3.149 1.853,3.149c3.843,0 10.048,-3.797 12.224,-8.983l-1.204,0c-1.713,1.806 -5.001,4.214 -7.825,4.723l6.204,-17.365l6.344,0l0.787,-2.64l-6.159,0l2.362,-6.668l-2.454,0l-4.399,6.668l-5.232,0.741l-0,1.899Zm27.691,-5.927l9.029,-8.428l0,-0.973l-4.863,0l-5.555,9.401l1.389,0Zm2.546,18.615l-1.575,0c-1.99,2.362 -4.12,4.214 -6.25,4.214c-2.178,0 -3.288,-1.297 -3.288,-4.214c-0,-1.204 0.139,-2.408 0.37,-3.519l12.827,-4.214c2.5,-5.928 -0.51,-8.521 -4.029,-8.521c-6.065,0 -12.966,10.141 -12.966,19.032c0,3.983 1.899,6.159 4.863,6.159c3.473,0 7.084,-3.38 10.048,-8.937m-4.399,-12.827c1.714,0 3.196,1.297 2.408,4.584l-7.964,1.853c1.389,-3.705 3.704,-6.437 5.557,-6.437" style="fill:#1d1d1c;fill-rule:nonzero;"/><path d="M114.047,783.132l-16.856,-0l-0.463,1.436c4.955,1.018 5.418,1.481 3.103,7.872l-5.464,15.188c-2.316,6.344 -3.288,6.854 -8.984,7.873l-0.417,1.435l25.654,-0l5.557,-9.91l-1.945,-0c-3.149,3.473 -6.853,7.826 -12.549,7.826c-4.307,-0 -4.816,-0.741 -2.501,-7.224l5.465,-15.188c2.269,-6.344 3.287,-6.854 8.983,-7.872l0.417,-1.436Zm18.661,2.964c1.667,-0 3.056,-1.343 3.056,-3.057c-0,-1.667 -1.389,-3.056 -3.056,-3.056c-1.713,-0 -3.056,1.389 -3.056,3.056c-0,1.714 1.343,3.057 3.056,3.057m-1.296,9.261c0.509,-1.713 -0.649,-2.686 -1.529,-2.686c-3.704,-0 -8.103,3.334 -9.863,8.011l1.204,-0c1.204,-1.713 3.241,-3.612 5.14,-3.936l-7.085,18.43c-0.648,1.714 0.648,2.686 1.528,2.686c3.52,-0 7.641,-3.38 9.401,-8.011l-1.204,-0c-1.204,1.713 -3.242,3.612 -5.141,3.936l7.549,-18.43Zm25.19,2.454c-0,-3.751 -1.389,-5.14 -3.982,-5.14c-3.242,-0 -6.298,3.427 -9.354,7.595l7.733,-20.329l-0.417,-0.51l-8.104,0.927l-0,0.972l1.575,1.204c1.435,1.111 0.972,2.269 -0.324,5.603l-8.336,21.487c-0.602,1.574 -1.343,3.426 -1.343,3.936c-0,2.222 3.01,4.306 5.742,4.306c6.298,-0 16.81,-11.345 16.81,-20.051m-14.587,16.3c-1.25,-0 -3.056,-1.157 -3.056,-2.176c-0,-0.324 0.556,-1.76 1.25,-3.566l2.084,-5.51c2.223,-2.64 5.603,-5.464 7.502,-5.464c1.157,-0 2.037,0.74 2.037,2.454c-0,5.047 -4.723,14.262 -9.817,14.262m31.442,-5.186l-1.574,-0c-1.992,2.362 -4.122,4.214 -6.252,4.214c-2.176,-0 -3.288,-1.297 -3.288,-4.214c-0,-1.204 0.139,-2.408 0.371,-3.519l12.827,-4.214c2.5,-5.928 -0.509,-8.521 -4.029,-8.521c-6.066,-0 -12.966,10.141 -12.966,19.032c-0,3.983 1.899,6.159 4.862,6.159c3.473,-0 7.085,-3.38 10.049,-8.937m-4.399,-12.827c1.713,-0 3.195,1.297 2.408,4.584l-7.965,1.853c1.389,-3.705 3.705,-6.437 5.557,-6.437m28.432,2.223c0.88,-3.01 0.417,-5.65 -1.898,-5.65c-2.732,-0 -3.427,2.084 -6.205,8.058l-0,-3.427c-0,-2.454 -0.788,-4.631 -3.01,-4.631c-2.593,-0 -4.955,4.029 -6.761,8.011l1.204,-0c1.25,-1.806 2.408,-2.871 3.334,-2.871c1.111,-0 1.713,1.714 -0,5.511l-5.001,11.113c-0.926,2.084 0.046,3.427 2.084,3.427c1.25,-0 1.806,-0.324 2.315,-1.667l4.909,-13.012c1.389,-1.713 2.639,-3.195 4.213,-4.862l4.816,-0Zm3.334,-2.084l3.38,-0l-6.761,18.476c-0.602,1.575 0.232,3.149 1.853,3.149c3.843,-0 10.048,-3.797 12.225,-8.983l-1.204,-0c-1.714,1.806 -5.001,4.214 -7.826,4.723l6.205,-17.365l6.344,-0l0.787,-2.64l-6.158,-0l2.361,-6.668l-2.454,-0l-4.399,6.668l-4.353,0.741l-0,1.899Zm26.533,-5.927l9.03,-8.428l-0,-0.973l-4.862,-0l-5.557,9.401l1.389,-0Zm2.547,18.615l-1.574,-0c-1.992,2.362 -4.122,4.214 -6.252,4.214c-2.176,-0 -3.288,-1.297 -3.288,-4.214c-0,-1.204 0.139,-2.408 0.371,-3.519l12.827,-4.214c2.5,-5.928 -0.509,-8.521 -4.029,-8.521c-6.066,-0 -12.966,10.141 -12.966,19.032c-0,3.983 1.899,6.159 4.862,6.159c3.473,-0 7.085,-3.38 10.049,-8.937m-4.399,-12.827c1.713,-0 3.195,1.297 2.408,4.584l-7.965,1.853c1.389,-3.705 3.705,-6.437 5.557,-6.437" style="fill:#1d1d1c;fill-rule:nonzero;"/><path d="M151.312,143.869c-0.158,-0.158 0.475,0 0.634,-0.317l-1.268,0c-0.158,0 -0.158,-0.159 -0.158,-0.317c-0.793,0.158 -1.744,0.476 -2.536,0.634c-1.109,0.317 -2.06,1.109 -3.328,1.426c-1.743,0.634 -3.169,2.06 -5.071,2.694c-0.159,0 -0.159,-0.158 -0.159,-0.317c0.159,-0.475 0.793,-0.633 1.11,-1.109c-0,-0.158 -0,-0.317 -0.159,-0.317c1.268,-1.743 3.011,-2.694 4.596,-4.12l-0,-0.476c0.475,-0.633 1.268,-0.951 1.585,-1.743c0.158,-0.475 0.792,-1.109 1.585,-1.426c-0.159,-0.159 -0.476,-0.159 -0.476,-0.476c-0.634,0 -1.268,0.317 -1.902,-0.158c0.296,-0.296 0.635,-0.458 0.994,-0.563c-0.137,-0.028 -0.259,-0.096 -0.36,-0.23c-0.158,-0.316 0.306,-0.67 0.793,-0.792c0.634,-0.158 1.426,-0.158 1.901,-0.634c-1.109,-0.158 -2.377,0.317 -3.486,-0.317c0.792,-2.06 2.06,-3.803 3.962,-4.754c0.158,0 0.475,0 0.475,0.158c-0,0.793 -0.475,1.427 -1.268,1.585c1.268,0.317 2.536,0.317 3.804,0.951c-0.159,0.317 -0.476,0.159 -0.634,0.159c0.792,0.475 1.743,0.158 2.536,0.792c-0.476,0.475 -0.951,0 -1.427,0c4.913,1.426 10.143,2.536 14.263,5.705c-3.486,1.743 -7.131,2.536 -10.935,3.328c-0.475,0 -0.792,0 -1.268,-0.158c-0,0.158 -0,0.475 -0.158,0.475c-0.634,0 -1.109,0 -1.584,0.317c-0.635,0.317 -1.586,0.475 -2.061,0m-3.245,11.024c-0.013,0.009 -0.027,0.018 -0.04,0.028c-0.593,0.417 -1.184,0.844 -1.809,1.206c-0.678,0.394 -1.387,0.693 -2.091,1.027c-0.005,-0.014 -0.011,-0.027 -0.02,-0.039c-0.053,-0.074 -0.164,-0.119 -0.268,-0.064c-0.6,0.325 -1.11,0.753 -1.595,1.215c-0.074,0.07 -0.147,0.142 -0.22,0.213c-0.005,0.005 -0.009,0.009 -0.013,0.013c-0.004,0.004 -0.008,0.008 -0.013,0.012c-0.075,0.074 -0.15,0.149 -0.225,0.224c-0.009,0.009 -0.018,0.018 -0.026,0.027c-0.005,0.005 -0.006,0.009 -0.01,0.014c-0.113,0.112 -0.222,0.225 -0.345,0.371c-0.079,0.093 -0.106,0.151 -0.212,0.221c-0.098,0.066 -0.37,0.064 -0.345,-0.118c0.001,-0.011 -0,-0.021 0.002,-0.031c-0.094,0.049 -0.188,0.099 -0.282,0.144c-0.087,0.041 -0.167,0.089 -0.247,0.136c-0.035,-0.014 -0.072,-0.018 -0.109,-0.016c-0.041,0.002 -0.081,0.012 -0.115,0.038c-0.194,0.152 -0.385,0.313 -0.572,0.483c-0.331,0.299 -0.643,0.627 -0.92,0.977c-0.005,0.005 -0.009,0.01 -0.014,0.015c-0.01,0.014 -0.021,0.029 -0.031,0.044c-0.016,0.02 -0.032,0.04 -0.047,0.061c-0.017,0.022 -0.035,0.043 -0.051,0.065c-0.005,0.007 -0.01,0.014 -0.015,0.02c-0.038,0.052 -0.072,0.105 -0.108,0.158c-0.002,0.003 -0.004,0.006 -0.006,0.009c-0.027,0.03 -0.072,0.051 -0.13,0.063c-0.021,-0.032 -0.044,-0.063 -0.064,-0.095c-0.015,-0.025 -0.029,-0.051 -0.044,-0.076c-0.048,-0.083 -0.093,-0.167 -0.135,-0.254c-0.001,-0.003 -0.003,-0.007 -0.004,-0.01c-0.013,-0.026 -0.026,-0.052 -0.038,-0.079c0.172,-0.184 0.337,-0.375 0.497,-0.57c0.011,-0.013 0.022,-0.026 0.032,-0.038c0.055,-0.068 0.111,-0.136 0.165,-0.204c0.089,-0.112 0.178,-0.226 0.265,-0.339c0.032,-0.042 0.065,-0.084 0.097,-0.125c0.174,-0.227 0.341,-0.448 0.496,-0.67c0.004,-0.005 0.008,-0.011 0.011,-0.017c0.024,-0.033 0.047,-0.066 0.069,-0.099c0.076,-0.113 0.149,-0.226 0.217,-0.341c0.062,-0.104 0.12,-0.209 0.174,-0.316c0.004,-0.008 0.008,-0.016 0.012,-0.024c0.006,-0.011 0.012,-0.022 0.017,-0.033c0.009,-0.019 0.017,-0.039 0.026,-0.059c0.056,-0.119 0.105,-0.242 0.15,-0.369c0.005,-0.014 0.01,-0.028 0.014,-0.041c0.012,-0.035 0.025,-0.069 0.036,-0.104c0.017,-0.057 0.034,-0.116 0.049,-0.175l0.001,-0.001c0.003,-0.012 0.005,-0.025 0.009,-0.038c0.019,-0.077 0.04,-0.152 0.055,-0.232c0.008,-0.042 -0.003,-0.077 -0.019,-0.107c0.17,-0.298 0.384,-0.584 0.628,-0.856c-0.024,0.015 -0.05,0.027 -0.073,0.042c-0.227,0.146 -0.377,0.35 -0.588,0.508c-0.173,0.129 -0.491,-0.085 -0.286,-0.238c0.139,-0.104 0.244,-0.217 0.36,-0.326c0.006,-0.009 0.009,-0.018 0.017,-0.026c0.261,-0.257 0.51,-0.587 0.808,-0.804c0.182,-0.134 0.34,-0.245 0.488,-0.372c0.023,-0.021 0.046,-0.042 0.069,-0.064c0.11,-0.145 0.23,-0.277 0.355,-0.399c0.005,-0.006 0.01,-0.012 0.016,-0.016c1.517,-1.464 4.07,-1.399 6.071,-2.332c0.792,-0.317 1.743,0.158 2.535,0c0.476,0 0.951,0 1.426,0.317c-1.423,0.776 -2.739,1.651 -4.037,2.466m2.84,1.31c-0.072,0.174 -0.233,0.324 -0.391,0.462c0.198,0.04 0.337,0.128 0.209,0.245c-0.368,0.338 -0.718,0.676 -1.201,0.838c-0.034,0.011 -0.13,0.026 -0.244,0.033c-0.194,0.188 -0.389,0.375 -0.591,0.554c-0.188,0.167 -1.059,0.046 -0.793,-0.19c0.402,-0.356 0.775,-0.743 1.172,-1.105c0.224,-0.205 0.46,-0.402 0.659,-0.632c0.11,-0.127 0.201,-0.252 0.34,-0.351c0.13,-0.091 0.968,-0.165 0.84,0.146m-7.36,-23.744c-0.159,0.317 -0.334,0.35 -0.476,0.634c-0.158,0.317 -0.317,0.475 -0.634,0.633c-0.158,0 -0.317,0 -0.317,-0.158c0.159,-0.634 0.634,-1.268 1.268,-1.426c0.159,0 0.159,0.158 0.159,0.317m-13.154,10.459c-0,0 -0.158,-0.158 -0.158,-0.317c2.06,-2.694 3.645,-5.23 5.071,-8.082c2.06,-1.109 3.77,-2.725 5.388,-4.437c2.694,-2.853 5.547,-5.389 8.875,-6.973c1.268,-0.476 2.852,-0.317 4.12,0.158c-0.475,0.634 -1.268,0.475 -1.902,0.951c-0.158,0 -0.317,0 -0.475,-0.159c0.158,-0.158 0.158,-0.317 0.158,-0.475c-1.584,1.743 -3.803,2.536 -5.071,4.596c-0.951,1.585 -1.585,3.645 -3.645,4.12c-0.634,0.159 0.159,-0.475 -0.158,-0.317c-4.913,3.011 -8.399,6.656 -12.203,10.935m24.247,3.487c-0.317,0 -0.951,0.158 -0.792,-0.159c0.158,-0.792 1.267,-0.792 1.901,-1.109c0.317,-0.159 0.793,-0.476 1.11,-0.317c0.317,0.475 0.792,0.317 1.109,0.634c-0.951,0.951 -2.219,0.475 -3.328,0.951m24.371,11.352c0.9,-0.9 1.808,-1.866 2.712,-2.836l-0.02,0c1.684,-1.906 3.334,-3.723 5.286,-5.395c0.595,-0.531 1.172,-1 1.723,-1.378c0.159,-0.159 0.159,-0.476 0.317,-0.634c-0.792,0.317 -1.268,0.951 -2.06,1.268c-0.158,0 -0.317,-0.159 -0.158,-0.317c0.564,-0.424 1.129,-0.847 1.693,-1.27c-0.035,0.002 -0.072,0.002 -0.108,0.002c-0.159,0 -0.159,-0.158 -0.159,-0.317c-2.06,-0.317 -3.645,1.109 -5.071,2.377c-0.317,0.159 -0.634,-0.158 -0.793,-0.158c-2.377,0.792 -4.12,2.852 -6.497,3.803l-0,-0.317c-0.951,0.317 -1.874,0.892 -2.853,1.11c-1.426,0.317 -2.694,0.158 -3.962,0.158c-1.92,0.192 -3.841,0.615 -5.762,1.026c-0.055,0.014 -0.111,0.027 -0.166,0.042c-1.03,0.281 -2.003,0.666 -2.953,1.189c-0.037,0.02 -0.072,0.041 -0.108,0.062c-0.079,0.099 -0.156,0.194 -0.229,0.275c-0.341,0.374 -0.635,0.718 -1.087,0.948c-0.975,0.496 -1.769,1.359 -2.628,2.059c-0.062,0.051 -0.156,0.075 -0.254,0.081c-0.85,0.815 -1.689,1.642 -2.553,2.443c-0.061,0.057 -0.306,0.088 -0.483,0.058c0.004,-0.005 0.01,-0.008 0.013,-0.015c0.03,-0.05 0.061,-0.1 0.091,-0.151c0.134,-0.223 0.27,-0.446 0.407,-0.668c0.153,-0.248 0.31,-0.493 0.47,-0.736c0.216,-0.328 0.438,-0.652 0.674,-0.965c0.062,-0.081 0.045,-0.154 -0.006,-0.208c-0.05,-0.053 -0.134,-0.083 -0.219,-0.082c0.791,-0.767 1.73,-1.422 2.66,-1.986l-0,-0.027c-0.106,0.037 -0.259,-0.048 -0.179,-0.159c0.1,-0.141 0.179,-0.29 0.273,-0.432c0.018,-0.047 0.034,-0.094 0.051,-0.142c-0.04,-0.042 -0.08,-0.083 -0.12,-0.125c-0.256,0.168 -0.528,0.325 -0.745,0.521c-0.379,0.342 -0.676,1.04 -1.251,1.034c-0.038,-0.001 -0.15,-0.007 -0.241,-0.035c-0.068,-0.012 -0.128,-0.031 -0.166,-0.056c0.007,-0.012 0.014,-0.025 0.02,-0.037c0.008,-0.014 0.016,-0.029 0.024,-0.043c0.008,-0.014 0.015,-0.027 0.023,-0.041c0.025,-0.046 0.05,-0.091 0.075,-0.136c0.026,-0.046 0.05,-0.092 0.076,-0.137c0.021,-0.037 0.04,-0.074 0.061,-0.11c0.038,-0.067 0.074,-0.135 0.112,-0.201c0.027,-0.048 0.056,-0.096 0.083,-0.144c0.068,-0.117 0.136,-0.233 0.205,-0.349c0.032,-0.056 0.065,-0.112 0.098,-0.168c0.056,-0.096 0.111,-0.193 0.168,-0.289c0.078,-0.131 -0.004,-0.239 -0.119,-0.283c0.294,-0.381 0.653,-0.7 1.085,-0.945l-0.048,0c0.607,-0.306 1.214,-0.677 1.821,-1.018c0.087,-0.076 0.173,-0.152 0.262,-0.227c-0.905,0.304 -1.718,0.715 -2.521,1.245c-0,0 -0.209,0.085 -0.268,0.144c-0,0 -0.182,0.068 -0.395,-0.144c-0.022,-0.03 -0.038,-0.065 -0.038,-0.117c0.159,-0.317 0.634,-0.476 0.951,-0.792c0.158,0 0.317,0 0.317,0.158c5.071,-3.962 12.044,-3.011 17.908,-5.071c0.475,-0.317 0.95,-0.634 1.426,-0.951c0.792,-0.317 1.426,-1.109 2.377,-1.585c1.268,-0.951 2.219,-2.06 2.694,-3.645c-0,-0.158 -0.158,-0.317 -0.158,-0.317c-2.06,2.219 -4.438,3.962 -6.973,5.23c-3.328,1.743 -6.973,1.426 -10.46,1.902c0.159,-0.317 0.476,-0.317 0.792,-0.317c-0,-0.476 0.318,-0.634 0.635,-0.951l0.475,0c0.158,0 0.158,-0.317 0.317,-0.317c0.317,0 0.792,-0.159 0.634,-0.159c-0.476,-0.634 -1.426,0.476 -2.219,0c0.317,-0.317 0.158,-0.792 0.476,-0.95l0.633,0c-0,-0.318 0.317,-0.634 0.317,-0.634c2.378,-1.427 4.596,-2.536 6.815,-3.804c-0.476,0 -0.792,0.476 -1.268,0.159c0.317,0 -0,-0.476 0.317,-0.476c1.743,-0.475 3.17,-1.426 4.913,-2.06c-0.634,0 -1.11,0.475 -1.743,0c0.317,-0.159 0.475,-0.475 0.95,-0.475l-0,-0.476c-0,-0.158 0.159,-0.158 0.318,-0.158c-0.159,0 -0.318,-0.159 -0.318,-0.159c0.159,-0.317 0.634,-0.158 0.951,-0.475c-0.158,0 -0.475,0 -0.475,-0.159c0.475,-0.634 1.268,-0.792 2.06,-0.951c-0.159,-0.317 -0.634,0 -0.634,-0.317c-0,-0.158 0.159,-0.158 0.317,-0.158l-0.317,0c-0.317,-0.158 -0.158,-0.475 -0.158,-0.634c0.951,-1.109 0.951,-2.536 1.426,-3.803c-0.159,0 -0.317,0 -0.317,-0.159c-1.585,1.743 -4.121,2.377 -6.498,3.011l-0.792,0c-0.792,0.317 -1.902,0.317 -2.694,-0.158c-0.634,-0.317 -0.951,-0.793 -1.585,-1.268c-1.268,-0.792 -2.536,-1.426 -3.962,-1.902c-3.961,-1.268 -8.082,-1.901 -12.202,-1.743c1.743,-0.951 3.666,-1.032 5.546,-1.585c2.695,-0.792 5.23,-1.743 8.082,-1.585c-0.475,-0.158 -1.109,0 -1.584,0c-2.219,-0.158 -4.438,0.476 -6.815,0.951c-1.584,0.317 -3.011,0.951 -4.595,1.268c-0.951,0.317 -1.427,1.268 -2.536,1.109l-0,-0.475c1.585,-1.902 3.486,-3.803 6.022,-3.962c2.853,-0.475 5.547,0 8.399,0.317c2.06,0.159 3.962,0.634 6.022,1.109c0.793,0 0.951,1.268 1.585,1.427c0.951,0.317 1.902,0 2.853,0.634c-0,-0.317 -0.159,-0.634 -0,-0.951c0.633,-0.634 1.426,0.158 2.06,-0.159c1.268,-0.792 -1.109,-2.218 -1.743,-3.328c-0,-0.158 0.158,-0.317 0.158,-0.317c1.268,1.11 2.219,2.377 3.803,3.17c0.793,0.317 2.695,0.792 2.378,-0.159c-0.793,-1.743 -2.378,-3.169 -3.645,-4.754l-0,-0.634c-0.317,0 -0.317,-0.158 -0.476,-0.317l-0,-0.634c-0.634,-0.317 -0.475,-0.951 -0.792,-1.426c-0.475,-0.792 -0.159,-1.902 -0.475,-2.853c-0.317,-0.95 -0.476,-1.743 -0.635,-2.694c-0.475,-2.694 -1.109,-5.071 -1.426,-7.607c-0.316,-3.01 1.744,-5.388 3.17,-8.082c1.109,-1.902 2.377,-3.803 4.437,-5.071c0.476,-1.902 1.744,-3.486 3.011,-5.071c1.266,-1.547 3.369,-2.489 4.892,-3.17c2.214,-0.989 4.211,-1.607 4.212,-1.608l-108.761,0l-0,83.864l77.022,0c3.017,-2.172 6.03,-3.204 10.242,-5.279c1.988,-0.98 6.538,-3.069 8.08,-4.611" style="fill:#000091;fill-rule:nonzero;"/><path d="M314.293,83.784l-90.214,-0c0.001,-0 0.17,0.028 0.857,0.396c0.732,0.393 1.68,0.9 2.275,1.212c1.163,0.608 2.294,1.37 3.022,2.535c0.317,0.476 0.793,1.427 0.476,2.061c-0.317,0.792 -0.476,2.06 -1.268,2.377c-0.951,0.475 -2.219,0.475 -3.328,0.317c-0.634,-0 -1.268,-0.159 -1.902,-0.317c2.377,0.951 4.596,2.06 6.181,4.279c0.158,0.317 0.792,0.475 1.426,0.475c0.159,-0 0.159,0.317 0.159,0.476c-0.318,0.317 -0.634,0.475 -0.476,0.95l0.476,-0c0.792,-0.317 0.633,-1.901 1.743,-1.426c0.792,0.476 1.109,1.585 0.634,2.377c-0.634,0.634 -1.268,1.11 -1.902,1.585c-0.158,0.317 -0.158,0.792 -0,1.109c0.475,0.634 0.634,1.268 0.792,1.902c0.476,1.109 0.634,2.377 1.11,3.486c0.634,2.378 1.267,4.755 1.109,7.132c-0,1.268 -0.634,2.377 -0.159,3.645c0.317,1.268 1.11,2.219 1.744,3.328c0.633,0.951 1.268,1.585 1.743,2.536c0.951,1.584 2.694,3.169 1.902,5.071c-0.476,1.109 -2.219,0.951 -3.328,1.585c-0.951,0.792 -0.159,2.06 0.316,2.852c0.793,1.427 -0.95,2.377 -2.06,2.853c0.317,0.475 0.951,0.317 1.11,0.634c0.158,0.792 0.95,1.267 0.475,2.06c-0.634,0.951 -2.535,1.426 -1.585,2.852c0.634,1.11 0.224,2.342 -0.158,3.487c-0.475,1.426 -1.743,2.06 -2.853,2.377c-0.951,0.317 -2.06,0.317 -3.011,0.158c-0.316,-0.158 -0.633,-0.316 -0.95,-0.316c-2.695,-0.318 -5.389,-1.11 -8.083,-1.11c-0.792,0.159 -1.585,0.317 -2.218,0.634c-0.716,0.526 -1.354,1.096 -1.919,1.697c-0.006,0.006 -0.012,0.013 -0.019,0.02c-0.118,0.126 -0.233,0.255 -0.345,0.384c-0.07,0.08 -0.137,0.161 -0.204,0.243c-0.046,0.054 -0.091,0.109 -0.135,0.164c-0.463,0.579 -0.878,1.19 -1.248,1.826c-0.023,0.04 -0.047,0.081 -0.07,0.121c-0.042,0.074 -0.082,0.148 -0.122,0.222c-0.521,0.963 -0.915,1.946 -1.2,2.908c-1.078,3.629 -0.607,6.742 0.15,7.499c0.21,0.21 5.23,1.76 8.727,3.315c1.641,0.73 2.788,1.293 3.741,1.893l88.589,-0l-0,-83.864Z" style="fill:#e1000f;fill-rule:nonzero;"/><path d="M229.445,114.378c0.634,0.158 1.585,0.158 1.585,0.475c-0.317,1.268 -2.22,1.585 -3.17,2.853l-0.476,0c-0.475,0.317 -0.317,1.11 -0.792,1.11c-0.476,-0.159 -0.952,0 -1.426,0.158c0.634,0.634 1.426,1.11 2.377,0.951c0.159,0 0.475,0.317 0.475,0.634c-0,0 0.158,0 0.317,-0.159c0.159,0 0.318,0 0.318,0.159l-0,0.634c-0.477,0.634 -1.269,0.316 -1.903,0.475c1.268,0.317 2.537,0.317 3.645,0c0.951,-0.316 -0,-1.902 0.635,-2.694c-0.317,0 -0,-0.475 -0.317,-0.475c0.317,-0.317 0.633,-0.793 0.95,-0.951c0.318,0 0.793,-0.159 0.951,-0.476c-0,-0.316 -0.633,-0.475 -0.475,-0.793c0.951,-0.633 1.743,-1.584 1.427,-2.535c-0.159,-0.475 -1.427,-0.475 -2.22,-0.792c-0.792,-0.317 -1.743,0 -2.693,0.158c-0.793,0 -1.586,0.476 -2.378,0.634c-1.109,0.317 -2.06,0.951 -3.011,1.585c1.11,-0.476 2.219,-0.634 3.486,-0.951c0.952,0 1.759,-0.234 2.695,0" style="fill:#9e9d9c;fill-rule:nonzero;"/><g><text x="78.297px" y="274.322px" style="font-family:'Helvetica';font-size:89px;fill:#1d1d1b;">M<tspan x="153.927px 180.147px 245.912px 272.132px 332.987px 388.844px 449.699px 515.465px " y="274.322px 274.322px 274.322px 274.322px 274.322px 274.322px 274.322px 274.322px ">INISTÈRE</tspan></text><text x="78.297px" y="367.152px" style="font-family:'Helvetica';font-size:89px;fill:#1d1d1b;">D<tspan x="145.855px 208.503px 224.88px 277.663px 335.443px 366.301px 423.951px 491.509px 554.157px 621.715px 684.363px 712.375px 770.026px 798.038px 870.55px " y="367.152px 367.152px 367.152px 367.152px 367.152px 367.152px 367.152px 367.152px 367.152px 367.152px 367.152px 367.152px 367.152px 367.152px 367.152px ">E LA TRANSITION</tspan></text><text x="78.297px" y="459.982px" style="font-family:'Helvetica';font-size:89px;fill:#1d1d1b;">É<tspan x="138.4px 203.414px 273.382px 323.621px 393.589px 463.557px 489.025px 558.994px 624.008px 684.111px " y="459.982px 459.982px 459.982px 459.982px 459.982px 459.982px 459.982px 459.982px 459.982px 459.982px ">COLOGIQUE,</tspan></text><text x="78.297px" y="552.812px" style="font-family:'Helvetica';font-size:89px;fill:#1d1d1b;">D<tspan x="143.971px 204.735px 224.88px 275.779px 331.675px 366.301px 427.064px 453.193px 523.821px 589.495px 615.624px 676.387px 737.151px 802.825px 863.589px 889.717px 945.483px 1006.25px " y="552.812px 552.812px 552.812px 552.812px 552.812px 552.812px 552.812px 552.812px 552.812px 552.812px 552.812px 552.812px 552.812px 552.812px 552.812px 552.812px 552.812px 552.812px ">E LA BIODIVERSITÉ,</tspan></text><text x="78.297px" y="645.642px" style="font-family:'Helvetica';font-size:89px;fill:#1d1d1b;">D<tspan x="143.377px 203.546px 224.88px 275.185px 330.487px 366.301px 421.473px 491.507px 556.587px 616.756px 662.064px 687.598px 696.491px 761.571px 821.74px 843.074px 893.379px 948.681px 984.495px 1059.44px 1119.61px " y="645.642px 645.642px 645.642px 645.642px 645.642px 645.642px 645.642px 645.642px 645.642px 645.642px 645.642px 645.642px 645.642px 645.642px 645.642px 645.642px 645.642px 645.642px 645.642px 645.642px 645.642px ">E LA FORÊT, DE LA MER</tspan></text><text x="78.297px" y="738.472px" style="font-family:'Helvetica';font-size:89px;fill:#1d1d1b;">E<tspan x="138.467px 192.076px 212.242px 277.323px 337.494px 358.825px 409.131px 464.434px 500.246px 560.416px 620.587px 685.668px 750.749px " y="738.472px 738.472px 738.472px 738.472px 738.472px 738.472px 738.472px 738.472px 738.472px 738.472px 738.472px 738.472px 738.472px ">T DE LA PÊCHE</tspan></text></g></g></svg>