<svg data-name="Layer 1" xmlns="http://www.w3.org/2000/svg" width="790.443" height="653.661" viewBox="0 0 790.443 653.661"><ellipse cx="568.694" cy="642.656" rx="221.749" ry="11.005" fill="#d0cde1"/><path d="M280.416 83.108a144.062 144.062 0 00-232.56-21.483l-9.271-8.102A156.35 156.35 0 01291.01 76.837z" fill="#d0cde1"/><path d="M286.218 243.5L276 236.63a144.133 144.133 0 004.416-153.522l10.595-6.271a156.447 156.447 0 01-4.793 166.663z" fill="#6c63ff"/><path d="M39.868 260.653a156.341 156.341 0 01-1.283-207.13l9.271 8.102a144.03 144.03 0 001.182 190.813z" fill="#3f3d56"/><path d="M156.366 312.731a156.605 156.605 0 01-116.498-52.078l9.17-8.215A144.057 144.057 0 00276 236.63l10.218 6.87a156.262 156.262 0 01-129.852 69.231z" fill="#6c63ff"/><path fill="#3f3d56" d="M431.844 319.583H263.532v-73.799h2.59v71.209h165.722v2.59z"/><circle cx="264.827" cy="257.742" r="14.242" fill="#3f3d56"/><path fill="#6c63ff" d="M391.132 342.509h77.683v2.589h-77.683zm0 7.769h77.683v2.589h-77.683zm0 7.768h77.683v2.589h-77.683z"/><path d="M551.934 406.666l-8.337 28.676s-.757 14.32 19.047 13.382l-2.4-13.138 9.361-24.02zm25.983-166.473l8.527 26.646-12.791 23.449v26.647h17.054l23.449-55.425-12.79-27.713-23.449 6.396z" fill="#a0616a"/><path fill="#d0cde1" d="M593.905 300.947h-23.449l-2.132 30.91-3.198 36.239 38.372-9.592-9.593-57.557z"/><path fill="#a0616a" d="M553.402 455.497l-20.251 62.886-21.318 92.73 20.252 6.396 30.91-87.401 22.383-46.898 5.329 52.227 7.461 86.335 20.252 3.198v-91.665l13.856-77.808h-78.874z"/><path d="M620.018 613.778l-23.449-5.33-14.922 20.252s-31.598 15.335-19.185 15.988c20.251 1.066 60.221 0 60.221-2.131s-2.665-28.779-2.665-28.779zm-85.268 0l-23.45-5.33-14.922 20.252s-31.598 15.335-19.185 15.988c20.251 1.066 60.221 0 60.221-2.131s-2.665-28.779-2.665-28.779zm75.143-263.801l-47.964 7.46-13.2 102.324s10.002 9.592 35.583 3.197v3.198s38.371-18.12 47.964 0l.657-2.846a153.47 153.47 0 00-6.365-90.663c-5.184-13.177-11.08-23.47-16.675-22.67z" fill="#2f2e41"/><circle cx="582.713" cy="220.474" r="26.647" fill="#a0616a"/><path d="M614.156 247.654l-31.976 63.952s-5.329 23.449 8.527 47.963c7.84 13.87 26.683 43.157 41.569 65.977 11.425 17.513-3.716 31.217-3.716 31.217l54.877-7.66-33.041-99.126-4.264-85.27-22.383-6.395z" fill="#575a89"/><path d="M632.276 360.635L607.76 377.69s-9.593 10.659 6.395 22.383l6.395-11.724 22.384-12.79z" fill="#a0616a"/><path d="M548.073 462.958l38.904-196.652-14.919 8.951a20.586 20.586 0 00-9.926 15.973z" fill="#575a89"/><path fill="#2f2e41" opacity=".2" d="M583.779 462.425l1.066 22.384-3.198 6.395 2.132-28.779z"/><path d="M632.276 265.773h13.856a18.19 18.19 0 019.593 11.725c2.132 8.527 9.593 45.832 9.593 45.832l4.263 21.317-26.646 37.306-15.988-19.186 13.856-20.251-20.252-50.096s-3.197-21.317 11.725-26.647z" fill="#575a89"/><path fill="#2f2e41" opacity=".2" d="M625.077 303.614l15.193 38.369-13.856 20.251 10.658-20.251-11.995-38.369z"/><ellipse cx="593.905" cy="225.803" rx="2.665" ry="4.263" fill="#a0616a"/><path d="M607.767 241.107a33.672 33.672 0 01-21.62-3.2l-6.453-3.337-1.364-7.348a4.562 4.562 0 00-7.236-2.806s-24.898-25.592-3.385-36.302 25.662-6.445 25.662-6.445-5.61-39.246 24.386-31.388 21.722 44.647-1.599 45.621c0 0 19.914 34.912-8.39 45.205z" fill="#2f2e41"/><path d="M597.06 184.246s-18.63-34.995 12.25-37.813a28.792 28.792 0 0113.245 1.643c-4.177-2.317-9.492-3.514-15.975-2.923-30.88 2.819-12.25 37.814-12.25 37.814z" fill="#2f2e41"/><path d="M739.956 638.262s10.2-34.317-28.587-53.855z" fill="#d0cde1"/><path d="M741.227 638.445s4.043-33.869 49.216-35.992z" fill="#d0cde1"/></svg>